<?xml version="1.0" encoding="utf-8"?>
<!-- Generator: IcoMoon.io  -->
<!DOCTYPE svg PUBLIC "-//W3C//DTD SVG 1.1//EN" "http://www.w3.org/Graphics/SVG/1.1/DTD/svg11.dtd">
<svg width="496" height="304" viewBox="0 0 496 304" data-du="" style="margin-left: 8px; margin-top: 8px;" data-tags="rss" xmlns="http://www.w3.org/2000/svg" fill="#000000"><path d="M 85.184,469.331c-46.998,0-85.183,38.334-85.183,85.047c0,46.971, 38.188,84.876, 85.183,84.876
		c 47.166,0, 85.309-37.905, 85.309-84.876C 170.491,507.665, 132.353,469.331, 85.184,469.331zM 0.098,217.456l0,122.661 c 79.865,0, 154.974,31.233, 211.536,87.82c 56.49,56.449, 87.676,131.898, 87.676,212.063l 123.201,0 
		C 422.51,406.987, 232.96,217.456, 0.098,217.456zM 0.242,0l0,122.722 c 284.864,0, 516.722,232.084, 516.722,517.278L 640,640 C 640,287.206, 352.966,0, 0.242,0z" transform="scale(0.025 0.025)"></path><path d="M 32.528,3.81c 0.434,0.234, 6.444,3.461, 6.668,3.581C 39.419,7.511, 39.708,7.569, 40,7.569c 0.292,0, 0.582-0.058, 0.805-0.179
		c 0.224-0.12, 6.233-3.348, 6.667-3.581C 47.907,3.576, 48.317,2.844, 47.52,2.844L 32.481,2.844 C 31.684,2.844, 32.093,3.576, 32.528,3.81z M 47.656,5.588
		c-0.493,0.258-6.548,3.423-6.851,3.581S 40.292,9.348, 40,9.348c-0.292,0-0.502-0.020-0.804-0.179S 32.837,5.844, 32.345,5.588
		C 31.997,5.406, 32,5.619, 32,5.782c0,0.164,0,6.52,0,6.52C 32,12.676, 32.497,13.156, 32.882,13.156l 14.237,0 c 0.386,0, 0.881-0.48, 0.881-0.852
		c0,0,0-6.356,0-6.52C 48,5.619, 48.004,5.406, 47.656,5.588z"></path><path d="M 70.606,0.802L 69.538,0.802L 68.888,3.524L 68.821,3.524L 68.139,0.802L 67.080,0.802L 67.080,0.803L 68.331,4.913L 68.331,7.611L 69.382,7.611L 69.382,4.786 	zM 70.926,7.359c 0.244,0.251, 0.57,0.378, 0.976,0.379l 0.009,0 c 0.422-0.001, 0.754-0.124, 0.995-0.367
		c 0.241-0.244, 0.362-0.581, 0.362-1.011l0-2.596 c0-0.383-0.123-0.695-0.369-0.938c-0.247-0.243-0.563-0.364-0.95-0.364
		c-0.425,0-0.763,0.115-1.013,0.346c-0.252,0.231-0.378,0.54-0.378,0.929l 0,2.604
		C 70.559,6.767, 70.682,7.107, 70.926,7.359L 70.926,7.359z M 71.52,3.699L 71.52,3.699
		c0-0.11, 0.036-0.199, 0.107-0.266c 0.071-0.067, 0.164-0.1, 0.277-0.1c 0.123,0, 0.223,0.033, 0.299,0.1
		c 0.076,0.068, 0.114,0.157, 0.114,0.266l0,2.735 c0,0.135-0.037,0.24-0.112,0.317c-0.074,0.077-0.175,0.116-0.302,0.116
		c-0.123,0-0.218-0.038-0.285-0.113c-0.066-0.076-0.099-0.182-0.099-0.32L 71.52,3.699 zM 75.794,2.588l0,3.813 c-0.088,0.109-0.184,0.199-0.289,0.27c-0.105,0.071-0.191,0.106-0.26,0.106
		c-0.088,0-0.151-0.027-0.19-0.080c-0.039-0.053-0.058-0.139-0.058-0.258L 74.997,2.588 l-0.934,0 l0,4.2 
		c 0,0.298, 0.055,0.522, 0.164,0.671c 0.109,0.149, 0.272,0.224, 0.488,0.224c 0.175,0, 0.356-0.053, 0.542-0.16
		c 0.186-0.107, 0.365-0.263, 0.537-0.467l0,0.554 l 0.933,0 L 76.727,2.588 L 75.794,2.588 zM 69.818,9.542L 67.611,9.542 l0,0.676 l 0.744,0 l0,3.98 l 0.719,0 L 69.074,10.218 l 0.744,0 L 69.818,9.542 L 69.818,9.542z M 70.993,13.371l0-2.607 
		l 0.639,0 l0,3.434 l-0.639,0 l0-0.379 c-0.118,0.14-0.24,0.246-0.367,0.319c-0.127,0.073-0.251,0.109-0.371,0.109
		c-0.148,0-0.259-0.051-0.333-0.153c-0.075-0.102-0.113-0.256-0.113-0.46l0-2.87 l 0.638,0 l0,2.632 c0,0.082, 0.013,0.141, 0.040,0.177
		c 0.027,0.037, 0.070,0.055, 0.13,0.055c 0.047,0, 0.106-0.024, 0.178-0.072C 70.867,13.507, 70.933,13.445, 70.993,13.371
		L 70.993,13.371L 70.993,13.371z M 73.467,10.72L 73.467,10.72c-0.099,0-0.197,0.027-0.294,0.082
		c-0.097,0.055-0.188,0.134-0.274,0.239l0-1.499 L 72.254,9.542 l0,4.655 l 0.644,0 l0-0.264 c 0.084,0.104, 0.175,0.182, 0.273,0.232
		c 0.098,0.051, 0.209,0.076, 0.334,0.076c 0.189,0, 0.334-0.065, 0.434-0.194c 0.1-0.13, 0.15-0.317, 0.15-0.561l0-1.905 
		c0-0.281-0.053-0.494-0.16-0.641C 73.823,10.794, 73.669,10.72, 73.467,10.72L 73.467,10.72z M 73.432,13.393
		L 73.432,13.393c0,0.11-0.019,0.189-0.055,0.237c-0.037,0.048-0.094,0.072-0.172,0.072c-0.054,0-0.105-0.012-0.154-0.037
		c-0.049-0.024-0.099-0.065-0.152-0.121l0-2.14 c 0.044-0.047, 0.088-0.082, 0.132-0.105c 0.044-0.022, 0.089-0.034, 0.135-0.034
		c 0.087,0, 0.152,0.030, 0.198,0.090c 0.046,0.060, 0.068,0.148, 0.068,0.264L 73.432,13.393 L 73.432,13.393z M 76.449,12.561L 76.449,12.561
		L 76.449,11.687 c0-0.326-0.078-0.576-0.235-0.749c-0.157-0.174-0.382-0.261-0.674-0.261c-0.285,0-0.519,0.094-0.699,0.281
		c-0.18,0.188-0.27,0.431-0.27,0.729l0,1.542 c0,0.33, 0.082,0.59, 0.246,0.779c 0.165,0.188, 0.39,0.283, 0.675,0.283
		c 0.318,0, 0.557-0.089, 0.717-0.267c 0.16-0.178, 0.24-0.443, 0.24-0.795l0-0.258 l-0.657,0 l0,0.239 c0,0.202-0.021,0.333-0.063,0.392
		c-0.042,0.059-0.116,0.089-0.222,0.089c-0.101,0-0.173-0.035-0.215-0.105c-0.042-0.070-0.064-0.195-0.064-0.376l0-0.648 L 76.449,12.561 
		L 76.449,12.561z M 75.228,11.68L 75.228,11.68c0-0.144, 0.023-0.247, 0.067-0.309c 0.044-0.062, 0.117-0.093, 0.219-0.093
		c 0.097,0, 0.168,0.031, 0.212,0.093c 0.044,0.062, 0.066,0.165, 0.066,0.309l0,0.348 l-0.564,0 L 75.228,11.68 z"></path><path d="M 106.471,7.455c-0.082-1.655-1.255-2.65-2.673-2.65l-0.054,0 c-1.636,0-2.543,1.347-2.543,2.876
	c0,1.712, 1.098,2.794, 2.537,2.794c 1.605,0, 2.66-1.23, 2.736-2.686L 106.471,7.455z M 103.752,3.324
	c 1.093,0, 2.121,0.506, 2.876,1.298l0,0.003 c0-0.38, 0.244-0.667, 0.584-0.667l 0.086,0c 0.531,0, 0.64,0.525, 0.64,0.692
	l 0.003,5.91c-0.038,0.387, 0.382,0.587, 0.614,0.338c 0.907-0.975, 1.992-5.014-0.564-7.354
	c-2.382-2.182-5.577-1.822-7.277-0.596c-1.807,1.304-2.963,4.19-1.84,6.901
	c 1.224,2.957, 4.727,3.839, 6.809,2.959c 1.054-0.445, 1.541,1.046, 0.446,1.534c-1.654,0.737-6.259,0.663-8.41-3.236
	c-1.453-2.633-1.376-7.266, 2.479-9.666c 2.948-1.837, 6.836-1.328, 9.18,1.234
	c 2.45,2.679, 2.307,7.694-0.083,9.644c-1.083,0.886-2.691,0.024-2.681-1.267l-0.011-0.422
	c-0.754,0.783-1.757,1.24-2.851,1.24c-2.16,0-4.061-1.989-4.061-4.249
	C 99.692,5.335, 101.592,3.324, 103.752,3.324L 103.752,3.324"></path><path d="M 140.443,8.568c-0.219-0.44-0.825-0.805-1.631-0.171
	c-1.089,0.858-2.838,0.858-2.838,0.858s-1.749,0-2.838-0.858c-0.806-0.635-1.412-0.269-1.631,0.171
	c-0.382,0.766, 0.050,1.137, 1.022,1.761c 0.831,0.533, 1.973,0.733, 2.71,0.807l-0.615,0.615
	c-0.867,0.867-1.704,1.704-2.284,2.284c-0.347,0.347-0.347,0.91,0,1.257l 0.105,0.105c 0.173,0.173, 0.4,0.26, 0.627,0.26
	l 0.003,0 c 0.227,0, 0.454-0.087, 0.627-0.26l 2.284-2.284c 0.867,0.867, 1.704,1.704, 2.284,2.284
	c 0.347,0.347, 0.91,0.347, 1.257,0l 0.105-0.105c 0.347-0.347, 0.347-0.91,0-1.257l-2.284-2.284l-0.617-0.617
	c 0.738-0.076, 1.867-0.276, 2.691-0.805C 140.393,9.705, 140.824,9.334, 140.443,8.568L 140.443,8.568z M 135.974,2.311
	c 1.053,0, 1.907,0.854, 1.907,1.907c0,1.053-0.854,1.907-1.907,1.907s-1.907-0.854-1.907-1.907S 134.921,2.311, 135.974,2.311
	L 135.974,2.311z M 135.974,8.095c 2.141,0, 3.876-1.736, 3.876-3.876c0-2.141-1.736-3.876-3.876-3.876
	s-3.876,1.736-3.876,3.876C 132.098,6.359, 133.833,8.095, 135.974,8.095L 135.974,8.095z"></path><path d="M 163.509,2.055l 5.251,0 c 1.728,0, 3.199,0.846, 3.197,2.558
	c -0.001,1.429 -0.519,1.985 -1.582,2.614c 0.091,0.075, 0.7,0.257, 0.905,0.357c 0.328,0.161, 0.52,0.325, 0.736,0.544
	c 0.603,0.613, 0.716,1.174, 0.716,2.136c0,2.232 -2.159,3.354 -4.238,3.354l -5.007,0 L 163.509,2.055L 163.509,2.055z
	 M 166.363,5.093l 0,1.502c 1.352,0, 2.623,0.178, 2.623-1.288c0-1.358 -1.438-1.134 -2.624-1.134L 166.363,5.093
	L 166.363,5.093z M 166.362,11.489c 1.482,0, 3.313,0.244, 3.345-1.438c 0.034-1.755 -1.881-1.438 -3.344-1.438L 166.362,11.489z"></path><path d="M 204.714,12.307c-0.024,0-0.048,0-0.072,0c-0.769-0.128-1.293-0.68-1.74-1.19
	c-0.252-0.289-0.639-0.942-1.101-0.866c-0.655,0.107-0.33,1.245-0.604,1.732c-0.221,0.394-1.162,0.323-1.811,0.252
	c-2.048-0.221-3.095-1.332-4.012-2.526c-0.981-1.276-1.745-2.611-2.45-4.078c-0.229-0.475-0.533-1-0.533-1.588
	c 0.332-0.275, 0.874-0.18, 1.421-0.18c 0.463,0, 1.187-0.104, 1.527,0.072c 0.202,0.104, 0.405,0.657, 0.568,1.010
	c 0.374,0.81, 0.718,1.393, 1.172,2.057c 0.197,0.288, 0.499,0.83, 0.852,0.758c 0.343-0.070, 0.376-0.929, 0.391-1.479
	c 0.017-0.624-0.001-1.401-0.177-1.732c-0.167-0.313-0.472-0.319-0.781-0.505c 0.257-0.525, 0.962-0.578, 1.811-0.578
	c 0.714,0, 1.71-0.080, 1.988,0.397c 0.283,0.486, 0.089,1.363, 0.071,2.020c-0.020,0.739-0.146,1.501, 0.356,1.841
	c 0.385-0.042, 0.592-0.424, 0.816-0.722c 0.49-0.652, 0.793-1.217, 1.172-2.057c 0.155-0.345, 0.322-0.939, 0.604-1.047
	c 0.429-0.165, 1.113-0.036, 1.74-0.036c 0.515,0, 1.433-0.144, 1.598,0.217c 0.137,0.299-0.267,1.055-0.391,1.263
	c-0.476,0.792-0.942,1.297-1.456,1.985c-0.206,0.275-0.629,0.715-0.604,1.155c 0.019,0.334, 0.349,0.59, 0.604,0.83
	c 0.551,0.52, 0.938,0.899, 1.385,1.479c 0.168,0.219, 0.532,0.692, 0.497,0.974C 207.446,12.647, 205.403,12.095, 204.714,12.307
	z"></path><path d="M 236,3.303l-2.285,0 c-0.27,0-0.572,0.355-0.572,0.831L 233.143,5.784 L 236,5.784 l0,2.352 l-2.857,0 L 233.143,15.2 L 230.446,15.2 l0-7.063 L 228,8.137 L 228,5.784 l 2.446,0 L 230.446,4.4 
	c0-1.985, 1.378-3.6, 3.269-3.6L 236,0.8 L 236,3.303 z"></path><path d="M 271.36,3.434c-0.542,0.241-1.124,0.402-1.735,0.476c 0.624-0.374, 1.103-0.966, 1.328-1.67c-0.583,0.346-1.23,0.598-1.917,0.733
	c-0.551-0.587-1.336-0.954-2.205-0.954c-1.668,0-3.020,1.352-3.020,3.019c0,0.237, 0.026,0.467, 0.078,0.688
	c-2.51-0.126-4.735-1.328-6.224-3.155C 257.405,3.017, 257.255,3.536, 257.255,4.090c0,1.048, 0.534,1.972, 1.344,2.514
	c-0.495-0.016-0.961-0.151-1.368-0.378c0,0.013,0,0.025,0,0.038c0,1.463, 1.042,2.683, 2.422,2.962c-0.253,0.069-0.52,0.106-0.796,0.106
	c-0.194,0-0.383-0.018-0.568-0.054c 0.384,1.2, 1.5,2.073, 2.821,2.097c-1.034,0.81-2.335,1.293-3.75,1.293
	c-0.244,0-0.484-0.014-0.72-0.042c 1.336,0.857, 2.923,1.357, 4.63,1.357c 5.554,0, 8.592-4.602, 8.592-8.593
	c0-0.13-0.002-0.261-0.009-0.39C 270.443,4.572, 270.954,4.040, 271.36,3.434z"></path><path d="M 292.498,3.058c0,0.756-0.558,1.368-1.476,1.368c-0.864,0-1.422-0.612-1.422-1.368c0-0.774, 0.577-1.368, 1.459-1.368
		S 292.481,2.284, 292.498,3.058z M 289.673,14.31L 289.673,5.507 L 292.409,5.507 l0,8.804 L 289.673,14.31 zM 294.047,8.315c0-1.098-0.036-2.016-0.073-2.808l 2.377,0 l 0.127,1.225l 0.054,0 c 0.36-0.577, 1.242-1.422, 2.719-1.422
		c 1.8,0, 3.15,1.206, 3.15,3.799l0,5.203 l-2.736,0 l0-4.879 c0-1.134-0.397-1.909-1.387-1.909c-0.756,0-1.205,0.522-1.404,1.026
		c-0.073,0.18-0.090,0.432-0.090,0.684l0,5.077 L 294.047,14.311 L 294.047,8.315 z"></path><path d="M 328.735,1c0,0-3.14,0-4.187,0C 322.672,1, 320.906,2.422, 320.906,4.069c0,1.683, 1.279,3.042, 3.189,3.042
		c 0.133,0, 0.262-0.003, 0.388-0.012c-0.124,0.237-0.213,0.505-0.213,0.782c0,0.468, 0.252,0.847, 0.57,1.157
		c-0.24,0-0.473,0.007-0.726,0.007C 321.789,9.044, 320,10.525, 320,12.060c0,1.512, 1.962,2.458, 4.286,2.458
		c 2.65,0, 4.114-1.504, 4.114-3.016c0-1.213-0.358-1.939-1.464-2.721c-0.378-0.268-1.102-0.919-1.102-1.302
		c0-0.449, 0.128-0.67, 0.804-1.198c 0.692-0.541, 1.182-1.302, 1.182-2.186c0-1.053-0.469-2.080-1.35-2.418l 1.327,0 
		L 328.735,1z M 327.273,11.242c 0.033,0.14, 0.051,0.284, 0.051,0.432c0,1.222-0.787,2.177-3.046,2.177
		c-1.607,0-2.767-1.017-2.767-2.239c0-1.198, 1.439-2.194, 3.046-2.177c 0.375,0.004, 0.725,0.064, 1.042,0.167
		C 326.471,10.208, 327.097,10.55, 327.273,11.242z M 324.7,6.684c-1.079-0.032-2.104-1.207-2.29-2.623
		c-0.186-1.417, 0.537-2.501, 1.615-2.469c 1.078,0.032, 2.104,1.169, 2.29,2.585
		C 326.502,5.594, 325.778,6.716, 324.7,6.684zM 333,4L 333,1L 332,1L 332,4L 329,4L 329,5L 332,5L 332,8L 333,8L 333,5L 336,5L 336,4 	z"></path><path d="M 361.027,12.135c 0.097-0.321, 0.353-0.651, 0.484-1.050
	c 0.179-0.544, 0.142-0.746, 0.154-1.329c 1.262,0.264, 1.459,0.115, 2.465-0.327c 0.129,0.172, 0.516,2.991, 0.549,3.428
	c-0.141,0.089-0.279,0.125-0.423,0.231c-0.186,0.137-0.177,0.211-0.338,0.342L 361.027,12.135L 361.027,12.135z M 357.885,5.083
	c-0.273,0.255-1.354,1.245-1,1.732c 0.436,0.599, 0.842,1.113, 1.271,1.697l 2.375,3.181
	c 0.069,0.088, 0.092,0.113, 0.159,0.174c 0.010-0.009, 0.023-0.022, 0.030-0.029l 0.056-0.058c 0.007-0.009, 0.018-0.021, 0.025-0.030
	c 0.059-0.073, 0.018-0.020, 0.067-0.094c 0.051-0.078, 0.076-0.124, 0.116-0.203c 0.081-0.158, 0.142-0.318, 0.192-0.495
	c 0.29-1.020, 0.023-1.484-0.417-2.087l-1.719-2.303C 358.835,6.292, 358.055,5.201, 357.885,5.083L 357.885,5.083z
	 M 358.172,4.792c 0.059,0.216, 0.96,1.357, 1.144,1.606c 0.376,0.508, 0.741,0.998, 1.13,1.516
	c 0.273,0.364, 0.854,1.307, 1.25,1.447c 0.774,0.274, 1.591,0.12, 2.209-0.222c-0.152-0.314-2.727-3.686-3.115-4.215
	l-0.63-0.854C 359.822,3.73, 358.433,4.697, 358.172,4.792L 358.172,4.792z M 359.182,3.549
	c-0.294,0.114-0.973,0.46-1.154,0.492c-0.103,0.153-0.355,0.305-0.501,0.414c-0.575,0.428-0.794,0.864-1.13,1.41
	l-0.1,0.131c-0.234-0.245-0.467-0.557-0.66-0.865c 0.139-0.769, 1.188-1.724, 1.712-2.029
	c 0.309-0.185, 0.797-0.463, 1.211-0.533l 0.383-0.088c 0.147,0.139, 0.692,0.833, 0.71,0.975L 359.182,3.549L 359.182,3.549z
	 M 355.151,4.439c-0.228-1.353, 1.893-3.099, 3.317-2.537c-0.168,0.115-1.737,0.39-2.746,1.7
	C 355.511,3.877, 355.238,4.394, 355.151,4.439L 355.151,4.439z M 360.016,12.42c 0.303,0.416, 0.412,0.376, 1.048,0.648
	c 1.418,0.605, 3.334,1.389, 4.69,2.022c-0.105-1.544-0.49-4.112-0.716-5.735
	c-0.087-0.623-5.53-7.809-6.016-8.167c-1.678-1.234-5.967,1.899-4.459,3.928
	c 0.369,0.496, 0.667,0.898, 1.040,1.395C 360.74,13.344, 355.97,6.866, 360.016,12.42z"></path><path d="M 390.857,9.143l0,3.429 q0,0.464 -0.339,0.804t-0.804,0.339l-4.571,0 q-0.464,0 -0.804-0.339t-0.339-0.804l0-3.429 q0-0.464 0.339-0.804t 0.804-0.339l 4.571,0 q 0.464,0 0.804,0.339t 0.339,0.804zM 390.857,2.286l0,3.429 q0,0.464 -0.339,0.804t-0.804,0.339l-4.571,0 q-0.464,0 -0.804-0.339t-0.339-0.804l0-3.429 q0-0.464 0.339-0.804t 0.804-0.339l 4.571,0 q 0.464,0 0.804,0.339t 0.339,0.804zM 398.857,9.143l0,3.429 q0,0.464 -0.339,0.804t-0.804,0.339 l-4.571,0 q-0.464,0 -0.804-0.339t-0.339-0.804l0-3.429 q0-0.464 0.339-0.804t 0.804-0.339l 4.571,0 q 0.464,0 0.804,0.339t 0.339,0.804zM 398.857,2.286l0,3.429 q0,0.464 -0.339,0.804t-0.804,0.339l-4.571,0 q-0.464,0 -0.804-0.339t-0.339-0.804l0-3.429 q0-0.464 0.339-0.804t 0.804-0.339l 4.571,0 q 0.464,0 0.804,0.339t 0.339,0.804z"></path><path d="M 420.571,11.143l0,1.714 q0,0.357 -0.25,0.607t-0.607,0.25l-2.857,0 q-0.357,0 -0.607-0.25t-0.25-0.607l0-1.714 q0-0.357 0.25-0.607t 0.607-0.25l 2.857,0 q 0.357,0 0.607,0.25t 0.25,0.607zM 420.571,6.571l0,1.714 q0,0.357 -0.25,0.607t-0.607,0.25l-2.857,0 q-0.357,0 -0.607-0.25t-0.25-0.607l0-1.714 q0-0.357 0.25-0.607t 0.607-0.25l 2.857,0 q 0.357,0 0.607,0.25t 0.25,0.607zM 426.286,11.143l0,1.714 q0,0.357 -0.25,0.607t-0.607,0.25l-2.857,0  q-0.357,0 -0.607-0.25t-0.25-0.607l0-1.714 q0-0.357 0.25-0.607t 0.607-0.25l 2.857,0 q 0.357,0 0.607,0.25t 0.25,0.607zM 420.571,2l0,1.714 q0,0.357 -0.25,0.607t-0.607,0.25l-2.857,0 q-0.357,0 -0.607-0.25t-0.25-0.607l0-1.714 q0-0.357 0.25-0.607t 0.607-0.25l 2.857,0 q 0.357,0 0.607,0.25t 0.25,0.607zM 426.286,6.571l0,1.714 q0,0.357 -0.25,0.607t-0.607,0.25l-2.857,0 q-0.357,0 -0.607-0.25t-0.25-0.607l0-1.714 q0-0.357 0.25-0.607t 0.607-0.25 l 2.857,0 q 0.357,0 0.607,0.25t 0.25,0.607zM 432,11.143l0,1.714 q0,0.357 -0.25,0.607t-0.607,0.25l-2.857,0 q-0.357,0 -0.607-0.25t-0.25-0.607l0-1.714 q0-0.357 0.25-0.607t 0.607-0.25l 2.857,0 q 0.357,0 0.607,0.25t 0.25,0.607zM 426.286,2l0,1.714 q0,0.357 -0.25,0.607t-0.607,0.25l-2.857,0 q-0.357,0 -0.607-0.25t-0.25-0.607l0-1.714 q0-0.357 0.25-0.607t 0.607-0.25l 2.857,0 q 0.357,0 0.607,0.25t 0.25,0.607zM 432,6.571l0,1.714  q0,0.357 -0.25,0.607t-0.607,0.25l-2.857,0 q-0.357,0 -0.607-0.25t-0.25-0.607l0-1.714 q0-0.357 0.25-0.607t 0.607-0.25l 2.857,0 q 0.357,0 0.607,0.25t 0.25,0.607zM 432,2l0,1.714 q0,0.357 -0.25,0.607t-0.607,0.25l-2.857,0 q-0.357,0 -0.607-0.25t-0.25-0.607l0-1.714 q0-0.357 0.25-0.607t 0.607-0.25l 2.857,0 q 0.357,0 0.607,0.25t 0.25,0.607z"></path><path d="M 462.92,5.054q0,0.357 -0.25,0.607l-6.464,6.464l-1.214,1.214q-0.25,0.25 -0.607,0.25t-0.607-0.25l-1.214-1.214l-3.232-3.232q-0.25-0.25 -0.25-0.607t 0.25-0.607l 1.214-1.214q 0.25-0.25 0.607-0.25t 0.607,0.25l 2.625,2.634l 5.857-5.866q 0.25-0.25 0.607-0.25t 0.607,0.25l 1.214,1.214q 0.25,0.25 0.25,0.607z"></path><path d="M 491.589,11.804q0,0.357 -0.25,0.607l-1.214,1.214q-0.25,0.25 -0.607,0.25t-0.607-0.25l-2.625-2.625l-2.625,2.625q-0.25,0.25 -0.607,0.25t-0.607-0.25l-1.214-1.214q-0.25-0.25 -0.25-0.607t 0.25-0.607l 2.625-2.625l-2.625-2.625q-0.25-0.25 -0.25-0.607t 0.25-0.607l 1.214-1.214q 0.25-0.25 0.607-0.25t 0.607,0.25l 2.625,2.625l 2.625-2.625q 0.25-0.25 0.607-0.25t 0.607,0.25l 1.214,1.214q 0.25,0.25 0.25,0.607 t-0.25,0.607l-2.625,2.625l 2.625,2.625q 0.25,0.25 0.25,0.607z"></path><path d="M 9.143,39.143l0,0.571 q0,0.116 -0.085,0.201t-0.201,0.085l-2,0 l0,2 q0,0.116 -0.085,0.201t-0.201,0.085l-0.571,0 q-0.116,0 -0.201-0.085t-0.085-0.201l0-2 l-2,0 q-0.116,0 -0.201-0.085t-0.085-0.201l0-0.571 q0-0.116 0.085-0.201t 0.201-0.085l 2,0 l0-2 q0-0.116 0.085-0.201t 0.201-0.085l 0.571,0 q 0.116,0 0.201,0.085t 0.085,0.201l0,2 l 2,0  q 0.116,0 0.201,0.085t 0.085,0.201zM 10.286,39.429q0-1.652 -1.174-2.826t-2.826-1.174t-2.826,1.174t-1.174,2.826t 1.174,2.826t 2.826,1.174t 2.826-1.174t 1.174-2.826zM 14.857,46.857q0,0.473 -0.335,0.808t-0.808,0.335q-0.482,0 -0.804-0.339l-3.063-3.054q-1.598,1.107 -3.563,1.107q-1.277,0 -2.442-0.496 t-2.009-1.339t-1.339-2.009t-0.496-2.442t 0.496-2.442t 1.339-2.009t 2.009-1.339t 2.442-0.496t 2.442,0.496t 2.009,1.339t 1.339,2.009t 0.496,2.442q0,1.964 -1.107,3.563l 3.063,3.063q 0.33,0.33 0.33,0.804z"></path><path d="M 41.143,39.143l0,0.571 q0,0.116 -0.085,0.201t-0.201,0.085l-5.143,0 q-0.116,0 -0.201-0.085t-0.085-0.201l0-0.571 q0-0.116 0.085-0.201t 0.201-0.085l 5.143,0 q 0.116,0 0.201,0.085t 0.085,0.201zM 42.286,39.429q0-1.652 -1.174-2.826t-2.826-1.174t-2.826,1.174t-1.174,2.826t 1.174,2.826t 2.826,1.174t 2.826-1.174t 1.174-2.826z M 46.857,46.857q0,0.473 -0.335,0.808t-0.808,0.335q-0.482,0 -0.804-0.339l-3.063-3.054q-1.598,1.107 -3.563,1.107q-1.277,0 -2.442-0.496t-2.009-1.339t-1.339-2.009t-0.496-2.442t 0.496-2.442t 1.339-2.009t 2.009-1.339t 2.442-0.496t 2.442,0.496t 2.009,1.339t 1.339,2.009t 0.496,2.442q0,1.964 -1.107,3.563l 3.063,3.063q 0.33,0.33 0.33,0.804z "></path><path d="M 76.571,40.857l0,4.286 q0,0.232 -0.17,0.402t-0.402,0.17l-3.429,0 l0-3.429 l-2.286,0 l0,3.429 l-3.429,0 q-0.232,0 -0.402-0.17t-0.17-0.402l0-4.286 q0-0.009 0.004-0.027t 0.004-0.027l 5.134-4.232l 5.134,4.232q 0.009,0.018 0.009,0.054zM 78.563,40.241l-0.554,0.661q-0.071,0.080 -0.188,0.098l-0.027,0 q-0.116,0 -0.188-0.063l-6.179-5.152l-6.179,5.152q-0.107,0.071 -0.214,0.063q-0.116-0.018 -0.188-0.098l-0.554-0.661q-0.071-0.089 -0.063-0.21t 0.098-0.192 l 6.42-5.348q 0.286-0.232 0.679-0.232t 0.679,0.232l 2.179,1.821l0-1.741 q0-0.125 0.080-0.205t 0.205-0.080l 1.714,0 q 0.125,0 0.205,0.080t 0.080,0.205l0,3.643 l 1.955,1.625q 0.089,0.071 0.098,0.192t-0.063,0.21z"></path><path d="M 102.857,37.714q0-0.946 -0.67-1.616t-1.616-0.67t-1.616,0.67t-0.67,1.616t 0.67,1.616t 1.616,0.67t 1.616-0.67t 0.67-1.616zM 105.143,37.714q0,0.973 -0.295,1.598l-3.25,6.911q-0.143,0.295 -0.424,0.464t-0.603,0.17t-0.603-0.17t-0.415-0.464l-3.259-6.911q-0.295-0.625 -0.295-1.598q0-1.893 1.339-3.232t 3.232-1.339t 3.232,1.339t 1.339,3.232z"></path><path d="M 134.625,46.045l-5.821-5.813q-0.33-0.33 -0.33-0.808t 0.33-0.808l 5.821-5.813q 0.33-0.33 0.808-0.33t 0.808,0.33l 0.67,0.67q 0.33,0.33 0.33,0.808t-0.33,0.808l-4.339,4.339l 4.339,4.33q 0.33,0.339 0.33,0.813t-0.33,0.804l-0.67,0.67q-0.33,0.33 -0.808,0.33t-0.808-0.33z"></path><path d="M 169.813,39.429q0,0.464 -0.33,0.813l-5.821,5.813q-0.33,0.33 -0.804,0.33t-0.804-0.33l-0.679-0.67q-0.33-0.348 -0.33-0.813q0-0.473 0.33-0.804l 4.339-4.339l-4.339-4.33q-0.33-0.348 -0.33-0.813q0-0.473 0.33-0.804l 0.679-0.67q 0.321-0.339 0.804-0.339t 0.804,0.339l 5.821,5.813q 0.33,0.33 0.33,0.804z"></path><path d="M 205.714,40l0,1.143 q0,0.473 -0.29,0.808t-0.754,0.335l-6.286,0 l 2.616,2.625q 0.339,0.321 0.339,0.804t-0.339,0.804l-0.67,0.679q-0.33,0.33 -0.804,0.33q-0.464,0 -0.813-0.33l-5.813-5.821q-0.33-0.33 -0.33-0.804q0-0.464 0.33-0.813l 5.813-5.804q 0.339-0.339 0.813-0.339q 0.464,0 0.804,0.339l 0.67,0.661q 0.339,0.339 0.339,0.813t-0.339,0.813l-2.616,2.616l 6.286,0 q 0.464,0 0.754,0.335 t 0.29,0.808z"></path><path d="M 237.143,40.571q0,0.482 -0.33,0.813l-5.813,5.813q-0.348,0.33 -0.813,0.33q-0.455,0 -0.804-0.33l-0.67-0.67q-0.339-0.339 -0.339-0.813t 0.339-0.813l 2.616-2.616l-6.286,0 q-0.464,0 -0.754-0.335t-0.29-0.808l0-1.143 q0-0.473 0.29-0.808t 0.754-0.335l 6.286,0 l-2.616-2.625q-0.339-0.321 -0.339-0.804t 0.339-0.804l 0.67-0.67q 0.339-0.339 0.804-0.339q 0.473,0 0.813,0.339l 5.813,5.813q 0.33,0.313 0.33,0.804z"></path><path d="M 270.384,40.67q0,0.455 -0.33,0.804l-0.67,0.67q-0.339,0.339 -0.813,0.339q-0.482,0 -0.804-0.339l-2.625-2.616l0,6.286 q0,0.464 -0.335,0.754t-0.808,0.29l-1.143,0 q-0.473,0 -0.808-0.29t-0.335-0.754l0-6.286 l-2.625,2.616q-0.321,0.339 -0.804,0.339t-0.804-0.339l-0.67-0.67q-0.339-0.339 -0.339-0.804q0-0.473 0.339-0.813l 5.813-5.813q 0.313-0.33 0.804-0.33q 0.482,0 0.813,0.33l 5.813,5.813 q 0.33,0.348 0.33,0.813z"></path><path d="M 302.384,39.429q0,0.473 -0.33,0.804l-5.813,5.821q-0.348,0.33 -0.813,0.33q-0.473,0 -0.804-0.33l-5.813-5.821q-0.339-0.321 -0.339-0.804q0-0.473 0.339-0.813l 0.661-0.67q 0.348-0.33 0.813-0.33q 0.473,0 0.804,0.33l 2.625,2.625l0-6.286 q0-0.464 0.339-0.804t 0.804-0.339l 1.143,0 q 0.464,0 0.804,0.339t 0.339,0.804l0,6.286 l 2.625-2.625q 0.33-0.33 0.804-0.33q 0.464,0 0.813,0.33l 0.67,0.67q 0.33,0.348 0.33,0.813z"></path><path d="M 336,37.714q0,0.232 -0.17,0.402l-4.571,4.571q-0.17,0.17 -0.402,0.17t-0.402-0.17t-0.17-0.402l0-2.286 l-2,0 q-0.875,0 -1.567,0.054t-1.375,0.192t-1.188,0.379t-0.942,0.621t-0.714,0.902t-0.433,1.237t-0.156,1.616q0,0.491 0.045,1.098q0,0.054 0.022,0.21t 0.022,0.237q0,0.134 -0.076,0.223t-0.21,0.089q-0.143,0 -0.25-0.152q-0.063-0.080 -0.116-0.196 t-0.121-0.268t-0.094-0.214q-1.134-2.545 -1.134-4.027q0-1.777 0.473-2.973q 1.446-3.598 7.813-3.598l 2,0 l0-2.286 q0-0.232 0.17-0.402t 0.402-0.17t 0.402,0.17l 4.571,4.571q 0.17,0.17 0.17,0.402z"></path><path d="M 364.571,38.571l0,1.714 q0,0.357 -0.25,0.607t-0.607,0.25l-3.714,0 l0,3.714 q0,0.357 -0.25,0.607t-0.607,0.25l-1.714,0 q-0.357,0 -0.607-0.25t-0.25-0.607l0-3.714 l-3.714,0 q-0.357,0 -0.607-0.25t-0.25-0.607l0-1.714 q0-0.357 0.25-0.607t 0.607-0.25l 3.714,0 l0-3.714 q0-0.357 0.25-0.607t 0.607-0.25l 1.714,0 q 0.357,0 0.607,0.25t 0.25,0.607l0,3.714 l 3.714,0 q 0.357,0 0.607,0.25t 0.25,0.607z"></path><path d="M 396.571,38.571l0,1.714 q0,0.357 -0.25,0.607t-0.607,0.25l-10.857,0 q-0.357,0 -0.607-0.25t-0.25-0.607l0-1.714 q0-0.357 0.25-0.607t 0.607-0.25l 10.857,0 q 0.357,0 0.607,0.25t 0.25,0.607z"></path><path d="M 430.384,42.857q0,0.473 -0.33,0.804l-0.67,0.67q-0.339,0.339 -0.813,0.339q-0.482,0 -0.804-0.339l-4.339-4.33l-4.339,4.33q-0.321,0.339 -0.804,0.339t-0.804-0.339l-0.67-0.67q-0.339-0.321 -0.339-0.804q0-0.473 0.339-0.813l 5.813-5.813q 0.33-0.33 0.804-0.33q 0.464,0 0.813,0.33l 5.804,5.813q 0.339,0.339 0.339,0.813z"></path><path d="M 462.384,38.286q0,0.473 -0.33,0.804l-5.813,5.813q-0.339,0.339 -0.813,0.339q-0.482,0 -0.804-0.339l-5.813-5.813q-0.339-0.321 -0.339-0.804q0-0.473 0.339-0.813l 0.661-0.67q 0.348-0.33 0.813-0.33q 0.473,0 0.804,0.33l 4.339,4.339l 4.339-4.339q 0.33-0.33 0.804-0.33q 0.464,0 0.813,0.33l 0.67,0.67q 0.33,0.348 0.33,0.813z"></path><path d="M 493.714,44l0,1.143 q0,0.232 -0.17,0.402t-0.402,0.17l-12.571,0 q-0.232,0 -0.402-0.17t-0.17-0.402l0-1.143 q0-0.232 0.17-0.402t 0.402-0.17l 12.571,0 q 0.232,0 0.402,0.17t 0.17,0.402zM 493.714,39.429l0,1.143 q0,0.232 -0.17,0.402t-0.402,0.17l-12.571,0 q-0.232,0 -0.402-0.17t-0.17-0.402l0-1.143 q0-0.232 0.17-0.402t 0.402-0.17l 12.571,0 q 0.232,0 0.402,0.17t 0.17,0.402zM 493.714,34.857l0,1.143 q0,0.232 -0.17,0.402 t-0.402,0.17l-12.571,0 q-0.232,0 -0.402-0.17t-0.17-0.402l0-1.143 q0-0.232 0.17-0.402t 0.402-0.17l 12.571,0 q 0.232,0 0.402,0.17t 0.17,0.402z"></path><path d="M 9.143,70.286q0,0.232 -0.17,0.402l-4,4q-0.17,0.17 -0.402,0.17t-0.402-0.17l-4-4q-0.17-0.17 -0.17-0.402t 0.17-0.402t 0.402-0.17l 8,0 q 0.232,0 0.402,0.17t 0.17,0.402z"></path><path d="M 41.143,74.857q0,0.232 -0.17,0.402t-0.402,0.17l-8,0 q-0.232,0 -0.402-0.17t-0.17-0.402t 0.17-0.402l 4-4q 0.17-0.17 0.402-0.17t 0.402,0.17l 4,4q 0.17,0.17 0.17,0.402z"></path><path d="M 69.714,68l0,8 q0,0.232 -0.17,0.402t-0.402,0.17t-0.402-0.17l-4-4q-0.17-0.17 -0.17-0.402t 0.17-0.402l 4-4q 0.17-0.17 0.402-0.17t 0.402,0.17t 0.17,0.402z"></path><path d="M 101.143,72q0,0.232 -0.17,0.402l-4,4q-0.17,0.17 -0.402,0.17t-0.402-0.17t-0.17-0.402l0-8 q0-0.232 0.17-0.402t 0.402-0.17t 0.402,0.17l 4,4q 0.17,0.17 0.17,0.402z"></path><path d="M 133.598,68.857q0,0.116 -0.089,0.205l-3.509,3.509l 3.509,3.509q 0.089,0.089 0.089,0.205t-0.089,0.205l-0.446,0.446q-0.089,0.089 -0.205,0.089t-0.205-0.089l-4.161-4.161q-0.089-0.089 -0.089-0.205t 0.089-0.205l 4.161-4.161q 0.089-0.089 0.205-0.089t 0.205,0.089l 0.446,0.446q 0.089,0.089 0.089,0.205z"></path><path d="M 165.313,72.571q0,0.116 -0.089,0.205l-4.161,4.161q-0.089,0.089 -0.205,0.089t-0.205-0.089l-0.446-0.446q-0.089-0.089 -0.089-0.205t 0.089-0.205l 3.509-3.509l-3.509-3.509q-0.089-0.089 -0.089-0.205t 0.089-0.205l 0.446-0.446q 0.089-0.089 0.205-0.089t 0.205,0.089l 4.161,4.161q 0.089,0.089 0.089,0.205z"></path><path d="M 201.598,74.571q0,0.116 -0.089,0.205l-0.446,0.446q-0.089,0.089 -0.205,0.089t-0.205-0.089l-3.509-3.509l-3.509,3.509q-0.089,0.089 -0.205,0.089t-0.205-0.089l-0.446-0.446q-0.089-0.089 -0.089-0.205t 0.089-0.205l 4.161-4.161q 0.089-0.089 0.205-0.089t 0.205,0.089l 4.161,4.161q 0.089,0.089 0.089,0.205z"></path><path d="M 233.598,70.571q0,0.116 -0.089,0.205l-4.161,4.161q-0.089,0.089 -0.205,0.089t-0.205-0.089l-4.161-4.161q-0.089-0.089 -0.089-0.205t 0.089-0.205l 0.446-0.446q 0.089-0.089 0.205-0.089t 0.205,0.089l 3.509,3.509l 3.509-3.509q 0.089-0.089 0.205-0.089t 0.205,0.089l 0.446,0.446q 0.089,0.089 0.089,0.205z"></path><path d="M 272,71.143l0,1.714 q0,0.125 -0.080,0.205t-0.205,0.080l-11.143,0 l0,2 q0,0.188 -0.17,0.259t-0.313-0.045l-3.429-3.125q-0.089-0.089 -0.089-0.205q0-0.125 0.089-0.214l 3.429-3.161q 0.143-0.125 0.313-0.054q 0.17,0.080 0.17,0.259l0,2 l 11.143,0 q 0.125,0 0.205,0.080t 0.080,0.205z"></path><path d="M 303.429,71.973q0,0.125 -0.089,0.214l-3.429,3.161q-0.143,0.125 -0.313,0.054q-0.17-0.080 -0.17-0.259l0-2 l-11.143,0 q-0.125,0 -0.205-0.080t-0.080-0.205l0-1.714 q0-0.125 0.080-0.205t 0.205-0.080l 11.143,0 l0-2 q0-0.188 0.17-0.259t 0.313,0.045l 3.429,3.125q 0.089,0.089 0.089,0.205z"></path><path d="M 332.438,74.848q-0.348,1.116 -1.098,2.232q-1.152,1.75 -2.295,1.75q-0.438,0 -1.25-0.286q-0.768-0.286 -1.348-0.286q-0.545,0 -1.268,0.295q-0.723,0.304 -1.179,0.304q-1.357,0 -2.688-2.313q-1.313-2.33 -1.313-4.491q0-2.036 1.009-3.339q 1-1.286 2.536-1.286q 0.643,0 1.58,0.268q 0.929,0.268 1.232,0.268q 0.402,0 1.277-0.304q 0.911-0.304 1.545-0.304q 1.063,0 1.902,0.58 q 0.464,0.321 0.929,0.893q-0.705,0.598 -1.018,1.054q-0.58,0.839 -0.58,1.848q0,1.107 0.616,1.991t 1.411,1.125zM 329.080,64.375q0,0.545 -0.259,1.214q-0.268,0.67 -0.83,1.232q-0.482,0.482 -0.964,0.643q-0.33,0.098 -0.929,0.152q 0.027-1.33 0.696-2.295q 0.661-0.955 2.232-1.321q 0.009,0.027 0.022,0.098t 0.022,0.098q0,0.036 0.004,0.089t 0.004,0.089z"></path><path d="M 358.089,72.982l0,5.813 l-6.089-0.839l0-4.973 l 6.089,0 zM 358.089,66.348l0,5.884 l-6.089,0 l0-5.045 zM 366.857,72.982l0,7.018 l-8.098-1.116l0-5.902 l 8.098,0 zM 366.857,65.143l0,7.089 l-8.098,0 l0-5.973 z"></path><path d="M 388.402,68.313q 0.143,0 0.246-0.103t 0.103-0.246t-0.103-0.246t-0.246-0.103t-0.241,0.103t-0.098,0.246t 0.098,0.246t 0.241,0.103zM 392.17,68.313q 0.143,0 0.241-0.103t 0.098-0.246t-0.098-0.246t-0.241-0.103t-0.246,0.103t-0.103,0.246t 0.103,0.246t 0.246,0.103zM 384.92,69.955q 0.375,0 0.643,0.268t 0.268,0.643l0,3.839 q0,0.384 -0.263,0.652t-0.647,0.268 t-0.652-0.268t-0.268-0.652l0-3.839 q0-0.375 0.268-0.643t 0.652-0.268zM 394.384,70.125l0,5.946 q0,0.411 -0.286,0.696t-0.688,0.286l-0.67,0 l0,2.027 q0,0.384 -0.268,0.652t-0.652,0.268t-0.652-0.268t-0.268-0.652l0-2.027 l-1.232,0 l0,2.027 q0,0.384 -0.268,0.652t-0.652,0.268q-0.375,0 -0.643-0.268t-0.268-0.652l-0.009-2.027l-0.661,0 q-0.411,0 -0.696-0.286t-0.286-0.696l0-5.946 l 8.196,0 zM 392.313,66.509q 0.955,0.491 1.527,1.371t 0.571,1.924 l-8.259,0 q0-1.045 0.571-1.924t 1.536-1.371l-0.634-1.17q-0.063-0.116 0.045-0.179q 0.116-0.054 0.179,0.054l 0.643,1.179q 0.848-0.375 1.795-0.375t 1.795,0.375l 0.643-1.179q 0.063-0.107 0.179-0.054q 0.107,0.063 0.045,0.179zM 396.571,70.866l0,3.839 q0,0.384 -0.268,0.652t-0.652,0.268q-0.375,0 -0.643-0.268t-0.268-0.652l0-3.839 q0-0.384 0.268-0.647t 0.643-0.263q 0.384,0 0.652,0.263t 0.268,0.647z"></path><path d="M 421.92,67.67q-0.098,0.009 -0.138,0.094t-0.076,0.085q-0.045,0.009 -0.045-0.045q0-0.107 0.17-0.134l 0.089,0 zM 422.696,67.795q-0.036,0.009 -0.103-0.058t-0.156-0.040q 0.214-0.098 0.286,0.018q 0.027,0.054 -0.027,0.080zM 419.563,71.607q-0.036-0.009 -0.054,0.027t-0.040,0.112t-0.049,0.121t-0.089,0.116q-0.063,0.089 -0.009,0.107q 0.036,0.009 0.112-0.063t 0.112-0.161q 0.009-0.027 0.018-0.063t 0.018-0.054t 0.013-0.040t 0.004-0.036l0-0.027 t-0.009-0.022t-0.027-0.018z M 427.196,74.813q0-0.161 -0.491-0.375q 0.036-0.134 0.067-0.246t 0.045-0.232t 0.027-0.192t 0.004-0.201t-0.009-0.174t-0.031-0.196t-0.036-0.183t-0.045-0.223t-0.049-0.237q-0.089-0.429 -0.42-0.92t-0.643-0.67q 0.214,0.179 0.509,0.741q 0.777,1.446 0.482,2.482q-0.098,0.357 -0.446,0.375q-0.277,0.036 -0.344-0.165t-0.071-0.746t-0.103-0.955q-0.080-0.348 -0.174-0.616t-0.174-0.406t-0.138-0.219t-0.116-0.134t-0.067-0.063 q-0.125-0.554 -0.277-0.92t-0.263-0.5t-0.21-0.295t-0.134-0.357q-0.036-0.188 0.054-0.478t 0.040-0.442t-0.397-0.223q-0.134-0.027 -0.397-0.161t-0.317-0.143q-0.071-0.009 -0.098-0.232t 0.071-0.455t 0.321-0.241q 0.33-0.027 0.455,0.268t 0.036,0.518q-0.098,0.17 -0.018,0.237t 0.268,0.004q 0.116-0.036 0.116-0.321l0-0.33 q-0.045-0.268 -0.121-0.446t-0.188-0.272t-0.21-0.134t-0.241-0.067q-0.955,0.071 -0.795,1.196q0,0.134 -0.009,0.134 q-0.080-0.080 -0.263-0.094t-0.295,0.004t-0.138-0.045q 0.009-0.509 -0.143-0.804t-0.402-0.304q-0.241-0.009 -0.371,0.246t-0.147,0.531q-0.009,0.134 0.031,0.33t 0.116,0.335t 0.138,0.121q 0.089-0.027 0.143-0.125q 0.036-0.080 -0.063-0.071q-0.063,0 -0.138-0.129t-0.085-0.299q-0.009-0.196 0.080-0.33t 0.304-0.125q 0.152,0 0.241,0.188t 0.085,0.348t-0.013,0.196q-0.196,0.134 -0.277,0.259q-0.071,0.107 -0.246,0.21 t-0.183,0.112q-0.116,0.125 -0.138,0.241t 0.067,0.161q 0.125,0.071 0.223,0.174t 0.143,0.17t 0.165,0.116t 0.317,0.058q 0.42,0.018 0.911-0.134q 0.018-0.009 0.205-0.063t 0.308-0.094t 0.263-0.116t 0.188-0.156q 0.080-0.125 0.179-0.071q 0.045,0.027 0.058,0.076t-0.027,0.107t-0.147,0.085q-0.179,0.054 -0.504,0.192t-0.406,0.174q-0.393,0.17 -0.625,0.205q-0.223,0.045 -0.705-0.018q-0.089-0.018 -0.080,0.018t 0.152,0.17 q 0.223,0.205 0.598,0.196q 0.152-0.009 0.321-0.063t 0.321-0.125t 0.299-0.156t 0.268-0.152t 0.219-0.107t 0.156-0.022t 0.076,0.098q0,0.018 -0.009,0.040t-0.036,0.045t-0.054,0.040t-0.076,0.045t-0.080,0.040t-0.089,0.045t-0.085,0.040q-0.25,0.125 -0.603,0.393t-0.594,0.384t-0.438,0.009q-0.188-0.098 -0.563-0.652q-0.196-0.277 -0.223-0.196q-0.009,0.027 -0.009,0.089q0,0.223 -0.134,0.504t-0.263,0.496t-0.188,0.518t 0.103,0.563 q-0.205,0.054 -0.558,0.804t-0.424,1.259q-0.018,0.161 -0.013,0.616t-0.049,0.527q-0.071,0.214 -0.259,0.027q-0.286-0.277 -0.321-0.839q-0.018-0.25 0.036-0.5q 0.036-0.17 -0.009-0.161l-0.036,0.045q-0.321,0.58 0.089,1.482q 0.045,0.107 0.223,0.25t 0.214,0.179q 0.179,0.205 0.929,0.808t 0.83,0.683q 0.143,0.134 0.156,0.339t-0.125,0.384t-0.406,0.205q 0.071,0.134 0.259,0.397t 0.25,0.482t 0.063,0.629q 0.411-0.214 0.063-0.821 q-0.036-0.071 -0.094-0.143t-0.085-0.107t-0.018-0.054q 0.027-0.045 0.116-0.085t 0.179,0.022q 0.411,0.464 1.482,0.321q 1.188-0.134 1.58-0.777q 0.205-0.339 0.304-0.268q 0.107,0.054 0.089,0.464q-0.009,0.223 -0.205,0.821q-0.080,0.205 -0.054,0.335t 0.214,0.138q 0.027-0.17 0.129-0.688t 0.121-0.804q 0.018-0.188 -0.058-0.656t-0.067-0.866t 0.205-0.629q 0.134-0.161 0.455-0.161q 0.009-0.33 0.308-0.473t 0.647-0.094t 0.536,0.201zM 421.589,67.429 q 0.027-0.152 -0.022-0.268t-0.103-0.134q-0.080-0.018 -0.080,0.063q 0.018,0.045 0.045,0.054q 0.089,0 0.063,0.134q-0.027,0.179 0.071,0.179q 0.027,0 0.027-0.027zM 425.33,69.188q-0.018-0.071 -0.058-0.103t-0.116-0.045t-0.129-0.049q-0.045-0.027 -0.085-0.071t-0.063-0.071t-0.049-0.058t-0.036-0.036t-0.036,0.013q-0.125,0.143 0.063,0.388t 0.348,0.281q 0.080,0.009 0.129-0.071t 0.031-0.179zM 423.741,67.286q0-0.098 -0.045-0.174t-0.098-0.112t-0.080-0.027q-0.125,0.009 -0.063,0.063l 0.036,0.018 q 0.125,0.036 0.161,0.277q0,0.027 0.071-0.018zM 424.223,65.205q0-0.018 -0.022-0.045t-0.080-0.063t-0.085-0.054q-0.134-0.134 -0.214-0.134q-0.080,0.009 -0.103,0.067t-0.009,0.116t-0.004,0.112q-0.009,0.036 -0.054,0.094t-0.054,0.080t 0.027,0.076q 0.036,0.027 0.071,0t 0.098-0.080t 0.134-0.080q 0.009-0.009 0.080-0.009t 0.134-0.018t 0.080-0.063zM 429.268,77.179q 0.179,0.107 0.277,0.219t 0.107,0.214t-0.022,0.201t-0.138,0.196t-0.21,0.174t-0.268,0.165 t-0.281,0.147t-0.286,0.138t-0.241,0.116q-0.339,0.17 -0.763,0.5t-0.674,0.571q-0.152,0.143 -0.607,0.174t-0.795-0.129q-0.161-0.080 -0.263-0.21t-0.147-0.228t-0.196-0.174t-0.42-0.085q-0.393-0.009 -1.161-0.009q-0.17,0 -0.509,0.013t-0.518,0.022q-0.393,0.009 -0.71,0.134t-0.478,0.268t-0.388,0.254t-0.478,0.103q-0.259-0.009 -0.991-0.277t-1.304-0.384q-0.17-0.036 -0.455-0.085 t-0.446-0.080t-0.353-0.085t-0.299-0.129t-0.152-0.174q-0.089-0.205 0.063-0.594t 0.161-0.487q 0.009-0.143 -0.036-0.357t-0.089-0.379t-0.040-0.326t 0.094-0.241q 0.125-0.107 0.509-0.125t 0.536-0.107q 0.268-0.161 0.375-0.313t 0.107-0.455q 0.188,0.652 -0.286,0.946q-0.286,0.179 -0.741,0.134q-0.304-0.027 -0.384,0.089q-0.116,0.134 0.045,0.509q 0.018,0.054 0.071,0.161t 0.076,0.161t 0.040,0.152t 0.009,0.196q0,0.134 -0.152,0.438t-0.125,0.429 q 0.027,0.152 0.33,0.232q 0.179,0.054 0.754,0.165t 0.888,0.183q 0.214,0.054 0.661,0.196t 0.737,0.205t 0.496,0.036q 0.384-0.054 0.576-0.25t 0.205-0.429t-0.067-0.522t-0.17-0.464t-0.179-0.326q-1.080-1.696 -1.509-2.161q-0.607-0.661 -1.009-0.357q-0.098,0.080 -0.134-0.134q-0.027-0.143 -0.018-0.339q 0.009-0.259 0.089-0.464t 0.214-0.42t 0.196-0.375q 0.071-0.188 0.237-0.643t 0.263-0.696t 0.268-0.545t 0.348-0.482q 0.982-1.277 1.107-1.741 q-0.107-1 -0.143-2.768q-0.018-0.804 0.214-1.353t 0.946-0.933q 0.348-0.188 0.929-0.188q 0.473-0.009 0.946,0.121t 0.795,0.371q 0.509,0.375 0.817,1.085t 0.263,1.317q-0.045,0.848 0.268,1.911q 0.304,1.009 1.188,1.946q 0.491,0.527 0.888,1.455t 0.531,1.705q 0.071,0.438 0.045,0.754t-0.107,0.496t-0.179,0.196q-0.089,0.018 -0.21,0.17t-0.241,0.317t-0.362,0.299t-0.545,0.125 q-0.161-0.009 -0.281-0.045t-0.201-0.121t-0.121-0.138t-0.103-0.183t-0.080-0.174q-0.196-0.33 -0.366-0.268t-0.25,0.438t 0.063,0.866q 0.179,0.625 0.009,1.741q-0.089,0.58 0.161,0.897t 0.652,0.295t 0.759-0.317q 0.527-0.438 0.799-0.594t 0.924-0.379q 0.473-0.161 0.688-0.326t 0.165-0.308t-0.223-0.254t-0.46-0.21q-0.295-0.098 -0.442-0.429t-0.134-0.647t 0.138-0.424q 0.009,0.277 0.071,0.504 t 0.129,0.362t 0.183,0.254t 0.188,0.17t 0.192,0.116t 0.147,0.085z"></path><path d="M 461.5,64 C 462.881,64 464,65.119 464,66.5 C 464,67.063 463.814,67.582 463.5,68 L 462.5,69 L 459,65.5 L 460,64.5 C 460.418,64.186 460.937,64 461.5,64 ZM 449,75.5L 448,80l 4.5-1l 9.25-9.25L 458.25,66.25L 449,75.5z M 459.181,69.681l-7,7l-0.862-0.862l 7-7L 459.181,69.681z"></path><path d="M 495,68.5L 491.5,65L 492.5,64L 496,67.5zM 494,69.5 L 493.5,75 C 489,75 482.5,80 482.5,80 L 481.67,79.17 L 485.946,74.894 C 486.117,74.962 486.304,75 486.5,75 C 487.328,75 488,74.328 488,73.5 C 488,72.672 487.328,72 486.5,72 C 485.672,72 485,72.672 485,73.5 C 485,73.696 485.038,73.883 485.106,74.054 L 480.83,78.33 L 480,77.5 C 480,77.5 485,71 485,66.5 L 490.5,66 L 494,69.5 Z"></path><path d="M 4.75,105.5c0,1.795, 1.455,3.25, 3.25,3.25s 3.25-1.455, 3.25-3.25s-1.455-3.25-3.25-3.25S 4.75,103.705, 4.75,105.5z M 15,100L 11.5,100 
	c-0.25-1-0.5-2-1.5-2L 6,98 c-1,0-1.25,1-1.5,2L 1,100 c-0.55,0-1,0.45-1,1l0,9 c0,0.55, 0.45,1, 1,1l 14,0 c 0.55,0, 1-0.45, 1-1L 16,101 
	C 16,100.45, 15.55,100, 15,100z M 8,109.938c-2.451,0-4.438-1.987-4.438-4.438c0-2.451, 1.987-4.438, 4.438-4.438c 2.451,0, 4.438,1.987, 4.438,4.438
	C 12.438,107.951, 10.451,109.938, 8,109.938z M 15,103l-2,0 l0-1 l 2,0 L 15,103 z"></path><path d="M 37,99 L 48,96 L 48,97 L 48,99 L 48,107.5 C 48,108.881 46.433,110 44.5,110 C 42.567,110 41,108.881 41,107.5 C 41,106.119 42.567,105 44.5,105 C 45.037,105 45.545,105.086 46,105.241 L 46,100.091 L 39,102 L 39,109.5 C 39,110.881 37.433,112 35.5,112 C 33.567,112 32,110.881 32,109.5 C 32,108.119 33.567,107 35.5,107 C 36.037,107 36.545,107.086 37,107.241 L 37,102 L 37,99 Z"></path><path d="M 67,105.036l0,6.929 c 0.163,0.023, 0.33,0.036, 0.5,0.036l 0.5,0 L 68,105 l-0.5,0 C 67.33,105, 67.163,105.012, 67,105.036zM 76,105l0,7 l 0.5,0 c 0.17,0, 0.337-0.012, 0.5-0.036L 77,105.036 c-0.163-0.023-0.33-0.036-0.5-0.036L 76,105 zM 80,104C 80,99.582, 76.418,96, 72,96S 64,99.582, 64,104c0,0.96, 0.169,1.88, 0.479,2.732C 64.175,107.251, 64,107.855, 64,108.5
		c0,1.396, 0.818,2.601, 2,3.163L 66,105.337 c-0.314,0.149-0.603,0.345-0.857,0.577C 65.049,105.457, 65,104.984, 65,104.5
		C 65,100.634, 68.134,97.5, 72,97.5s 7,3.134, 7,7c0,0.484-0.049,0.957-0.143,1.414c-0.254-0.232-0.543-0.427-0.857-0.577
		l0,6.326 c 1.182-0.562, 2-1.767, 2-3.163c0-0.645-0.175-1.249-0.479-1.768C 79.831,105.88, 80,104.96, 80,104z"></path><path d="M 111.331,98.502C 109.087,98.179, 106.607,98, 104,98c-2.607,0-5.087,0.179-7.331,0.502
	C 96.239,100.185, 96,102.045, 96,104c0,1.955, 0.239,3.815, 0.669,5.498C 98.913,109.821, 101.393,110, 104,110
	c 2.607,0, 5.087-0.179, 7.331-0.502C 111.761,107.815, 112,105.955, 112,104C 112,102.045, 111.761,100.185, 111.331,98.502z
	 M 102,107L 102,101 l 5,3L 102,107z"></path><path d="M 138,105 C 139.654,105 141.154,105.673 142.241,106.759 L 140.827,108.173 C 140.103,107.449 139.103,107 138,107 C 136.897,107 135.897,107.449 135.173,108.173 L 133.759,106.759 C 134.846,105.673 136.346,105 138,105 ZM 130.929,103.929 C 132.818,102.040 135.329,101 138,101 C 140.671,101 143.182,102.040 145.071,103.929 L 143.657,105.343 L 143.657,105.343 C 142.146,103.832 140.137,103 138,103 C 135.863,103 133.854,103.832 132.343,105.343 L 130.929,103.929 ZM 143.45,98.101 C 145.117,98.806 146.614,99.815 147.899,101.101 L 147.899,101.101 L 146.485,102.515 C 144.219,100.248 141.205,99 138,99 C 134.795,99 131.781,100.248 129.515,102.515 L 128.101,101.101 C 129.386,99.815 130.883,98.806 132.55,98.101 C 134.277,97.37 136.11,97 138,97 C 139.89,97 141.723,97.37 143.45,98.101 ZM 137,110A1,1 2520 1 0 139,110A1,1 2520 1 0 137,110z"></path><path d="M 173.939,98.939l-1.879-1.879C 171.477,96.477, 170.325,96, 169.5,96L 162.5,96 C 161.675,96, 161,96.675, 161,97.5l0,13 c0,0.825, 0.675,1.5, 1.5,1.5l 11,0 
	c 0.825,0, 1.5-0.675, 1.5-1.5L 175,101.5 C 175,100.675, 174.523,99.523, 173.939,98.939z M 170,98.118c 0.034,0.013, 0.070,0.026, 0.106,0.041
	c 0.282,0.117, 0.478,0.253, 0.541,0.316l 1.879,1.879c 0.063,0.063, 0.199,0.259, 0.316,0.541c 0.015,0.036, 0.029,0.071, 0.041,0.106
	L 170,101 L 170,98.118 z M 173,110L 163,110 L 163,98 l 6,0 l0,4 l 4,0 L 173,110 zM 164,104L 172,104L 172,105L 164,105zM 164,106L 172,106L 172,107L 164,107zM 164,108L 172,108L 172,109L 164,109z"></path><path d="M 206.497,96L 201.988,96 c-0.827,0-1.981,0.478-2.566,1.063L 192.438,104.047c-0.585,0.585-0.585,1.541,0,2.126
	l 5.389,5.389c 0.585,0.585, 1.541,0.585, 2.125,0l 6.984-6.984C 207.522,103.993, 208,102.838, 208,102.012L 208,97.503 
	C 208,96.676, 207.324,96, 206.497,96z M 204.5,101c-0.828,0-1.5-0.672-1.5-1.5s 0.672-1.5, 1.5-1.5s 1.5,0.672, 1.5,1.5S 205.328,101, 204.5,101z"></path><path d="M 239.5,97L 236,97 c-0.825,0-1.977,0.477-2.561,1.061L 227.561,103.939c-0.583,0.583-0.583,1.538,0,2.121l 4.379,4.379
	c 0.583,0.583, 1.538,0.583, 2.121,0l 5.879-5.879C 240.523,103.977, 241,102.825, 241,102L 241,98.5 C 241,97.675, 240.325,97, 239.5,97z M 237.5,102
	c-0.828,0-1.5-0.672-1.5-1.5s 0.672-1.5, 1.5-1.5s 1.5,0.672, 1.5,1.5S 238.328,102, 237.5,102zM 225.354,105.354 L 230.703,110.703 C 230.137,111.003 229.415,110.915 228.939,110.439 L 224.561,106.061 C 223.977,105.477 223.977,104.523 224.561,103.939 L 230.439,98.061 C 231.023,97.477 232.175,97 233,97 L 225.354,104.646 C 225.159,104.841 225.159,105.159 225.354,105.354 Z"></path><path d="M 258,110.5A1.5,1.5 10800 1 0 261,110.5A1.5,1.5 10800 1 0 258,110.5zM 268,110.5A1.5,1.5 10800 1 0 271,110.5A1.5,1.5 10800 1 0 268,110.5zM 271,104L 271,98 L 258,98 C 258,96.895, 257.105,96, 256,96l0,1 c 0.551,0, 1,0.449, 1,1l 0.751,6.438C 257.293,104.805, 257,105.368, 257,106
		c0,1.105, 0.895,2, 2,2l 12,0 l0-1 L 259,107 c-0.552,0-1-0.448-1-1c0-0.003, 0-0.007, 0-0.010L 271,104z"></path><path d="M 301.238,105c 0.55,0, 1.124-0.433, 1.275-0.962l 1.451-5.077C 304.114,98.433, 303.788,98, 303.238,98L 293,98 
	c0-1.105-0.895-2-2-2L 288,96 l0,2 l 3,0 l0,8.5 c0,0.828, 0.672,1.5, 1.5,1.5l 9.5,0 c 0.552,0, 1-0.448, 1-1s-0.448-1-1-1L 293,106 l0-1 L 301.238,105 z
	 M 293,100l 9.044,0 l-0.857,3L 293,103 L 293,100 zM 294,110.75c0,0.688-0.563,1.25-1.25,1.25l-0.5,0 c-0.688,0-1.25-0.563-1.25-1.25l0-0.5 c0-0.688, 0.563-1.25, 1.25-1.25l 0.5,0 c 0.688,0, 1.25,0.563, 1.25,1.25L 294,110.75 zM 303,110.75c0,0.688-0.563,1.25-1.25,1.25l-0.5,0 c-0.688,0-1.25-0.563-1.25-1.25l0-0.5 c0-0.688, 0.563-1.25, 1.25-1.25l 0.5,0 c 0.688,0, 1.25,0.563, 1.25,1.25L 303,110.75 z"></path><path d="M 335.275,99.038c-0.531-0.152-1.085,0.156-1.236,0.687L 333.96,100L 324.633,100 l-0.141-1.124
		C 324.43,98.376, 324.004,98, 323.5,98L 321,98 C 320.448,98, 320,98.448, 320,99s 0.448,1, 1,1l 1.617,0 l 0.89,7.124
		C 323.57,107.624, 323.996,108, 324.5,108l 8.5,0 c 0.446,0, 0.839-0.296, 0.962-0.725l 2-7
		C 336.113,99.744, 335.806,99.19, 335.275,99.038z M 328,104l0-1 l 2,0 l0,1 L 328,104 z M 330,105l0,1 L 328,106 l0-1 L 330,105 z M 328,102l0-1 
		l 2,0 l0,1 L 328,102 z M 324.758,101L 327,101 l0,1 l-2.117,0 L 324.758,101z M 325.008,103L 327,103 l0,1 l-1.867,0 L 325.008,103z M 325.258,105L 327,105 l0,1 l-1.617,0 
		L 325.258,105z M 332.246,106l-1.246,0 l0-1 l 1.531,0 L 332.246,106z M 332.817,104l-1.817,0 l0-1 l 2.103,0 L 332.817,104z M 333.389,102l-2.389,0 
		l0-1 l 2.674,0 L 333.389,102zM 324,110.5A1.5,1.5 2520 1 0 327,110.5A1.5,1.5 2520 1 0 324,110.5zM 330,110.5A1.5,1.5 2520 1 0 333,110.5A1.5,1.5 2520 1 0 330,110.5z"></path><path d="M 359.5,97C 355.358,97, 352,100.358, 352,104.5c0,4.142, 3.358,7.5, 7.5,7.5c 4.142,0, 7.5-3.358, 7.5-7.5
		C 367,100.358, 363.642,97, 359.5,97z M 359.5,110.5c-3.314,0-6-2.686-6-6c0-3.314, 2.686-6, 6-6
		c 3.314,0, 6,2.686, 6,6C 365.5,107.814, 362.814,110.5, 359.5,110.5zM 360,104l0-2 l 2,0 l0-1 l-2,0 l0-1 l-1,0 l0,1 l-2,0 l0,4 l 2,0 l0,2 l-2,0 l0,1 l 2,0 l0,1 l 1,0 l0-1 l 2,0 l 0,0 L 362,104L 360,104 z M 359,104l-1,0 l0-2 l 1,0 L 359,104 z
	 M 361,107L 360,107 l0-2 l 1,0 L 361,107 z"></path><path d="M 398.5,98L 385.5,98 C 384.675,98, 384,98.675, 384,99.5l0,9 c0,0.825, 0.675,1.5, 1.5,1.5l 13,0 c 0.825,0, 1.5-0.675, 1.5-1.5L 400,99.5 C 400,98.675, 399.325,98, 398.5,98z M 385.5,99
		l 13,0 c 0.271,0, 0.5,0.229, 0.5,0.5l0,1.5 L 385,101 l0-1.5 C 385,99.229, 385.229,99, 385.5,99z M 398.5,109L 385.5,109 c-0.271,0-0.5-0.229-0.5-0.5L 385,104 l 14,0 l0,4.5 
		C 399,108.771, 398.771,109, 398.5,109zM 386,106L 387,106L 387,108L 386,108zM 388,106L 389,106L 389,108L 388,108zM 390,106L 391,106L 391,108L 390,108z"></path><path d="M 427,106c-1,1-1,2-2,2s-2-1-3-2s-2-2-2-3s 1-1, 2-2S 420,97, 419,97S 416,100, 416,100c0,2, 2.055,6.055, 4,8
	s 6,4, 8,4c0,0, 3-2, 3-3S 428,105, 427,106z"></path><path d="M 463.897,105 C 464.022,105.867 464.103,107.053 463.714,107.507 C 463.071,108.258 459,108.258 459,106.756 C 459,106 459.67,105.504 459.027,104.753 C 458.394,104.015 457.261,104.003 456,104.003 C 454.739,104.003 453.606,104.015 452.973,104.753 C 452.33,105.504 453,106 453,106.756 C 453,108.258 448.929,108.258 448.286,107.507 C 447.897,107.053 447.978,105.867 448.103,105 C 448.2,104.421 448.443,103.797 449.221,103 C 449.221,103 449.221,103 449.221,103 C 450.389,101.91 452.157,101.020 455.938,101 L 455.938,101 C 455.958,101 455.979,101 456,101 C 456.021,101 456.041,101 456.063,101 L 456.063,101 C 459.843,101.020 461.611,101.91 462.779,103 C 462.779,103 462.779,103 462.779,103 C 463.557,103.797 463.8,104.421 463.897,105 Z"></path><path d="M 488,96C 485.239,96, 483,98.239, 483,101c0,5, 5,11, 5,11s 5-6, 5-11C 493,98.239, 490.761,96, 488,96z M 488,104
	c-1.657,0-3-1.343-3-3s 1.343-3, 3-3s 3,1.343, 3,3S 489.657,104, 488,104z"></path><path d="M 8,128C 5.239,128, 3,130.239, 3,133c0,5, 5,11, 5,11s 5-6, 5-11C 13,130.239, 10.761,128, 8,128z M 8,136.063
	c-1.691,0-3.063-1.371-3.063-3.063s 1.371-3.063, 3.063-3.063s 3.063,1.371, 3.063,3.063S 9.691,136.063, 8,136.063zM 6.063,133A1.938,1.938 1080 1 0 9.938,133A1.938,1.938 1080 1 0 6.063,133z"></path><path d="M 41,129 C 44.866,129 48,132.134 48,136 C 48,139.866 44.866,143 41,143 L 41,141.5 C 42.469,141.5 43.85,140.928 44.889,139.889 C 45.928,138.85 46.5,137.469 46.5,136 C 46.5,134.531 45.928,133.15 44.889,132.111 C 43.85,131.072 42.469,130.5 41,130.5 C 39.531,130.5 38.15,131.072 37.111,132.111 C 36.312,132.91 35.789,133.912 35.591,135 L 38.5,135 L 35,139 L 31.5,135 L 34.071,135 C 34.557,131.608 37.474,129 41,129 ZM 44,135 L 44,137 L 40,137 L 40,132 L 42,132 L 42,135 Z"></path><path d="M 74.293,139.707L 71,136.414L 71,132L 73,132L 73,135.586L 75.707,138.293 	zM 72,128C 67.582,128, 64,131.582, 64,136s 3.582,8, 8,8s 8-3.582, 8-8S 76.418,128, 72,128z M 72,142
		c-3.314,0-6-2.686-6-6c0-3.314, 2.686-6, 6-6c 3.314,0, 6,2.686, 6,6C 78,139.314, 75.314,142, 72,142z"></path><path d="M 104,128C 99.582,128, 96,131.582, 96,136s 3.582,8, 8,8s 8-3.582, 8-8S 108.418,128, 104,128z M 106.293,139.707L 103,136.414
		L 103,132 l 2,0 l0,3.586 l 2.707,2.707L 106.293,139.707z"></path><path d="M 136,129c-2.209,0-4.209,0.896-5.657,2.343L 128,129l0,6 l 6,0 l-2.243-2.243C 132.843,131.672, 134.343,131, 136,131
	c 3.314,0, 6,2.686, 6,6c0,1.792-0.786,3.401-2.032,4.5l 1.323,1.5C 142.952,141.534, 144,139.389, 144,137
	C 144,132.582, 140.418,129, 136,129z"></path><path d="M 160,137c0,2.389, 1.048,4.534, 2.709,6l 1.323-1.5C 162.786,140.401, 162,138.792, 162,137c0-3.314, 2.686-6, 6-6
	c 1.657,0, 3.157,0.672, 4.243,1.757L 170,135l 6,0 L 176,129 l-2.343,2.343C 172.209,129.896, 170.209,129, 168,129
	C 163.582,129, 160,132.582, 160,137z"></path><path d="M 203.904,144C 205.681,140.781, 205.98,135.87, 199,136.034L 199,140 L 193,134L 199,128l0,3.881 
	C 207.359,131.663, 208.29,139.259, 203.904,144z"></path><path d="M 233,131.881L 233,128 l 6,6L 233,140L 233,136.034 C 226.020,135.87, 226.319,140.781, 228.096,144
	C 223.71,139.259, 224.641,131.663, 233,131.881z"></path><path d="M 260.096,128C 258.319,131.219, 258.020,136.13, 265,135.966L 265,132 l 6,6L 265,144L 265,140.119 C 256.641,140.337 255.71,132.741, 260.096,128z"></path><path d="M 295,140.119L 295,144 L 289,138l 6-6l0,3.966 C 301.98,136.13, 301.681,131.219, 299.904,128
	C 304.29,132.741, 303.359,140.337, 295,140.119z"></path><path d="M 328,129 C 332.418,129 336,131.91 336,135.5 C 336,139.090 332.418,142 328,142 C 327.576,142 327.159,141.973 326.753,141.921 C 325.034,143.64 322.983,143.948 321,143.993 L 321,143.572 C 322.071,143.048 323,142.092 323,141 C 323,140.848 322.988,140.698 322.966,140.552 C 321.157,139.36 320,137.54 320,135.5 C 320,131.91 323.582,129 328,129 Z"></path><path d="M 369,142.081 C 369,142.792 369.407,143.407 370,143.709 L 370,143.958 C 369.834,143.98 369.665,143.992 369.492,143.992 C 368.43,143.992 367.471,143.547 366.793,142.832 C 366.384,142.941 365.95,143 365.5,143 C 363.015,143 361,141.209 361,139 C 361,136.791 363.015,135 365.5,135 C 367.985,135 370,136.791 370,139 C 370,139.865 369.691,140.665 369.166,141.32 C 369.060,141.551 369,141.809 369,142.081 ZM 360,128 C 364.351,128 367.89,130.822 367.997,134.336 C 367.229,133.994 366.379,133.813 365.5,133.813 C 364.007,133.813 362.597,134.335 361.529,135.284 C 360.422,136.268 359.813,137.588 359.813,139 C 359.813,139.698 359.962,140.373 360.246,140.997 C 360.164,140.999 360.082,141 360,141 C 359.576,141 359.159,140.973 358.753,140.921 C 357.034,142.64 354.983,142.948 353,142.993 L 353,142.572 C 354.071,142.048 355,141.092 355,140 C 355,139.848 354.988,139.698 354.966,139.552 C 353.157,138.36 352,136.54 352,134.5 C 352,130.91 355.582,128 360,128 Z"></path><path d="M 391.5,128 L 391.5,128 C 395.642,128 399,130.717 399,134.069 C 399,137.422 395.642,140.139 391.5,140.139 C 391.102,140.139 390.712,140.114 390.331,140.065 C 388.72,141.67 386.859,141.958 385,142 L 385,141.607 C 386.004,141.117 386.813,140.225 386.813,139.205 C 386.813,139.063 386.801,138.923 386.781,138.787 C 385.085,137.674 384,135.974 384,134.069 C 384,130.717 387.358,128 391.5,128 ZM 399.563,141.604 C 399.563,142.479 400.13,143.243 401,143.663 L 401,144 C 399.389,143.964 397.91,143.717 396.513,142.342 C 396.183,142.383 395.845,142.405 395.5,142.405 C 394.008,142.405 392.634,142.002 391.537,141.326 C 393.798,141.318 395.932,140.594 397.55,139.284 C 398.366,138.624 399.010,137.85 399.463,136.982 C 399.944,136.062 400.188,135.082 400.188,134.069 C 400.188,133.906 400.18,133.744 400.168,133.582 C 401.302,134.519 402,135.795 402,137.202 C 402,138.835 401.060,140.292 399.59,141.246 C 399.572,141.363 399.563,141.482 399.563,141.604 Z"></path><path d="M 424,131 C 423.142,131 422.313,131.135 421.536,131.402 C 420.806,131.653 420.156,132.008 419.604,132.456 C 418.57,133.297 418,134.378 418,135.5 C 418,136.13 418.175,136.74 418.52,137.315 C 418.875,137.907 419.41,138.449 420.066,138.881 C 420.541,139.194 420.86,139.693 420.944,140.255 C 420.972,140.442 420.99,140.631 420.997,140.819 C 421.113,140.722 421.227,140.618 421.339,140.507 C 421.716,140.13 422.226,139.921 422.753,139.921 C 422.837,139.921 422.921,139.926 423.005,139.937 C 423.333,139.979 423.668,140 424,140 C 424.858,140 425.687,139.865 426.464,139.598 C 427.194,139.347 427.844,138.992 428.396,138.544 C 429.43,137.703 430,136.622 430,135.5 C 430,134.378 429.43,133.297 428.396,132.456 C 427.844,132.008 427.194,131.653 426.464,131.402 C 425.687,131.135 424.858,131 424,131 Z M 424,129 L 424,129 C 428.418,129 432,131.91 432,135.5 C 432,139.090 428.418,142 424,142 C 423.576,142 423.159,141.973 422.753,141.921 C 421.034,143.64 418.983,143.948 417,143.993 L 417,143.572 C 418.071,143.048 419,142.092 419,141 C 419,140.848 418.988,140.698 418.966,140.552 C 417.157,139.36 416,137.54 416,135.5 C 416,131.91 419.582,129 424,129 Z"></path><path d="M 457.732,138.98c-0.345-0.055-0.353-1.005-0.353-1.005s 1.015-1.005, 1.236-2.356
	c 0.595,0, 0.963-1.437, 0.368-1.942C 459.007,133.145, 459.747,129.5, 456,129.5c-3.747,0-3.007,3.645-2.982,4.177
	c-0.595,0.505-0.228,1.942, 0.368,1.942c 0.221,1.351, 1.236,2.356, 1.236,2.356s-0.008,0.95-0.353,1.005
	C 453.155,139.157, 449,140.99, 449,143l 7,0 l 7,0 C 463,140.99, 458.845,139.157, 457.732,138.98z"></path><path d="M 493.25,144L 482.75,144 c-0.414,0-0.75-0.336-0.75-0.75c0-1.076, 0.454-2.378, 1.215-3.483c 0.636-0.924, 1.417-1.619, 2.261-2.025
		c-0.372-0.338-0.692-0.75-0.945-1.221c-0.406-0.754-0.621-1.626-0.621-2.521c0-1.244, 0.409-2.419, 1.153-3.309
		C 485.838,129.762, 486.881,129.25, 488,129.25s 2.162,0.512, 2.938,1.441c 0.743,0.89, 1.153,2.065, 1.153,3.309
		c0,0.895-0.215,1.767-0.621,2.521c-0.253,0.47-0.574,0.882-0.945,1.221c 0.844,0.406, 1.625,1.101, 2.261,2.025
		C 493.546,140.872, 494,142.174, 494,143.25C 494,143.664, 493.664,144, 493.25,144z M 483.595,142.5l 8.81,0 
		c-0.144-0.615-0.446-1.287-0.856-1.883c-0.648-0.941-1.456-1.557-2.276-1.733c-0.345-0.074-0.592-0.38-0.592-0.733
		l0-0.536 c0-0.27, 0.145-0.519, 0.379-0.652c 0.929-0.529, 1.53-1.692, 1.53-2.963c0-1.792-1.162-3.25-2.591-3.25
		c-1.429,0-2.591,1.458-2.591,3.25c0,1.271, 0.601,2.434, 1.53,2.963c 0.234,0.133, 0.379,0.382, 0.379,0.652l0,0.536 
		c0,0.353-0.247,0.659-0.592,0.733c-0.82,0.177-1.628,0.792-2.276,1.733C 484.040,141.213, 483.739,141.885, 483.595,142.5z"></path><path d="M 4,165A4,4 12600 1 0 12,165A4,4 12600 1 0 4,165zM 12,170L 4,170 C 1.791,170,0,171.791,0,174l0,1 l 0.126,0 l 15.748,0 L 16,175 l0-1 C 16,171.791, 14.209,170, 12,170z"></path><path d="M 38,162A2,2 12600 1 0 42,162A2,2 12600 1 0 38,162zM 42.243,163.757A2,2 12600 1 0 46.243,163.757A2,2 12600 1 0 42.243,163.757zM 45,168A1,1 12600 1 0 47,168A1,1 12600 1 0 45,168zM 43.243,172.243A1,1 12600 1 0 45.243,172.243A1,1 12600 1 0 43.243,172.243zM 39,174A1,1 12600 1 0 41,174A1,1 12600 1 0 39,174zM 34.757,172.243A1,1 12600 1 0 36.757,172.243A1,1 12600 1 0 34.757,172.243zM 34.257,163.757A1.5,1.5 12600 1 0 37.257,163.757A1.5,1.5 12600 1 0 34.257,163.757zM 32.875,168A1.125,1.125 12600 1 0 35.125,168A1.125,1.125 12600 1 0 32.875,168z"></path><path d="M 80,168c-0.020-1.045-0.247-2.086-0.665-3.038c-0.417-0.953-1.023-1.817-1.766-2.53
	c-0.743-0.714-1.624-1.278-2.578-1.651C 74.037,160.407, 73.013,160.228, 72,160.25c-1.013,0.020-2.021,0.24-2.943,0.646
	c-0.923,0.405-1.758,0.992-2.449,1.712c-0.691,0.72-1.237,1.574-1.597,2.497C 64.65,166.028, 64.478,167.020, 64.5,168
	c 0.020,0.981, 0.234,1.955, 0.627,2.847c 0.392,0.892, 0.961,1.7, 1.658,2.368c 0.697,0.668, 1.523,1.195, 2.416,1.542
	C 70.093,175.106, 71.052,175.271, 72,175.25c 0.949-0.020, 1.89-0.227, 2.751-0.608c 0.862-0.379, 1.642-0.929, 2.287-1.604
	c 0.645-0.674, 1.154-1.472, 1.488-2.335c 0.204-0.523, 0.342-1.069, 0.415-1.622c 0.019,0.001, 0.039,0.002, 0.059,0.002
	c 0.552,0, 1-0.448, 1-1c0-0.028-0.001-0.056-0.004-0.083L 80,168 z M 78.411,170.655c-0.367,0.831-0.898,1.584-1.55,2.206
	c-0.651,0.622-1.422,1.112-2.254,1.434C 73.776,174.619, 72.884,174.771, 72,174.75c-0.884-0.020-1.759-0.215-2.56-0.57
	c-0.801-0.354-1.526-0.867-2.125-1.496c-0.599-0.628-1.071-1.371-1.38-2.173C 65.625,169.71, 65.479,168.852, 65.5,168
	c 0.020-0.852, 0.208-1.694, 0.551-2.464c 0.342-0.77, 0.836-1.468, 1.441-2.044c 0.605-0.576, 1.321-1.029, 2.092-1.326
	C 70.355,161.869, 71.18,161.729, 72,161.75c 0.82,0.020, 1.629,0.202, 2.368,0.532c 0.74,0.329, 1.41,0.805, 1.963,1.387
	c 0.553,0.582, 0.988,1.27, 1.272,2.011C 77.888,166.42, 78.021,167.212, 78,168l 0.004,0 c-0.002,0.028-0.004,0.055-0.004,0.083
	c0,0.516, 0.391,0.94, 0.892,0.994C 78.795,169.622, 78.634,170.153, 78.411,170.655z"></path><path d="M 111.504,173.616L 107.714,170.392c-0.392-0.353-0.811-0.514-1.149-0.499C 107.46,168.845, 108,167.486, 108,166
	C 108,162.686, 105.314,160, 102,160C 98.686,160, 96,162.686, 96,166c0,3.314, 2.686,6, 6,6c 1.486,0, 2.845-0.54, 3.893-1.435
	c-0.016,0.338, 0.146,0.757, 0.499,1.149l 3.223,3.79c 0.552,0.613, 1.453,0.665, 2.003,0.115S 112.117,174.167, 111.504,173.616z
	 M 102,170c-2.209,0-4-1.791-4-4S 99.791,162, 102,162s 4,1.791, 4,4S 104.209,170, 102,170z"></path><path d="M 143.504,173.616L 139.714,170.392c-0.392-0.353-0.811-0.514-1.149-0.499C 139.46,168.845, 140,167.486, 140,166
		C 140,162.686, 137.314,160, 134,160C 130.686,160, 128,162.686, 128,166c0,3.314, 2.686,6, 6,6c 1.486,0, 2.845-0.54, 3.893-1.435
		c-0.016,0.338, 0.146,0.757, 0.499,1.149l 3.223,3.79c 0.552,0.613, 1.453,0.665, 2.003,0.115S 144.117,174.167, 143.504,173.616
		z M 134,170c-2.209,0-4-1.791-4-4S 131.791,162, 134,162s 4,1.791, 4,4S 136.209,170, 134,170zM 135,163L 133,163L 133,165L 131,165L 131,167L 133,167L 133,169L 135,169L 135,167L 137,167L 137,165L 135,165 	z"></path><path d="M 175.504,173.616L 171.714,170.392c-0.392-0.353-0.811-0.514-1.149-0.499C 171.46,168.845, 172,167.486, 172,166
		C 172,162.686, 169.314,160, 166,160C 162.686,160, 160,162.686, 160,166c0,3.314, 2.686,6, 6,6c 1.486,0, 2.845-0.54, 3.893-1.435
		c-0.016,0.338, 0.146,0.757, 0.499,1.149l 3.223,3.79c 0.552,0.613, 1.453,0.665, 2.003,0.115S 176.117,174.167, 175.504,173.616
		z M 166,170c-2.209,0-4-1.791-4-4S 163.791,162, 166,162s 4,1.791, 4,4S 168.209,170, 166,170zM 163,165L 169,165L 169,167L 163,167z"></path><path d="M 208,160 L 208,166 L 205.84,163.84 L 202.527,167.152 L 200.848,165.473 L 204.16,162.16 L 202,160 ZM 195.84,162.16 L 199.152,165.473 L 197.473,167.152 L 194.16,163.84 L 192,166 L 192,160 L 198,160 ZM 205.84,172.16 L 208,170 L 208,176 L 202,176 L 204.16,173.84 L 200.848,170.527 L 202.527,168.848 ZM 199.152,170.527 L 195.84,173.84 L 198,176 L 192,176 L 192,170 L 194.16,172.16 L 197.473,168.848 Z"></path><path d="M 225,169 L 231,169 L 231,175 L 228.84,172.84 L 225.683,175.996 L 224.004,174.317 L 227.16,171.16 ZM 236.84,171.16 L 239.996,174.317 L 238.317,175.996 L 235.16,172.84 L 233,175 L 233,169 L 239,169 ZM 239,167 L 233,167 L 233,161 L 235.16,163.16 L 238.317,160.004 L 239.996,161.683 L 236.84,164.84 ZM 228.84,163.16 L 231,161 L 231,167 L 225,167 L 227.16,164.84 L 224.004,161.683 L 225.683,160.004 Z"></path><path d="M 272,160 L 272,166.5 L 269.5,164 L 266.5,167 L 265,165.5 L 268,162.5 L 265.5,160 ZM 263,170.5 L 260,173.5 L 262.5,176 L 256,176 L 256,169.5 L 258.5,172 L 261.5,169 Z"></path><path d="M 295,169 L 295,175.5 L 292.5,173 L 289.5,176 L 288,174.5 L 291,171.5 L 288.5,169 ZM 304,161.5 L 301,164.5 L 303.5,167 L 297,167 L 297,160.5 L 299.5,163 L 302.5,160 Z"></path><path d="M 335.658,164.91l-1.58-1.58c-0.387-0.387-1.021-1.021-1.409-1.409l-1.58-1.58
	c-0.387-0.387-1.077-0.456-1.533-0.152L 325.237,163.069c-0.456,0.304-0.628,0.954-0.383,1.444l 1.101,2.203
	c 0.034,0.067, 0.073,0.139, 0.115,0.213L 320.5,172.5L 320,176l 3,0 l0-1 l 2,0 l0-2 l 2,0 l0-2l 2,0 l0-1.112 c 0.1,0.060, 0.196,0.113, 0.284,0.157
	l 2.203,1.101c 0.49,0.245, 1.14,0.072, 1.444-0.383l 2.88-4.319C 336.114,165.987, 336.046,165.297, 335.658,164.91z
	 M 322.354,173.354l-0.707-0.707l 4.868-4.868l 0.707,0.707L 322.354,173.354z M 334.328,166.621l-0.707,0.707
	c-0.194,0.194-0.513,0.194-0.707,0L 328.672,163.086c-0.194-0.194-0.194-0.513,0-0.707l 0.707-0.707
	c 0.194-0.194, 0.513-0.194, 0.707,0L 334.328,165.914C 334.523,166.109, 334.523,166.427, 334.328,166.621z"></path><path d="M 363,160c-2.761,0-5,2.239-5,5c0,0.313, 0.029,0.619, 0.084,0.916L 352,172l0,3 c0,0.552, 0.448,1, 1,1
	l 1,0 l0-1 l 2,0 l0-2 l 2,0 l0-2 l 2,0 l 1.298-1.298C 361.829,169.895, 362.402,170, 363,170c 2.761,0, 5-2.239, 5-5S 365.761,160, 363,160z
	 M 364.498,165.002c-0.828,0-1.5-0.672-1.5-1.5s 0.672-1.5, 1.5-1.5s 1.5,0.672, 1.5,1.5S 365.326,165.002, 364.498,165.002z"></path><path d="M 397,167l-1,0 l0-3 C 396,161.791, 394.209,160, 392,160c-2.209,0-4,1.791-4,4l0,3 L 387,167 c-0.55,0-1,0.45-1,1l0,7 
	c0,0.55, 0.45,1, 1,1l 10,0 c 0.55,0, 1-0.45, 1-1L 398,168 C 398,167.45, 397.55,167, 397,167z M 392,173c-0.552,0-1-0.448-1-1
	s 0.448-1, 1-1s 1,0.448, 1,1S 392.552,173, 392,173z M 394,167L 390,167 l0-3 c0-1.103, 0.897-2, 2-2s 2,0.897, 2,2L 394,167 z"></path><path d="M 431.671,172.779l-7.196-6.168C 424.81,165.982, 425,165.263, 425,164.5C 425,162.015, 422.985,160, 420.5,160
	c-0.455,0-0.893,0.068-1.307,0.193l 2.6,2.6c 0.389,0.389, 0.389,1.025,0,1.414l-1.586,1.586
	c-0.389,0.389-1.025,0.389-1.414,0L 416.193,163.193C 416.068,163.607, 416,164.045, 416,164.5c0,2.485, 2.015,4.5, 4.5,4.5
	c 0.763,0, 1.482-0.19, 2.111-0.525l 6.168,7.196c 0.358,0.418, 0.969,0.441, 1.358,0.052l 1.586-1.586
	C 432.112,173.748, 432.088,173.137, 431.671,172.779z"></path><path d="M 455,162l0-0.25 c0-0.412-0.338-0.75-0.75-0.75l-2.5,0 c-0.412,0-0.75,0.338-0.75,0.75l0,0.25 L 448,162 l0,2 l 3,0 l0,0.25 c0,0.412, 0.338,0.75, 0.75,0.75l 2.5,0 c 0.412,0, 0.75-0.338, 0.75-0.75l0-0.25 
		l 9,0 L 464,162 L 455,162 z M 452,164L 452,162 l 2,0 l0,2 L 452,164 zM 461,166.75c0-0.412-0.338-0.75-0.75-0.75l-2.5,0 c-0.412,0-0.75,0.338-0.75,0.75l0,0.25 L 448,167 l0,2 l 9,0 l0,0.25 c0,0.412, 0.338,0.75, 0.75,0.75l 2.5,0 c 0.412,0, 0.75-0.338, 0.75-0.75l0-0.25 
		l 3,0 l0-2 l-3,0 L 461,166.75 z M 458,169l0-2 l 2,0 l0,2 L 458,169 zM 455,171.75c0-0.412-0.338-0.75-0.75-0.75l-2.5,0 c-0.412,0-0.75,0.338-0.75,0.75l0,0.25 L 448,172 l0,2 l 3,0 l0,0.25 c0,0.412, 0.338,0.75, 0.75,0.75l 2.5,0 c 0.412,0, 0.75-0.338, 0.75-0.75l0-0.25 
		l 9,0 l0-2 L 455,172 L 455,171.75 z M 452,174l0-2 l 2,0 l0,2 L 452,174 z"></path><path d="M 494.59,169.535c-0.839-1.454-0.335-3.317, 1.127-4.164l-1.572-2.723c-0.449,0.263-0.972,0.414-1.529,0.414
	c-1.68,0-3.042-1.371-3.042-3.062L 486.43,160 c 0.004,0.522-0.126,1.051-0.406,1.535
	c-0.839,1.454-2.706,1.948-4.17,1.106L 480.282,165.364c 0.453,0.257, 0.845,0.634, 1.123,1.117
	c 0.838,1.452, 0.336,3.311-1.12,4.16l 1.572,2.723c 0.448-0.261, 0.967-0.41, 1.522-0.41
	c 1.675,0, 3.034,1.362, 3.042,3.046l 3.145,0 c-0.001-0.517, 0.129-1.040, 0.406-1.519
	c 0.838-1.452, 2.7-1.947, 4.163-1.11l 1.572-2.723C 495.257,170.391, 494.868,170.015, 494.59,169.535z M 488,171.24
	c-1.789,0-3.24-1.45-3.24-3.24c0-1.789, 1.45-3.24, 3.24-3.24c 1.789,0, 3.24,1.45, 3.24,3.24
	C 491.24,169.789, 489.789,171.24, 488,171.24z"></path><path d="M 5.683,203.282l 0.645-0.903l-0.707-0.707l-0.903,0.645c-0.168-0.094-0.347-0.168-0.535-0.222L 4,201L 3,201 
		l-0.182,1.095c-0.188,0.053-0.368,0.128-0.535,0.222L 1.379,201.672L 0.672,202.379l 0.645,0.903
		c-0.094,0.168-0.168,0.347-0.222,0.535L0,204l0,1 l 1.095,0.183c 0.053,0.188, 0.128,0.368, 0.222,0.535L 0.672,206.621l 0.707,0.707
		l 0.903-0.645c 0.168,0.094, 0.347,0.168, 0.535,0.222L 3,208l 1,0 l 0.182-1.095c 0.188-0.053, 0.368-0.128, 0.535-0.222l 0.903,0.645
		l 0.707-0.707l-0.645-0.903c 0.094-0.168, 0.168-0.347, 0.222-0.535L 7,205l0-1 l-1.095-0.183
		C 5.851,203.629, 5.777,203.45, 5.683,203.282z M 3.5,205.5c-0.552,0-1-0.448-1-1s 0.448-1, 1-1s 1,0.448, 1,1
		S 4.052,205.5, 3.5,205.5zM 16,198l0-1 l-1.053-0.191c-0.019-0.126-0.044-0.25-0.074-0.372l 0.899-0.58L 15.39,194.933l-1.046,0.226
		c-0.066-0.108-0.136-0.213-0.211-0.315l 0.609-0.88l-0.707-0.707l-0.88,0.609c-0.102-0.074-0.207-0.145-0.315-0.211
		l 0.226-1.046L 12.143,192.227l-0.58,0.899c-0.122-0.030-0.246-0.054-0.372-0.074L 11,192l-1,0 l-0.191,1.053
		c-0.126,0.019-0.25,0.044-0.372,0.074L 8.857,192.227L 7.933,192.61l 0.226,1.046c-0.108,0.066-0.213,0.136-0.315,0.211
		l-0.88-0.609l-0.707,0.707l 0.609,0.88c-0.074,0.102-0.145,0.207-0.211,0.315l-1.046-0.226l-0.383,0.924l 0.899,0.58
		c-0.030,0.122-0.054,0.246-0.074,0.372L 5,197l0,1 l 1.053,0.191c 0.019,0.126, 0.044,0.25, 0.074,0.372l-0.899,0.58
		l 0.383,0.924l 1.046-0.226c 0.066,0.108, 0.136,0.213, 0.211,0.315l-0.609,0.88l 0.707,0.707l 0.88-0.609
		c 0.102,0.074, 0.207,0.145, 0.315,0.211l-0.226,1.046l 0.924,0.383l 0.58-0.899c 0.122,0.030, 0.246,0.054, 0.372,0.074L 10,203l 1,0 
		l 0.191-1.053c 0.126-0.019, 0.25-0.044, 0.372-0.074l 0.58,0.899l 0.924-0.383l-0.226-1.046
		c 0.108-0.066, 0.213-0.136, 0.315-0.211l 0.88,0.609l 0.707-0.707l-0.609-0.88c 0.074-0.102, 0.145-0.207, 0.211-0.315
		l 1.046,0.226l 0.383-0.924l-0.899-0.58c 0.030-0.122, 0.054-0.246, 0.074-0.372L 16,198z M 10.5,199.675
		c-1.201,0-2.175-0.974-2.175-2.175c0-1.201, 0.974-2.175, 2.175-2.175s 2.175,0.974, 2.175,2.175C 12.675,198.701, 11.701,199.675, 10.5,199.675z"></path><path d="M 48,201.501l0-3.003 l-2.293-0.382c-0.093-0.283-0.207-0.557-0.339-0.82l 1.351-1.891l-2.123-2.123l-1.888,1.349
		c-0.264-0.134-0.54-0.248-0.825-0.342L 41.501,192l-3.003,0 l-0.381,2.288c-0.285,0.094-0.56,0.209-0.824,0.342
		l-1.888-1.349l-2.123,2.123l 1.351,1.891c-0.132,0.263-0.246,0.537-0.339,0.82L 32,198.499l0,3.003 l 2.299,0.383
		c 0.093,0.281, 0.206,0.552, 0.338,0.813l-1.355,1.898l 2.123,2.123l 1.901-1.358c 0.259,0.13, 0.53,0.243, 0.809,0.335
		L 38.499,208l 3.003,0 l 0.384-2.304c 0.279-0.092, 0.549-0.204, 0.809-0.335l 1.901,1.358l 2.123-2.123l-1.355-1.898
		c 0.132-0.261, 0.245-0.532, 0.338-0.813L 48,201.501z M 40,202c-1.105,0-2-0.895-2-2c0-1.105, 0.895-2, 2-2
		c 1.105,0, 2,0.895, 2,2C 42,201.105, 41.105,202, 40,202z"></path><path d="M 67,208L 77,208L 78,197L 66,197 	zM 74,194L 74,192 L 70,192 l0,2 L 65,194 l0,3 l 1-1l 12,0 l 1,1L 79,194 L 74,194 z M 73,194l-2,0 L 71,193 l 2,0 L 73,194 z"></path><path d="M 108.5,194L 99.5,194 c-0.828,0-1.5,0.672-1.5,1.5l0,0.5 l 12,0 l0-0.5 C 110,194.672, 109.328,194, 108.5,194zM 105.88,193l 0.221,1.578L 101.899,194.578 l 0.221-1.578L 105.88,193  M 106,192L 102,192 c-0.412,0-0.797,0.334-0.854,0.743l-0.292,2.093
	C 100.797,195.244, 101.088,195.578, 101.5,195.578l 5,0 c 0.412,0, 0.703-0.334, 0.646-0.743l-0.292-2.093C 106.797,192.334, 106.412,192, 106,192L 106,192z
	M 108.75,197L 99.25,197 c-0.55,0-0.959,0.448-0.909,0.996l 0.819,9.008C 99.209,207.552, 99.7,208, 100.25,208l 7.5,0 
	c 0.55,0, 1.041-0.448, 1.091-0.996l 0.819-9.008C 109.709,197.448, 109.3,197, 108.75,197z M 102,206l-1.5,0 l-0.5-7l 2,0 L 102,206 z M 105,206l-2,0 
	L 103,199 l 2,0 L 105,206 z M 107.5,206l-1.5,0 L 106,199 l 2,0 L 107.5,206z"></path><path d="M 129,195L 143,195L 143,198L 129,198zM 129,199L 143,199L 143,202L 129,202zM 129,203L 143,203L 143,206L 129,206z"></path><path d="M 168,195C 164.511,195, 161.486,197.032, 160,200c 1.486,2.968, 4.511,5, 8,5c 3.489,0, 6.514-2.032, 8-5
	C 174.514,197.032, 171.489,195, 168,195z M 171.945,197.652c 0.94,0.6, 1.737,1.403, 2.335,2.348
	c-0.598,0.946-1.395,1.749-2.335,2.348C 170.763,203.102, 169.399,203.5, 168,203.5c-1.399,0-2.763-0.398-3.945-1.152
	C 163.115,201.749, 162.319,200.946, 161.721,200c 0.598-0.946, 1.395-1.749, 2.335-2.348c 0.061-0.039, 0.123-0.077, 0.185-0.114
	C 164.085,197.965, 164,198.425, 164,198.906c0,2.209, 1.791,4, 4,4s 4-1.791, 4-4c0-0.481-0.085-0.942-0.241-1.369
	C 171.821,197.575, 171.883,197.613, 171.945,197.652z M 168,198.406c0,0.828-0.672,1.5-1.5,1.5s-1.5-0.672-1.5-1.5s 0.672-1.5, 1.5-1.5
	S 168,197.578, 168,198.406z"></path><path d="M 208,198.204l-5.528-0.803L 200,192.392l-2.472,5.009L 192,198.204l 4,3.899L 195.056,207.608L 200,205.009l 4.944,2.599
	l-0.944-5.505L 208,198.204z M 200,203.773l-3.492,1.836l 0.667-3.888l-2.825-2.753l 3.904-0.567L 200,194.863l 1.746,3.537
	l 3.904,0.567l-2.825,2.753l 0.667,3.888L 200,203.773z"></path><path d="M 240,198.204l-5.528-0.803L 232,192.392l-2.472,5.009L 224,198.204l 4,3.899L 227.056,207.608L 232,205.009l 4.944,2.599
	l-0.944-5.505L 240,198.204z M 232,203.773l-0.015,0.008L 232,194.863l 1.746,3.537l 3.904,0.567l-2.825,2.753l 0.667,3.888
	L 232,203.773z"></path><path d="M 272,198.204L 266.472,197.401L 264,192.392l-2.472,5.009L 256,198.204l 4,3.899L 259.056,207.608L 264,205.009l 4.944,2.599
	l-0.944-5.505L 272,198.204z"></path><path d="M 304,197.596 C 304,198.946 303.418,200.159 302.492,201 L 302.5,201 L 297.5,206 C 297,206.5 296.5,207 296,207 C 295.5,207 295,206.5 294.5,206 L 289.5,201 L 289.508,201 C 288.582,200.159 288,198.946 288,197.596 C 288,195.058 290.058,193 292.596,193 C 293.946,193 295.159,193.582 296,194.508 C 296.841,193.582 298.054,193 299.404,193 C 301.942,193 304,195.058 304,197.596 Z"></path><path d="M 336,197.596C 336,195.058, 333.942,193, 331.404,193C 330.054,193, 328.841,193.582, 328,194.508C 327.159,193.582, 325.946,193, 324.596,193
	C 322.058,193, 320,195.058, 320,197.596C 320,198.946, 320.582,200.159, 321.508,201L 321.5,201 l 5,5c 0.5,0.5, 1,1, 1.5,1s 1-0.5, 1.5-1l 5-5l-0.008,0 
	C 335.418,200.159, 336,198.946, 336,197.596z M 333.148,199.519L 328.086,204.586c-0.026,0.026-0.055,0.055-0.086,0.086
	c-0.031-0.030-0.060-0.059-0.086-0.086L 322.852,199.519C 322.303,199.020, 322,198.337, 322,197.596C 322,196.165, 323.165,195, 324.596,195
	c 0.741,0, 1.424,0.303, 1.923,0.852L 328,197.483l 1.481-1.631C 329.98,195.303, 330.663,195, 331.404,195
	C 332.835,195, 334,196.165, 334,197.596C 334,198.337, 333.697,199.020, 333.148,199.519z"></path><path d="M 368,197.596 C 368,198.946 367.418,200.159 366.492,201 L 366.5,201 L 361.5,206 C 361,206.5 360.5,207 360,207 C 359.5,207 359,206.5 358.5,206 L 353.5,201 L 353.508,201 C 352.582,200.159 352,198.946 352,197.596 C 352,195.058 354.058,193 356.596,193 C 357.463,193 358.273,193.24 358.965,193.657 L 357.5,196 L 361,198 L 359,203 L 364.5,197 L 361,195 L 362.233,193.151 C 362.607,193.053 362.999,193 363.404,193 C 365.942,193 368,195.058 368,197.596 Z"></path><path d="M 398.5,201 C 399.641,201 399,204 398,204 C 398.5,204 398,206.5 397,206.5 C 397,207.5 396,208 395,208 C 390.776,208 392.261,206.943 388,206.5 L 388,198.5 C 391.764,197.371 395.5,194.54 395.5,192 C 396.328,192 398.5,193 395.5,198 C 395.5,198 398,198 398.5,198 C 400,198 399.5,201 398.5,201 ZM 387,198.5 L 387,206.5 L 388,206.5 L 388,207 L 386,207 C 385.45,207 385,206.325 385,205.5 L 385,199.5 C 385,198.675 385.45,198 386,198 L 388,198 L 388,198.5 L 387,198.5 Z"></path><path d="M 417.5,199 C 416.359,199 417,196 418,196 C 417.5,196 418,193.5 419,193.5 C 419,192.5 420,192 421,192 C 425.224,192 423.739,193.057 428,193.5 L 428,201.5 C 424.236,202.629 420.5,205.46 420.5,208 C 419.672,208 417.5,207 420.5,202 C 420.5,202 418,202 417.5,202 C 416,202 416.5,199 417.5,199 ZM 429,201.5 L 429,193.5 L 428,193.5 L 428,193 L 430,193 C 430.55,193 431,193.675 431,194.5 L 431,200.5 C 431,201.325 430.55,202 430,202 L 428,202 L 428,201.5 L 429,201.5 Z"></path><path d="M 456,194.48 L 450.612,206 L 461.388,206 L 456,194.48 Z M 456,192 L 456,192 C 456.345,192 456.69,192.233 456.951,192.698 L 463.781,206.309 C 464.304,207.239 463.859,208 462.791,208 L 449.209,208 C 448.141,208 447.696,207.239 448.219,206.309 L 455.049,192.698 C 455.31,192.233 455.655,192 456,192 ZM 455,204A1,1 2520 1 0 457,204A1,1 2520 1 0 455,204zM 456,198 C 456.552,198 457,198.448 457,199 L 456.688,202 L 455.313,202 L 455,199 C 455,198.448 455.448,198 456,198 Z"></path><path d="M 488,193.5 C 486.264,193.5 484.631,194.176 483.404,195.404 C 482.176,196.631 481.5,198.264 481.5,200 C 481.5,201.736 482.176,203.368 483.404,204.596 C 484.631,205.824 486.264,206.5 488,206.5 C 489.736,206.5 491.368,205.824 492.596,204.596 C 493.824,203.368 494.5,201.736 494.5,200 C 494.5,198.264 493.824,196.631 492.596,195.404 C 491.368,194.176 489.736,193.5 488,193.5 Z M 488,192 L 488,192 C 492.418,192 496,195.582 496,200 C 496,204.418 492.418,208 488,208 C 483.582,208 480,204.418 480,200 C 480,195.582 483.582,192 488,192 ZM 487,203L 489,203L 489,205L 487,205zM 487,195L 489,195L 489,201L 487,201z"></path><path d="M 8,224C 3.582,224,0,227.582,0,232s 3.582,8, 8,8s 8-3.582, 8-8S 12.418,224, 8,224z M 8,238.5
		c-3.59,0-6.5-2.91-6.5-6.5S 4.41,225.5, 8,225.5s 6.5,2.91, 6.5,6.5S 11.59,238.5, 8,238.5zM 7,228L 9,228L 9,230L 7,230zM 10,236L 6,236L 6,235L 7,235L 7,232L 6,232L 6,231L 9,231L 9,235L 10,235 z"></path><path d="M 40,224C 35.582,224, 32,227.582, 32,232s 3.582,8, 8,8s 8-3.582, 8-8S 44.418,224, 40,224z M 39,227l 2,0 l0,2 l-2,0 L 39,227 z
	 M 42,237L 38,237 l0-1 l 1,0 L 39,232 l-1,0 l0-1 l 3,0 l0,5 l 1,0 L 42,237 z"></path><path d="M 64,232c0,4.418, 3.582,8, 8,8c 4.418,0, 8-3.582, 8-8S 76.418,224, 72,224C 67.582,224, 64,227.582, 64,232z M 78,232
	c0,1.144-0.321,2.214-0.876,3.124L 68.876,226.876C 69.786,226.32, 70.856,226, 72,226C 75.314,226, 78,228.686, 78,232z M 66,232
	c0-1.144, 0.321-2.214, 0.876-3.124l 8.247,8.247C 74.214,237.68, 73.144,238, 72,238C 68.686,238, 66,235.314, 66,232z"></path><path d="M 104,224C 99.582,224, 96,227.582, 96,232s 3.582,8, 8,8s 8-3.582, 8-8S 108.418,224, 104,224z M 108,229.414L 105.414,232
	L 108,234.586L 108,236 l-1.414,0 L 104,233.414L 101.414,236L 100,236 l0-1.414 L 102.586,232L 100,229.414L 100,228 l 1.414,0 L 104,230.586L 106.586,228L 108,228 
	L 108,229.414 z"></path><path d="M 136,224C 131.582,224, 128,227.582, 128,232s 3.582,8, 8,8s 8-3.582, 8-8S 140.418,224, 136,224z M 134.5,237L 131.188,232.688l 1.469-1.531l 1.844,2.344
	l 5.781-4.719l 0.719,0.719L 134.5,237z"></path><path d="M 176,235.5M 171.5,224L 164.5,224 L 160,228.5l0,7 l 4.5,4.5l 7,0 l 4.5-4.5L 176,228.5 L 171.5,224z M 169,237l-2,0 l0-2 l 2,0 L 169,237 z M 169,233l-2,0 L 167,227 l 2,0 L 169,233 z"></path><path d="M 207.854,236.854c0,00,00,0L 203,232l 4.854-4.854c 0,0, 0,0, 0,0
		c 0.052-0.052, 0.090-0.113, 0.114-0.178c 0.066-0.178, 0.029-0.386-0.114-0.529L 205.561,224.146c-0.143-0.143-0.351-0.181-0.529-0.114
		c-0.065,0.024-0.126,0.062-0.178,0.114c0,00,00,0L 200,229L 195.146,224.146
		c0,00,00,0c-0.052-0.052-0.113-0.090-0.178-0.114c-0.178-0.066-0.386-0.029-0.529,0.114L 192.146,226.439
		c-0.143,0.143-0.181,0.351-0.114,0.529c 0.024,0.065, 0.062,0.126, 0.114,0.178c 0,0, 0,0, 0,0L 197,232
		L 192.146,236.854c0,00,00,0c-0.052,0.052-0.090,0.113-0.114,0.178c-0.066,0.178-0.029,0.386, 0.114,0.529
		l 2.293,2.293c 0.143,0.143, 0.351,0.181, 0.529,0.114c 0.065-0.024, 0.126-0.062, 0.178-0.114c 0,0, 0,0, 0,0
		l 4.854-4.854l 4.854,4.854c 0,0, 0,0, 0,0c 0.052,0.052, 0.113,0.090, 0.178,0.114
		c 0.178,0.066, 0.386,0.029, 0.529-0.114l 2.293-2.293c 0.143-0.143, 0.181-0.351, 0.114-0.529
		C 207.944,236.967, 207.906,236.906, 207.854,236.854z"></path><path d="M 237.5,226L 230,233.5L 226.5,230L 224,232.5L 230,238.5L 240,228.5 z"></path><path d="M 262.21,238.339l-6.217-6.119l 3.084-3.035l 3.133,3.083l 6.713-6.607l 3.084,3.035L 262.21,238.339z
		 M 257.686,232.22l 4.524,4.453l 8.104-7.976l-1.391-1.369l-6.713,6.607L 259.077,230.851L 257.686,232.22z"></path><path d="M 288,230.5l0,3 c0,0.276, 0.224,0.5, 0.5,0.5l 15,0 c 0.276,0, 0.5-0.224, 0.5-0.5l0-3 c0-0.276-0.224-0.5-0.5-0.5L 288.5,230 C 288.224,230, 288,230.224, 288,230.5z"></path><path d="M 335.5,230L 330,230 L 330,224.5 c0-0.276-0.224-0.5-0.5-0.5l-3,0 c-0.276,0-0.5,0.224-0.5,0.5l0,5.5 L 320.5,230 c-0.276,0-0.5,0.224-0.5,0.5l0,3 
	c0,0.276, 0.224,0.5, 0.5,0.5l 5.5,0 l0,5.5 c0,0.276, 0.224,0.5, 0.5,0.5l 3,0 c 0.276,0, 0.5-0.224, 0.5-0.5L 330,234 l 5.5,0 c 0.276,0, 0.5-0.224, 0.5-0.5l0-3 
	C 336,230.224, 335.776,230, 335.5,230z"></path><path d="M 358,232 L 353,232 L 353,230 L 358,230 L 358,228 L 361,231 L 358,234 ZM 368,224 L 368,237 L 362,240 L 362,237 L 356,237 L 356,233 L 357,233 L 357,236 L 362,236 L 362,227 L 366,225 L 357,225 L 357,229 L 356,229 L 356,224 Z"></path><path d="M 396,234 L 396,232 L 391,232 L 391,230 L 396,230 L 396,228 L 399,231 ZM 395,233 L 395,237 L 390,237 L 390,240 L 384,237 L 384,224 L 395,224 L 395,229 L 394,229 L 394,225 L 386,225 L 390,227 L 390,236 L 394,236 L 394,233 Z"></path><path d="M 418,233c0,0.552, 0.448,1, 1,1s 1-0.448, 1-1L 420,229.414 l 8.293,8.293c 0.391,0.391, 1.024,0.391, 1.414,0
	C 429.902,237.512, 430,237.256, 430,237s-0.098-0.512-0.293-0.707L 421.414,228L 425,228 c 0.552,0, 1-0.448, 1-1s-0.448-1-1-1L 418,226 
	L 418,233 z"></path><path d="M 461.707,230.293l-5-5c-0.391-0.391-1.024-0.391-1.414,0l-5,5c-0.391,0.391-0.391,1.024,0,1.414
	c 0.391,0.391, 1.024,0.391, 1.414,0L 455,228.414L 455,238 c0,0.552, 0.448,1, 1,1c 0.552,0, 1-0.448, 1-1L 457,228.414 l 3.293,3.293
	C 460.488,231.902, 460.744,232, 461,232s 0.512-0.098, 0.707-0.293C 462.098,231.317, 462.098,230.683, 461.707,230.293z"></path><path d="M 493,226c0,00,0-0.001,0L 487,226 c-0.552,0-1,0.448-1,1s 0.448,1, 1,1l 3.586,0 L 482.293,236.293
	c-0.391,0.391-0.391,1.024,0,1.414C 482.488,237.902, 482.744,238, 483,238s 0.512-0.098, 0.707-0.293L 492,229.414L 492,233 
	c0,0.552, 0.448,1, 1,1s 1-0.448, 1-1L 494,226 L 493,226 z"></path><path d="M 9.707,269.707l 5-5c 0.391-0.391, 0.391-1.024,0-1.414l-5-5c-0.391-0.391-1.024-0.391-1.414,0
	c-0.391,0.391-0.391,1.024,0,1.414L 11.586,263L 2,263 c-0.552,0-1,0.448-1,1s 0.448,1, 1,1l 9.586,0 L 8.293,268.293
	C 8.098,268.488, 8,268.744, 8,269s 0.098,0.512, 0.293,0.707C 8.683,270.098, 9.317,270.098, 9.707,269.707z"></path><path d="M 46,263c0-0.552-0.448-1-1-1c-0.552,0-1,0.448-1,1l0,3.586 L 35.707,258.293
	c-0.391-0.391-1.024-0.391-1.414,0C 34.098,258.488, 34,258.744, 34,259s 0.098,0.512, 0.293,0.707L 42.586,268L 39,268 
	c-0.552,0-1,0.448-1,1s 0.448,1, 1,1l 7,0 L 46,263 z"></path><path d="M 66.293,265.707l 5,5c 0.391,0.391, 1.024,0.391, 1.414,0l 5-5c 0.391-0.391, 0.391-1.024,0-1.414
	c-0.391-0.391-1.024-0.391-1.414,0L 73,267.586L 73,258 c0-0.552-0.448-1-1-1s-1,0.448-1,1l0,9.586 L 67.707,264.293
	C 67.512,264.098, 67.256,264, 67,264s-0.512,0.098-0.707,0.293C 65.902,264.683, 65.902,265.317, 66.293,265.707z"></path><path d="M 105,270c 0.552,0, 1-0.448, 1-1c0-0.552-0.448-1-1-1L 101.414,268 l 8.293-8.293c 0.391-0.391, 0.391-1.024,0-1.414
	C 109.512,258.098, 109.256,258, 109,258s-0.512,0.098-0.707,0.293L 100,266.586L 100,263 c0-0.552-0.448-1-1-1s-1,0.448-1,1l0,7 L 105,270 z
	"></path><path d="M 134.293,258.293l-5,5c-0.391,0.391-0.391,1.024,0,1.414l 5,5c 0.391,0.391, 1.024,0.391, 1.414,0
	c 0.391-0.391, 0.391-1.024,0-1.414L 132.414,265L 142,265 c 0.552,0, 1-0.448, 1-1c0-0.552-0.448-1-1-1L 132.414,263 l 3.293-3.293
	C 135.902,259.512, 136,259.256, 136,259s-0.098-0.512-0.293-0.707C 135.317,257.902, 134.683,257.902, 134.293,258.293z"></path><path d="M 160,256l0,16 l 16,0 L 176,256 L 160,256 z M 175,271L 161,271 L 161,257 l 14,0 L 175,271 z M 172,259.5L 167,264.5l-3-3l-2,2l 5,5l 7-7L 172,259.5z"></path><path d="M 192,256l0,16 l 16,0 L 208,256 L 192,256 z M 207,271L 193,271 L 193,257 l 14,0 L 207,271 z"></path><path d="M 232,256C 227.582,256, 224,259.582, 224,264s 3.582,8, 8,8s 8-3.582, 8-8S 236.418,256, 232,256z M 232,270
		c-3.314,0-6-2.686-6-6c0-3.314, 2.686-6, 6-6c 3.314,0, 6,2.686, 6,6C 238,267.314, 235.314,270, 232,270zM 229,264A3,3 12600 1 0 235,264A3,3 12600 1 0 229,264z"></path><path d="M 264,256C 259.582,256, 256,259.582, 256,264s 3.582,8, 8,8s 8-3.582, 8-8S 268.418,256, 264,256z M 264,270
	c-3.314,0-6-2.686-6-6c0-3.314, 2.686-6, 6-6c 3.314,0, 6,2.686, 6,6C 270,267.314, 267.314,270, 264,270z"></path><path d="M 296.735,257c0,0-3.14,0-4.187,0C 290.672,257, 288.906,258.422, 288.906,260.069c0,1.683, 1.279,3.042, 3.189,3.042
		c 0.133,0, 0.262-0.003, 0.388-0.012c-0.124,0.237-0.213,0.504-0.213,0.782c0,0.468, 0.252,0.847, 0.57,1.157
		c-0.24,0-0.473,0.007-0.726,0.007C 289.789,265.044, 288,266.525, 288,268.060c0,1.512, 1.962,2.458, 4.286,2.458
		c 2.65,0, 4.114-1.504, 4.114-3.016c0-1.212-0.358-1.939-1.464-2.721c-0.378-0.268-1.102-0.919-1.102-1.302
		c0-0.449, 0.128-0.67, 0.804-1.198c 0.692-0.541, 1.182-1.302, 1.182-2.186c0-1.053-0.469-2.080-1.35-2.418l 1.327,0 
		L 296.735,257z M 295.273,267.242c 0.033,0.14, 0.051,0.284, 0.051,0.432c0,1.222-0.787,2.177-3.046,2.177
		c-1.607,0-2.767-1.017-2.767-2.239c0-1.198, 1.439-2.194, 3.046-2.177c 0.375,0.004, 0.725,0.064, 1.042,0.167
		C 294.471,266.207, 295.097,266.55, 295.273,267.242z M 292.7,262.684c-1.079-0.032-2.104-1.207-2.29-2.623
		c-0.186-1.417, 0.537-2.501, 1.615-2.469c 1.078,0.032, 2.104,1.169, 2.29,2.585
		C 294.502,261.594, 293.778,262.716, 292.7,262.684zM 301,260L 301,257L 300,257L 300,260L 297,260L 297,261L 300,261L 300,264L 301,264L 301,261L 304,261L 304,260 	z"></path><path d="M 320.013,269.588c-0.004-0.040-0.007-0.079-0.009-0.119C 320.005,269.509, 320.009,269.549, 320.013,269.588zM 323.686,264.83c 1.438,0.043, 2.402-1.448, 2.154-3.331c-0.248-1.883-1.616-3.393-3.053-3.436
		c-1.438-0.043-2.402,1.398-2.154,3.281C 320.881,263.226, 322.248,264.788, 323.686,264.83zM 336,260L 336,258.667 C 336,257.2, 334.8,256, 333.333,256L 322.667,256 C 321.225,256, 320.042,257.16, 320.002,258.593
		c 0.912-0.803, 2.177-1.474, 3.482-1.474c 1.395,0, 5.582,0, 5.582,0l-1.249,1.057l-1.77,0 
		c 1.174,0.45, 1.799,1.814, 1.799,3.214c0,1.176-0.653,2.187-1.576,2.906c-0.901,0.702-1.071,0.995-1.071,1.592
		c0,0.509, 0.965,1.375, 1.469,1.731c 1.475,1.040, 1.952,2.005, 1.952,3.616c0,0.257-0.032,0.513-0.095,0.765l 4.808,0 
		C 334.8,272, 336,270.801, 336,269.333L 336,261 l-3,0 L 333,264 l-1,0 l0-3 l-3,0 l0-1 L 332,260 L 332,257 l 1,0 l0,3 L 336,260 zM 322.904,267.968c 0.338,0, 0.647-0.009, 0.968-0.009c-0.424-0.411-0.76-0.916-0.76-1.537
		c0-0.369, 0.118-0.724, 0.283-1.039c-0.168,0.012-0.34,0.016-0.518,0.016c-1.162,0-2.149-0.376-2.878-0.998l0,1.051 
		l 0,3.152C 320.835,268.206, 321.826,267.968, 322.904,267.968zM 320.053,269.863c-0.017-0.085-0.031-0.172-0.040-0.26C 320.023,269.691, 320.036,269.778, 320.053,269.863zM 327.116,270.888c-0.235-0.919-1.070-1.374-2.233-2.181c-0.423-0.136-0.889-0.217-1.389-0.222
		c-1.4-0.015-2.705,0.546-3.441,1.381C 320.303,271.080, 321.383,272, 322.667,272l 4.476,0 c 0.028-0.174, 0.042-0.354, 0.042-0.538
		C 327.185,271.266, 327.161,271.075, 327.116,270.888z"></path><path d="M 360.998,272L 358,272 L 358,264 l-2,0 l0-2.757 l 2-0.001l-0.003-1.624C 357.997,257.369, 358.607,256, 361.256,256l 2.206,0 l0,2.758 l-1.379,0 
	c-1.032,0-1.081,0.385-1.081,1.104l-0.004,1.38l 2.48,0 l-0.292,2.757L 361,264L 360.998,272z"></path><path d="M 397.334,256L 386.667,256 C 385.2,256, 384,257.2, 384,258.667l0,10.666 C 384,270.801, 385.2,272, 386.667,272l 10.667,0
	c 1.467,0, 2.667-1.199, 2.667-2.667L 400,258.667 C 400,257.2, 398.8,256, 397.334,256z M 397.603,264L 395,264 l0,7 l-3,0 L 392,264 l-1.446,0 l0-2.29 L 392,261.71 
	l0-1.487 C 392,258.202, 392.872,257, 395.248,257l 2.738,0 l0,2.478 l-2.236,0 c-0.664-0.001-0.746,0.346-0.746,0.992L 395,261.71l 3,0 
	L 397.603,264z"></path><path d="M 432,259.038c-0.589,0.261-1.221,0.438-1.885,0.517c 0.678-0.406, 1.198-1.050, 1.443-1.816
	c-0.634,0.376-1.337,0.649-2.085,0.797c-0.599-0.638-1.452-1.037-2.396-1.037c-1.813,0-3.283,1.47-3.283,3.282
	c0,0.257, 0.029,0.508, 0.085,0.748c-2.728-0.137-5.147-1.444-6.766-3.43c-0.283,0.485-0.444,1.049-0.444,1.65
	c0,1.139, 0.58,2.144, 1.46,2.732c-0.538-0.017-1.044-0.165-1.487-0.411c0,0.0140,0.0270,0.041
	c0,1.59, 1.132,2.917, 2.633,3.219c-0.275,0.075-0.565,0.115-0.865,0.115c-0.212,0-0.417-0.021-0.618-0.059
	c 0.418,1.304, 1.63,2.253, 3.066,2.28c-1.123,0.88-2.539,1.405-4.077,1.405c-0.265,0-0.526-0.016-0.783-0.046
	c 1.453,0.931, 3.178,1.475, 5.032,1.475c 6.038,0, 9.34-5.002, 9.34-9.34c0-0.142-0.003-0.284-0.010-0.425
	C 431.003,260.274, 431.56,259.696, 432,259.038z"></path><path d="M 461.333,256L 450.667,256 C 449.2,256, 448,257.2, 448,258.667l0,10.666 C 448,270.801, 449.2,272, 450.667,272l 10.666,0 
	C 462.8,272, 464,270.801, 464,269.333L 464,258.667 C 464,257.2, 462.8,256, 461.333,256z M 461.095,261.341
	c 0.005,0.115, 0.008,0.23, 0.008,0.346c0,3.535-2.644,7.61-7.479,7.61c-1.484,0-2.866-0.443-4.029-1.202
	c 0.206,0.025, 0.415,0.037, 0.627,0.037c 1.232,0, 2.365-0.428, 3.265-1.145c-1.15-0.022-2.121-0.795-2.456-1.858
	c 0.161,0.031, 0.325,0.048, 0.495,0.048c 0.24,0, 0.472-0.033, 0.693-0.094c-1.202-0.246-2.109-1.327-2.109-2.623
	c0-0.011,0-0.022, 0-0.034c 0.354,0.2, 0.76,0.321, 1.191,0.335c-0.705-0.48-1.169-1.298-1.169-2.226
	c0-0.49, 0.13-0.95, 0.356-1.345c 1.296,1.618, 3.233,2.683, 5.418,2.795c-0.045-0.196-0.068-0.4-0.068-0.61
	c0-1.477, 1.177-2.675, 2.629-2.675c 0.756,0, 1.439,0.325, 1.919,0.845c 0.599-0.12, 1.161-0.343, 1.669-0.649
	c-0.196,0.625-0.613,1.149-1.156,1.48c 0.532-0.065, 1.038-0.208, 1.51-0.421C 462.054,260.493, 461.608,260.964, 461.095,261.341
	z"></path><path d="M 483.5,268L 480.5,268 c-0.277,0-0.5,0.224-0.5,0.5l0,3 c0,0.277, 0.224,0.5, 0.5,0.5l 3,0 c 0.277,0, 0.5-0.224, 0.5-0.5l0-3 
			C 484,268.223, 483.776,268, 483.5,268z M 483,270.5c0,0.277-0.224,0.5-0.5,0.5L 481.5,271 c-0.277,0-0.5-0.224-0.5-0.5l0-1 c0-0.277, 0.224-0.5, 0.5-0.5l 1,0 c 0.277,0, 0.5,0.224, 0.5,0.5L 483,270.5 z
			 M 495.5,269L 486.5,269 c-0.277,0-0.5,0.224-0.5,0.5l0,1 c0,0.277, 0.224,0.5, 0.5,0.5l 9,0 c 0.277,0, 0.5-0.224, 0.5-0.5l0-1 C 496,269.223, 495.777,269, 495.5,269z M 495.5,263L 486.5,263 
			c-0.277,0-0.5,0.224-0.5,0.5l0,1 c0,0.277, 0.224,0.5, 0.5,0.5l 9,0 c 0.277,0, 0.5-0.224, 0.5-0.5l0-1 C 496,263.223, 495.777,263, 495.5,263z M 483.5,256L 480.5,256 C 480.224,256, 480,256.224, 480,256.5l0,3 
			c0,0.277, 0.224,0.5, 0.5,0.5l 3,0 c 0.277,0, 0.5-0.724, 0.5-1L 484,256.5 C 484,256.224, 483.776,256, 483.5,256z M 483,258.5c0,0.277-0.224,0.5-0.5,0.5L 481.5,259 C 481.224,259, 481,258.776, 481,258.5L 481,257.5 
			c0-0.277, 0.224-0.5, 0.5-0.5l 1,0 c 0.277,0, 0.5,0.224, 0.5,0.5L 483,258.5 z M 483.5,262L 480.5,262 c-0.277,0-0.5,0.224-0.5,0.5l0,3 c0,0.277, 0.224,0.5, 0.5,0.5l 3,0 c 0.277,0, 0.5-0.224, 0.5-0.5l0-3 
			C 484,262.223, 483.776,262, 483.5,262z M 483,264.5c0,0.277-0.224,0.5-0.5,0.5L 481.5,265 c-0.277,0-0.5-0.224-0.5-0.5l0-1 c0-0.277, 0.224-0.5, 0.5-0.5l 1,0 c 0.277,0, 0.5,0.224, 0.5,0.5L 483,264.5 z
			 M 495.5,257L 486.5,257 c-0.277,0-0.5,0.224-0.5,0.5l0,1 c0,0.277, 0.224,0.5, 0.5,0.5l 9,0 c 0.277,0, 0.5-0.224, 0.5-0.5L 496,257.5 C 496,257.224, 495.777,257, 495.5,257z"></path><path d="M 3.5,294L 0.5,294 c-0.277,0-0.5,0.224-0.5,0.5l0,3 c0,0.277, 0.224,0.5, 0.5,0.5l 3,0 c 0.277,0, 0.5-0.224, 0.5-0.5l0-3 
			C 4,294.223, 3.776,294, 3.5,294z M 3,296.5c0,0.277-0.224,0.5-0.5,0.5L 1.5,297 c-0.277,0-0.5-0.224-0.5-0.5l0-1 c0-0.277, 0.224-0.5, 0.5-0.5l 1,0 c 0.277,0, 0.5,0.224, 0.5,0.5L 3,296.5 z
			 M 3.5,288L 0.5,288 C 0.224,288,0,288.224,0,288.5l0,3 c0,0.277, 0.224,0.5, 0.5,0.5l 3,0 c 0.277,0, 0.5-0.724, 0.5-1L 4,288.5 C 4,288.224, 3.776,288, 3.5,288z M 3,290.5c0,0.277-0.224,0.5-0.5,0.5L 1.5,291 
			C 1.224,291, 1,290.776, 1,290.5L 1,289.5 c0-0.277, 0.224-0.5, 0.5-0.5l 1,0 c 0.277,0, 0.5,0.224, 0.5,0.5L 3,290.5 z M 3.5,300L 0.5,300 c-0.277,0-0.5,0.224-0.5,0.5l0,3 c0,0.277, 0.224,0.5, 0.5,0.5l 3,0 
			c 0.277,0, 0.5-0.224, 0.5-0.5l0-3 C 4,300.223, 3.776,300, 3.5,300z M 3,302.5c0,0.277-0.224,0.5-0.5,0.5L 1.5,303 c-0.277,0-0.5-0.224-0.5-0.5l0-1 c0-0.277, 0.224-0.5, 0.5-0.5l 1,0 
			c 0.277,0, 0.5,0.224, 0.5,0.5L 3,302.5 z M 9.5,294l-3,0 c-0.277,0-0.5,0.224-0.5,0.5l0,3 c0,0.277, 0.224,0.5, 0.5,0.5l 3,0 c 0.277,0, 0.5-0.224, 0.5-0.5l0-3 
			C 10,294.223, 9.777,294, 9.5,294z M 9,296.5c0,0.277-0.224,0.5-0.5,0.5l-1,0 c-0.277,0-0.5-0.224-0.5-0.5l0-1 c0-0.277, 0.224-0.5, 0.5-0.5l 1,0 c 0.277,0, 0.5,0.224, 0.5,0.5
			L 9,296.5 z M 9.5,300l-3,0 c-0.277,0-0.5,0.224-0.5,0.5l0,3 c0,0.277, 0.224,0.5, 0.5,0.5l 3,0 c 0.277,0, 0.5-0.224, 0.5-0.5l0-3 C 10,300.223, 9.777,300, 9.5,300z M 9,302.5
			c0,0.277-0.224,0.5-0.5,0.5l-1,0 c-0.277,0-0.5-0.224-0.5-0.5l0-1 c0-0.277, 0.224-0.5, 0.5-0.5l 1,0 c 0.277,0, 0.5,0.224, 0.5,0.5L 9,302.5 z M 15.5,294l-3,0 c-0.277,0-0.5,0.224-0.5,0.5
			l0,3 c0,0.277, 0.224,0.5, 0.5,0.5l 3,0 c 0.277,0, 0.5-0.224, 0.5-0.5l0-3 C 16,294.223, 15.777,294, 15.5,294z M 15,296.5c0,0.277-0.224,0.5-0.5,0.5l-1,0 c-0.277,0-0.5-0.224-0.5-0.5
			l0-1 c0-0.277, 0.224-0.5, 0.5-0.5l 1,0 c 0.277,0, 0.5,0.224, 0.5,0.5L 15,296.5 z M 15.5,288l-3,0 c-0.277,0-0.5,0.224-0.5,0.5l0,3 c0,0.277, 0.224,0.5, 0.5,0.5l 3,0 c 0.277,0, 0.5-0.724, 0.5-1L 16,288.5 
			C 16,288.224, 15.777,288, 15.5,288z M 15,290.5c0,0.277-0.224,0.5-0.5,0.5l-1,0 c-0.277,0-0.5-0.224-0.5-0.5L 13,289.5 c0-0.277, 0.224-0.5, 0.5-0.5l 1,0 c 0.277,0, 0.5,0.224, 0.5,0.5L 15,290.5 z
			 M 9.5,288l-3,0 c-0.277,0-0.5,0.224-0.5,0.5l0,3 c0,0.277, 0.224,0.5, 0.5,0.5l 3,0 c 0.277,0, 0.5-0.724, 0.5-1L 10,288.5 C 10,288.224, 9.777,288, 9.5,288z M 9,290.5
			c0,0.277-0.224,0.5-0.5,0.5l-1,0 c-0.277,0-0.5-0.224-0.5-0.5L 7,289.5 c0-0.277, 0.224-0.5, 0.5-0.5l 1,0 c 0.277,0, 0.5,0.224, 0.5,0.5L 9,290.5 z M 15.5,300l-3,0 c-0.277,0-0.5,0.224-0.5,0.5l0,3 
			c0,0.277, 0.224,0.5, 0.5,0.5l 3,0 c 0.277,0, 0.5-0.224, 0.5-0.5l0-3 C 16,300.223, 15.777,300, 15.5,300z M 15,302.5c0,0.277-0.224,0.5-0.5,0.5l-1,0 c-0.277,0-0.5-0.224-0.5-0.5
			l0-1 c0-0.277, 0.224-0.5, 0.5-0.5l 1,0 c 0.277,0, 0.5,0.224, 0.5,0.5L 15,302.5 z"></path></svg>