<?xml version="1.0" encoding="utf-8"?>
<!-- Generator: IcoMoon.io  -->
<!DOCTYPE svg PUBLIC "-//W3C//DTD SVG 1.1//EN" "http://www.w3.org/Graphics/SVG/1.1/DTD/svg11.dtd">
<svg width="1984" height="1216" viewBox="0 0 1984 1216" data-du="" style="margin-left: -16px; margin-top: -16px;" data-tags="rss" xmlns="http://www.w3.org/2000/svg" fill="#000000"><path d="M 85.184,469.331c-46.998,0-85.183,38.334-85.183,85.047c0,46.971, 38.188,84.876, 85.183,84.876
		c 47.166,0, 85.309-37.905, 85.309-84.876C 170.491,507.665, 132.353,469.331, 85.184,469.331zM 0.098,217.456l0,122.661 c 79.865,0, 154.974,31.233, 211.536,87.82c 56.49,56.449, 87.676,131.898, 87.676,212.063l 123.201,0 
		C 422.51,406.987, 232.96,217.456, 0.098,217.456zM 0.242,0l0,122.722 c 284.864,0, 516.722,232.084, 516.722,517.278L 640,640 C 640,287.206, 352.966,0, 0.242,0z" transform="scale(0.1 0.1)"></path><path d="M 130.112,15.239c 1.735,0.935, 25.774,13.845, 26.67,14.325C 157.675,30.044, 158.834,30.276, 160,30.276c 1.17,0, 2.329-0.231, 3.221-0.715
		c 0.896-0.48, 24.932-13.39, 26.667-14.325C 191.627,14.304, 193.269,11.378, 190.080,11.378L 129.924,11.378 C 126.734,11.378, 128.373,14.304, 130.112,15.239z M 190.624,22.35
		c-1.973,1.031-26.194,13.692-27.403,14.325S 161.17,37.39, 160,37.39c-1.166,0-2.009-0.082-3.218-0.715S 131.349,23.378, 129.38,22.35
		C 127.989,21.625, 128,22.475, 128,23.129c0,0.654,0,26.080,0,26.080C 128,50.702, 129.988,52.622, 131.527,52.622l 56.949,0 c 1.543,0, 3.524-1.92, 3.524-3.41
		c0,0,0-25.426,0-26.080C 192,22.475, 192.014,21.625, 190.624,22.35z"></path><path d="M 282.426,3.209L 278.151,3.209L 275.551,14.094L 275.284,14.094L 272.556,3.209L 268.319,3.209L 268.319,3.21L 273.323,19.65L 273.323,30.443L 277.53,30.443L 277.53,19.143 	zM 283.706,29.436c 0.976,1.006, 2.279,1.511, 3.904,1.515l 0.036,0 c 1.689-0.004, 3.015-0.494, 3.981-1.467
		c 0.965-0.977, 1.448-2.325, 1.449-4.044l0-10.383 c-0.001-1.53-0.493-2.782-1.478-3.752c-0.987-0.973-2.253-1.458-3.801-1.458
		c-1.698,0-3.050,0.459-4.054,1.383c-1.007,0.922-1.51,2.162-1.51,3.717l 0.002,10.415
		C 282.236,27.068, 282.726,28.427, 283.706,29.436L 283.706,29.436z M 286.080,14.796L 286.080,14.796
		c0-0.44, 0.143-0.794, 0.427-1.066c 0.285-0.268, 0.654-0.402, 1.11-0.402c 0.493,0, 0.893,0.134, 1.197,0.402
		c 0.303,0.271, 0.457,0.626, 0.457,1.066l0,10.941 c0,0.541-0.149,0.962-0.447,1.27c-0.297,0.309-0.699,0.463-1.207,0.463
		c-0.493,0-0.872-0.15-1.14-0.451c-0.266-0.304-0.398-0.73-0.398-1.282L 286.080,14.796 zM 303.175,10.353l0,15.251 c-0.353,0.436-0.736,0.797-1.157,1.080c-0.418,0.283-0.765,0.423-1.040,0.423
		c-0.35,0-0.604-0.106-0.759-0.32c-0.155-0.213-0.233-0.556-0.233-1.033L 299.986,10.353 l-3.737,0 l0,16.799 
		c 0.001,1.193, 0.22,2.087, 0.656,2.684c 0.437,0.597, 1.089,0.894, 1.952,0.894c 0.699,0, 1.422-0.213, 2.17-0.638
		c 0.743-0.427, 1.459-1.050, 2.148-1.866l0,2.217 l 3.734,0 L 306.909,10.353 L 303.175,10.353 zM 279.271,38.169L 270.443,38.169 l0,2.703 l 2.975,0 l0,15.919 l 2.876,0 L 276.295,40.872 l 2.977,0 L 279.271,38.169 L 279.271,38.169z M 283.971,53.482l0-10.427 
		l 2.554,0 l0,13.737 l-2.554,0 l0-1.517 c-0.47,0.561-0.96,0.985-1.469,1.277c-0.509,0.292-1.004,0.438-1.483,0.438
		c-0.59,0-1.036-0.204-1.334-0.612c-0.3-0.409-0.45-1.022-0.45-1.841l0-11.481 l 2.554,0 l0,10.529 c0,0.327, 0.054,0.563, 0.162,0.707
		c 0.106,0.146, 0.28,0.218, 0.52,0.218c 0.187,0, 0.424-0.095, 0.712-0.288C 283.47,54.027, 283.733,53.782, 283.971,53.482
		L 283.971,53.482L 283.971,53.482z M 293.868,42.88L 293.868,42.88c-0.396,0-0.788,0.11-1.176,0.328
		c-0.386,0.218-0.753,0.536-1.098,0.956l0-5.995 L 289.018,38.169 l0,18.622 l 2.577,0 l0-1.056 c 0.338,0.417, 0.701,0.728, 1.091,0.927
		c 0.391,0.202, 0.836,0.304, 1.336,0.304c 0.758,0, 1.335-0.26, 1.736-0.778c 0.4-0.519, 0.599-1.266, 0.599-2.243l0-7.62 
		c0-1.122-0.212-1.976-0.639-2.565C 295.293,43.175, 294.675,42.88, 293.868,42.88L 293.868,42.88z M 293.728,53.571
		L 293.728,53.571c0,0.439-0.074,0.754-0.222,0.947c-0.147,0.193-0.376,0.289-0.69,0.289c-0.216,0-0.421-0.048-0.616-0.149
		c-0.197-0.098-0.397-0.259-0.607-0.482l0-8.56 c 0.175-0.189, 0.35-0.328, 0.529-0.419c 0.177-0.089, 0.356-0.134, 0.539-0.134
		c 0.346,0, 0.61,0.121, 0.792,0.36c 0.183,0.24, 0.274,0.593, 0.274,1.057L 293.728,53.571 L 293.728,53.571z M 305.796,50.244L 305.796,50.244
		L 305.796,46.748 c0-1.304-0.313-2.303-0.938-2.997c-0.629-0.696-1.527-1.043-2.695-1.043c-1.142,0-2.074,0.375-2.797,1.125
		c-0.722,0.751-1.081,1.723-1.081,2.916l0,6.167 c0,1.321, 0.328,2.36, 0.984,3.117c 0.659,0.754, 1.558,1.132, 2.701,1.132
		c 1.272,0, 2.227-0.355, 2.867-1.068c 0.641-0.713, 0.96-1.774, 0.96-3.181l0-1.032 l-2.628,0 l0,0.954 c0,0.809-0.084,1.33-0.253,1.567
		c-0.168,0.235-0.465,0.354-0.889,0.354c-0.405,0-0.692-0.139-0.861-0.419c-0.169-0.279-0.255-0.782-0.255-1.503l0-2.592 L 305.796,50.244 
		L 305.796,50.244z M 300.911,46.722L 300.911,46.722c0-0.575, 0.090-0.988, 0.267-1.236c 0.177-0.249, 0.469-0.373, 0.876-0.373
		c 0.388,0, 0.672,0.124, 0.848,0.373c 0.177,0.248, 0.266,0.661, 0.266,1.236l0,1.392 l-2.257,0 L 300.911,46.722 z"></path><path d="M 425.883,29.82c-0.326-6.62-5.021-10.602-10.691-10.602l-0.215,0 c-6.544,0-10.174,5.386-10.174,11.505
	c0,6.849, 4.391,11.177, 10.148,11.177c 6.418,0, 10.639-4.921, 10.946-10.743L 425.883,29.82z M 415.009,13.294
	c 4.373,0, 8.485,2.022, 11.502,5.19l0,0.012 c0-1.521, 0.977-2.668, 2.336-2.668l 0.343-0.002c 2.123,0, 2.559,2.102, 2.559,2.768
	l 0.010,23.641c-0.15,1.548, 1.526,2.347, 2.456,1.353c 3.628-3.901, 7.966-20.054-2.256-29.415
	c-9.526-8.727-22.309-7.289-29.107-2.384c-7.226,5.216-11.851,16.761-7.359,27.605
	c 4.896,11.827, 18.908,15.355, 27.235,11.834c 4.217-1.78, 6.165,4.185, 1.785,6.135c-6.617,2.949-25.036,2.652-33.641-12.945
	c-5.813-10.533-5.503-29.064, 9.914-38.665c 11.794-7.346, 27.345-5.313, 36.721,4.936
	c 9.801,10.714, 9.229,30.777-0.33,38.577c-4.332,3.544-10.764,0.096-10.724-5.069l-0.045-1.688
	c-3.017,3.132-7.029,4.96-11.402,4.96c-8.64,0-16.242-7.955-16.242-16.996
	C 398.766,21.342, 406.369,13.294, 415.009,13.294L 415.009,13.294"></path><path d="M 561.692,34.217c-0.874-1.755-3.295-3.216-6.512-0.682
	c-4.348,3.426-11.333,3.426-11.333,3.426s-6.985,0-11.333-3.426c-3.218-2.535-5.638-1.074-6.512,0.682
	c-1.524,3.061, 0.198,4.541, 4.083,7.035c 3.319,2.131, 7.878,2.926, 10.823,3.224l-2.458,2.458
	c-3.462,3.462-6.804,6.804-9.123,9.123c-1.386,1.386-1.386,3.634,0,5.020l 0.418,0.418c 0.692,0.692, 1.597,1.038, 2.503,1.040
	l 0.013,0 c 0.906-0.002, 1.812-0.348, 2.503-1.040l 9.123-9.123c 3.462,3.461, 6.804,6.804, 9.123,9.123
	c 1.386,1.386, 3.634,1.386, 5.020,0l 0.418-0.418c 1.386-1.386, 1.386-3.634,0-5.020l-9.123-9.123l-2.466-2.465
	c 2.947-0.303, 7.458-1.103, 10.749-3.216C 561.494,38.758, 563.216,37.278, 561.692,34.217L 561.692,34.217z M 543.847,9.23
	c 4.207,0, 7.616,3.41, 7.616,7.616c0,4.207-3.41,7.616-7.616,7.616s-7.616-3.41-7.616-7.616S 539.64,9.23, 543.847,9.23
	L 543.847,9.23z M 543.847,32.328c 8.55,0, 15.481-6.931, 15.481-15.481c0-8.55-6.931-15.481-15.481-15.481
	s-15.481,6.931-15.481,15.481C 528.365,25.397, 535.297,32.328, 543.847,32.328L 543.847,32.328z"></path><path d="M 654.038,8.219l 21.003,0 c 6.911,0, 12.794,3.386, 12.788,10.232
	c -0.005,5.717 -2.075,7.94 -6.328,10.455c 0.363,0.299, 2.8,1.026, 3.619,1.43c 1.31,0.646, 2.081,1.299, 2.943,2.175
	c 2.413,2.453, 2.863,4.696, 2.863,8.543c0,8.928 -8.635,13.416 -16.951,13.416l -20.026,0 L 654.038,8.219L 654.038,8.219z
	 M 665.451,20.37l -0.002,6.006c 5.41,0, 10.493,0.713, 10.493-5.153c0-5.43 -5.751-4.536 -10.497-4.536L 665.451,20.37
	L 665.451,20.37z M 665.448,45.956c 5.928,0, 13.251,0.977, 13.38-5.753c 0.135-7.020 -7.523-5.753 -13.376-5.753L 665.448,45.956z"></path><path d="M 818.856,49.227c-0.096,0-0.19,0-0.286,0c-3.075-0.513-5.171-2.72-6.961-4.762
	c-1.007-1.155-2.557-3.766-4.403-3.465c-2.622,0.429-1.318,4.979-2.414,6.929c-0.884,1.575-4.648,1.291-7.243,1.009
	c-8.193-0.883-12.38-5.327-16.050-10.103c-3.924-5.105-6.978-10.446-9.802-16.31c-0.915-1.898-2.13-3.998-2.13-6.351
	c 1.328-1.099, 3.495-0.721, 5.682-0.721c 1.854,0, 4.749-0.415, 6.107,0.289c 0.807,0.415, 1.622,2.629, 2.273,4.041
	c 1.496,3.241, 2.872,5.573, 4.687,8.227c 0.786,1.15, 1.994,3.32, 3.409,3.031c 1.373-0.279, 1.503-3.717, 1.562-5.916
	c 0.069-2.498-0.003-5.603-0.71-6.929c-0.668-1.251-1.889-1.276-3.125-2.022c 1.028-2.1, 3.847-2.31, 7.245-2.31
	c 2.854,0, 6.841-0.321, 7.954,1.59c 1.133,1.945, 0.356,5.453, 0.284,8.081c-0.079,2.955-0.583,6.006, 1.422,7.363
	c 1.54-0.17, 2.369-1.696, 3.265-2.888c 1.96-2.609, 3.172-4.867, 4.687-8.227c 0.622-1.38, 1.288-3.754, 2.414-4.186
	c 1.716-0.659, 4.45-0.143, 6.961-0.143c 2.058,0, 5.731-0.578, 6.393,0.866c 0.549,1.197-1.066,4.221-1.562,5.050
	c-1.903,3.17-3.769,5.188-5.823,7.938c-0.822,1.101-2.518,2.861-2.417,4.621c 0.077,1.335, 1.397,2.36, 2.417,3.32
	c 2.204,2.081, 3.752,3.596, 5.539,5.916c 0.671,0.874, 2.128,2.767, 1.987,3.898C 829.786,50.59, 821.611,48.379, 818.856,49.227
	z"></path><path d="M 944,13.213l-9.139,0 c-1.082,0-2.288,1.421-2.288,3.325L 932.573,23.136 L 944,23.136 l0,9.408 l-11.427,0 L 932.573,60.8 L 921.782,60.8 l0-28.253 L 912,32.547 L 912,23.136 l 9.782,0 L 921.782,17.6 
	c0-7.939, 5.51-14.4, 13.075-14.4L 944,3.2 L 944,13.213 z"></path><path d="M 1085.44,13.738c-2.17,0.963-4.496,1.61-6.941,1.904c 2.496-1.494, 4.413-3.862, 5.312-6.682c-2.333,1.382-4.918,2.39-7.667,2.931
	c-2.205-2.349-5.344-3.814-8.819-3.814c-6.672,0-12.080,5.408-12.080,12.077c0,0.947, 0.106,1.869, 0.314,2.752
	c-10.038-0.502-18.941-5.312-24.896-12.621C 1029.619,12.067, 1029.021,14.144, 1029.021,16.358c0,4.192, 2.134,7.888, 5.376,10.054
	c-1.981-0.064-3.843-0.605-5.472-1.51c0,0.051,0,0.099,0,0.15c0,5.853, 4.166,10.733, 9.69,11.846c-1.011,0.275-2.080,0.422-3.184,0.422
	c-0.778,0-1.533-0.074-2.272-0.214c 1.536,4.8, 6,8.291, 11.283,8.387c-4.134,3.242-9.341,5.171-15.002,5.171
	c-0.976,0-1.936-0.058-2.88-0.17c 5.344,3.427, 11.693,5.427, 18.518,5.427c 22.218,0, 34.368-18.406, 34.368-34.371
	c0-0.522-0.010-1.043-0.035-1.562C 1081.773,18.288, 1083.818,16.16, 1085.44,13.738z"></path><path d="M 1169.994,12.231c0,3.024-2.233,5.473-5.905,5.473c-3.456,0-5.689-2.449-5.689-5.473c0-3.095, 2.307-5.473, 5.834-5.473
		S 1169.923,9.136, 1169.994,12.231z M 1158.69,57.242L 1158.69,22.028 L 1169.636,22.028 l0,35.214 L 1158.69,57.242 zM 1176.186,33.26c0-4.392-0.145-8.064-0.29-11.233l 9.506,0 l 0.506,4.898l 0.216,0 c 1.439-2.307, 4.969-5.689, 10.874-5.689
		c 7.199,0, 12.601,4.824, 12.601,15.195l0,20.813 l-10.945,0 l0-19.516 c0-4.537-1.587-7.635-5.547-7.635c-3.024,0-4.821,2.088-5.615,4.105
		c-0.29,0.72-0.361,1.727-0.361,2.736l0,20.309 L 1176.186,57.245 L 1176.186,33.26 z"></path><path d="M 1314.942,4c0,0-12.56,0-16.746,0C 1290.688,4, 1283.622,9.688, 1283.622,16.276c0,6.733, 5.118,12.167, 12.756,12.167
		c 0.531,0, 1.047-0.011, 1.553-0.047c-0.496,0.949-0.85,2.018-0.85,3.128c0,1.871, 1.006,3.388, 2.279,4.627
		c-0.962,0-1.89,0.028-2.903,0.028C 1287.157,36.178, 1280,42.101, 1280,48.242c0,6.049, 7.846,9.832, 17.146,9.832
		c 10.602,0, 16.457-6.015, 16.457-12.064c0-4.85-1.431-7.755-5.855-10.883c-1.514-1.072-4.408-3.677-4.408-5.209
		c0-1.795, 0.512-2.679, 3.214-4.79c 2.77-2.164, 4.73-5.206, 4.73-8.745c0-4.213-1.876-8.319-5.398-9.673l 5.31,0 
		L 1314.942,4z M 1309.093,44.966c 0.133,0.561, 0.205,1.138, 0.205,1.727c0,4.888-3.15,8.707-12.186,8.707
		c-6.428,0-11.070-4.069-11.070-8.956c0-4.79, 5.758-8.778, 12.185-8.708c 1.5,0.016, 2.898,0.257, 4.167,0.668
		C 1305.883,40.83, 1308.387,42.201, 1309.093,44.966z M 1298.801,26.736c-4.315-0.129-8.415-4.827-9.159-10.491
		c-0.745-5.667, 2.148-10.003, 6.462-9.874c 4.313,0.13, 8.415,4.676, 9.16,10.341
		C 1306.007,22.378, 1303.114,26.865, 1298.801,26.736zM 1332,16L 1332,4L 1328,4L 1328,16L 1316,16L 1316,20L 1328,20L 1328,32L 1332,32L 1332,20L 1344,20L 1344,16 	z"></path><path d="M 1444.109,48.54c 0.389-1.283, 1.411-2.602, 1.936-4.199
	c 0.715-2.176, 0.569-2.985, 0.618-5.314c 5.049,1.055, 5.837,0.46, 9.86-1.309c 0.518,0.687, 2.065,11.962, 2.196,13.713
	c-0.563,0.355-1.115,0.5-1.693,0.924c-0.745,0.547-0.707,0.842-1.351,1.369L 1444.109,48.54L 1444.109,48.54z M 1431.54,20.332
	c-1.093,1.022-5.414,4.98-3.999,6.926c 1.743,2.396, 3.368,4.452, 5.083,6.788l 9.501,12.725
	c 0.274,0.35, 0.37,0.45, 0.636,0.697c 0.040-0.037, 0.093-0.089, 0.118-0.114l 0.225-0.232c 0.030-0.035, 0.072-0.083, 0.101-0.12
	c 0.235-0.291, 0.071-0.079, 0.267-0.377c 0.205-0.312, 0.306-0.497, 0.465-0.81c 0.323-0.633, 0.568-1.274, 0.769-1.979
	c 1.162-4.079, 0.094-5.936-1.667-8.348l-6.876-9.213C 1435.342,25.169, 1432.221,20.803, 1431.54,20.332L 1431.54,20.332z
	 M 1432.689,19.168c 0.237,0.865, 3.841,5.43, 4.577,6.424c 1.505,2.032, 2.964,3.994, 4.518,6.065
	c 1.093,1.458, 3.416,5.227, 5,5.788c 3.096,1.097, 6.363,0.479, 8.836-0.888c-0.61-1.257-10.907-14.744-12.461-16.861
	l-2.52-3.414C 1439.289,14.919, 1433.731,18.786, 1432.689,19.168L 1432.689,19.168z M 1436.727,14.194
	c-1.175,0.455-3.892,1.842-4.614,1.968c-0.414,0.611-1.419,1.22-2.004,1.656c-2.299,1.712-3.176,3.455-4.521,5.639
	l-0.4,0.526c-0.936-0.979-1.868-2.228-2.639-3.462c 0.556-3.078, 4.752-6.897, 6.847-8.116
	c 1.235-0.741, 3.189-1.852, 4.845-2.134l 1.534-0.353c 0.589,0.556, 2.768,3.331, 2.842,3.899L 1436.727,14.194L 1436.727,14.194z
	 M 1420.604,17.757c-0.911-5.41, 7.574-12.396, 13.27-10.147c-0.672,0.462-6.949,1.559-10.984,6.8
	C 1422.044,15.509, 1420.951,17.576, 1420.604,17.757L 1420.604,17.757z M 1440.062,49.681c 1.212,1.664, 1.648,1.505, 4.192,2.59
	c 5.674,2.421, 13.334,5.558, 18.761,8.089c-0.422-6.175-1.958-16.448-2.866-22.938
	c-0.349-2.493-22.121-31.237-24.066-32.667c-6.714-4.935-23.867,7.596-17.836,15.713
	c 1.475,1.985, 2.669,3.593, 4.162,5.579C 1442.961,53.376, 1423.88,27.464, 1440.062,49.681z"></path><path d="M 1563.429,36.571l0,13.714 q0,1.857 -1.357,3.214t-3.214,1.357l-18.286,0 q-1.857,0 -3.214-1.357t-1.357-3.214l0-13.714 q0-1.857 1.357-3.214t 3.214-1.357l 18.286,0 q 1.857,0 3.214,1.357t 1.357,3.214zM 1563.429,9.143l0,13.714 q0,1.857 -1.357,3.214t-3.214,1.357l-18.286,0 q-1.857,0 -3.214-1.357t-1.357-3.214l0-13.714 q0-1.857 1.357-3.214t 3.214-1.357l 18.286,0 q 1.857,0 3.214,1.357t 1.357,3.214zM 1595.429,36.571l0,13.714 q0,1.857 -1.357,3.214t-3.214,1.357 l-18.286,0 q-1.857,0 -3.214-1.357t-1.357-3.214l0-13.714 q0-1.857 1.357-3.214t 3.214-1.357l 18.286,0 q 1.857,0 3.214,1.357t 1.357,3.214zM 1595.429,9.143l0,13.714 q0,1.857 -1.357,3.214t-3.214,1.357l-18.286,0 q-1.857,0 -3.214-1.357t-1.357-3.214l0-13.714 q0-1.857 1.357-3.214t 3.214-1.357l 18.286,0 q 1.857,0 3.214,1.357t 1.357,3.214z"></path><path d="M 1682.286,44.571l0,6.857 q0,1.429 -1,2.429t-2.429,1l-11.429,0 q-1.429,0 -2.429-1t-1-2.429l0-6.857 q0-1.429 1-2.429t 2.429-1l 11.429,0 q 1.429,0 2.429,1t 1,2.429zM 1682.286,26.286l0,6.857 q0,1.429 -1,2.429t-2.429,1l-11.429,0 q-1.429,0 -2.429-1t-1-2.429l0-6.857 q0-1.429 1-2.429t 2.429-1l 11.429,0 q 1.429,0 2.429,1t 1,2.429zM 1705.143,44.571l0,6.857 q0,1.429 -1,2.429t-2.429,1l-11.429,0  q-1.429,0 -2.429-1t-1-2.429l0-6.857 q0-1.429 1-2.429t 2.429-1l 11.429,0 q 1.429,0 2.429,1t 1,2.429zM 1682.286,8l0,6.857 q0,1.429 -1,2.429t-2.429,1l-11.429,0 q-1.429,0 -2.429-1t-1-2.429l0-6.857 q0-1.429 1-2.429t 2.429-1l 11.429,0 q 1.429,0 2.429,1t 1,2.429zM 1705.143,26.286l0,6.857 q0,1.429 -1,2.429t-2.429,1l-11.429,0 q-1.429,0 -2.429-1t-1-2.429l0-6.857 q0-1.429 1-2.429t 2.429-1 l 11.429,0 q 1.429,0 2.429,1t 1,2.429zM 1728,44.571l0,6.857 q0,1.429 -1,2.429t-2.429,1l-11.429,0 q-1.429,0 -2.429-1t-1-2.429l0-6.857 q0-1.429 1-2.429t 2.429-1l 11.429,0 q 1.429,0 2.429,1t 1,2.429zM 1705.143,8l0,6.857 q0,1.429 -1,2.429t-2.429,1l-11.429,0 q-1.429,0 -2.429-1t-1-2.429l0-6.857 q0-1.429 1-2.429t 2.429-1l 11.429,0 q 1.429,0 2.429,1t 1,2.429zM 1728,26.286l0,6.857  q0,1.429 -1,2.429t-2.429,1l-11.429,0 q-1.429,0 -2.429-1t-1-2.429l0-6.857 q0-1.429 1-2.429t 2.429-1l 11.429,0 q 1.429,0 2.429,1t 1,2.429zM 1728,8l0,6.857 q0,1.429 -1,2.429t-2.429,1l-11.429,0 q-1.429,0 -2.429-1t-1-2.429l0-6.857 q0-1.429 1-2.429t 2.429-1l 11.429,0 q 1.429,0 2.429,1t 1,2.429z"></path><path d="M 1851.679,20.214q0,1.429 -1,2.429l-25.857,25.857l-4.857,4.857q-1,1 -2.429,1t-2.429-1l-4.857-4.857l-12.929-12.929q-1-1 -1-2.429t 1-2.429l 4.857-4.857q 1-1 2.429-1t 2.429,1l 10.5,10.536l 23.429-23.464q 1-1 2.429-1t 2.429,1l 4.857,4.857q 1,1 1,2.429z"></path><path d="M 1966.357,47.214q0,1.429 -1,2.429l-4.857,4.857q-1,1 -2.429,1t-2.429-1l-10.5-10.5l-10.5,10.5q-1,1 -2.429,1t-2.429-1l-4.857-4.857q-1-1 -1-2.429t 1-2.429l 10.5-10.5l-10.5-10.5q-1-1 -1-2.429t 1-2.429l 4.857-4.857q 1-1 2.429-1t 2.429,1l 10.5,10.5l 10.5-10.5q 1-1 2.429-1t 2.429,1l 4.857,4.857q 1,1 1,2.429 t-1,2.429l-10.5,10.5l 10.5,10.5q 1,1 1,2.429z"></path><path d="M 36.571,156.571l0,2.286 q0,0.464 -0.339,0.804t-0.804,0.339l-8,0 l0,8 q0,0.464 -0.339,0.804t-0.804,0.339l-2.286,0 q-0.464,0 -0.804-0.339t-0.339-0.804l0-8 l-8,0 q-0.464,0 -0.804-0.339t-0.339-0.804l0-2.286 q0-0.464 0.339-0.804t 0.804-0.339l 8,0 l0-8 q0-0.464 0.339-0.804t 0.804-0.339l 2.286,0 q 0.464,0 0.804,0.339t 0.339,0.804l0,8 l 8,0  q 0.464,0 0.804,0.339t 0.339,0.804zM 41.143,157.714q0-6.607 -4.696-11.304t-11.304-4.696t-11.304,4.696t-4.696,11.304t 4.696,11.304t 11.304,4.696t 11.304-4.696t 4.696-11.304zM 59.429,187.429q0,1.893 -1.339,3.232t-3.232,1.339q-1.929,0 -3.214-1.357l-12.25-12.214q-6.393,4.429 -14.25,4.429q-5.107,0 -9.768-1.982 t-8.036-5.357t-5.357-8.036t-1.982-9.768t 1.982-9.768t 5.357-8.036t 8.036-5.357t 9.768-1.982t 9.768,1.982t 8.036,5.357t 5.357,8.036t 1.982,9.768q0,7.857 -4.429,14.25l 12.25,12.25q 1.321,1.321 1.321,3.214z"></path><path d="M 164.571,156.571l0,2.286 q0,0.464 -0.339,0.804t-0.804,0.339l-20.571,0 q-0.464,0 -0.804-0.339t-0.339-0.804l0-2.286 q0-0.464 0.339-0.804t 0.804-0.339l 20.571,0 q 0.464,0 0.804,0.339t 0.339,0.804zM 169.143,157.714q0-6.607 -4.696-11.304t-11.304-4.696t-11.304,4.696t-4.696,11.304t 4.696,11.304t 11.304,4.696t 11.304-4.696t 4.696-11.304z M 187.429,187.429q0,1.893 -1.339,3.232t-3.232,1.339q-1.929,0 -3.214-1.357l-12.25-12.214q-6.393,4.429 -14.25,4.429q-5.107,0 -9.768-1.982t-8.036-5.357t-5.357-8.036t-1.982-9.768t 1.982-9.768t 5.357-8.036t 8.036-5.357t 9.768-1.982t 9.768,1.982t 8.036,5.357t 5.357,8.036t 1.982,9.768q0,7.857 -4.429,14.25l 12.25,12.25q 1.321,1.321 1.321,3.214z "></path><path d="M 306.286,163.429l0,17.143 q0,0.929 -0.679,1.607t-1.607,0.679l-13.714,0 l0-13.714 l-9.143,0 l0,13.714 l-13.714,0 q-0.929,0 -1.607-0.679t-0.679-1.607l0-17.143 q0-0.036 0.018-0.107t 0.018-0.107l 20.536-16.929l 20.536,16.929q 0.036,0.071 0.036,0.214zM 314.25,160.964l-2.214,2.643q-0.286,0.321 -0.75,0.393l-0.107,0 q-0.464,0 -0.75-0.25l-24.714-20.607l-24.714,20.607q-0.429,0.286 -0.857,0.25q-0.464-0.071 -0.75-0.393l-2.214-2.643q-0.286-0.357 -0.25-0.839t 0.393-0.768 l 25.679-21.393q 1.143-0.929 2.714-0.929t 2.714,0.929l 8.714,7.286l0-6.964 q0-0.5 0.321-0.821t 0.821-0.321l 6.857,0 q 0.5,0 0.821,0.321t 0.321,0.821l0,14.571 l 7.821,6.5q 0.357,0.286 0.393,0.768t-0.25,0.839z"></path><path d="M 411.429,150.857q0-3.786 -2.679-6.464t-6.464-2.679t-6.464,2.679t-2.679,6.464t 2.679,6.464t 6.464,2.679t 6.464-2.679t 2.679-6.464zM 420.571,150.857q0,3.893 -1.179,6.393l-13,27.643q-0.571,1.179 -1.696,1.857t-2.411,0.679t-2.411-0.679t-1.661-1.857l-13.036-27.643q-1.179-2.5 -1.179-6.393q0-7.571 5.357-12.929t 12.929-5.357t 12.929,5.357t 5.357,12.929z"></path><path d="M 538.5,184.179l-23.286-23.25q-1.321-1.321 -1.321-3.232t 1.321-3.232l 23.286-23.25q 1.321-1.321 3.232-1.321t 3.232,1.321l 2.679,2.679q 1.321,1.321 1.321,3.232t-1.321,3.232l-17.357,17.357l 17.357,17.321q 1.321,1.357 1.321,3.25t-1.321,3.214l-2.679,2.679q-1.321,1.321 -3.232,1.321t-3.232-1.321z"></path><path d="M 679.25,157.714q0,1.857 -1.321,3.25l-23.286,23.25q-1.321,1.321 -3.214,1.321t-3.214-1.321l-2.714-2.679q-1.321-1.393 -1.321-3.25q0-1.893 1.321-3.214l 17.357-17.357l-17.357-17.321q-1.321-1.393 -1.321-3.25q0-1.893 1.321-3.214l 2.714-2.679q 1.286-1.357 3.214-1.357t 3.214,1.357l 23.286,23.25q 1.321,1.321 1.321,3.214z"></path><path d="M 822.857,160l0,4.571 q0,1.893 -1.161,3.232t-3.018,1.339l-25.143,0 l 10.464,10.5q 1.357,1.286 1.357,3.214t-1.357,3.214l-2.679,2.714q-1.321,1.321 -3.214,1.321q-1.857,0 -3.25-1.321l-23.25-23.286q-1.321-1.321 -1.321-3.214q0-1.857 1.321-3.25l 23.25-23.214q 1.357-1.357 3.25-1.357q 1.857,0 3.214,1.357l 2.679,2.643q 1.357,1.357 1.357,3.25t-1.357,3.25l-10.464,10.464l 25.143,0 q 1.857,0 3.018,1.339 t 1.161,3.232z"></path><path d="M 948.571,162.286q0,1.929 -1.321,3.25l-23.25,23.25q-1.393,1.321 -3.25,1.321q-1.821,0 -3.214-1.321l-2.679-2.679q-1.357-1.357 -1.357-3.25t 1.357-3.25l 10.464-10.464l-25.143,0 q-1.857,0 -3.018-1.339t-1.161-3.232l0-4.571 q0-1.893 1.161-3.232t 3.018-1.339l 25.143,0 l-10.464-10.5q-1.357-1.286 -1.357-3.214t 1.357-3.214l 2.679-2.679q 1.357-1.357 3.214-1.357q 1.893,0 3.25,1.357l 23.25,23.25q 1.321,1.25 1.321,3.214z"></path><path d="M 1081.536,162.679q0,1.821 -1.321,3.214l-2.679,2.679q-1.357,1.357 -3.25,1.357q-1.929,0 -3.214-1.357l-10.5-10.464l0,25.143 q0,1.857 -1.339,3.018t-3.232,1.161l-4.571,0 q-1.893,0 -3.232-1.161t-1.339-3.018l0-25.143 l-10.5,10.464q-1.286,1.357 -3.214,1.357t-3.214-1.357l-2.679-2.679q-1.357-1.357 -1.357-3.214q0-1.893 1.357-3.25l 23.25-23.25q 1.25-1.321 3.214-1.321q 1.929,0 3.25,1.321l 23.25,23.25 q 1.321,1.393 1.321,3.25z"></path><path d="M 1209.536,157.714q0,1.893 -1.321,3.214l-23.25,23.286q-1.393,1.321 -3.25,1.321q-1.893,0 -3.214-1.321l-23.25-23.286q-1.357-1.286 -1.357-3.214q0-1.893 1.357-3.25l 2.643-2.679q 1.393-1.321 3.25-1.321q 1.893,0 3.214,1.321l 10.5,10.5l0-25.143 q0-1.857 1.357-3.214t 3.214-1.357l 4.571,0 q 1.857,0 3.214,1.357t 1.357,3.214l0,25.143 l 10.5-10.5q 1.321-1.321 3.214-1.321q 1.857,0 3.25,1.321l 2.679,2.679q 1.321,1.393 1.321,3.25z"></path><path d="M 1344,150.857q0,0.929 -0.679,1.607l-18.286,18.286q-0.679,0.679 -1.607,0.679t-1.607-0.679t-0.679-1.607l0-9.143 l-8,0 q-3.5,0 -6.268,0.214t-5.5,0.768t-4.75,1.518t-3.768,2.482t-2.857,3.607t-1.732,4.946t-0.625,6.464q0,1.964 0.179,4.393q0,0.214 0.089,0.839t 0.089,0.946q0,0.536 -0.304,0.893t-0.839,0.357q-0.571,0 -1-0.607q-0.25-0.321 -0.464-0.786 t-0.482-1.071t-0.375-0.857q-4.536-10.179 -4.536-16.107q0-7.107 1.893-11.893q 5.786-14.393 31.25-14.393l 8,0 l0-9.143 q0-0.929 0.679-1.607t 1.607-0.679t 1.607,0.679l 18.286,18.286q 0.679,0.679 0.679,1.607z"></path><path d="M 1458.286,154.286l0,6.857 q0,1.429 -1,2.429t-2.429,1l-14.857,0 l0,14.857 q0,1.429 -1,2.429t-2.429,1l-6.857,0 q-1.429,0 -2.429-1t-1-2.429l0-14.857 l-14.857,0 q-1.429,0 -2.429-1t-1-2.429l0-6.857 q0-1.429 1-2.429t 2.429-1l 14.857,0 l0-14.857 q0-1.429 1-2.429t 2.429-1l 6.857,0 q 1.429,0 2.429,1t 1,2.429l0,14.857 l 14.857,0 q 1.429,0 2.429,1t 1,2.429z"></path><path d="M 1586.286,154.286l0,6.857 q0,1.429 -1,2.429t-2.429,1l-43.429,0 q-1.429,0 -2.429-1t-1-2.429l0-6.857 q0-1.429 1-2.429t 2.429-1l 43.429,0 q 1.429,0 2.429,1t 1,2.429z"></path><path d="M 1721.536,171.429q0,1.893 -1.321,3.214l-2.679,2.679q-1.357,1.357 -3.25,1.357q-1.929,0 -3.214-1.357l-17.357-17.321l-17.357,17.321q-1.286,1.357 -3.214,1.357t-3.214-1.357l-2.679-2.679q-1.357-1.286 -1.357-3.214q0-1.893 1.357-3.25l 23.25-23.25q 1.321-1.321 3.214-1.321q 1.857,0 3.25,1.321l 23.214,23.25q 1.357,1.357 1.357,3.25z"></path><path d="M 1849.536,153.143q0,1.893 -1.321,3.214l-23.25,23.25q-1.357,1.357 -3.25,1.357q-1.929,0 -3.214-1.357l-23.25-23.25q-1.357-1.286 -1.357-3.214q0-1.893 1.357-3.25l 2.643-2.679q 1.393-1.321 3.25-1.321q 1.893,0 3.214,1.321l 17.357,17.357l 17.357-17.357q 1.321-1.321 3.214-1.321q 1.857,0 3.25,1.321l 2.679,2.679q 1.321,1.393 1.321,3.25z"></path><path d="M 1974.857,176l0,4.571 q0,0.929 -0.679,1.607t-1.607,0.679l-50.286,0 q-0.929,0 -1.607-0.679t-0.679-1.607l0-4.571 q0-0.929 0.679-1.607t 1.607-0.679l 50.286,0 q 0.929,0 1.607,0.679t 0.679,1.607zM 1974.857,157.714l0,4.571 q0,0.929 -0.679,1.607t-1.607,0.679l-50.286,0 q-0.929,0 -1.607-0.679t-0.679-1.607l0-4.571 q0-0.929 0.679-1.607t 1.607-0.679l 50.286,0 q 0.929,0 1.607,0.679t 0.679,1.607zM 1974.857,139.429l0,4.571 q0,0.929 -0.679,1.607 t-1.607,0.679l-50.286,0 q-0.929,0 -1.607-0.679t-0.679-1.607l0-4.571 q0-0.929 0.679-1.607t 1.607-0.679l 50.286,0 q 0.929,0 1.607,0.679t 0.679,1.607z"></path><path d="M 36.571,281.143q0,0.929 -0.679,1.607l-16,16q-0.679,0.679 -1.607,0.679t-1.607-0.679l-16-16q-0.679-0.679 -0.679-1.607t 0.679-1.607t 1.607-0.679l 32,0 q 0.929,0 1.607,0.679t 0.679,1.607z"></path><path d="M 164.571,299.429q0,0.929 -0.679,1.607t-1.607,0.679l-32,0 q-0.929,0 -1.607-0.679t-0.679-1.607t 0.679-1.607l 16-16q 0.679-0.679 1.607-0.679t 1.607,0.679l 16,16q 0.679,0.679 0.679,1.607z"></path><path d="M 278.857,272l0,32 q0,0.929 -0.679,1.607t-1.607,0.679t-1.607-0.679l-16-16q-0.679-0.679 -0.679-1.607t 0.679-1.607l 16-16q 0.679-0.679 1.607-0.679t 1.607,0.679t 0.679,1.607z"></path><path d="M 404.571,288q0,0.929 -0.679,1.607l-16,16q-0.679,0.679 -1.607,0.679t-1.607-0.679t-0.679-1.607l0-32 q0-0.929 0.679-1.607t 1.607-0.679t 1.607,0.679l 16,16q 0.679,0.679 0.679,1.607z"></path><path d="M 534.393,275.429q0,0.464 -0.357,0.821l-14.036,14.036l 14.036,14.036q 0.357,0.357 0.357,0.821t-0.357,0.821l-1.786,1.786q-0.357,0.357 -0.821,0.357t-0.821-0.357l-16.643-16.643q-0.357-0.357 -0.357-0.821t 0.357-0.821l 16.643-16.643q 0.357-0.357 0.821-0.357t 0.821,0.357l 1.786,1.786q 0.357,0.357 0.357,0.821z"></path><path d="M 661.25,290.286q0,0.464 -0.357,0.821l-16.643,16.643q-0.357,0.357 -0.821,0.357t-0.821-0.357l-1.786-1.786q-0.357-0.357 -0.357-0.821t 0.357-0.821l 14.036-14.036l-14.036-14.036q-0.357-0.357 -0.357-0.821t 0.357-0.821l 1.786-1.786q 0.357-0.357 0.821-0.357t 0.821,0.357l 16.643,16.643q 0.357,0.357 0.357,0.821z"></path><path d="M 806.393,298.286q0,0.464 -0.357,0.821l-1.786,1.786q-0.357,0.357 -0.821,0.357t-0.821-0.357l-14.036-14.036l-14.036,14.036q-0.357,0.357 -0.821,0.357t-0.821-0.357l-1.786-1.786q-0.357-0.357 -0.357-0.821t 0.357-0.821l 16.643-16.643q 0.357-0.357 0.821-0.357t 0.821,0.357l 16.643,16.643q 0.357,0.357 0.357,0.821z"></path><path d="M 934.393,282.286q0,0.464 -0.357,0.821l-16.643,16.643q-0.357,0.357 -0.821,0.357t-0.821-0.357l-16.643-16.643q-0.357-0.357 -0.357-0.821t 0.357-0.821l 1.786-1.786q 0.357-0.357 0.821-0.357t 0.821,0.357l 14.036,14.036l 14.036-14.036q 0.357-0.357 0.821-0.357t 0.821,0.357l 1.786,1.786q 0.357,0.357 0.357,0.821z"></path><path d="M 1088,284.571l0,6.857 q0,0.5 -0.321,0.821t-0.821,0.321l-44.571,0 l0,8 q0,0.75 -0.679,1.036t-1.25-0.179l-13.714-12.5q-0.357-0.357 -0.357-0.821q0-0.5 0.357-0.857l 13.714-12.643q 0.571-0.5 1.25-0.214q 0.679,0.321 0.679,1.036l0,8 l 44.571,0 q 0.5,0 0.821,0.321t 0.321,0.821z"></path><path d="M 1213.714,287.893q0,0.5 -0.357,0.857l-13.714,12.643q-0.571,0.5 -1.25,0.214q-0.679-0.321 -0.679-1.036l0-8 l-44.571,0 q-0.5,0 -0.821-0.321t-0.321-0.821l0-6.857 q0-0.5 0.321-0.821t 0.821-0.321l 44.571,0 l0-8 q0-0.75 0.679-1.036t 1.25,0.179l 13.714,12.5q 0.357,0.357 0.357,0.821z"></path><path d="M 1329.75,299.393q-1.393,4.464 -4.393,8.929q-4.607,7 -9.179,7q-1.75,0 -5-1.143q-3.071-1.143 -5.393-1.143q-2.179,0 -5.071,1.179q-2.893,1.214 -4.714,1.214q-5.429,0 -10.75-9.25q-5.25-9.321 -5.25-17.964q0-8.143 4.036-13.357q 4-5.143 10.143-5.143q 2.571,0 6.321,1.071q 3.714,1.071 4.929,1.071q 1.607,0 5.107-1.214q 3.643-1.214 6.179-1.214q 4.25,0 7.607,2.321 q 1.857,1.286 3.714,3.571q-2.821,2.393 -4.071,4.214q-2.321,3.357 -2.321,7.393q0,4.429 2.464,7.964t 5.643,4.5zM 1316.321,257.5q0,2.179 -1.036,4.857q-1.071,2.679 -3.321,4.929q-1.929,1.929 -3.857,2.571q-1.321,0.393 -3.714,0.607q 0.107-5.321 2.786-9.179q 2.643-3.821 8.929-5.286q 0.036,0.107 0.089,0.393t 0.089,0.393q0,0.143 0.018,0.357t 0.018,0.357z"></path><path d="M 1432.357,291.929l0,23.25 l-24.357-3.357l0-19.893 l 24.357,0 zM 1432.357,265.393l0,23.536 l-24.357,0 l0-20.179 zM 1467.429,291.929l0,28.071 l-32.393-4.464l0-23.607 l 32.393,0 zM 1467.429,260.571l0,28.357 l-32.393,0 l0-23.893 z"></path><path d="M 1553.607,273.25q 0.571,0 0.982-0.411t 0.411-0.982t-0.411-0.982t-0.982-0.411t-0.964,0.411t-0.393,0.982t 0.393,0.982t 0.964,0.411zM 1568.679,273.25q 0.571,0 0.964-0.411t 0.393-0.982t-0.393-0.982t-0.964-0.411t-0.982,0.411t-0.411,0.982t 0.411,0.982t 0.982,0.411zM 1539.679,279.821q 1.5,0 2.571,1.071t 1.071,2.571l0,15.357 q0,1.536 -1.054,2.607t-2.589,1.071 t-2.607-1.071t-1.071-2.607l0-15.357 q0-1.5 1.071-2.571t 2.607-1.071zM 1577.536,280.5l0,23.786 q0,1.643 -1.143,2.786t-2.75,1.143l-2.679,0 l0,8.107 q0,1.536 -1.071,2.607t-2.607,1.071t-2.607-1.071t-1.071-2.607l0-8.107 l-4.929,0 l0,8.107 q0,1.536 -1.071,2.607t-2.607,1.071q-1.5,0 -2.571-1.071t-1.071-2.607l-0.036-8.107l-2.643,0 q-1.643,0 -2.786-1.143t-1.143-2.786l0-23.786 l 32.786,0 zM 1569.25,266.036q 3.821,1.964 6.107,5.482t 2.286,7.696 l-33.036,0 q0-4.179 2.286-7.696t 6.143-5.482l-2.536-4.679q-0.25-0.464 0.179-0.714q 0.464-0.214 0.714,0.214l 2.571,4.714q 3.393-1.5 7.179-1.5t 7.179,1.5l 2.571-4.714q 0.25-0.429 0.714-0.214q 0.429,0.25 0.179,0.714zM 1586.286,283.464l0,15.357 q0,1.536 -1.071,2.607t-2.607,1.071q-1.5,0 -2.571-1.071t-1.071-2.607l0-15.357 q0-1.536 1.071-2.589t 2.571-1.054q 1.536,0 2.607,1.054t 1.071,2.589z"></path><path d="M 1687.679,270.679q-0.393,0.036 -0.554,0.375t-0.304,0.339q-0.179,0.036 -0.179-0.179q0-0.429 0.679-0.536l 0.357,0 zM 1690.786,271.179q-0.143,0.036 -0.411-0.232t-0.625-0.161q 0.857-0.393 1.143,0.071q 0.107,0.214 -0.107,0.321zM 1678.25,286.429q-0.143-0.036 -0.214,0.107t-0.161,0.446t-0.196,0.482t-0.357,0.464q-0.25,0.357 -0.036,0.429q 0.143,0.036 0.446-0.25t 0.446-0.643q 0.036-0.107 0.071-0.25t 0.071-0.214t 0.054-0.161t 0.018-0.143l0-0.107 t-0.036-0.089t-0.107-0.071z M 1708.786,299.25q0-0.643 -1.964-1.5q 0.143-0.536 0.268-0.982t 0.179-0.929t 0.107-0.768t 0.018-0.804t-0.036-0.696t-0.125-0.786t-0.143-0.732t-0.179-0.893t-0.196-0.946q-0.357-1.714 -1.679-3.679t-2.571-2.679q 0.857,0.714 2.036,2.964q 3.107,5.786 1.929,9.929q-0.393,1.429 -1.786,1.5q-1.107,0.143 -1.375-0.661t-0.286-2.982t-0.411-3.821q-0.321-1.393 -0.696-2.464t-0.696-1.625t-0.554-0.875t-0.464-0.536t-0.268-0.25 q-0.5-2.214 -1.107-3.679t-1.054-2t-0.839-1.179t-0.536-1.429q-0.143-0.75 0.214-1.911t 0.161-1.768t-1.589-0.893q-0.536-0.107 -1.589-0.643t-1.268-0.571q-0.286-0.036 -0.393-0.929t 0.286-1.821t 1.286-0.964q 1.321-0.107 1.821,1.071t 0.143,2.071q-0.393,0.679 -0.071,0.946t 1.071,0.018q 0.464-0.143 0.464-1.286l0-1.321 q-0.179-1.071 -0.482-1.786t-0.75-1.089t-0.839-0.536t-0.964-0.268q-3.821,0.286 -3.179,4.786q0,0.536 -0.036,0.536 q-0.321-0.321 -1.054-0.375t-1.179,0.018t-0.554-0.179q 0.036-2.036 -0.571-3.214t-1.607-1.214q-0.964-0.036 -1.482,0.982t-0.589,2.125q-0.036,0.536 0.125,1.321t 0.464,1.339t 0.554,0.482q 0.357-0.107 0.571-0.5q 0.143-0.321 -0.25-0.286q-0.25,0 -0.554-0.518t-0.339-1.196q-0.036-0.786 0.321-1.321t 1.214-0.5q 0.607,0 0.964,0.75t 0.339,1.393t-0.054,0.786q-0.786,0.536 -1.107,1.036q-0.286,0.429 -0.982,0.839 t-0.732,0.446q-0.464,0.5 -0.554,0.964t 0.268,0.643q 0.5,0.286 0.893,0.696t 0.571,0.679t 0.661,0.464t 1.268,0.232q 1.679,0.071 3.643-0.536q 0.071-0.036 0.821-0.25t 1.232-0.375t 1.054-0.464t 0.75-0.625q 0.321-0.5 0.714-0.286q 0.179,0.107 0.232,0.304t-0.107,0.429t-0.589,0.339q-0.714,0.214 -2.018,0.768t-1.625,0.696q-1.571,0.679 -2.5,0.821q-0.893,0.179 -2.821-0.071q-0.357-0.071 -0.321,0.071t 0.607,0.679 q 0.893,0.821 2.393,0.786q 0.607-0.036 1.286-0.25t 1.286-0.5t 1.196-0.625t 1.071-0.607t 0.875-0.429t 0.625-0.089t 0.304,0.393q0,0.071 -0.036,0.161t-0.143,0.179t-0.214,0.161t-0.304,0.179t-0.321,0.161t-0.357,0.179t-0.339,0.161q-1,0.5 -2.411,1.571t-2.375,1.536t-1.75,0.036q-0.75-0.393 -2.25-2.607q-0.786-1.107 -0.893-0.786q-0.036,0.107 -0.036,0.357q0,0.893 -0.536,2.018t-1.054,1.982t-0.75,2.071t 0.411,2.25 q-0.821,0.214 -2.232,3.214t-1.696,5.036q-0.071,0.643 -0.054,2.464t-0.196,2.107q-0.286,0.857 -1.036,0.107q-1.143-1.107 -1.286-3.357q-0.071-1 0.143-2q 0.143-0.679 -0.036-0.643l-0.143,0.179q-1.286,2.321 0.357,5.929q 0.179,0.429 0.893,1t 0.857,0.714q 0.714,0.821 3.714,3.232t 3.321,2.732q 0.571,0.536 0.625,1.357t-0.5,1.536t-1.625,0.821q 0.286,0.536 1.036,1.589t 1,1.929t 0.25,2.518q 1.643-0.857 0.25-3.286 q-0.143-0.286 -0.375-0.571t-0.339-0.429t-0.071-0.214q 0.107-0.179 0.464-0.339t 0.714,0.089q 1.643,1.857 5.929,1.286q 4.75-0.536 6.321-3.107q 0.821-1.357 1.214-1.071q 0.429,0.214 0.357,1.857q-0.036,0.893 -0.821,3.286q-0.321,0.821 -0.214,1.339t 0.857,0.554q 0.107-0.679 0.518-2.75t 0.482-3.214q 0.071-0.75 -0.232-2.625t-0.268-3.464t 0.821-2.518q 0.536-0.643 1.821-0.643q 0.036-1.321 1.232-1.893t 2.589-0.375t 2.143,0.804zM 1686.357,269.714 q 0.107-0.607 -0.089-1.071t-0.411-0.536q-0.321-0.071 -0.321,0.25q 0.071,0.179 0.179,0.214q 0.357,0 0.25,0.536q-0.107,0.714 0.286,0.714q 0.107,0 0.107-0.107zM 1701.321,276.75q-0.071-0.286 -0.232-0.411t-0.464-0.179t-0.518-0.196q-0.179-0.107 -0.339-0.286t-0.25-0.286t-0.196-0.232t-0.143-0.143t-0.143,0.054q-0.5,0.571 0.25,1.554t 1.393,1.125q 0.321,0.036 0.518-0.286t 0.125-0.714zM 1694.964,269.143q0-0.393 -0.179-0.696t-0.393-0.446t-0.321-0.107q-0.5,0.036 -0.25,0.25l 0.143,0.071 q 0.5,0.143 0.643,1.107q0,0.107 0.286-0.071zM 1696.893,260.821q0-0.071 -0.089-0.179t-0.321-0.25t-0.339-0.214q-0.536-0.536 -0.857-0.536q-0.321,0.036 -0.411,0.268t-0.036,0.464t-0.018,0.446q-0.036,0.143 -0.214,0.375t-0.214,0.321t 0.107,0.304q 0.143,0.107 0.286,0t 0.393-0.321t 0.536-0.321q 0.036-0.036 0.321-0.036t 0.536-0.071t 0.321-0.25zM 1717.071,308.714q 0.714,0.429 1.107,0.875t 0.429,0.857t-0.089,0.804t-0.554,0.786t-0.839,0.696t-1.071,0.661 t-1.125,0.589t-1.143,0.554t-0.964,0.464q-1.357,0.679 -3.054,2t-2.696,2.286q-0.607,0.571 -2.429,0.696t-3.179-0.518q-0.643-0.321 -1.054-0.839t-0.589-0.911t-0.786-0.696t-1.679-0.339q-1.571-0.036 -4.643-0.036q-0.679,0 -2.036,0.054t-2.071,0.089q-1.571,0.036 -2.839,0.536t-1.911,1.071t-1.554,1.018t-1.911,0.411q-1.036-0.036 -3.964-1.107t-5.214-1.536q-0.679-0.143 -1.821-0.339 t-1.786-0.321t-1.411-0.339t-1.196-0.518t-0.607-0.696q-0.357-0.821 0.25-2.375t 0.643-1.946q 0.036-0.571 -0.143-1.429t-0.357-1.518t-0.161-1.304t 0.375-0.964q 0.5-0.429 2.036-0.5t 2.143-0.429q 1.071-0.643 1.5-1.25t 0.429-1.821q 0.75,2.607 -1.143,3.786q-1.143,0.714 -2.964,0.536q-1.214-0.107 -1.536,0.357q-0.464,0.536 0.179,2.036q 0.071,0.214 0.286,0.643t 0.304,0.643t 0.161,0.607t 0.036,0.786q0,0.536 -0.607,1.75t-0.5,1.714 q 0.107,0.607 1.321,0.929q 0.714,0.214 3.018,0.661t 3.554,0.732q 0.857,0.214 2.643,0.786t 2.946,0.821t 1.982,0.143q 1.536-0.214 2.304-1t 0.821-1.714t-0.268-2.089t-0.679-1.857t-0.714-1.304q-4.321-6.786 -6.036-8.643q-2.429-2.643 -4.036-1.429q-0.393,0.321 -0.536-0.536q-0.107-0.571 -0.071-1.357q 0.036-1.036 0.357-1.857t 0.857-1.679t 0.786-1.5q 0.286-0.75 0.946-2.571t 1.054-2.786t 1.071-2.179t 1.393-1.929q 3.929-5.107 4.429-6.964 q-0.429-4 -0.571-11.071q-0.071-3.214 0.857-5.411t 3.786-3.732q 1.393-0.75 3.714-0.75q 1.893-0.036 3.786,0.482t 3.179,1.482q 2.036,1.5 3.268,4.339t 1.054,5.268q-0.179,3.393 1.071,7.643q 1.214,4.036 4.75,7.786q 1.964,2.107 3.554,5.821t 2.125,6.821q 0.286,1.75 0.179,3.018t-0.429,1.982t-0.714,0.786q-0.357,0.071 -0.839,0.679t-0.964,1.268t-1.446,1.196t-2.179,0.5 q-0.643-0.036 -1.125-0.179t-0.804-0.482t-0.482-0.554t-0.411-0.732t-0.321-0.696q-0.786-1.321 -1.464-1.071t-1,1.75t 0.25,3.464q 0.714,2.5 0.036,6.964q-0.357,2.321 0.643,3.589t 2.607,1.179t 3.036-1.268q 2.107-1.75 3.196-2.375t 3.696-1.518q 1.893-0.643 2.75-1.304t 0.661-1.232t-0.893-1.018t-1.839-0.839q-1.179-0.393 -1.768-1.714t-0.536-2.589t 0.554-1.696q 0.036,1.107 0.286,2.018 t 0.518,1.446t 0.732,1.018t 0.75,0.679t 0.768,0.464t 0.589,0.339z"></path><path d="M 1846,256 C 1851.523,256 1856,260.477 1856,266 C 1856,268.251 1855.256,270.329 1854,272 L 1850,276 L 1836,262 L 1840,258 C 1841.671,256.744 1843.749,256 1846,256 ZM 1796,302L 1792,320l 18-4l 37-37L 1833,265L 1796,302z M 1836.724,278.724l-28,28l-3.447-3.447l 28-28L 1836.724,278.724z"></path><path d="M 1980,274L 1966,260L 1970,256.001L 1984,270zM 1976,278 L 1974,300 C 1956,300 1930,320 1930,320 L 1926.679,316.679 L 1943.783,299.575 C 1944.469,299.848 1945.217,300 1946,300 C 1949.314,300 1952,297.314 1952,294 C 1952,290.686 1949.314,288 1946,288 C 1942.686,288 1940,290.686 1940,294 C 1940,294.783 1940.152,295.531 1940.425,296.217 L 1923.321,313.321 L 1920,310 C 1920,310 1940,284 1940,266 L 1962,264 L 1976,278 Z"></path><path d="M 19,422c0,7.18, 5.82,13, 13,13s 13-5.82, 13-13s-5.82-13-13-13S 19,414.82, 19,422z M 60,400L 46,400 
	c-1-4-2-8-6-8L 24,392 c-4,0-5,4-6,8L 4,400 c-2.2,0-4,1.8-4,4l0,36 c0,2.2, 1.8,4, 4,4l 56,0 c 2.2,0, 4-1.8, 4-4L 64,404 
	C 64,401.8, 62.2,400, 60,400z M 32,439.75c-9.803,0-17.75-7.947-17.75-17.75c0-9.803, 7.947-17.75, 17.75-17.75c 9.803,0, 17.75,7.947, 17.75,17.75
	C 49.75,431.803, 41.803,439.75, 32,439.75z M 60,412l-8,0 l0-4 l 8,0 L 60,412 z"></path><path d="M 148,396 L 192,384 L 192,388 L 192,396 L 192,430 C 192,435.523 185.732,440 178,440 C 170.268,440 164,435.523 164,430 C 164,424.477 170.268,420 178,420 C 180.147,420 182.181,420.346 184,420.963 L 184,400.364 L 156,408 L 156,438 C 156,443.523 149.732,448 142,448 C 134.268,448 128,443.523 128,438 C 128,432.477 134.268,428 142,428 C 144.147,428 146.181,428.346 148,428.963 L 148,408 L 148,396 Z"></path><path d="M 268,420.143l0,27.714 c 0.653,0.093, 1.321,0.143, 2,0.143l 2,0 L 272,420 l-2,0 C 269.321,420, 268.653,420.049, 268,420.143zM 304,420l0,28 l 2,0 c 0.679,0, 1.347-0.049, 2-0.143L 308,420.143 c-0.653-0.093-1.321-0.143-2-0.143L 304,420 zM 320,416C 320,398.327, 305.673,384, 288,384S 256,398.327, 256,416c0,3.839, 0.677,7.519, 1.916,10.93C 256.699,429.005, 256,431.42, 256,434
		c0,5.585, 3.27,10.405, 8,12.652L 264,421.348 c-1.258,0.598-2.411,1.379-3.429,2.307C 260.197,421.828, 260,419.937, 260,418
		C 260,402.536, 272.536,390, 288,390s 28,12.536, 28,28c0,1.937-0.197,3.828-0.571,5.654c-1.018-0.928-2.171-1.709-3.429-2.307
		l0,25.304 c 4.73-2.247, 8-7.067, 8-12.652c0-2.58-0.699-4.995-1.916-7.070C 319.323,423.519, 320,419.839, 320,416z"></path><path d="M 445.324,394.007C 436.347,392.716, 426.428,392, 416,392c-10.429,0-20.347,0.716-29.325,2.007
	C 384.955,400.74, 384,408.179, 384,416c0,7.821, 0.955,15.26, 2.675,21.993C 395.653,439.284, 405.572,440, 416,440
	c 10.428,0, 20.347-0.716, 29.324-2.007C 447.045,431.26, 448,423.821, 448,416C 448,408.179, 447.045,400.74, 445.324,394.007z
	 M 408,428L 408,404 l 20,12L 408,428z"></path><path d="M 544,412.8 C 549.294,412.8 554.094,414.953 557.57,418.43 L 553.047,422.953 C 550.729,420.636 547.529,419.2 544,419.2 C 540.471,419.2 537.271,420.636 534.953,422.953 L 530.43,418.43 C 533.907,414.953 538.707,412.8 544,412.8 ZM 521.373,409.373 C 527.417,403.329 535.453,400 544,400 C 552.548,400 560.583,403.329 566.627,409.373 L 562.102,413.898 L 562.102,413.898 C 557.267,409.063 550.838,406.4 544,406.4 C 537.162,406.4 530.733,409.063 525.898,413.898 L 521.373,409.373 ZM 561.439,390.722 C 566.774,392.979 571.565,396.208 575.678,400.322 L 575.678,400.322 L 571.153,404.847 C 563.9,397.594 554.257,393.6 544,393.6 C 533.743,393.6 524.1,397.594 516.847,404.847 L 512.322,400.322 C 516.435,396.208 521.226,392.979 526.561,390.722 C 532.086,388.385 537.953,387.2 544,387.2 C 550.047,387.2 555.914,388.385 561.439,390.722 ZM 540.8,428.8A3.2,3.2 2520 1 0 547.2,428.8A3.2,3.2 2520 1 0 540.8,428.8z"></path><path d="M 695.757,395.757l-7.515-7.515C 685.909,385.909, 681.3,384, 678,384L 650,384 C 646.7,384, 644,386.7, 644,390l0,52 c0,3.3, 2.7,6, 6,6l 44,0 
	c 3.3,0, 6-2.7, 6-6L 700,406 C 700,402.7, 698.091,398.091, 695.757,395.757z M 680,392.473c 0.137,0.050, 0.278,0.105, 0.422,0.165
	c 1.129,0.468, 1.912,1.011, 2.163,1.262l 7.515,7.515c 0.251,0.251, 0.794,1.035, 1.262,2.163c 0.060,0.144, 0.115,0.285, 0.165,0.422
	L 680,404 L 680,392.473 z M 692,440L 652,440 L 652,392 l 24,0 l0,16 l 16,0 L 692,440 zM 656,416L 688,416L 688,420L 656,420zM 656,424L 688,424L 688,428L 656,428zM 656,432L 688,432L 688,436L 656,436z"></path><path d="M 825.988,384L 807.953,384 c-3.307,0-7.925,1.913-10.263,4.251L 769.754,416.188c-2.338,2.338-2.338,6.164,0,8.502
	l 21.557,21.557c 2.338,2.338, 6.164,2.338, 8.502,0l 27.937-27.937C 830.087,415.971, 832,411.353, 832,408.047L 832,390.012 
	C 832,386.705, 829.295,384, 825.988,384z M 818,404c-3.314,0-6-2.686-6-6s 2.686-6, 6-6s 6,2.686, 6,6S 821.314,404, 818,404z"></path><path d="M 954.353,387.765L 941.176,387.765 c-3.106,0-7.444,1.797-9.64,3.993L 909.405,413.889c-2.196,2.196-2.196,5.79,0,7.986l 16.484,16.484
	c 2.196,2.196, 5.79,2.196, 7.986,0l 22.131-22.131C 958.203,414.032, 960,409.694, 960,406.588L 960,393.412 C 960,390.306, 957.459,387.765, 954.353,387.765z M 946.824,406.588
	c-3.119,0-5.647-2.528-5.647-5.647s 2.528-5.647, 5.647-5.647s 5.647,2.528, 5.647,5.647S 949.942,406.588, 946.824,406.588zM 901.096,419.213 L 921.236,439.353 C 919.102,440.48 916.385,440.15 914.595,438.36 L 898.111,421.875 C 895.915,419.679 895.915,416.085 898.111,413.889 L 920.242,391.758 C 922.438,389.562 926.776,387.765 929.882,387.765 L 901.096,416.551 C 900.364,417.283 900.364,418.481 901.096,419.213 Z"></path><path d="M 1032,442A6,6 10800 1 0 1044,442A6,6 10800 1 0 1032,442zM 1072,442A6,6 10800 1 0 1084,442A6,6 10800 1 0 1072,442zM 1084,416L 1084,392 L 1032,392 C 1032,387.582, 1028.418,384, 1024,384l0,4 c 2.206,0, 4,1.794, 4,4l 3.005,25.753C 1029.174,419.219, 1028,421.472, 1028,424
		c0,4.418, 3.582,8, 8,8l 48,0 l0-4 L 1036,428 c-2.209,0-4-1.791-4-4c0-0.014, 0.001-0.027, 0.001-0.041L 1084,416z"></path><path d="M 1204.951,420c 2.2,0, 4.495-1.731, 5.099-3.846l 5.802-20.308C 1216.457,393.731, 1215.151,392, 1212.951,392L 1172,392 
	c0-4.418-3.582-8-8-8L 1152,384 l0,8 l 12,0 l0,34 c0,3.314, 2.686,6, 6,6l 38,0 c 2.209,0, 4-1.791, 4-4s-1.791-4-4-4L 1172,424 l0-4 L 1204.951,420 z
	 M 1172,400l 36.175,0 l-3.429,12L 1172,412 L 1172,400 zM 1176,443c0,2.75-2.25,5-5,5l-2,0 c-2.75,0-5-2.25-5-5l0-2 c0-2.75, 2.25-5, 5-5l 2,0 c 2.75,0, 5,2.25, 5,5L 1176,443 zM 1212,443c0,2.75-2.25,5-5,5l-2,0 c-2.75,0-5-2.25-5-5l0-2 c0-2.75, 2.25-5, 5-5l 2,0 c 2.75,0, 5,2.25, 5,5L 1212,443 z"></path><path d="M 1341.099,396.154c-2.124-0.607-4.338,0.623-4.945,2.747L 1335.84,400L 1298.531,400 l-0.562-4.496
		C 1297.719,393.502, 1296.017,392, 1294,392L 1284,392 C 1281.791,392, 1280,393.791, 1280,396s 1.791,4, 4,4l 6.469,0 l 3.562,28.496
		C 1294.281,430.498, 1295.983,432, 1298,432l 34,0 c 1.786,0, 3.356-1.184, 3.846-2.901l 8-28
		C 1344.453,398.975, 1343.223,396.761, 1341.099,396.154z M 1312,416l0-4 l 8,0 l0,4 L 1312,416 z M 1320,420l0,4 L 1312,424 l0-4 L 1320,420 z M 1312,408l0-4 
		l 8,0 l0,4 L 1312,408 z M 1299.031,404L 1308,404 l0,4 l-8.469,0 L 1299.031,404z M 1300.031,412L 1308,412 l0,4 l-7.469,0 L 1300.031,412z M 1301.031,420L 1308,420 l0,4 l-6.469,0 
		L 1301.031,420z M 1328.983,424l-4.983,0 l0-4 l 6.126,0 L 1328.983,424z M 1331.269,416l-7.269,0 l0-4 l 8.412,0 L 1331.269,416z M 1333.554,408l-9.555,0 
		l0-4 l 10.697,0 L 1333.554,408zM 1296,442A6,6 2520 1 0 1308,442A6,6 2520 1 0 1296,442zM 1320,442A6,6 2520 1 0 1332,442A6,6 2520 1 0 1320,442z"></path><path d="M 1438,388C 1421.431,388, 1408,401.431, 1408,418c0,16.569, 13.431,30, 30,30c 16.569,0, 30-13.431, 30-30
		C 1468,401.431, 1454.569,388, 1438,388z M 1438,442c-13.255,0-24-10.745-24-24c0-13.255, 10.745-24, 24-24
		c 13.255,0, 24,10.745, 24,24C 1462,431.255, 1451.255,442, 1438,442zM 1440,416l0-8 l 8,0 l0-4 l-8,0 l0-4 l-4,0 l0,4 l-8,0 l0,16 l 8,0 l0,8 l-8,0 l0,4 l 8,0 l0,4 l 4,0 l0-4 l 8,0 l 0,0 L 1448,416L 1440,416 z M 1436,416l-4,0 l0-8 l 4,0 L 1436,416 z
	 M 1444,428L 1440,428 l0-8 l 4,0 L 1444,428 z"></path><path d="M 1594,392L 1542,392 C 1538.7,392, 1536,394.7, 1536,398l0,36 c0,3.3, 2.7,6, 6,6l 52,0 c 3.3,0, 6-2.7, 6-6L 1600,398 C 1600,394.7, 1597.3,392, 1594,392z M 1542,396
		l 52,0 c 1.084,0, 2,0.916, 2,2l0,6 L 1540,404 l0-6 C 1540,396.916, 1540.916,396, 1542,396z M 1594,436L 1542,436 c-1.084,0-2-0.916-2-2L 1540,416 l 56,0 l0,18 
		C 1596,435.084, 1595.084,436, 1594,436zM 1544,424L 1548,424L 1548,432L 1544,432zM 1552,424L 1556,424L 1556,432L 1552,432zM 1560,424L 1564,424L 1564,432L 1560,432z"></path><path d="M 1708,424c-4,4-4,8-8,8s-8-4-12-8s-8-8-8-12s 4-4, 8-8S 1680,388, 1676,388S 1664,400, 1664,400c0,8, 8.219,24.219, 16,32
	s 24,16, 32,16c0,0, 12-8, 12-12S 1712,420, 1708,424z"></path><path d="M 1855.586,420 C 1856.086,423.467 1856.412,428.212 1854.857,430.028 C 1852.286,433.030 1836,433.030 1836,427.025 C 1836,424 1838.679,422.017 1836.107,419.014 C 1833.578,416.060 1829.043,416.012 1824,416.011 C 1818.957,416.012 1814.422,416.060 1811.893,419.014 C 1809.322,422.017 1812,424 1812,427.025 C 1812,433.030 1795.714,433.030 1793.143,430.028 C 1791.588,428.212 1791.914,423.467 1792.414,420 C 1792.799,417.685 1793.772,415.188 1796.886,412 C 1796.886,412 1796.886,412 1796.886,412 C 1801.557,407.641 1808.626,404.079 1823.75,404.002 L 1823.75,404 C 1823.834,404 1823.916,404.001 1824,404.001 C 1824.084,404.001 1824.166,404 1824.25,404 L 1824.25,404.002 C 1839.374,404.079 1846.443,407.641 1851.114,412 C 1851.114,412 1851.114,412 1851.114,412 C 1854.228,415.187 1855.201,417.685 1855.586,420 Z"></path><path d="M 1952,384C 1940.954,384, 1932,392.954, 1932,404c0,20, 20,44, 20,44s 20-24, 20-44C 1972,392.954, 1963.046,384, 1952,384z M 1952,416
	c-6.628,0-12-5.372-12-12s 5.372-12, 12-12s 12,5.372, 12,12S 1958.627,416, 1952,416z"></path><path d="M 32,512C 20.954,512, 12,520.954, 12,532c0,20, 20,44, 20,44s 20-24, 20-44C 52,520.954, 43.046,512, 32,512z M 32,544.25
	c-6.766,0-12.25-5.484-12.25-12.25s 5.484-12.25, 12.25-12.25s 12.25,5.484, 12.25,12.25S 38.766,544.25, 32,544.25zM 24.25,532A7.75,7.75 1080 1 0 39.75,532A7.75,7.75 1080 1 0 24.25,532z"></path><path d="M 164,516 C 179.464,516 192,528.536 192,544 C 192,559.464 179.464,572 164,572 L 164,566 C 169.877,566 175.401,563.712 179.556,559.556 C 183.712,555.401 186,549.877 186,544 C 186,538.124 183.712,532.599 179.556,528.444 C 175.401,524.288 169.877,522 164,522 C 158.124,522 152.599,524.288 148.444,528.444 C 145.247,531.64 143.157,535.646 142.362,540 L 154,540 L 140,556 L 126,540 L 136.286,540 C 138.227,526.431 149.894,516 164,516 ZM 176,540 L 176,548 L 160,548 L 160,528 L 168,528 L 168,540 Z"></path><path d="M 297.172,558.828L 284,545.657L 284,528L 292,528L 292,542.343L 302.828,553.172 	zM 288,512C 270.327,512, 256,526.327, 256,544s 14.327,32, 32,32s 32-14.327, 32-32S 305.673,512, 288,512z M 288,568
		c-13.255,0-24-10.745-24-24c0-13.255, 10.745-24, 24-24c 13.255,0, 24,10.745, 24,24C 312,557.255, 301.255,568, 288,568z"></path><path d="M 416,512C 398.327,512, 384,526.327, 384,544s 14.327,32, 32,32s 32-14.327, 32-32S 433.673,512, 416,512z M 425.172,558.828L 412,545.657
		L 412,528 l 8,0 l0,14.343 l 10.829,10.828L 425.172,558.828z"></path><path d="M 544,516c-8.836,0-16.836,3.583-22.627,9.374L 512,516l0,24 l 24,0 l-8.971-8.97C 531.373,526.687, 537.372,524, 544,524
	c 13.254,0, 24,10.745, 24,24c0,7.168-3.143,13.602-8.126,18l 5.292,6C 571.809,566.136, 576,557.558, 576,548
	C 576,530.327, 561.673,516, 544,516z"></path><path d="M 640,548c0,9.558, 4.191,18.137, 10.834,24l 5.292-6C 651.143,561.602, 648,555.169, 648,548c0-13.255, 10.746-24, 24-24
	c 6.628,0, 12.627,2.687, 16.971,7.030L 680,540l 24,0 L 704,516 l-9.373,9.374C 688.836,519.582, 680.837,516, 672,516
	C 654.327,516, 640,530.327, 640,548z"></path><path d="M 815.616,576C 822.724,563.123, 823.922,543.481, 796,544.136L 796,560 L 772,536L 796,512l0,15.523 
	C 829.435,526.652, 833.161,557.037, 815.616,576z"></path><path d="M 932,527.523L 932,512 l 24,24L 932,560L 932,544.136 C 904.078,543.481, 905.276,563.123, 912.384,576
	C 894.839,557.037, 898.565,526.652, 932,527.523z"></path><path d="M 1040.384,512C 1033.276,524.877, 1032.078,544.519, 1060,543.864L 1060,528 l 24,24L 1060,576L 1060,560.477 C 1026.565,561.348 1022.839,530.963, 1040.384,512z"></path><path d="M 1180,560.477L 1180,576 L 1156,552l 24-24l0,15.864 C 1207.922,544.519, 1206.724,524.877, 1199.616,512
	C 1217.161,530.963, 1213.435,561.348, 1180,560.477z"></path><path d="M 1312,516 C 1329.673,516 1344,527.641 1344,542 C 1344,556.359 1329.673,568 1312,568 C 1310.303,568 1308.637,567.892 1307.011,567.685 C 1300.137,574.558 1291.933,575.791 1284,575.972 L 1284,574.29 C 1288.284,572.191 1292,568.368 1292,564 C 1292,563.39 1291.953,562.792 1291.865,562.206 C 1284.628,557.44 1280,550.159 1280,542 C 1280,527.641 1294.327,516 1312,516 Z"></path><path d="M 1468.444,562.065 C 1468.444,564.593 1469.89,566.782 1472,567.853 L 1472,568.738 C 1471.41,568.819 1470.807,568.862 1470.194,568.862 C 1466.416,568.862 1463.008,567.277 1460.599,564.736 C 1459.142,565.124 1457.599,565.333 1456,565.333 C 1447.163,565.333 1440,558.966 1440,551.111 C 1440,543.256 1447.163,536.889 1456,536.889 C 1464.837,536.889 1472,543.256 1472,551.111 C 1472,554.186 1470.902,557.033 1469.036,559.359 C 1468.657,560.183 1468.444,561.099 1468.444,562.065 ZM 1436.444,512 C 1451.914,512 1464.5,522.034 1464.88,534.529 C 1462.147,533.311 1459.125,532.667 1456,532.667 C 1450.691,532.667 1445.677,534.525 1441.881,537.899 C 1437.945,541.397 1435.778,546.090 1435.778,551.111 C 1435.778,553.593 1436.308,555.994 1437.319,558.21 C 1437.028,558.217 1436.737,558.222 1436.444,558.222 C 1434.936,558.222 1433.455,558.126 1432.010,557.942 C 1425.9,564.052 1418.607,565.148 1411.556,565.308 L 1411.556,563.813 C 1415.363,561.948 1418.667,558.55 1418.667,554.667 C 1418.667,554.125 1418.625,553.593 1418.546,553.072 C 1412.113,548.836 1408,542.364 1408,535.111 C 1408,522.347 1420.735,512 1436.444,512 Z"></path><path d="M 1562.667,512 L 1562.667,512 C 1577.394,512 1589.333,521.662 1589.333,533.58 C 1589.333,545.499 1577.394,555.161 1562.667,555.161 C 1561.252,555.161 1559.864,555.071 1558.509,554.899 C 1552.781,560.604 1546.166,561.627 1539.556,561.778 L 1539.556,560.381 C 1543.125,558.64 1546,555.467 1546,551.841 C 1546,551.335 1545.96,550.838 1545.887,550.352 C 1539.856,546.396 1536,540.353 1536,533.58 C 1536,521.662 1547.939,512 1562.667,512 ZM 1591.333,560.371 C 1591.333,563.479 1593.351,566.199 1596.444,567.692 L 1596.444,568.889 C 1590.715,568.76 1585.456,567.883 1580.492,562.993 C 1579.318,563.14 1578.115,563.217 1576.889,563.217 C 1571.585,563.217 1566.7,561.786 1562.799,559.382 C 1570.837,559.354 1578.425,556.779 1584.179,552.122 C 1587.079,549.775 1589.367,547.021 1590.98,543.936 C 1592.689,540.666 1593.556,537.182 1593.556,533.58 C 1593.556,533 1593.531,532.423 1593.486,531.849 C 1597.517,535.179 1600,539.717 1600,544.72 C 1600,550.525 1596.658,555.704 1591.431,559.096 C 1591.368,559.512 1591.333,559.938 1591.333,560.371 Z"></path><path d="M 1696,524 C 1692.567,524 1689.251,524.541 1686.144,525.609 C 1683.225,526.612 1680.625,528.030 1678.417,529.824 C 1674.279,533.186 1672,537.511 1672,542 C 1672,544.519 1672.699,546.961 1674.078,549.26 C 1675.5,551.63 1677.64,553.796 1680.265,555.525 C 1682.162,556.775 1683.439,558.772 1683.776,561.019 C 1683.889,561.768 1683.959,562.524 1683.987,563.276 C 1684.453,562.889 1684.909,562.474 1685.354,562.028 C 1686.864,560.518 1688.903,559.685 1691.011,559.685 C 1691.346,559.685 1691.683,559.706 1692.020,559.749 C 1693.331,559.915 1694.67,560 1696,560 C 1699.433,560 1702.749,559.459 1705.856,558.391 C 1708.775,557.388 1711.375,555.97 1713.583,554.176 C 1717.721,550.814 1720,546.489 1720,542 C 1720,537.511 1717.721,533.186 1713.583,529.824 C 1711.375,528.030 1708.775,526.612 1705.856,525.609 C 1702.749,524.541 1699.433,524 1696,524 Z M 1696,516 L 1696,516 C 1713.673,516 1728,527.641 1728,542 C 1728,556.359 1713.673,568 1696,568 C 1694.303,568 1692.637,567.892 1691.011,567.685 C 1684.137,574.558 1675.933,575.791 1668,575.972 L 1668,574.29 C 1672.284,572.191 1676,568.368 1676,564 C 1676,563.39 1675.953,562.792 1675.865,562.206 C 1668.628,557.44 1664,550.159 1664,542 C 1664,527.641 1678.327,516 1696,516 Z"></path><path d="M 1830.927,555.921c-1.382-0.22-1.413-4.020-1.413-4.020s 4.061-4.020, 4.946-9.425
	c 2.381,0, 3.851-5.747, 1.47-7.769C 1836.028,532.579, 1838.989,518, 1824,518c-14.989,0-12.028,14.579-11.929,16.708
	c-2.381,2.022-0.911,7.769, 1.47,7.769c 0.885,5.405, 4.946,9.425, 4.946,9.425s-0.032,3.8-1.413,4.020
	C 1812.622,556.629, 1796,563.961, 1796,572l 28,0 l 28,0 C 1852,563.961, 1835.378,556.629, 1830.927,555.921z"></path><path d="M 1973,576L 1931,576 c-1.657,0-3-1.343-3-3c0-4.304, 1.817-9.513, 4.86-13.934c 2.543-3.695, 5.668-6.476, 9.042-8.101
		c-1.487-1.353-2.768-3.002-3.782-4.883c-1.625-3.016-2.484-6.503-2.484-10.083c0-4.975, 1.638-9.676, 4.612-13.237
		C 1943.352,519.047, 1947.526,517, 1952,517s 8.648,2.047, 11.752,5.763c 2.974,3.561, 4.612,8.261, 4.612,13.237
		c0,3.58-0.859,7.067-2.484,10.083c-1.013,1.881-2.294,3.53-3.782,4.883c 3.375,1.624, 6.499,4.406, 9.042,8.101
		C 1974.183,563.487, 1976,568.696, 1976,573C 1976,574.657, 1974.657,576, 1973,576z M 1934.38,570l 35.241,0 
		c-0.577-2.459-1.782-5.149-3.423-7.532c-2.591-3.764-5.824-6.226-9.102-6.933c-1.382-0.298-2.368-1.519-2.368-2.933
		l0-2.143 c0-1.079, 0.579-2.074, 1.517-2.608c 3.717-2.115, 6.12-6.767, 6.12-11.852c0-7.168-4.649-13-10.364-13
		c-5.715,0-10.364,5.832-10.364,13c0,5.085, 2.402,9.737, 6.12,11.852c 0.938,0.533, 1.517,1.529, 1.517,2.608l0,2.143 
		c0,1.413-0.987,2.635-2.368,2.933c-3.279,0.707-6.511,3.169-9.102,6.933C 1936.162,564.851, 1934.956,567.541, 1934.38,570z"></path><path d="M 16,660A16,16 12600 1 0 48,660A16,16 12600 1 0 16,660zM 48,680L 16,680 C 7.163,680,0,687.164,0,696l0,4 l 0.504,0 l 62.992,0 L 64,700 l0-4 C 64,687.164, 56.837,680, 48,680z"></path><path d="M 152,648A8,8 12600 1 0 168,648A8,8 12600 1 0 152,648zM 168.971,655.029A8,8 12600 1 0 184.971,655.029A8,8 12600 1 0 168.971,655.029zM 180,672A4,4 12600 1 0 188,672A4,4 12600 1 0 180,672zM 172.971,688.971A4,4 12600 1 0 180.971,688.971A4,4 12600 1 0 172.971,688.971zM 156,696A4,4 12600 1 0 164,696A4,4 12600 1 0 156,696zM 139.030,688.971A4,4 12600 1 0 147.029,688.971A4,4 12600 1 0 139.030,688.971zM 137.030,655.029A6,6 12600 1 0 149.029,655.029A6,6 12600 1 0 137.030,655.029zM 131.5,672A4.5,4.5 12600 1 0 140.5,672A4.5,4.5 12600 1 0 131.5,672z"></path><path d="M 320,672c-0.080-4.179-0.987-8.345-2.661-12.154c-1.669-3.813-4.091-7.266-7.065-10.12
	c-2.972-2.856-6.497-5.114-10.312-6.603C 296.15,641.628, 292.050,640.913, 288,641c-4.051,0.080-8.083,0.961-11.771,2.585
	c-3.691,1.619-7.034,3.967-9.796,6.848c-2.764,2.88-4.947,6.294-6.387,9.987C 258.602,664.112, 257.914,668.078, 258,672
	c 0.080,3.922, 0.935,7.822, 2.508,11.388c 1.568,3.569, 3.842,6.802, 6.632,9.472c 2.788,2.672, 6.092,4.782, 9.663,6.17
	C 280.373,700.424, 284.206,701.086, 288,701c 3.794-0.081, 7.56-0.91, 11.005-2.432c 3.447-1.518, 6.57-3.717, 9.148-6.415
	c 2.58-2.696, 4.615-5.89, 5.953-9.339c 0.815-2.091, 1.367-4.275, 1.659-6.487c 0.078,0.004, 0.156,0.007, 0.235,0.007
	c 2.209,0, 4-1.791, 4-4c0-0.112-0.006-0.223-0.015-0.333L 320,672 z M 313.644,682.622c-1.467,3.325-3.593,6.338-6.199,8.824
	c-2.604,2.488-5.688,4.449-9.015,5.737C 295.103,698.475, 291.537,699.086, 288,699c-3.538-0.081-7.037-0.859-10.239-2.28
	c-3.203-1.417-6.105-3.468-8.5-5.982c-2.396-2.512-4.283-5.485-5.52-8.691C 262.5,678.842, 261.915,675.409, 262,672
	c 0.081-3.409, 0.833-6.776, 2.203-9.856c 1.366-3.081, 3.344-5.873, 5.765-8.176c 2.421-2.304, 5.283-4.117, 8.367-5.303
	C 281.419,647.474, 284.719,646.915, 288,647c 3.281,0.082, 6.514,0.807, 9.473,2.127c 2.959,1.316, 5.641,3.219, 7.851,5.549
	c 2.212,2.329, 3.951,5.081, 5.087,8.043C 311.551,665.681, 312.085,668.848, 312,672l 0.015,0 c-0.009,0.11-0.015,0.221-0.015,0.333
	c0,2.063, 1.562,3.761, 3.568,3.977C 315.179,678.486, 314.535,680.611, 313.644,682.622z"></path><path d="M 446.016,694.462L 430.857,681.569c-1.567-1.41-3.243-2.058-4.597-1.995C 429.838,675.382, 432,669.944, 432,664
	C 432,650.745, 421.255,640, 408,640C 394.745,640, 384,650.745, 384,664c0,13.255, 10.745,24, 24,24c 5.944,0, 11.382-2.162, 15.573-5.74
	c-0.063,1.354, 0.585,3.030, 1.995,4.597l 12.893,15.159c 2.208,2.453, 5.814,2.66, 8.014,0.46S 448.469,696.67, 446.016,694.462z
	 M 408,680c-8.836,0-16-7.163-16-16S 399.164,648, 408,648s 16,7.163, 16,16S 416.837,680, 408,680z"></path><path d="M 574.016,694.462L 558.857,681.569c-1.567-1.41-3.243-2.058-4.597-1.995C 557.838,675.382, 560,669.944, 560,664
		C 560,650.745, 549.255,640, 536,640C 522.745,640, 512,650.745, 512,664c0,13.255, 10.745,24, 24,24c 5.944,0, 11.382-2.162, 15.573-5.74
		c-0.063,1.354, 0.585,3.030, 1.995,4.597l 12.893,15.159c 2.208,2.453, 5.814,2.66, 8.014,0.46S 576.469,696.67, 574.016,694.462
		z M 536,680c-8.836,0-16-7.163-16-16S 527.164,648, 536,648s 16,7.163, 16,16S 544.837,680, 536,680zM 540,652L 532,652L 532,660L 524,660L 524,668L 532,668L 532,676L 540,676L 540,668L 548,668L 548,660L 540,660 	z"></path><path d="M 702.016,694.462L 686.857,681.569c-1.567-1.41-3.243-2.058-4.597-1.995C 685.838,675.382, 688,669.944, 688,664
		C 688,650.745, 677.255,640, 664,640C 650.745,640, 640,650.745, 640,664c0,13.255, 10.745,24, 24,24c 5.944,0, 11.382-2.162, 15.573-5.74
		c-0.063,1.354, 0.585,3.030, 1.995,4.597l 12.893,15.159c 2.208,2.453, 5.814,2.66, 8.014,0.46S 704.469,696.67, 702.016,694.462
		z M 664,680c-8.836,0-16-7.163-16-16S 655.164,648, 664,648s 16,7.163, 16,16S 672.837,680, 664,680zM 652,660L 676,660L 676,668L 652,668z"></path><path d="M 832,640 L 832,664 L 823.359,655.359 L 810.109,668.609 L 803.391,661.891 L 816.641,648.641 L 808,640 ZM 783.359,648.641 L 796.609,661.891 L 789.891,668.609 L 776.641,655.359 L 768,664 L 768,640 L 792,640 ZM 823.359,688.641 L 832,680 L 832,704 L 808,704 L 816.641,695.359 L 803.391,682.109 L 810.109,675.391 ZM 796.609,682.109 L 783.359,695.359 L 792,704 L 768,704 L 768,680 L 776.641,688.641 L 789.891,675.391 Z"></path><path d="M 900,676 L 924,676 L 924,700 L 915.359,691.359 L 902.734,703.984 L 896.016,697.266 L 908.641,684.641 ZM 947.359,684.641 L 959.984,697.266 L 953.266,703.984 L 940.641,691.359 L 932,700 L 932,676 L 956,676 ZM 956,668 L 932,668 L 932,644 L 940.641,652.641 L 953.266,640.016 L 959.984,646.734 L 947.359,659.359 ZM 915.359,652.641 L 924,644 L 924,668 L 900,668 L 908.641,659.359 L 896.016,646.734 L 902.734,640.016 Z"></path><path d="M 1088,640 L 1088,666 L 1078,656 L 1066,668 L 1060,662 L 1072,650 L 1062,640 ZM 1052,682 L 1040,694 L 1050,704 L 1024,704 L 1024,678 L 1034,688 L 1046,676 Z"></path><path d="M 1180,676 L 1180,702 L 1170,692 L 1158,704 L 1152,698 L 1164,686 L 1154,676 ZM 1216,646 L 1204,658 L 1214,668 L 1188,668 L 1188,642 L 1198,652 L 1210,640 Z"></path><path d="M 1342.633,659.64l-6.319-6.319c-1.55-1.55-4.086-4.085-5.635-5.635l-6.319-6.319
	c-1.55-1.55-4.31-1.823-6.133-0.607L 1300.949,652.278c-1.823,1.216-2.514,3.814-1.534,5.774l 4.405,8.811
	c 0.135,0.269, 0.29,0.556, 0.462,0.854L 1282,690L 1280,704l 12,0 l0-4 l 8,0 l0-8 l 8,0 l0-8l 8,0 l0-4.449 c 0.4,0.238, 0.783,0.451, 1.137,0.628
	l 8.811,4.405c 1.96,0.98, 4.559,0.29, 5.774-1.534l 11.518-17.277C 1344.456,663.95, 1344.183,661.19, 1342.633,659.64z
	 M 1289.414,693.414l-2.828-2.828l 19.473-19.473l 2.828,2.828L 1289.414,693.414z M 1337.314,666.485l-2.829,2.829
	c-0.778,0.778-2.050,0.778-2.828,0L 1314.686,652.343c-0.778-0.778-0.778-2.051,0-2.828l 2.829-2.829
	c 0.778-0.778, 2.050-0.778, 2.828,0L 1337.314,663.657C 1338.092,664.435, 1338.092,665.707, 1337.314,666.485z"></path><path d="M 1452,640c-11.046,0-20,8.954-20,20c0,1.252, 0.116,2.476, 0.336,3.664L 1408,688l0,12 c0,2.209, 1.791,4, 4,4
	l 4,0 l0-4 l 8,0 l0-8 l 8,0 l0-8 l 8,0 l 5.19-5.19C 1447.316,679.58, 1449.609,680, 1452,680c 11.046,0, 20-8.954, 20-20S 1463.046,640, 1452,640z
	 M 1457.992,660.008c-3.314,0-6-2.686-6-6s 2.686-6, 6-6s 6,2.686, 6,6S 1461.306,660.008, 1457.992,660.008z"></path><path d="M 1588,668l-4,0 l0-12 C 1584,647.163, 1576.837,640, 1568,640c-8.836,0-16,7.163-16,16l0,12 L 1548,668 c-2.2,0-4,1.8-4,4l0,28 
	c0,2.2, 1.8,4, 4,4l 40,0 c 2.2,0, 4-1.8, 4-4L 1592,672 C 1592,669.8, 1590.2,668, 1588,668z M 1568,692c-2.209,0-4-1.791-4-4
	s 1.791-4, 4-4s 4,1.791, 4,4S 1570.209,692, 1568,692z M 1576,668L 1560,668 l0-12 c0-4.411, 3.589-8, 8-8s 8,3.589, 8,8L 1576,668 z"></path><path d="M 1726.683,691.117l-28.785-24.672C 1699.239,663.926, 1700,661.052, 1700,658C 1700,648.059, 1691.941,640, 1682,640
	c-1.818,0-3.573,0.271-5.228,0.772l 10.399,10.399c 1.556,1.556, 1.556,4.101,0,5.657l-6.343,6.343
	c-1.556,1.556-4.101,1.556-5.657,0L 1664.772,652.772C 1664.271,654.427, 1664,656.182, 1664,658c0,9.941, 8.059,18, 18,18
	c 3.052,0, 5.926-0.761, 8.445-2.101l 24.672,28.785c 1.432,1.67, 3.876,1.764, 5.431,0.209l 6.343-6.343
	C 1728.448,694.993, 1728.354,692.549, 1726.683,691.117z"></path><path d="M 1820,648l0-1 c0-1.65-1.35-3-3-3l-10,0 c-1.65,0-3,1.35-3,3l0,1 L 1792,648 l0,8 l 12,0 l0,1 c0,1.65, 1.35,3, 3,3l 10,0 c 1.65,0, 3-1.35, 3-3l0-1 
		l 36,0 L 1856,648 L 1820,648 z M 1808,656L 1808,648 l 8,0 l0,8 L 1808,656 zM 1844,667c0-1.65-1.35-3-3-3l-10,0 c-1.65,0-3,1.35-3,3l0,1 L 1792,668 l0,8 l 36,0 l0,1 c0,1.65, 1.35,3, 3,3l 10,0 c 1.65,0, 3-1.35, 3-3l0-1 
		l 12,0 l0-8 l-12,0 L 1844,667 z M 1832,676l0-8 l 8,0 l0,8 L 1832,676 zM 1820,687c0-1.65-1.35-3-3-3l-10,0 c-1.65,0-3,1.35-3,3l0,1 L 1792,688 l0,8 l 12,0 l0,1 c0,1.65, 1.35,3, 3,3l 10,0 c 1.65,0, 3-1.35, 3-3l0-1 
		l 36,0 l0-8 L 1820,688 L 1820,687 z M 1808,696l0-8 l 8,0 l0,8 L 1808,696 z"></path><path d="M 1978.362,678.141c-3.358-5.816-1.339-13.269, 4.51-16.655l-6.289-10.893c-1.797,1.053-3.886,1.657-6.115,1.657
	c-6.721,0-12.169-5.484-12.169-12.249L 1945.719,640 c 0.017,2.088-0.505,4.205-1.622,6.141
	c-3.358,5.816-10.822,7.794-16.679,4.422L 1921.129,661.456c 1.811,1.030, 3.378,2.537, 4.493,4.467
	c 3.352,5.807, 1.345,13.245-4.482,16.639l 6.289,10.893c 1.791-1.044, 3.87-1.641, 6.088-1.641
	c 6.7,0, 12.134,5.449, 12.169,12.185l 12.578,0 c-0.005-2.067, 0.517-4.161, 1.623-6.076
	c 3.352-5.807, 10.799-7.787, 16.651-4.438l 6.289-10.893C 1981.028,681.563, 1979.471,680.061, 1978.362,678.141z M 1952,684.958
	c-7.157,0-12.959-5.801-12.959-12.958c0-7.157, 5.802-12.958, 12.959-12.958c 7.157,0, 12.958,5.802, 12.958,12.958
	C 1964.958,679.157, 1959.157,684.958, 1952,684.958z"></path><path d="M 22.733,813.128l 2.581-3.614l-2.828-2.829l-3.614,2.581c-0.67-0.375-1.388-0.673-2.142-0.887L 16,804L 12,804 
		l-0.73,4.38c-0.754,0.214-1.472,0.512-2.142,0.887L 5.515,806.686L 2.686,809.515l 2.581,3.614
		c-0.375,0.67-0.673,1.388-0.887,2.142L0,816l0,4 l 4.38,0.73c 0.214,0.754, 0.512,1.472, 0.887,2.142L 2.686,826.485l 2.828,2.829
		l 3.614-2.581c 0.67,0.375, 1.388,0.673, 2.142,0.887L 12,832l 4,0 l 0.73-4.38c 0.754-0.214, 1.472-0.512, 2.142-0.887l 3.614,2.581
		l 2.828-2.829l-2.581-3.614c 0.375-0.67, 0.673-1.388, 0.887-2.142L 28,820l0-4 l-4.38-0.73
		C 23.406,814.516, 23.107,813.798, 22.733,813.128z M 14,822c-2.209,0-4-1.791-4-4s 1.791-4, 4-4s 4,1.791, 4,4
		S 16.209,822, 14,822zM 64,792l0-4 l-4.211-0.766c-0.078-0.503-0.177-0.999-0.295-1.487l 3.597-2.319L 61.56,779.733l-4.184,0.904
		c-0.263-0.432-0.545-0.851-0.843-1.258l 2.438-3.521l-2.829-2.828l-3.521,2.438c-0.407-0.298-0.826-0.58-1.258-0.843
		l 0.904-4.184L 48.571,768.909l-2.319,3.597c-0.488-0.118-0.984-0.218-1.487-0.295L 44,768l-4,0 l-0.766,4.211
		c-0.503,0.078-0.999,0.177-1.487,0.295L 35.429,768.909L 31.733,770.44l 0.904,4.184c-0.432,0.264-0.851,0.545-1.258,0.843
		l-3.521-2.438l-2.828,2.828l 2.438,3.521c-0.298,0.407-0.58,0.826-0.843,1.258l-4.184-0.904l-1.531,3.696l 3.597,2.319
		c-0.118,0.488-0.218,0.984-0.295,1.487L 20,788l0,4 l 4.211,0.766c 0.078,0.503, 0.177,0.999, 0.295,1.487l-3.597,2.319
		l 1.531,3.696l 4.184-0.904c 0.264,0.432, 0.545,0.851, 0.843,1.258l-2.438,3.521l 2.828,2.829l 3.521-2.438
		c 0.407,0.298, 0.826,0.58, 1.258,0.843l-0.904,4.184l 3.696,1.531l 2.319-3.597c 0.488,0.118, 0.984,0.218, 1.487,0.295L 40,812l 4,0 
		l 0.766-4.211c 0.503-0.078, 0.999-0.177, 1.487-0.295l 2.319,3.597l 3.696-1.531l-0.904-4.184
		c 0.432-0.264, 0.851-0.545, 1.258-0.843l 3.521,2.438l 2.829-2.829l-2.438-3.521c 0.298-0.407, 0.58-0.826, 0.843-1.258
		l 4.184,0.904l 1.531-3.696l-3.597-2.319c 0.118-0.488, 0.218-0.984, 0.295-1.487L 64,792z M 42,798.7
		c-4.805,0-8.7-3.895-8.7-8.7c0-4.805, 3.895-8.7, 8.7-8.7s 8.7,3.895, 8.7,8.7C 50.7,794.805, 46.805,798.7, 42,798.7z"></path><path d="M 192,806.006l0-12.012 l-9.173-1.529c-0.372-1.133-0.826-2.229-1.356-3.281l 5.403-7.565l-8.493-8.494l-7.552,5.394
		c-1.057-0.535-2.159-0.993-3.298-1.369L 166.006,768l-12.012,0 l-1.525,9.151c-1.139,0.376-2.241,0.834-3.298,1.369
		l-7.552-5.394l-8.494,8.494l 5.403,7.565c-0.529,1.052-0.983,2.148-1.356,3.281L 128,793.994l0,12.012 l 9.195,1.532
		c 0.372,1.123, 0.826,2.209, 1.353,3.252l-5.422,7.59l 8.494,8.493l 7.603-5.431c 1.038,0.522, 2.118,0.971, 3.235,1.34
		L 153.994,832l 12.012,0 l 1.536-9.217c 1.117-0.369, 2.198-0.818, 3.235-1.339l 7.603,5.431l 8.493-8.493l-5.421-7.59
		c 0.527-1.043, 0.98-2.129, 1.353-3.252L 192,806.006z M 160,808c-4.418,0-8-3.582-8-8c0-4.418, 3.582-8, 8-8
		c 4.418,0, 8,3.582, 8,8C 168,804.418, 164.418,808, 160,808z"></path><path d="M 268,832L 308,832L 312,788L 264,788 	zM 296,776L 296,768 L 280,768 l0,8 L 260,776 l0,12 l 4-4l 48,0 l 4,4L 316,776 L 296,776 z M 292,776l-8,0 L 284,772 l 8,0 L 292,776 z"></path><path d="M 434,776L 398,776 c-3.314,0-6,2.686-6,6l0,2 l 48,0 l0-2 C 440,778.686, 437.314,776, 434,776zM 423.52,772l 0.882,6.313L 407.598,778.313 l 0.882-6.313L 423.52,772  M 424,768L 408,768 c-1.65,0-3.187,1.337-3.415,2.971l-1.17,8.37
	C 403.187,780.976, 404.35,782.313, 406,782.313l 20,0 c 1.65,0, 2.813-1.337, 2.585-2.971l-1.17-8.37C 427.187,769.337, 425.65,768, 424,768L 424,768z
	M 435,788L 397,788 c-2.2,0-3.837,1.793-3.638,3.984l 3.276,36.033C 396.837,830.207, 398.8,832, 401,832l 30,0 
	c 2.2,0, 4.163-1.793, 4.362-3.983l 3.276-36.033C 438.837,789.793, 437.2,788, 435,788z M 408,824l-6,0 l-2-28l 8,0 L 408,824 z M 420,824l-8,0 
	L 412,796 l 8,0 L 420,824 z M 430,824l-6,0 L 424,796 l 8,0 L 430,824z"></path><path d="M 516,780L 572,780L 572,792L 516,792zM 516,796L 572,796L 572,808L 516,808zM 516,812L 572,812L 572,824L 516,824z"></path><path d="M 672,780C 658.043,780, 645.945,788.128, 640,800c 5.945,11.872, 18.043,20, 32,20c 13.957,0, 26.055-8.128, 32-20
	C 698.055,788.128, 685.957,780, 672,780z M 687.778,790.607c 3.76,2.398, 6.946,5.611, 9.34,9.393
	c-2.393,3.783-5.58,6.995-9.34,9.394C 683.053,812.407, 677.597,814, 672,814c-5.598,0-11.053-1.593-15.778-4.606
	C 652.462,806.995, 649.276,803.783, 646.882,800c 2.393-3.783, 5.58-6.995, 9.34-9.393c 0.245-0.156, 0.492-0.308, 0.741-0.456
	C 656.341,791.858, 656,793.702, 656,795.625c0,8.836, 7.163,16, 16,16s 16-7.163, 16-16c0-1.923-0.341-3.767-0.963-5.475
	C 687.286,790.299, 687.533,790.45, 687.778,790.607z M 672,793.625c0,3.314-2.686,6-6,6s-6-2.686-6-6s 2.686-6, 6-6
	S 672,790.311, 672,793.625z"></path><path d="M 832,792.816l-22.111-3.213L 800,769.566l-9.889,20.036L 768,792.816l 16,15.596L 780.223,830.434L 800,820.036l 19.777,10.397
	l-3.777-22.022L 832,792.816z M 800,815.094l-13.966,7.343l 2.667-15.552l-11.299-11.014l 15.615-2.269L 800,779.452l 6.984,14.15
	l 15.615,2.269l-11.299,11.014l 2.667,15.552L 800,815.094z"></path><path d="M 960,792.816l-22.111-3.213L 928,769.566l-9.889,20.036L 896,792.816l 16,15.596L 908.223,830.434L 928,820.036l 19.777,10.397
	l-3.777-22.022L 960,792.816z M 928,815.094l-0.059,0.031L 928,779.452l 6.984,14.15l 15.615,2.269l-11.299,11.014l 2.667,15.552
	L 928,815.094z"></path><path d="M 1088,792.816L 1065.889,789.603L 1056,769.566l-9.889,20.036L 1024,792.816l 16,15.596L 1036.223,830.434L 1056,820.036l 19.777,10.397
	l-3.777-22.022L 1088,792.816z"></path><path d="M 1216,790.385 C 1216,795.782 1213.674,800.637 1209.969,804 L 1210,804 L 1190,824 C 1188,826 1186,828 1184,828 C 1182,828 1180,826 1178,824 L 1158,804 L 1158.031,804 C 1154.326,800.637 1152,795.782 1152,790.385 C 1152,780.231 1160.231,772 1170.385,772 C 1175.782,772 1180.637,774.326 1184,778.031 C 1187.363,774.326 1192.218,772 1197.615,772 C 1207.769,772 1216,780.231 1216,790.385 Z"></path><path d="M 1344,790.385C 1344,780.231, 1335.769,772, 1325.615,772C 1320.218,772, 1315.363,774.326, 1312,778.031C 1308.637,774.326, 1303.782,772, 1298.385,772
	C 1288.231,772, 1280,780.231, 1280,790.385C 1280,795.782, 1282.326,800.637, 1286.031,804L 1286,804 l 20,20c 2,2, 4,4, 6,4s 4-2, 6-4l 20-20l-0.031,0 
	C 1341.674,800.637, 1344,795.782, 1344,790.385z M 1332.592,798.077L 1312.343,818.343c-0.105,0.105-0.221,0.221-0.343,0.343
	c-0.122-0.122-0.238-0.238-0.343-0.343L 1291.408,798.077C 1289.21,796.082, 1288,793.35, 1288,790.385C 1288,784.659, 1292.659,780, 1298.385,780
	c 2.965,0, 5.697,1.21, 7.692,3.408L 1312,789.932l 5.923-6.524C 1319.919,781.21, 1322.65,780, 1325.615,780
	C 1331.341,780, 1336,784.659, 1336,790.385C 1336,793.35, 1334.789,796.082, 1332.592,798.077z"></path><path d="M 1472,790.385 C 1472,795.782 1469.674,800.637 1465.969,804 L 1466,804 L 1446,824 C 1444,826 1442,828 1440,828 C 1438,828 1436,826 1434,824 L 1414,804 L 1414.031,804 C 1410.326,800.637 1408,795.782 1408,790.385 C 1408,780.231 1416.231,772 1426.385,772 C 1429.85,772 1433.091,772.96 1435.858,774.627 L 1430,784 L 1444,792 L 1436,812 L 1458,788 L 1444,780 L 1448.931,772.604 C 1450.426,772.211 1451.996,772 1453.615,772 C 1463.769,772 1472,780.231 1472,790.385 Z"></path><path d="M 1594,804 C 1598.563,804 1596,816 1592,816 C 1594,816 1592,826 1588,826 C 1588,830 1584,832 1580,832 C 1563.103,832 1569.046,827.772 1552,826 L 1552,794 C 1567.058,789.483 1582,778.161 1582,768 C 1585.313,768 1594,772 1582,792 C 1582,792 1592,792 1594,792 C 1600,792 1598,804 1594,804 ZM 1548,794 L 1548,826 L 1552,826 L 1552,828 L 1544,828 C 1541.8,828 1540,825.3 1540,822 L 1540,798 C 1540,794.7 1541.8,792 1544,792 L 1552,792 L 1552,794 L 1548,794 Z"></path><path d="M 1670,796 C 1665.438,796 1668,784 1672,784 C 1670,784 1672,774 1676,774 C 1676,770 1680,768 1684,768 C 1700.897,768 1694.954,772.228 1712,774 L 1712,806 C 1696.942,810.517 1682,821.839 1682,832 C 1678.688,832 1670,828 1682,808 C 1682,808 1672,808 1670,808 C 1664,808 1666,796 1670,796 ZM 1716,806 L 1716,774 L 1712,774 L 1712,772 L 1720,772 C 1722.2,772 1724,774.7 1724,778 L 1724,802 C 1724,805.3 1722.2,808 1720,808 L 1712,808 L 1712,806 L 1716,806 Z"></path><path d="M 1824,777.92 L 1802.448,824 L 1845.552,824 L 1824,777.92 Z M 1824,768 L 1824,768 C 1825.379,768 1826.759,768.93 1827.805,770.791 L 1855.122,825.235 C 1857.215,828.956 1855.435,832 1851.166,832 L 1796.834,832 C 1792.565,832 1790.785,828.956 1792.878,825.235 L 1820.195,770.791 C 1821.241,768.93 1822.621,768 1824,768 ZM 1820,816A4,4 2520 1 0 1828,816A4,4 2520 1 0 1820,816zM 1824,792 C 1826.209,792 1828,793.791 1828,796 L 1826.75,808 L 1821.25,808 L 1820,796 C 1820,793.791 1821.791,792 1824,792 Z"></path><path d="M 1952,774 C 1945.055,774 1938.526,776.704 1933.615,781.615 C 1928.704,786.526 1926,793.055 1926,800 C 1926,806.945 1928.704,813.474 1933.615,818.385 C 1938.526,823.295 1945.055,826 1952,826 C 1958.945,826 1965.474,823.295 1970.385,818.385 C 1975.295,813.474 1978,806.945 1978,800 C 1978,793.055 1975.295,786.526 1970.385,781.615 C 1965.474,776.704 1958.945,774 1952,774 Z M 1952,768 L 1952,768 C 1969.673,768 1984,782.327 1984,800 C 1984,817.673 1969.673,832 1952,832 C 1934.327,832 1920,817.673 1920,800 C 1920,782.327 1934.327,768 1952,768 ZM 1948,812L 1956,812L 1956,820L 1948,820zM 1948,780L 1956,780L 1956,804L 1948,804z"></path><path d="M 32,896C 14.327,896,0,910.327,0,928s 14.327,32, 32,32s 32-14.327, 32-32S 49.673,896, 32,896z M 32,954
		c-14.359,0-26-11.641-26-26S 17.641,902, 32,902s 26,11.641, 26,26S 46.359,954, 32,954zM 28,912L 36,912L 36,920L 28,920zM 40,944L 24,944L 24,940L 28,940L 28,928L 24,928L 24,924L 36,924L 36,940L 40,940 z"></path><path d="M 160,896C 142.327,896, 128,910.327, 128,928s 14.327,32, 32,32s 32-14.327, 32-32S 177.673,896, 160,896z M 156,908l 8,0 l0,8 l-8,0 L 156,908 z
	 M 168,948L 152,948 l0-4 l 4,0 L 156,928 l-4,0 l0-4 l 12,0 l0,20 l 4,0 L 168,948 z"></path><path d="M 256,928c0,17.673, 14.327,32, 32,32c 17.673,0, 32-14.327, 32-32S 305.673,896, 288,896C 270.327,896, 256,910.327, 256,928z M 312,928
	c0,4.577-1.282,8.855-3.506,12.495L 275.506,907.505C 279.145,905.282, 283.423,904, 288,904C 301.255,904, 312,914.745, 312,928z M 264,928
	c0-4.577, 1.282-8.855, 3.506-12.495l 32.989,32.989C 296.855,950.718, 292.577,952, 288,952C 274.745,952, 264,941.255, 264,928z"></path><path d="M 416,896C 398.327,896, 384,910.327, 384,928s 14.327,32, 32,32s 32-14.327, 32-32S 433.673,896, 416,896z M 432,917.657L 421.657,928
	L 432,938.343L 432,944 l-5.657,0 L 416,933.657L 405.657,944L 400,944 l0-5.657 L 410.343,928L 400,917.657L 400,912 l 5.657,0 L 416,922.343L 426.343,912L 432,912 
	L 432,917.657 z"></path><path d="M 544,896C 526.327,896, 512,910.327, 512,928s 14.327,32, 32,32s 32-14.327, 32-32S 561.673,896, 544,896z M 538,948L 524.75,930.75l 5.875-6.125l 7.375,9.375
	l 23.125-18.875l 2.875,2.875L 538,948z"></path><path d="M 704,942M 686,896L 658,896 L 640,914l0,28 l 18,18l 28,0 l 18-18L 704,914 L 686,896z M 676,948l-8,0 l0-8 l 8,0 L 676,948 z M 676,932l-8,0 L 668,908 l 8,0 L 676,932 z"></path><path d="M 831.416,947.416c0,0-0.001-0.001-0.001-0.001L 812,928l 19.415-19.416c 0,0, 0.001,0, 0.001-0.001
		c 0.209-0.209, 0.36-0.453, 0.457-0.714c 0.265-0.711, 0.114-1.543-0.458-2.114L 822.244,896.584c-0.572-0.572-1.403-0.723-2.114-0.458
		c-0.26,0.097-0.504,0.248-0.714,0.457c0,00,0-0.001,0.001L 800,916L 780.585,896.584
		c0,00,0-0.001-0.001c-0.209-0.209-0.453-0.36-0.713-0.457c-0.711-0.266-1.543-0.114-2.114,0.458L 768.585,905.756
		c-0.572,0.572-0.723,1.403-0.458,2.114c 0.097,0.26, 0.248,0.504, 0.457,0.714c 0,0, 0,0, 0.001,0.001L 788,928
		L 768.585,947.416c0,00,0-0.001,0.001c-0.209,0.209-0.36,0.453-0.457,0.713c-0.266,0.711-0.114,1.543, 0.458,2.114
		l 9.172,9.172c 0.572,0.572, 1.403,0.723, 2.114,0.458c 0.26-0.097, 0.504-0.248, 0.714-0.457c 0,0, 0,0, 0.001-0.001
		l 19.416-19.416l 19.416,19.416c 0,0, 0.001,0, 0.001,0.001c 0.209,0.209, 0.453,0.36, 0.713,0.457
		c 0.711,0.265, 1.543,0.114, 2.114-0.458l 9.172-9.172c 0.572-0.572, 0.723-1.403, 0.458-2.114
		C 831.776,947.87, 831.625,947.625, 831.416,947.416z"></path><path d="M 950,904L 920,934L 906,920L 896,930L 920,954L 960,914 z"></path><path d="M 1048.84,953.356l-24.867-24.475l 12.336-12.142l 12.531,12.333l 26.851-26.428l 12.336,12.142L 1048.84,953.356z
		 M 1030.745,928.881l 18.095,17.81l 32.416-31.905l-5.565-5.477l-26.851,26.428L 1036.309,923.404L 1030.745,928.881z"></path><path d="M 1152,922l0,12 c0,1.105, 0.895,2, 2,2l 60,0 c 1.105,0, 2-0.895, 2-2l0-12 c0-1.105-0.895-2-2-2L 1154,920 C 1152.895,920, 1152,920.895, 1152,922z"></path><path d="M 1342,920L 1320,920 L 1320,898 c0-1.105-0.895-2-2-2l-12,0 c-1.105,0-2,0.895-2,2l0,22 L 1282,920 c-1.105,0-2,0.895-2,2l0,12 
	c0,1.105, 0.895,2, 2,2l 22,0 l0,22 c0,1.105, 0.895,2, 2,2l 12,0 c 1.105,0, 2-0.895, 2-2L 1320,936 l 22,0 c 1.105,0, 2-0.895, 2-2l0-12 
	C 1344,920.895, 1343.105,920, 1342,920z"></path><path d="M 1432,928 L 1412,928 L 1412,920 L 1432,920 L 1432,912 L 1444,924 L 1432,936 ZM 1472,896 L 1472,948 L 1448,960 L 1448,948 L 1424,948 L 1424,932 L 1428,932 L 1428,944 L 1448,944 L 1448,908 L 1464,900 L 1428,900 L 1428,916 L 1424,916 L 1424,896 Z"></path><path d="M 1584,936 L 1584,928 L 1564,928 L 1564,920 L 1584,920 L 1584,912 L 1596,924 ZM 1580,932 L 1580,948 L 1560,948 L 1560,960 L 1536,948 L 1536,896 L 1580,896 L 1580,916 L 1576,916 L 1576,900 L 1544,900 L 1560,908 L 1560,944 L 1576,944 L 1576,932 Z"></path><path d="M 1672,932c0,2.209, 1.791,4, 4,4s 4-1.791, 4-4L 1680,917.657 l 33.172,33.172c 1.562,1.562, 4.095,1.562, 5.657,0
	C 1719.609,950.047, 1720,949.024, 1720,948s-0.391-2.047-1.172-2.828L 1685.657,912L 1700,912 c 2.209,0, 4-1.791, 4-4s-1.791-4-4-4L 1672,904 
	L 1672,932 z"></path><path d="M 1846.828,921.172l-20-20c-1.562-1.562-4.095-1.562-5.657,0l-20,20c-1.562,1.562-1.562,4.095,0,5.657
	c 1.562,1.562, 4.095,1.562, 5.657,0L 1820,913.657L 1820,952 c0,2.209, 1.791,4, 4,4c 2.209,0, 4-1.791, 4-4L 1828,913.657 l 13.172,13.172
	C 1841.953,927.61, 1842.976,928, 1844,928s 2.047-0.391, 2.828-1.172C 1848.391,925.266, 1848.391,922.734, 1846.828,921.172z"></path><path d="M 1972.001,904c-0.001,0-0.002,0-0.003,0L 1948,904 c-2.209,0-4,1.791-4,4s 1.791,4, 4,4l 14.343,0 L 1929.172,945.172
	c-1.562,1.562-1.562,4.095,0,5.657C 1929.953,951.609, 1930.976,952, 1932,952s 2.047-0.391, 2.828-1.172L 1968,917.657L 1968,932 
	c0,2.209, 1.791,4, 4,4s 4-1.791, 4-4L 1976,904 L 1972.001,904 z"></path><path d="M 38.828,1078.828l 20-20c 1.562-1.562, 1.562-4.095,0-5.657l-20-20c-1.562-1.562-4.095-1.562-5.657,0
	c-1.562,1.562-1.562,4.095,0,5.657L 46.343,1052L 8,1052 c-2.209,0-4,1.791-4,4s 1.791,4, 4,4l 38.343,0 L 33.172,1073.172
	C 32.391,1073.953, 32,1074.976, 32,1076s 0.391,2.047, 1.171,2.828C 34.734,1080.391, 37.266,1080.391, 38.828,1078.828z"></path><path d="M 184,1052c0-2.209-1.791-4-4-4c-2.209,0-4,1.791-4,4l0,14.343 L 142.828,1033.171
	c-1.562-1.562-4.095-1.562-5.657,0C 136.39,1033.953, 136,1034.976, 136,1036s 0.391,2.047, 1.172,2.828L 170.343,1072L 156,1072 
	c-2.209,0-4,1.791-4,4s 1.791,4, 4,4l 28,0 L 184,1052 z"></path><path d="M 265.172,1062.828l 20,20c 1.562,1.562, 4.095,1.562, 5.657,0l 20-20c 1.562-1.562, 1.562-4.095,0-5.657
	c-1.562-1.562-4.095-1.562-5.657,0L 292,1070.343L 292,1032 c0-2.209-1.791-4-4-4s-4,1.791-4,4l0,38.343 L 270.828,1057.172
	C 270.047,1056.391, 269.024,1056, 268,1056s-2.047,0.391-2.828,1.171C 263.609,1058.734, 263.609,1061.266, 265.172,1062.828z"></path><path d="M 420,1080c 2.209,0, 4-1.791, 4-4c0-2.209-1.791-4-4-4L 405.657,1072 l 33.172-33.172c 1.562-1.562, 1.562-4.095,0-5.657
	C 438.047,1032.39, 437.024,1032, 436,1032s-2.047,0.391-2.828,1.172L 400,1066.343L 400,1052 c0-2.209-1.791-4-4-4s-4,1.791-4,4l0,28 L 420,1080 z
	"></path><path d="M 537.172,1033.172l-20,20c-1.562,1.562-1.562,4.095,0,5.657l 20,20c 1.562,1.562, 4.095,1.562, 5.657,0
	c 1.562-1.562, 1.562-4.095,0-5.657L 529.657,1060L 568,1060 c 2.209,0, 4-1.791, 4-4c0-2.209-1.791-4-4-4L 529.657,1052 l 13.172-13.172
	C 543.609,1038.047, 544,1037.024, 544,1036s-0.391-2.047-1.171-2.828C 541.266,1031.609, 538.734,1031.609, 537.172,1033.172z"></path><path d="M 640,1024l0,64 l 64,0 L 704,1024 L 640,1024 z M 700,1084L 644,1084 L 644,1028 l 56,0 L 700,1084 z M 688,1038L 668,1058l-12-12l-8,8l 20,20l 28-28L 688,1038z"></path><path d="M 768,1024l0,64 l 64,0 L 832,1024 L 768,1024 z M 828,1084L 772,1084 L 772,1028 l 56,0 L 828,1084 z"></path><path d="M 928,1024C 910.327,1024, 896,1038.327, 896,1056s 14.327,32, 32,32s 32-14.327, 32-32S 945.673,1024, 928,1024z M 928,1080
		c-13.255,0-24-10.745-24-24c0-13.255, 10.745-24, 24-24c 13.255,0, 24,10.745, 24,24C 952,1069.255, 941.255,1080, 928,1080zM 916,1056A12,12 12600 1 0 940,1056A12,12 12600 1 0 916,1056z"></path><path d="M 1056,1024C 1038.327,1024, 1024,1038.327, 1024,1056s 14.327,32, 32,32s 32-14.327, 32-32S 1073.673,1024, 1056,1024z M 1056,1080
	c-13.255,0-24-10.745-24-24c0-13.255, 10.745-24, 24-24c 13.255,0, 24,10.745, 24,24C 1080,1069.255, 1069.255,1080, 1056,1080z"></path><path d="M 1186.942,1028c0,0-12.56,0-16.746,0C 1162.688,1028, 1155.622,1033.688, 1155.622,1040.276c0,6.733, 5.118,12.167, 12.755,12.167
		c 0.531,0, 1.047-0.011, 1.553-0.047c-0.496,0.949-0.85,2.018-0.85,3.128c0,1.871, 1.006,3.388, 2.279,4.627
		c-0.962,0-1.89,0.028-2.903,0.028C 1159.157,1060.178, 1152,1066.1, 1152,1072.242c0,6.049, 7.846,9.832, 17.146,9.832
		c 10.601,0, 16.457-6.015, 16.457-12.064c0-4.85-1.431-7.755-5.855-10.883c-1.514-1.071-4.408-3.677-4.408-5.209
		c0-1.795, 0.512-2.679, 3.214-4.79c 2.769-2.164, 4.729-5.206, 4.729-8.745c0-4.213-1.876-8.319-5.398-9.673l 5.31,0 
		L 1186.942,1028z M 1181.093,1068.966c 0.133,0.561, 0.205,1.138, 0.205,1.727c0,4.888-3.15,8.707-12.186,8.707
		c-6.428,0-11.070-4.069-11.070-8.956c0-4.79, 5.758-8.778, 12.185-8.708c 1.5,0.016, 2.898,0.257, 4.167,0.668
		C 1177.883,1064.83, 1180.387,1066.201, 1181.093,1068.966z M 1170.801,1050.736c-4.315-0.129-8.415-4.827-9.159-10.491
		c-0.745-5.667, 2.148-10.003, 6.462-9.874c 4.313,0.13, 8.415,4.676, 9.16,10.341
		C 1178.007,1046.378, 1175.114,1050.865, 1170.801,1050.736zM 1204,1040L 1204,1028L 1200,1028L 1200,1040L 1188,1040L 1188,1044L 1200,1044L 1200,1056L 1204,1056L 1204,1044L 1216,1044L 1216,1040 	z"></path><path d="M 1280.050,1078.354c-0.015-0.158-0.028-0.317-0.036-0.477C 1280.022,1078.037, 1280.035,1078.196, 1280.050,1078.354zM 1294.744,1059.322c 5.751,0.171, 9.608-5.794, 8.616-13.325c-0.993-7.53-6.462-13.573-12.213-13.745
		c-5.752-0.171-9.609,5.593-8.616,13.125C 1283.525,1052.906, 1288.991,1059.15, 1294.744,1059.322zM 1344,1040L 1344,1034.668 C 1344,1028.801, 1339.201,1024, 1333.334,1024L 1290.668,1024 C 1284.901,1024, 1280.167,1028.639, 1280.008,1034.37
		c 3.648-3.212, 8.708-5.895, 13.93-5.895c 5.582,0, 22.328,0, 22.328,0l-4.997,4.226l-7.079,0 
		c 4.696,1.8, 7.197,7.258, 7.197,12.858c0,4.703-2.613,8.747-6.306,11.623c-3.603,2.806-4.286,3.982-4.286,6.367
		c0,2.036, 3.859,5.5, 5.877,6.924c 5.899,4.159, 7.807,8.020, 7.807,14.466c0,1.027-0.128,2.052-0.379,3.060l 19.234,0 
		C 1339.201,1088, 1344,1083.203, 1344,1077.332L 1344,1044 l-12,0 L 1332,1056 l-4,0 l0-12 l-12,0 l0-4 L 1328,1040 L 1328,1028 l 4,0 l0,12 L 1344,1040 zM 1291.618,1071.871c 1.351,0, 2.589-0.037, 3.871-0.037c-1.697-1.646-3.039-3.663-3.039-6.149
		c0-1.476, 0.473-2.896, 1.133-4.157c-0.674,0.048-1.362,0.062-2.070,0.062c-4.647,0-8.594-1.505-11.513-3.991l0,4.203 
		l 0,12.608C 1283.34,1072.824, 1287.306,1071.871, 1291.618,1071.871zM 1280.214,1079.454c-0.070-0.341-0.123-0.688-0.159-1.040C 1280.091,1078.766, 1280.144,1079.112, 1280.214,1079.454zM 1308.466,1083.553c-0.941-3.675-4.278-5.498-8.931-8.723c-1.692-0.546-3.556-0.867-5.556-0.888
		c-5.601-0.060-10.819,2.184-13.764,5.523C 1281.211,1084.322, 1285.53,1088, 1290.668,1088l 17.903,0 c 0.114-0.696, 0.169-1.415, 0.169-2.152
		C 1308.739,1085.065, 1308.643,1084.298, 1308.466,1083.553z"></path><path d="M 1443.992,1088L 1432,1088 L 1432,1056 l-8,0 l0-11.028 l 8-0.004l-0.013-6.497C 1431.987,1029.474, 1434.427,1024, 1445.024,1024l 8.823,0 l0,11.030 l-5.514,0 
	c-4.127,0-4.325,1.541-4.325,4.418l-0.016,5.52l 9.918,0 l-1.169,11.028L 1444,1056L 1443.992,1088z"></path><path d="M 1589.334,1024L 1546.668,1024 C 1540.801,1024, 1536,1028.801, 1536,1034.668l0,42.664 C 1536,1083.203, 1540.801,1088, 1546.668,1088l 42.666,0
	c 5.867,0, 10.666-4.797, 10.666-10.668L 1600,1034.668 C 1600,1028.801, 1595.201,1024, 1589.334,1024z M 1590.412,1056L 1580,1056 l0,28 l-12,0 L 1568,1056 l-5.783,0 l0-9.16 L 1568,1046.84 
	l0-5.949 C 1568,1032.807, 1571.487,1028, 1580.992,1028l 10.953,0 l0,9.911 l-8.946,0 c-2.655-0.004-2.985,1.385-2.985,3.97L 1580,1046.84l 12,0 
	L 1590.412,1056z"></path><path d="M 1728,1036.151c-2.355,1.044-4.885,1.75-7.541,2.067c 2.711-1.625, 4.793-4.198, 5.773-7.264
	c-2.537,1.505-5.347,2.598-8.338,3.186c-2.395-2.552-5.808-4.146-9.584-4.146c-7.251,0-13.13,5.879-13.13,13.13
	c0,1.029, 0.116,2.031, 0.34,2.992c-10.912-0.548-20.588-5.775-27.064-13.719c-1.13,1.939-1.778,4.195-1.778,6.601
	c0,4.556, 2.318,8.575, 5.841,10.929c-2.152-0.068-4.177-0.659-5.947-1.642c-0.001,0.055-0.001,0.11-0.001,0.165
	c0,6.362, 4.526,11.668, 10.533,12.875c-1.102,0.3-2.262,0.461-3.459,0.461c-0.846,0-1.669-0.083-2.47-0.236
	c 1.671,5.216, 6.52,9.013, 12.266,9.118c-4.494,3.522-10.155,5.621-16.307,5.621c-1.060,0-2.105-0.062-3.132-0.184
	c 5.811,3.726, 12.713,5.9, 20.128,5.9c 24.151,0, 37.358-20.008, 37.358-37.359c0-0.569-0.013-1.135-0.038-1.699
	C 1724.014,1041.097, 1726.24,1038.784, 1728,1036.151z"></path><path d="M 1845.334,1024L 1802.668,1024 C 1796.801,1024, 1792,1028.801, 1792,1034.668l0,42.664 C 1792,1083.203, 1796.801,1088, 1802.668,1088l 42.666,0 
	C 1851.201,1088, 1856,1083.203, 1856,1077.332L 1856,1034.668 C 1856,1028.801, 1851.201,1024, 1845.334,1024z M 1844.378,1045.365
	c 0.021,0.459, 0.031,0.92, 0.031,1.384c0,14.138-10.576,30.442-29.916,30.442c-5.938,0-11.465-1.772-16.118-4.807
	c 0.823,0.099, 1.659,0.15, 2.508,0.15c 4.926,0, 9.46-1.711, 13.058-4.58c-4.601-0.086-8.484-3.18-9.822-7.43
	c 0.642,0.125, 1.301,0.192, 1.978,0.192c 0.959,0, 1.888-0.131, 2.77-0.376c-4.81-0.983-8.434-5.307-8.434-10.491
	c0-0.045,0-0.090, 0.001-0.135c 1.417,0.801, 3.039,1.282, 4.763,1.338c-2.821-1.919-4.678-5.193-4.678-8.905
	c0-1.961, 0.518-3.799, 1.424-5.379c 5.186,6.473, 12.934,10.732, 21.672,11.179c-0.179-0.783-0.272-1.6-0.272-2.438
	c0-5.909, 4.708-10.699, 10.514-10.699c 3.024,0, 5.757,1.299, 7.675,3.379c 2.395-0.48, 4.645-1.37, 6.677-2.596
	c-0.785,2.498-2.452,4.595-4.623,5.919c 2.127-0.259, 4.153-0.834, 6.039-1.685C 1848.216,1041.972, 1846.433,1043.856, 1844.378,1045.365
	z"></path><path d="M 1934,1072L 1922,1072 c-1.106,0-2,0.894-2,2l0,12 c0,1.106, 0.894,2, 2,2l 12,0 c 1.106,0, 2-0.894, 2-2l0-12 
			C 1936,1072.894, 1935.106,1072, 1934,1072z M 1932,1082c0,1.106-0.894,2-2,2L 1926,1084 c-1.106,0-2-0.894-2-2l0-4 c0-1.106, 0.894-2, 2-2l 4,0 c 1.106,0, 2,0.894, 2,2L 1932,1082 z
			 M 1982,1076L 1946,1076 c-1.106,0-2,0.894-2,2l0,4 c0,1.106, 0.894,2, 2,2l 36,0 c 1.106,0, 2-0.894, 2-2l0-4 C 1984,1076.894, 1983.106,1076, 1982,1076z M 1982,1052L 1946,1052 
			c-1.106,0-2,0.894-2,2l0,4 c0,1.106, 0.894,2, 2,2l 36,0 c 1.106,0, 2-0.894, 2-2l0-4 C 1984,1052.894, 1983.106,1052, 1982,1052z M 1934,1024L 1922,1024 C 1920.894,1024, 1920,1024.894, 1920,1026l0,12 
			c0,1.106, 0.894,2, 2,2l 12,0 c 1.106,0, 2-2.894, 2-4L 1936,1026 C 1936,1024.894, 1935.106,1024, 1934,1024z M 1932,1034c0,1.106-0.894,2-2,2L 1926,1036 C 1924.894,1036, 1924,1035.106, 1924,1034L 1924,1030 
			c0-1.106, 0.894-2, 2-2l 4,0 c 1.106,0, 2,0.894, 2,2L 1932,1034 z M 1934,1048L 1922,1048 c-1.106,0-2,0.894-2,2l0,12 c0,1.106, 0.894,2, 2,2l 12,0 c 1.106,0, 2-0.894, 2-2l0-12 
			C 1936,1048.894, 1935.106,1048, 1934,1048z M 1932,1058c0,1.106-0.894,2-2,2L 1926,1060 c-1.106,0-2-0.894-2-2l0-4 c0-1.106, 0.894-2, 2-2l 4,0 c 1.106,0, 2,0.894, 2,2L 1932,1058 z
			 M 1982,1028L 1946,1028 c-1.106,0-2,0.894-2,2l0,4 c0,1.106, 0.894,2, 2,2l 36,0 c 1.106,0, 2-0.894, 2-2L 1984,1030 C 1984,1028.894, 1983.106,1028, 1982,1028z"></path><path d="M 14,1176L 2,1176 c-1.106,0-2,0.894-2,2l0,12 c0,1.106, 0.894,2, 2,2l 12,0 c 1.106,0, 2-0.894, 2-2l0-12 
			C 16,1176.894, 15.106,1176, 14,1176z M 12,1186c0,1.106-0.894,2-2,2L 6,1188 c-1.106,0-2-0.894-2-2l0-4 c0-1.106, 0.894-2, 2-2l 4,0 c 1.106,0, 2,0.894, 2,2L 12,1186 z
			 M 14,1152L 2,1152 C 0.894,1152,0,1152.894,0,1154l0,12 c0,1.106, 0.894,2, 2,2l 12,0 c 1.106,0, 2-2.894, 2-4L 16,1154 C 16,1152.894, 15.106,1152, 14,1152z M 12,1162c0,1.106-0.894,2-2,2L 6,1164 
			C 4.894,1164, 4,1163.106, 4,1162L 4,1158 c0-1.106, 0.894-2, 2-2l 4,0 c 1.106,0, 2,0.894, 2,2L 12,1162 z M 14,1200L 2,1200 c-1.106,0-2,0.894-2,2l0,12 c0,1.106, 0.894,2, 2,2l 12,0 
			c 1.106,0, 2-0.894, 2-2l0-12 C 16,1200.894, 15.106,1200, 14,1200z M 12,1210c0,1.106-0.894,2-2,2L 6,1212 c-1.106,0-2-0.894-2-2l0-4 c0-1.106, 0.894-2, 2-2l 4,0 
			c 1.106,0, 2,0.894, 2,2L 12,1210 z M 38,1176l-12,0 c-1.106,0-2,0.894-2,2l0,12 c0,1.106, 0.894,2, 2,2l 12,0 c 1.106,0, 2-0.894, 2-2l0-12 
			C 40,1176.894, 39.106,1176, 38,1176z M 36,1186c0,1.106-0.894,2-2,2l-4,0 c-1.106,0-2-0.894-2-2l0-4 c0-1.106, 0.894-2, 2-2l 4,0 c 1.106,0, 2,0.894, 2,2
			L 36,1186 z M 38,1200l-12,0 c-1.106,0-2,0.894-2,2l0,12 c0,1.106, 0.894,2, 2,2l 12,0 c 1.106,0, 2-0.894, 2-2l0-12 C 40,1200.894, 39.106,1200, 38,1200z M 36,1210
			c0,1.106-0.894,2-2,2l-4,0 c-1.106,0-2-0.894-2-2l0-4 c0-1.106, 0.894-2, 2-2l 4,0 c 1.106,0, 2,0.894, 2,2L 36,1210 z M 62,1176l-12,0 c-1.106,0-2,0.894-2,2
			l0,12 c0,1.106, 0.894,2, 2,2l 12,0 c 1.106,0, 2-0.894, 2-2l0-12 C 64,1176.894, 63.106,1176, 62,1176z M 60,1186c0,1.106-0.894,2-2,2l-4,0 c-1.106,0-2-0.894-2-2
			l0-4 c0-1.106, 0.894-2, 2-2l 4,0 c 1.106,0, 2,0.894, 2,2L 60,1186 z M 62,1152l-12,0 c-1.106,0-2,0.894-2,2l0,12 c0,1.106, 0.894,2, 2,2l 12,0 c 1.106,0, 2-2.894, 2-4L 64,1154 
			C 64,1152.894, 63.106,1152, 62,1152z M 60,1162c0,1.106-0.894,2-2,2l-4,0 c-1.106,0-2-0.894-2-2L 52,1158 c0-1.106, 0.894-2, 2-2l 4,0 c 1.106,0, 2,0.894, 2,2L 60,1162 z
			 M 38,1152l-12,0 c-1.106,0-2,0.894-2,2l0,12 c0,1.106, 0.894,2, 2,2l 12,0 c 1.106,0, 2-2.894, 2-4L 40,1154 C 40,1152.894, 39.106,1152, 38,1152z M 36,1162
			c0,1.106-0.894,2-2,2l-4,0 c-1.106,0-2-0.894-2-2L 28,1158 c0-1.106, 0.894-2, 2-2l 4,0 c 1.106,0, 2,0.894, 2,2L 36,1162 z M 62,1200l-12,0 c-1.106,0-2,0.894-2,2l0,12 
			c0,1.106, 0.894,2, 2,2l 12,0 c 1.106,0, 2-0.894, 2-2l0-12 C 64,1200.894, 63.106,1200, 62,1200z M 60,1210c0,1.106-0.894,2-2,2l-4,0 c-1.106,0-2-0.894-2-2
			l0-4 c0-1.106, 0.894-2, 2-2l 4,0 c 1.106,0, 2,0.894, 2,2L 60,1210 z"></path></svg>