<?xml version="1.0" encoding="utf-8"?>
<!-- Generator: IcoMoon.io  -->
<!DOCTYPE svg PUBLIC "-//W3C//DTD SVG 1.1//EN" "http://www.w3.org/Graphics/SVG/1.1/DTD/svg11.dtd">
<svg width="992" height="608" viewBox="0 0 992 608" data-du="" style="margin-left: 0px; margin-top: 0px;" data-tags="rss" xmlns="http://www.w3.org/2000/svg" fill="#000000"><path d="M 85.184,469.331c-46.998,0-85.183,38.334-85.183,85.047c0,46.971, 38.188,84.876, 85.183,84.876
		c 47.166,0, 85.309-37.905, 85.309-84.876C 170.491,507.665, 132.353,469.331, 85.184,469.331zM 0.098,217.456l0,122.661 c 79.865,0, 154.974,31.233, 211.536,87.82c 56.49,56.449, 87.676,131.898, 87.676,212.063l 123.201,0 
		C 422.51,406.987, 232.96,217.456, 0.098,217.456zM 0.242,0l0,122.722 c 284.864,0, 516.722,232.084, 516.722,517.278L 640,640 C 640,287.206, 352.966,0, 0.242,0z" transform="scale(0.05 0.05)"></path><path d="M 65.056,7.62c 0.868,0.468, 12.887,6.923, 13.335,7.163C 78.837,15.022, 79.417,15.138, 80,15.138c 0.585,0, 1.164-0.116, 1.611-0.357
		c 0.448-0.24, 12.466-6.695, 13.333-7.163C 95.813,7.152, 96.635,5.689, 95.040,5.689L 64.962,5.689 C 63.367,5.689, 64.187,7.152, 65.056,7.62z M 95.312,11.175
		c-0.987,0.516-13.097,6.846-13.701,7.163S 80.585,18.695, 80,18.695c-0.583,0-1.004-0.041-1.609-0.357S 65.675,11.689, 64.69,11.175
		C 63.995,10.812, 64,11.237, 64,11.564c0,0.327,0,13.040,0,13.040C 64,25.351, 64.994,26.311, 65.764,26.311l 28.475,0 c 0.772,0, 1.762-0.96, 1.762-1.705
		c0,0,0-12.713,0-13.040C 96,11.237, 96.007,10.812, 95.312,11.175z"></path><path d="M 141.213,1.604L 139.075,1.604L 137.776,7.047L 137.642,7.047L 136.278,1.604L 134.16,1.604L 134.16,1.605L 136.661,9.825L 136.661,15.222L 138.765,15.222L 138.765,9.572 	zM 141.853,14.718c 0.488,0.503, 1.139,0.755, 1.952,0.757l 0.018,0 c 0.845-0.002, 1.508-0.247, 1.991-0.734
		c 0.482-0.489, 0.724-1.163, 0.724-2.022l0-5.192 c0-0.765-0.246-1.391-0.739-1.876c-0.494-0.487-1.126-0.729-1.9-0.729
		c-0.849,0-1.525,0.23-2.027,0.691c-0.503,0.461-0.755,1.081-0.755,1.858l 0.001,5.208
		C 141.118,13.534, 141.363,14.213, 141.853,14.718L 141.853,14.718z M 143.040,7.398L 143.040,7.398
		c0-0.22, 0.071-0.397, 0.214-0.533c 0.143-0.134, 0.327-0.201, 0.555-0.201c 0.247,0, 0.446,0.067, 0.598,0.201
		c 0.152,0.136, 0.229,0.313, 0.229,0.533l0,5.471 c0,0.27-0.074,0.481-0.224,0.635c-0.149,0.154-0.349,0.231-0.603,0.231
		c-0.247,0-0.436-0.075-0.57-0.225c-0.133-0.152-0.199-0.365-0.199-0.641L 143.040,7.398 zM 151.588,5.177l0,7.625 c-0.176,0.218-0.368,0.399-0.578,0.54c-0.209,0.142-0.382,0.211-0.52,0.211
		c-0.175,0-0.302-0.053-0.379-0.16c-0.078-0.106-0.117-0.278-0.117-0.517L 149.993,5.177 l-1.869,0 l0,8.4 
		c 0,0.596, 0.11,1.043, 0.328,1.342c 0.219,0.298, 0.544,0.447, 0.976,0.447c 0.349,0, 0.711-0.107, 1.085-0.319
		c 0.371-0.213, 0.729-0.525, 1.074-0.933l0,1.108 l 1.867,0 L 153.454,5.177 L 151.588,5.177 zM 139.636,19.085L 135.222,19.085 l0,1.351 l 1.488,0 l0,7.96 l 1.438,0 L 138.147,20.436 l 1.488,0 L 139.636,19.085 L 139.636,19.085z M 141.986,26.741l0-5.214 
		l 1.277,0 l0,6.868 l-1.277,0 l0-0.759 c-0.235,0.28-0.48,0.493-0.735,0.639c-0.255,0.146-0.502,0.219-0.741,0.219
		c-0.295,0-0.518-0.102-0.667-0.306c-0.15-0.205-0.225-0.511-0.225-0.92l0-5.741 l 1.277,0 l0,5.264 c0,0.163, 0.027,0.282, 0.081,0.354
		c 0.053,0.073, 0.14,0.109, 0.26,0.109c 0.094,0, 0.212-0.048, 0.356-0.144C 141.735,27.014, 141.866,26.891, 141.986,26.741
		L 141.986,26.741L 141.986,26.741z M 146.934,21.44L 146.934,21.44c-0.198,0-0.394,0.055-0.588,0.164
		c-0.193,0.109-0.376,0.268-0.549,0.478l0-2.997 L 144.509,19.085 l0,9.311 l 1.288,0 l0-0.528 c 0.169,0.209, 0.35,0.364, 0.545,0.463
		c 0.196,0.101, 0.418,0.152, 0.668,0.152c 0.379,0, 0.667-0.13, 0.868-0.389c 0.2-0.26, 0.3-0.633, 0.3-1.122l0-3.81 
		c0-0.561-0.106-0.988-0.32-1.282C 147.646,21.587, 147.337,21.44, 146.934,21.44L 146.934,21.44z M 146.864,26.785
		L 146.864,26.785c0,0.219-0.037,0.377-0.111,0.474c-0.073,0.096-0.188,0.145-0.345,0.145c-0.108,0-0.21-0.024-0.308-0.074
		c-0.098-0.049-0.199-0.129-0.303-0.241l0-4.28 c 0.088-0.094, 0.175-0.164, 0.265-0.209c 0.089-0.045, 0.178-0.067, 0.269-0.067
		c 0.173,0, 0.305,0.060, 0.396,0.18c 0.091,0.12, 0.137,0.296, 0.137,0.528L 146.864,26.785 L 146.864,26.785z M 152.898,25.122L 152.898,25.122
		L 152.898,23.374 c0-0.652-0.157-1.151-0.469-1.499c-0.315-0.348-0.763-0.521-1.348-0.521c-0.571,0-1.037,0.187-1.399,0.562
		c-0.361,0.375-0.541,0.862-0.541,1.458l0,3.083 c0,0.661, 0.164,1.18, 0.492,1.559c 0.329,0.377, 0.779,0.566, 1.351,0.566
		c 0.636,0, 1.114-0.177, 1.434-0.534c 0.321-0.357, 0.48-0.887, 0.48-1.59l0-0.516 l-1.314,0 l0,0.477 c0,0.405-0.042,0.665-0.126,0.784
		c-0.084,0.117-0.233,0.177-0.444,0.177c-0.203,0-0.346-0.070-0.43-0.209c-0.085-0.139-0.127-0.391-0.127-0.751l0-1.296 L 152.898,25.122 
		L 152.898,25.122z M 150.456,23.361L 150.456,23.361c0-0.288, 0.045-0.494, 0.134-0.618c 0.088-0.125, 0.234-0.187, 0.438-0.187
		c 0.194,0, 0.336,0.062, 0.424,0.187c 0.089,0.124, 0.133,0.331, 0.133,0.618l0,0.696 l-1.129,0 L 150.455,23.361 z"></path><path d="M 212.941,14.91c-0.163-3.31-2.511-5.301-5.346-5.301l-0.107,0 c-3.272,0-5.087,2.693-5.087,5.752
	c0,3.425, 2.196,5.589, 5.074,5.589c 3.209,0, 5.32-2.461, 5.473-5.371L 212.941,14.91z M 207.504,6.647
	c 2.187,0, 4.243,1.011, 5.751,2.595l0,0.006 c0-0.76, 0.488-1.334, 1.168-1.334l 0.172-0.001c 1.061,0, 1.279,1.051, 1.279,1.384
	l 0.005,11.821c-0.075,0.774, 0.763,1.173, 1.228,0.677c 1.814-1.951, 3.983-10.027-1.128-14.707
	c-4.763-4.363-11.155-3.645-14.553-1.192c-3.613,2.608-5.925,8.381-3.679,13.803
	c 2.448,5.913, 9.454,7.678, 13.618,5.917c 2.109-0.89, 3.083,2.093, 0.893,3.067c-3.309,1.475-12.518,1.326-16.82-6.472
	c-2.907-5.267-2.751-14.532, 4.957-19.332c 5.897-3.673, 13.672-2.656, 18.361,2.468
	c 4.901,5.357, 4.615,15.389-0.165,19.288c-2.166,1.772-5.382,0.048-5.362-2.534l-0.022-0.844
	c-1.508,1.566-3.515,2.48-5.701,2.48c-4.32,0-8.121-3.978-8.121-8.498
	C 199.383,10.671, 203.184,6.647, 207.504,6.647L 207.504,6.647"></path><path d="M 280.885,17.135c-0.438-0.879-1.65-1.611-3.261-0.341
	c-2.177,1.716-5.675,1.716-5.675,1.716s-3.498,0-5.675-1.716c-1.611-1.269-2.824-0.538-3.261,0.341
	c-0.763,1.533, 0.099,2.274, 2.045,3.523c 1.662,1.067, 3.945,1.465, 5.42,1.614l-1.231,1.231
	c-1.734,1.734-3.407,3.407-4.569,4.569c-0.694,0.694-0.694,1.82,0,2.514l 0.21,0.21c 0.346,0.346, 0.8,0.52, 1.254,0.521
	l 0.007,0 c 0.454-0.001, 0.907-0.174, 1.254-0.521l 4.569-4.569c 1.734,1.733, 3.407,3.407, 4.569,4.569
	c 0.694,0.694, 1.82,0.694, 2.514,0l 0.21-0.21c 0.694-0.694, 0.694-1.82,0-2.514l-4.569-4.569l-1.235-1.235
	c 1.476-0.152, 3.735-0.553, 5.383-1.611C 280.786,19.409, 281.648,18.668, 280.885,17.135L 280.885,17.135z M 271.948,4.622
	c 2.107,0, 3.814,1.708, 3.814,3.814c0,2.107-1.708,3.814-3.814,3.814s-3.814-1.708-3.814-3.814S 269.842,4.622, 271.948,4.622
	L 271.948,4.622z M 271.948,16.189c 4.282,0, 7.753-3.471, 7.753-7.753c0-4.282-3.471-7.753-7.753-7.753
	s-7.753,3.471-7.753,7.753C 264.195,12.718, 267.667,16.189, 271.948,16.189L 271.948,16.189z"></path><path d="M 327.019,4.11l 10.502,0 c 3.456,0, 6.397,1.693, 6.394,5.116
	c -0.003,2.858 -1.038,3.97 -3.164,5.227c 0.182,0.15, 1.4,0.513, 1.809,0.715c 0.655,0.323, 1.041,0.649, 1.472,1.088
	c 1.206,1.226, 1.431,2.348, 1.431,4.272c0,4.464 -4.318,6.708 -8.475,6.708l -10.013,0 L 327.019,4.11L 327.019,4.11z
	 M 332.725,10.185l -0.001,3.003c 2.705,0, 5.247,0.356, 5.247-2.577c0-2.715 -2.875-2.268 -5.249-2.268L 332.725,10.185
	L 332.725,10.185z M 332.724,22.978c 2.964,0, 6.626,0.488, 6.69-2.877c 0.067-3.51 -3.762-2.877 -6.688-2.877L 332.724,22.978z"></path><path d="M 409.428,24.614c-0.048,0-0.095,0-0.143,0c-1.538-0.257-2.586-1.36-3.48-2.381
	c-0.503-0.578-1.279-1.883-2.202-1.733c-1.311,0.215-0.659,2.489-1.207,3.464c-0.442,0.787-2.324,0.645-3.622,0.505
	c-4.096-0.442-6.19-2.663-8.025-5.051c-1.962-2.552-3.489-5.223-4.901-8.155c-0.457-0.949-1.065-1.999-1.065-3.176
	c 0.664-0.549, 1.748-0.361, 2.841-0.361c 0.927,0, 2.375-0.207, 3.053,0.145c 0.404,0.207, 0.811,1.314, 1.137,2.020
	c 0.748,1.62, 1.436,2.787, 2.344,4.113c 0.393,0.575, 0.997,1.66, 1.704,1.516c 0.687-0.139, 0.752-1.859, 0.781-2.958
	c 0.034-1.249-0.001-2.801-0.355-3.464c-0.334-0.626-0.945-0.638-1.563-1.011c 0.514-1.050, 1.923-1.155, 3.622-1.155
	c 1.427,0, 3.42-0.16, 3.977,0.795c 0.567,0.973, 0.178,2.726, 0.142,4.041c-0.039,1.477-0.291,3.003, 0.711,3.681
	c 0.77-0.085, 1.185-0.848, 1.633-1.444c 0.98-1.305, 1.586-2.434, 2.344-4.113c 0.311-0.69, 0.644-1.877, 1.207-2.093
	c 0.858-0.33, 2.225-0.072, 3.48-0.072c 1.029,0, 2.866-0.289, 3.196,0.433c 0.274,0.599-0.533,2.11-0.781,2.525
	c-0.952,1.585-1.885,2.594-2.911,3.969c-0.411,0.55-1.259,1.43-1.208,2.31c 0.038,0.668, 0.699,1.18, 1.208,1.66
	c 1.102,1.040, 1.876,1.798, 2.769,2.958c 0.336,0.437, 1.064,1.383, 0.994,1.949C 414.893,25.295, 410.805,24.189, 409.428,24.614
	z"></path><path d="M 472,6.606l-4.57,0 c-0.541,0-1.144,0.71-1.144,1.662L 466.286,11.568 L 472,11.568 l0,4.704 l-5.714,0 L 466.286,30.4 L 460.891,30.4 l0-14.126 L 456,16.274 L 456,11.568 l 4.891,0 L 460.891,8.8 
	c0-3.97, 2.755-7.2, 6.538-7.2L 472,1.6 L 472,6.606 z"></path><path d="M 542.72,6.869c-1.085,0.482-2.248,0.805-3.47,0.952c 1.248-0.747, 2.206-1.931, 2.656-3.341c-1.166,0.691-2.459,1.195-3.834,1.466
	c-1.102-1.174-2.672-1.907-4.41-1.907c-3.336,0-6.040,2.704-6.040,6.038c0,0.474, 0.053,0.934, 0.157,1.376
	c-5.019-0.251-9.47-2.656-12.448-6.31C 514.81,6.034, 514.51,7.072, 514.51,8.179c0,2.096, 1.067,3.944, 2.688,5.027
	c-0.99-0.032-1.922-0.302-2.736-0.755c0,0.026,0,0.050,0,0.075c0,2.926, 2.083,5.366, 4.845,5.923c-0.506,0.138-1.040,0.211-1.592,0.211
	c-0.389,0-0.766-0.037-1.136-0.107c 0.768,2.4, 3,4.146, 5.642,4.194c-2.067,1.621-4.67,2.586-7.501,2.586
	c-0.488,0-0.968-0.029-1.44-0.085c 2.672,1.714, 5.846,2.714, 9.259,2.714c 11.109,0, 17.184-9.203, 17.184-17.186
	c0-0.261-0.005-0.522-0.018-0.781C 540.886,9.144, 541.909,8.080, 542.72,6.869z"></path><path d="M 584.997,6.116c0,1.512-1.116,2.736-2.953,2.736c-1.728,0-2.844-1.225-2.844-2.736c0-1.547, 1.153-2.736, 2.917-2.736
		S 584.961,4.568, 584.997,6.116z M 579.345,28.621L 579.345,11.014 L 584.818,11.014 l0,17.607 L 579.345,28.621 zM 588.093,16.63c0-2.196-0.073-4.032-0.145-5.616l 4.753,0 l 0.253,2.449l 0.108,0 c 0.72-1.153, 2.485-2.844, 5.437-2.844
		c 3.6,0, 6.3,2.412, 6.3,7.598l0,10.406 l-5.473,0 l0-9.758 c0-2.268-0.794-3.817-2.773-3.817c-1.512,0-2.411,1.044-2.807,2.052
		c-0.145,0.36-0.181,0.863-0.181,1.368l0,10.155 L 588.093,28.622 L 588.093,16.63 z"></path><path d="M 657.471,2c0,0-6.28,0-8.373,0C 645.344,2, 641.811,4.844, 641.811,8.138c0,3.366, 2.559,6.083, 6.378,6.083
		c 0.266,0, 0.524-0.005, 0.776-0.024c-0.248,0.475-0.425,1.009-0.425,1.564c0,0.936, 0.503,1.694, 1.14,2.313
		c-0.481,0-0.945,0.014-1.452,0.014C 643.579,18.089, 640,21.050, 640,24.121c0,3.024, 3.923,4.916, 8.573,4.916
		c 5.301,0, 8.228-3.008, 8.228-6.032c0-2.425-0.716-3.877-2.928-5.442c-0.757-0.536-2.204-1.839-2.204-2.605
		c0-0.897, 0.256-1.34, 1.607-2.395c 1.385-1.082, 2.365-2.603, 2.365-4.372c0-2.106-0.938-4.159-2.699-4.837l 2.655,0 
		L 657.471,2z M 654.546,22.483c 0.066,0.28, 0.103,0.569, 0.103,0.863c0,2.444-1.575,4.353-6.093,4.353
		c-3.214,0-5.535-2.034-5.535-4.478c0-2.395, 2.879-4.389, 6.093-4.354c 0.75,0.008, 1.449,0.129, 2.083,0.334
		C 652.942,20.415, 654.193,21.101, 654.546,22.483z M 649.401,13.368c-2.157-0.065-4.207-2.413-4.58-5.246
		c-0.372-2.833, 1.074-5.001, 3.231-4.937c 2.157,0.065, 4.207,2.338, 4.58,5.171
		C 653.004,11.189, 651.557,13.433, 649.401,13.368zM 666,8L 666,2L 664,2L 664,8L 658,8L 658,10L 664,10L 664,16L 666,16L 666,10L 672,10L 672,8 	z"></path><path d="M 722.055,24.27c 0.195-0.642, 0.705-1.301, 0.968-2.1
	c 0.357-1.088, 0.284-1.493, 0.309-2.657c 2.525,0.527, 2.919,0.23, 4.93-0.654c 0.259,0.343, 1.032,5.981, 1.098,6.856
	c-0.281,0.178-0.557,0.25-0.846,0.462c-0.372,0.274-0.354,0.421-0.675,0.685L 722.055,24.27L 722.055,24.27z M 715.77,10.166
	c-0.547,0.511-2.707,2.49-1.999,3.463c 0.872,1.198, 1.684,2.226, 2.541,3.394l 4.751,6.363
	c 0.137,0.175, 0.185,0.225, 0.318,0.348c 0.020-0.019, 0.047-0.044, 0.059-0.057l 0.112-0.116c 0.015-0.017, 0.036-0.042, 0.051-0.060
	c 0.118-0.145, 0.035-0.039, 0.133-0.188c 0.102-0.156, 0.153-0.248, 0.233-0.405c 0.161-0.317, 0.284-0.637, 0.385-0.99
	c 0.581-2.039, 0.047-2.968-0.833-4.174l-3.438-4.606C 717.671,12.584, 716.111,10.401, 715.77,10.166L 715.77,10.166z
	 M 716.345,9.584c 0.118,0.433, 1.92,2.715, 2.288,3.212c 0.752,1.016, 1.482,1.997, 2.259,3.033
	c 0.546,0.729, 1.708,2.613, 2.5,2.894c 1.548,0.549, 3.182,0.239, 4.418-0.444c-0.305-0.629-5.453-7.372-6.231-8.43
	l-1.26-1.707C 719.645,7.46, 716.865,9.393, 716.345,9.584L 716.345,9.584z M 718.364,7.097
	c-0.588,0.228-1.946,0.921-2.307,0.984c-0.207,0.305-0.71,0.61-1.002,0.828c-1.15,0.856-1.588,1.728-2.26,2.819
	l-0.2,0.263c-0.468-0.49-0.934-1.114-1.32-1.731c 0.278-1.539, 2.376-3.449, 3.423-4.058
	c 0.618-0.371, 1.595-0.926, 2.423-1.067l 0.767-0.177c 0.295,0.278, 1.384,1.665, 1.421,1.949L 718.364,7.097L 718.364,7.097z
	 M 710.302,8.879c-0.455-2.705, 3.787-6.198, 6.635-5.073c-0.336,0.231-3.475,0.78-5.492,3.4
	C 711.022,7.754, 710.475,8.788, 710.302,8.879L 710.302,8.879z M 720.031,24.841c 0.606,0.832, 0.824,0.752, 2.096,1.295
	c 2.837,1.211, 6.667,2.779, 9.381,4.045c-0.211-3.087-0.979-8.224-1.433-11.469
	c-0.174-1.247-11.060-15.619-12.033-16.333c-3.357-2.467-11.933,3.798-8.918,7.856
	c 0.738,0.993, 1.334,1.797, 2.081,2.79C 721.48,26.688, 711.94,13.732, 720.031,24.841z"></path><path d="M 781.714,18.286l0,6.857 q0,0.929 -0.679,1.607t-1.607,0.679l-9.143,0 q-0.929,0 -1.607-0.679t-0.679-1.607l0-6.857 q0-0.929 0.679-1.607t 1.607-0.679l 9.143,0 q 0.929,0 1.607,0.679t 0.679,1.607zM 781.714,4.571l0,6.857 q0,0.929 -0.679,1.607t-1.607,0.679l-9.143,0 q-0.929,0 -1.607-0.679t-0.679-1.607l0-6.857 q0-0.929 0.679-1.607t 1.607-0.679l 9.143,0 q 0.929,0 1.607,0.679t 0.679,1.607zM 797.714,18.286l0,6.857 q0,0.929 -0.679,1.607t-1.607,0.679 l-9.143,0 q-0.929,0 -1.607-0.679t-0.679-1.607l0-6.857 q0-0.929 0.679-1.607t 1.607-0.679l 9.143,0 q 0.929,0 1.607,0.679t 0.679,1.607zM 797.714,4.571l0,6.857 q0,0.929 -0.679,1.607t-1.607,0.679l-9.143,0 q-0.929,0 -1.607-0.679t-0.679-1.607l0-6.857 q0-0.929 0.679-1.607t 1.607-0.679l 9.143,0 q 0.929,0 1.607,0.679t 0.679,1.607z"></path><path d="M 841.143,22.286l0,3.429 q0,0.714 -0.5,1.214t-1.214,0.5l-5.714,0 q-0.714,0 -1.214-0.5t-0.5-1.214l0-3.429 q0-0.714 0.5-1.214t 1.214-0.5l 5.714,0 q 0.714,0 1.214,0.5t 0.5,1.214zM 841.143,13.143l0,3.429 q0,0.714 -0.5,1.214t-1.214,0.5l-5.714,0 q-0.714,0 -1.214-0.5t-0.5-1.214l0-3.429 q0-0.714 0.5-1.214t 1.214-0.5l 5.714,0 q 0.714,0 1.214,0.5t 0.5,1.214zM 852.571,22.286l0,3.429 q0,0.714 -0.5,1.214t-1.214,0.5l-5.714,0  q-0.714,0 -1.214-0.5t-0.5-1.214l0-3.429 q0-0.714 0.5-1.214t 1.214-0.5l 5.714,0 q 0.714,0 1.214,0.5t 0.5,1.214zM 841.143,4l0,3.429 q0,0.714 -0.5,1.214t-1.214,0.5l-5.714,0 q-0.714,0 -1.214-0.5t-0.5-1.214l0-3.429 q0-0.714 0.5-1.214t 1.214-0.5l 5.714,0 q 0.714,0 1.214,0.5t 0.5,1.214zM 852.571,13.143l0,3.429 q0,0.714 -0.5,1.214t-1.214,0.5l-5.714,0 q-0.714,0 -1.214-0.5t-0.5-1.214l0-3.429 q0-0.714 0.5-1.214t 1.214-0.5 l 5.714,0 q 0.714,0 1.214,0.5t 0.5,1.214zM 864,22.286l0,3.429 q0,0.714 -0.5,1.214t-1.214,0.5l-5.714,0 q-0.714,0 -1.214-0.5t-0.5-1.214l0-3.429 q0-0.714 0.5-1.214t 1.214-0.5l 5.714,0 q 0.714,0 1.214,0.5t 0.5,1.214zM 852.571,4l0,3.429 q0,0.714 -0.5,1.214t-1.214,0.5l-5.714,0 q-0.714,0 -1.214-0.5t-0.5-1.214l0-3.429 q0-0.714 0.5-1.214t 1.214-0.5l 5.714,0 q 0.714,0 1.214,0.5t 0.5,1.214zM 864,13.143l0,3.429  q0,0.714 -0.5,1.214t-1.214,0.5l-5.714,0 q-0.714,0 -1.214-0.5t-0.5-1.214l0-3.429 q0-0.714 0.5-1.214t 1.214-0.5l 5.714,0 q 0.714,0 1.214,0.5t 0.5,1.214zM 864,4l0,3.429 q0,0.714 -0.5,1.214t-1.214,0.5l-5.714,0 q-0.714,0 -1.214-0.5t-0.5-1.214l0-3.429 q0-0.714 0.5-1.214t 1.214-0.5l 5.714,0 q 0.714,0 1.214,0.5t 0.5,1.214z"></path><path d="M 925.839,10.107q0,0.714 -0.5,1.214l-12.929,12.929l-2.429,2.429q-0.5,0.5 -1.214,0.5t-1.214-0.5l-2.429-2.429l-6.464-6.464q-0.5-0.5 -0.5-1.214t 0.5-1.214l 2.429-2.429q 0.5-0.5 1.214-0.5t 1.214,0.5l 5.25,5.268l 11.714-11.732q 0.5-0.5 1.214-0.5t 1.214,0.5l 2.429,2.429q 0.5,0.5 0.5,1.214z"></path><path d="M 983.179,23.607q0,0.714 -0.5,1.214l-2.429,2.429q-0.5,0.5 -1.214,0.5t-1.214-0.5l-5.25-5.25l-5.25,5.25q-0.5,0.5 -1.214,0.5t-1.214-0.5l-2.429-2.429q-0.5-0.5 -0.5-1.214t 0.5-1.214l 5.25-5.25l-5.25-5.25q-0.5-0.5 -0.5-1.214t 0.5-1.214l 2.429-2.429q 0.5-0.5 1.214-0.5t 1.214,0.5l 5.25,5.25l 5.25-5.25q 0.5-0.5 1.214-0.5t 1.214,0.5l 2.429,2.429q 0.5,0.5 0.5,1.214 t-0.5,1.214l-5.25,5.25l 5.25,5.25q 0.5,0.5 0.5,1.214z"></path><path d="M 18.286,78.286l0,1.143 q0,0.232 -0.17,0.402t-0.402,0.17l-4,0 l0,4 q0,0.232 -0.17,0.402t-0.402,0.17l-1.143,0 q-0.232,0 -0.402-0.17t-0.17-0.402l0-4 l-4,0 q-0.232,0 -0.402-0.17t-0.17-0.402l0-1.143 q0-0.232 0.17-0.402t 0.402-0.17l 4,0 l0-4 q0-0.232 0.17-0.402t 0.402-0.17l 1.143,0 q 0.232,0 0.402,0.17t 0.17,0.402l0,4 l 4,0  q 0.232,0 0.402,0.17t 0.17,0.402zM 20.571,78.857q0-3.304 -2.348-5.652t-5.652-2.348t-5.652,2.348t-2.348,5.652t 2.348,5.652t 5.652,2.348t 5.652-2.348t 2.348-5.652zM 29.714,93.714q0,0.946 -0.67,1.616t-1.616,0.67q-0.964,0 -1.607-0.679l-6.125-6.107q-3.196,2.214 -7.125,2.214q-2.554,0 -4.884-0.991 t-4.018-2.679t-2.679-4.018t-0.991-4.884t 0.991-4.884t 2.679-4.018t 4.018-2.679t 4.884-0.991t 4.884,0.991t 4.018,2.679t 2.679,4.018t 0.991,4.884q0,3.929 -2.214,7.125l 6.125,6.125q 0.661,0.661 0.661,1.607z"></path><path d="M 82.286,78.286l0,1.143 q0,0.232 -0.17,0.402t-0.402,0.17l-10.286,0 q-0.232,0 -0.402-0.17t-0.17-0.402l0-1.143 q0-0.232 0.17-0.402t 0.402-0.17l 10.286,0 q 0.232,0 0.402,0.17t 0.17,0.402zM 84.571,78.857q0-3.304 -2.348-5.652t-5.652-2.348t-5.652,2.348t-2.348,5.652t 2.348,5.652t 5.652,2.348t 5.652-2.348t 2.348-5.652z M 93.714,93.714q0,0.946 -0.67,1.616t-1.616,0.67q-0.964,0 -1.607-0.679l-6.125-6.107q-3.196,2.214 -7.125,2.214q-2.554,0 -4.884-0.991t-4.018-2.679t-2.679-4.018t-0.991-4.884t 0.991-4.884t 2.679-4.018t 4.018-2.679t 4.884-0.991t 4.884,0.991t 4.018,2.679t 2.679,4.018t 0.991,4.884q0,3.929 -2.214,7.125l 6.125,6.125q 0.661,0.661 0.661,1.607z "></path><path d="M 153.143,81.714l0,8.571 q0,0.464 -0.339,0.804t-0.804,0.339l-6.857,0 l0-6.857 l-4.571,0 l0,6.857 l-6.857,0 q-0.464,0 -0.804-0.339t-0.339-0.804l0-8.571 q0-0.018 0.009-0.054t 0.009-0.054l 10.268-8.464l 10.268,8.464q 0.018,0.036 0.018,0.107zM 157.125,80.482l-1.107,1.321q-0.143,0.161 -0.375,0.196l-0.054,0 q-0.232,0 -0.375-0.125l-12.357-10.304l-12.357,10.304q-0.214,0.143 -0.429,0.125q-0.232-0.036 -0.375-0.196l-1.107-1.321q-0.143-0.179 -0.125-0.42t 0.196-0.384 l 12.839-10.696q 0.571-0.464 1.357-0.464t 1.357,0.464l 4.357,3.643l0-3.482 q0-0.25 0.161-0.411t 0.411-0.161l 3.429,0 q 0.25,0 0.411,0.161t 0.161,0.411l0,7.286 l 3.911,3.25q 0.179,0.143 0.196,0.384t-0.125,0.42z"></path><path d="M 205.714,75.429q0-1.893 -1.339-3.232t-3.232-1.339t-3.232,1.339t-1.339,3.232t 1.339,3.232t 3.232,1.339t 3.232-1.339t 1.339-3.232zM 210.286,75.429q0,1.946 -0.589,3.196l-6.5,13.821q-0.286,0.589 -0.848,0.929t-1.205,0.339t-1.205-0.339t-0.83-0.929l-6.518-13.821q-0.589-1.25 -0.589-3.196q0-3.786 2.679-6.464t 6.464-2.679t 6.464,2.679t 2.679,6.464z"></path><path d="M 269.25,92.089l-11.643-11.625q-0.661-0.661 -0.661-1.616t 0.661-1.616l 11.643-11.625q 0.661-0.661 1.616-0.661t 1.616,0.661l 1.339,1.339q 0.661,0.661 0.661,1.616t-0.661,1.616l-8.679,8.679l 8.679,8.661q 0.661,0.679 0.661,1.625t-0.661,1.607l-1.339,1.339q-0.661,0.661 -1.616,0.661t-1.616-0.661z"></path><path d="M 339.625,78.857q0,0.929 -0.661,1.625l-11.643,11.625q-0.661,0.661 -1.607,0.661t-1.607-0.661l-1.357-1.339q-0.661-0.696 -0.661-1.625q0-0.946 0.661-1.607l 8.679-8.679l-8.679-8.661q-0.661-0.696 -0.661-1.625q0-0.946 0.661-1.607l 1.357-1.339q 0.643-0.679 1.607-0.679t 1.607,0.679l 11.643,11.625q 0.661,0.661 0.661,1.607z"></path><path d="M 411.429,80l0,2.286 q0,0.946 -0.58,1.616t-1.509,0.67l-12.571,0 l 5.232,5.25q 0.679,0.643 0.679,1.607t-0.679,1.607l-1.339,1.357q-0.661,0.661 -1.607,0.661q-0.929,0 -1.625-0.661l-11.625-11.643q-0.661-0.661 -0.661-1.607q0-0.929 0.661-1.625l 11.625-11.607q 0.679-0.679 1.625-0.679q 0.929,0 1.607,0.679l 1.339,1.321q 0.679,0.679 0.679,1.625t-0.679,1.625l-5.232,5.232l 12.571,0 q 0.929,0 1.509,0.67 t 0.58,1.616z"></path><path d="M 474.286,81.143q0,0.964 -0.661,1.625l-11.625,11.625q-0.696,0.661 -1.625,0.661q-0.911,0 -1.607-0.661l-1.339-1.339q-0.679-0.679 -0.679-1.625t 0.679-1.625l 5.232-5.232l-12.571,0 q-0.929,0 -1.509-0.67t-0.58-1.616l0-2.286 q0-0.946 0.58-1.616t 1.509-0.67l 12.571,0 l-5.232-5.25q-0.679-0.643 -0.679-1.607t 0.679-1.607l 1.339-1.339q 0.679-0.679 1.607-0.679q 0.946,0 1.625,0.679l 11.625,11.625q 0.661,0.625 0.661,1.607z"></path><path d="M 540.768,81.339q0,0.911 -0.661,1.607l-1.339,1.339q-0.679,0.679 -1.625,0.679q-0.964,0 -1.607-0.679l-5.25-5.232l0,12.571 q0,0.929 -0.67,1.509t-1.616,0.58l-2.286,0 q-0.946,0 -1.616-0.58t-0.67-1.509l0-12.571 l-5.25,5.232q-0.643,0.679 -1.607,0.679t-1.607-0.679l-1.339-1.339q-0.679-0.679 -0.679-1.607q0-0.946 0.679-1.625l 11.625-11.625q 0.625-0.661 1.607-0.661q 0.964,0 1.625,0.661l 11.625,11.625 q 0.661,0.696 0.661,1.625z"></path><path d="M 604.768,78.857q0,0.946 -0.661,1.607l-11.625,11.643q-0.696,0.661 -1.625,0.661q-0.946,0 -1.607-0.661l-11.625-11.643q-0.679-0.643 -0.679-1.607q0-0.946 0.679-1.625l 1.321-1.339q 0.696-0.661 1.625-0.661q 0.946,0 1.607,0.661l 5.25,5.25l0-12.571 q0-0.929 0.679-1.607t 1.607-0.679l 2.286,0 q 0.929,0 1.607,0.679t 0.679,1.607l0,12.571 l 5.25-5.25q 0.661-0.661 1.607-0.661q 0.929,0 1.625,0.661l 1.339,1.339q 0.661,0.696 0.661,1.625z"></path><path d="M 672,75.429q0,0.464 -0.339,0.804l-9.143,9.143q-0.339,0.339 -0.804,0.339t-0.804-0.339t-0.339-0.804l0-4.571 l-4,0 q-1.75,0 -3.134,0.107t-2.75,0.384t-2.375,0.759t-1.884,1.241t-1.429,1.804t-0.866,2.473t-0.313,3.232q0,0.982 0.089,2.196q0,0.107 0.045,0.42t 0.045,0.473q0,0.268 -0.152,0.446t-0.42,0.179q-0.286,0 -0.5-0.304q-0.125-0.161 -0.232-0.393 t-0.241-0.536t-0.188-0.429q-2.268-5.089 -2.268-8.054q0-3.554 0.946-5.946q 2.893-7.196 15.625-7.196l 4,0 l0-4.571 q0-0.464 0.339-0.804t 0.804-0.339t 0.804,0.339l 9.143,9.143q 0.339,0.339 0.339,0.804z"></path><path d="M 729.143,77.143l0,3.429 q0,0.714 -0.5,1.214t-1.214,0.5l-7.429,0 l0,7.429 q0,0.714 -0.5,1.214t-1.214,0.5l-3.429,0 q-0.714,0 -1.214-0.5t-0.5-1.214l0-7.429 l-7.429,0 q-0.714,0 -1.214-0.5t-0.5-1.214l0-3.429 q0-0.714 0.5-1.214t 1.214-0.5l 7.429,0 l0-7.429 q0-0.714 0.5-1.214t 1.214-0.5l 3.429,0 q 0.714,0 1.214,0.5t 0.5,1.214l0,7.429 l 7.429,0 q 0.714,0 1.214,0.5t 0.5,1.214z"></path><path d="M 793.143,77.143l0,3.429 q0,0.714 -0.5,1.214t-1.214,0.5l-21.714,0 q-0.714,0 -1.214-0.5t-0.5-1.214l0-3.429 q0-0.714 0.5-1.214t 1.214-0.5l 21.714,0 q 0.714,0 1.214,0.5t 0.5,1.214z"></path><path d="M 860.768,85.714q0,0.946 -0.661,1.607l-1.339,1.339q-0.679,0.679 -1.625,0.679q-0.964,0 -1.607-0.679l-8.679-8.661l-8.679,8.661q-0.643,0.679 -1.607,0.679t-1.607-0.679l-1.339-1.339q-0.679-0.643 -0.679-1.607q0-0.946 0.679-1.625l 11.625-11.625q 0.661-0.661 1.607-0.661q 0.929,0 1.625,0.661l 11.607,11.625q 0.679,0.679 0.679,1.625z"></path><path d="M 924.768,76.571q0,0.946 -0.661,1.607l-11.625,11.625q-0.679,0.679 -1.625,0.679q-0.964,0 -1.607-0.679l-11.625-11.625q-0.679-0.643 -0.679-1.607q0-0.946 0.679-1.625l 1.321-1.339q 0.696-0.661 1.625-0.661q 0.946,0 1.607,0.661l 8.679,8.679l 8.679-8.679q 0.661-0.661 1.607-0.661q 0.929,0 1.625,0.661l 1.339,1.339q 0.661,0.696 0.661,1.625z"></path><path d="M 987.429,88l0,2.286 q0,0.464 -0.339,0.804t-0.804,0.339l-25.143,0 q-0.464,0 -0.804-0.339t-0.339-0.804l0-2.286 q0-0.464 0.339-0.804t 0.804-0.339l 25.143,0 q 0.464,0 0.804,0.339t 0.339,0.804zM 987.429,78.857l0,2.286 q0,0.464 -0.339,0.804t-0.804,0.339l-25.143,0 q-0.464,0 -0.804-0.339t-0.339-0.804l0-2.286 q0-0.464 0.339-0.804t 0.804-0.339l 25.143,0 q 0.464,0 0.804,0.339t 0.339,0.804zM 987.429,69.714l0,2.286 q0,0.464 -0.339,0.804 t-0.804,0.339l-25.143,0 q-0.464,0 -0.804-0.339t-0.339-0.804l0-2.286 q0-0.464 0.339-0.804t 0.804-0.339l 25.143,0 q 0.464,0 0.804,0.339t 0.339,0.804z"></path><path d="M 18.286,140.571q0,0.464 -0.339,0.804l-8,8q-0.339,0.339 -0.804,0.339t-0.804-0.339l-8-8q-0.339-0.339 -0.339-0.804t 0.339-0.804t 0.804-0.339l 16,0 q 0.464,0 0.804,0.339t 0.339,0.804z"></path><path d="M 82.286,149.714q0,0.464 -0.339,0.804t-0.804,0.339l-16,0 q-0.464,0 -0.804-0.339t-0.339-0.804t 0.339-0.804l 8-8q 0.339-0.339 0.804-0.339t 0.804,0.339l 8,8q 0.339,0.339 0.339,0.804z"></path><path d="M 139.429,136l0,16 q0,0.464 -0.339,0.804t-0.804,0.339t-0.804-0.339l-8-8q-0.339-0.339 -0.339-0.804t 0.339-0.804l 8-8q 0.339-0.339 0.804-0.339t 0.804,0.339t 0.339,0.804z"></path><path d="M 202.286,144q0,0.464 -0.339,0.804l-8,8q-0.339,0.339 -0.804,0.339t-0.804-0.339t-0.339-0.804l0-16 q0-0.464 0.339-0.804t 0.804-0.339t 0.804,0.339l 8,8q 0.339,0.339 0.339,0.804z"></path><path d="M 267.196,137.714q0,0.232 -0.179,0.411l-7.018,7.018l 7.018,7.018q 0.179,0.179 0.179,0.411t-0.179,0.411l-0.893,0.893q-0.179,0.179 -0.411,0.179t-0.411-0.179l-8.321-8.321q-0.179-0.179 -0.179-0.411t 0.179-0.411l 8.321-8.321q 0.179-0.179 0.411-0.179t 0.411,0.179l 0.893,0.893q 0.179,0.179 0.179,0.411z"></path><path d="M 330.625,145.143q0,0.232 -0.179,0.411l-8.321,8.321q-0.179,0.179 -0.411,0.179t-0.411-0.179l-0.893-0.893q-0.179-0.179 -0.179-0.411t 0.179-0.411l 7.018-7.018l-7.018-7.018q-0.179-0.179 -0.179-0.411t 0.179-0.411l 0.893-0.893q 0.179-0.179 0.411-0.179t 0.411,0.179l 8.321,8.321q 0.179,0.179 0.179,0.411z"></path><path d="M 403.196,149.143q0,0.232 -0.179,0.411l-0.893,0.893q-0.179,0.179 -0.411,0.179t-0.411-0.179l-7.018-7.018l-7.018,7.018q-0.179,0.179 -0.411,0.179t-0.411-0.179l-0.893-0.893q-0.179-0.179 -0.179-0.411t 0.179-0.411l 8.321-8.321q 0.179-0.179 0.411-0.179t 0.411,0.179l 8.321,8.321q 0.179,0.179 0.179,0.411z"></path><path d="M 467.196,141.143q0,0.232 -0.179,0.411l-8.321,8.321q-0.179,0.179 -0.411,0.179t-0.411-0.179l-8.321-8.321q-0.179-0.179 -0.179-0.411t 0.179-0.411l 0.893-0.893q 0.179-0.179 0.411-0.179t 0.411,0.179l 7.018,7.018l 7.018-7.018q 0.179-0.179 0.411-0.179t 0.411,0.179l 0.893,0.893q 0.179,0.179 0.179,0.411z"></path><path d="M 544,142.286l0,3.429 q0,0.25 -0.161,0.411t-0.411,0.161l-22.286,0 l0,4 q0,0.375 -0.339,0.518t-0.625-0.089l-6.857-6.25q-0.179-0.179 -0.179-0.411q0-0.25 0.179-0.429l 6.857-6.321q 0.286-0.25 0.625-0.107q 0.339,0.161 0.339,0.518l0,4 l 22.286,0 q 0.25,0 0.411,0.161t 0.161,0.411z"></path><path d="M 606.857,143.946q0,0.25 -0.179,0.429l-6.857,6.321q-0.286,0.25 -0.625,0.107q-0.339-0.161 -0.339-0.518l0-4 l-22.286,0 q-0.25,0 -0.411-0.161t-0.161-0.411l0-3.429 q0-0.25 0.161-0.411t 0.411-0.161l 22.286,0 l0-4 q0-0.375 0.339-0.518t 0.625,0.089l 6.857,6.25q 0.179,0.179 0.179,0.411z"></path><path d="M 664.875,149.696q-0.696,2.232 -2.196,4.464q-2.304,3.5 -4.589,3.5q-0.875,0 -2.5-0.571q-1.536-0.571 -2.696-0.571q-1.089,0 -2.536,0.589q-1.446,0.607 -2.357,0.607q-2.714,0 -5.375-4.625q-2.625-4.661 -2.625-8.982q0-4.071 2.018-6.679q 2-2.571 5.071-2.571q 1.286,0 3.161,0.536q 1.857,0.536 2.464,0.536q 0.804,0 2.554-0.607q 1.821-0.607 3.089-0.607q 2.125,0 3.804,1.161 q 0.929,0.643 1.857,1.786q-1.411,1.196 -2.036,2.107q-1.161,1.679 -1.161,3.696q0,2.214 1.232,3.982t 2.821,2.25zM 658.161,128.75q0,1.089 -0.518,2.429q-0.536,1.339 -1.661,2.464q-0.964,0.964 -1.929,1.286q-0.661,0.196 -1.857,0.304q 0.054-2.661 1.393-4.589q 1.321-1.911 4.464-2.643q 0.018,0.054 0.045,0.196t 0.045,0.196q0,0.071 0.009,0.179t 0.009,0.179z"></path><path d="M 716.179,145.964l0,11.625 l-12.179-1.679l0-9.946 l 12.179,0 zM 716.179,132.696l0,11.768 l-12.179,0 l0-10.089 zM 733.714,145.964l0,14.036 l-16.196-2.232l0-11.804 l 16.196,0 zM 733.714,130.286l0,14.179 l-16.196,0 l0-11.946 z"></path><path d="M 776.804,136.625q 0.286,0 0.491-0.205t 0.205-0.491t-0.205-0.491t-0.491-0.205t-0.482,0.205t-0.196,0.491t 0.196,0.491t 0.482,0.205zM 784.339,136.625q 0.286,0 0.482-0.205t 0.196-0.491t-0.196-0.491t-0.482-0.205t-0.491,0.205t-0.205,0.491t 0.205,0.491t 0.491,0.205zM 769.839,139.911q 0.75,0 1.286,0.536t 0.536,1.286l0,7.679 q0,0.768 -0.527,1.304t-1.295,0.536 t-1.304-0.536t-0.536-1.304l0-7.679 q0-0.75 0.536-1.286t 1.304-0.536zM 788.768,140.25l0,11.893 q0,0.821 -0.571,1.393t-1.375,0.571l-1.339,0 l0,4.054 q0,0.768 -0.536,1.304t-1.304,0.536t-1.304-0.536t-0.536-1.304l0-4.054 l-2.464,0 l0,4.054 q0,0.768 -0.536,1.304t-1.304,0.536q-0.75,0 -1.286-0.536t-0.536-1.304l-0.018-4.054l-1.321,0 q-0.821,0 -1.393-0.571t-0.571-1.393l0-11.893 l 16.393,0 zM 784.625,133.018q 1.911,0.982 3.054,2.741t 1.143,3.848 l-16.518,0 q0-2.089 1.143-3.848t 3.071-2.741l-1.268-2.339q-0.125-0.232 0.089-0.357q 0.232-0.107 0.357,0.107l 1.286,2.357q 1.696-0.75 3.589-0.75t 3.589,0.75l 1.286-2.357q 0.125-0.214 0.357-0.107q 0.214,0.125 0.089,0.357zM 793.143,141.732l0,7.679 q0,0.768 -0.536,1.304t-1.304,0.536q-0.75,0 -1.286-0.536t-0.536-1.304l0-7.679 q0-0.768 0.536-1.295t 1.286-0.527q 0.768,0 1.304,0.527t 0.536,1.295z"></path><path d="M 843.839,135.339q-0.196,0.018 -0.277,0.188t-0.152,0.17q-0.089,0.018 -0.089-0.089q0-0.214 0.339-0.268l 0.179,0 zM 845.393,135.589q-0.071,0.018 -0.205-0.116t-0.313-0.080q 0.429-0.196 0.571,0.036q 0.054,0.107 -0.054,0.161zM 839.125,143.214q-0.071-0.018 -0.107,0.054t-0.080,0.223t-0.098,0.241t-0.179,0.232q-0.125,0.179 -0.018,0.214q 0.071,0.018 0.223-0.125t 0.223-0.321q 0.018-0.054 0.036-0.125t 0.036-0.107t 0.027-0.080t 0.009-0.071l0-0.054 t-0.018-0.045t-0.054-0.036z M 854.393,149.625q0-0.321 -0.982-0.75q 0.071-0.268 0.134-0.491t 0.089-0.464t 0.054-0.384t 0.009-0.402t-0.018-0.348t-0.063-0.393t-0.071-0.366t-0.089-0.446t-0.098-0.473q-0.179-0.857 -0.839-1.839t-1.286-1.339q 0.429,0.357 1.018,1.482q 1.554,2.893 0.964,4.964q-0.196,0.714 -0.893,0.75q-0.554,0.071 -0.688-0.33t-0.143-1.491t-0.205-1.911q-0.161-0.696 -0.348-1.232t-0.348-0.813t-0.277-0.438t-0.232-0.268t-0.134-0.125 q-0.25-1.107 -0.554-1.839t-0.527-1t-0.42-0.589t-0.268-0.714q-0.071-0.375 0.107-0.955t 0.080-0.884t-0.795-0.446q-0.268-0.054 -0.795-0.321t-0.634-0.286q-0.143-0.018 -0.196-0.464t 0.143-0.911t 0.643-0.482q 0.661-0.054 0.911,0.536t 0.071,1.036q-0.196,0.339 -0.036,0.473t 0.536,0.009q 0.232-0.071 0.232-0.643l0-0.661 q-0.089-0.536 -0.241-0.893t-0.375-0.545t-0.42-0.268t-0.482-0.134q-1.911,0.143 -1.589,2.393q0,0.268 -0.018,0.268 q-0.161-0.161 -0.527-0.188t-0.589,0.009t-0.277-0.089q 0.018-1.018 -0.286-1.607t-0.804-0.607q-0.482-0.018 -0.741,0.491t-0.295,1.063q-0.018,0.268 0.063,0.661t 0.232,0.67t 0.277,0.241q 0.179-0.054 0.286-0.25q 0.071-0.161 -0.125-0.143q-0.125,0 -0.277-0.259t-0.17-0.598q-0.018-0.393 0.161-0.661t 0.607-0.25q 0.304,0 0.482,0.375t 0.17,0.696t-0.027,0.393q-0.393,0.268 -0.554,0.518q-0.143,0.214 -0.491,0.42 t-0.366,0.223q-0.232,0.25 -0.277,0.482t 0.134,0.321q 0.25,0.143 0.446,0.348t 0.286,0.339t 0.33,0.232t 0.634,0.116q 0.839,0.036 1.821-0.268q 0.036-0.018 0.411-0.125t 0.616-0.188t 0.527-0.232t 0.375-0.313q 0.161-0.25 0.357-0.143q 0.089,0.054 0.116,0.152t-0.054,0.214t-0.295,0.17q-0.357,0.107 -1.009,0.384t-0.813,0.348q-0.786,0.339 -1.25,0.411q-0.446,0.089 -1.411-0.036q-0.179-0.036 -0.161,0.036t 0.304,0.339 q 0.446,0.411 1.196,0.393q 0.304-0.018 0.643-0.125t 0.643-0.25t 0.598-0.313t 0.536-0.304t 0.438-0.214t 0.313-0.045t 0.152,0.196q0,0.036 -0.018,0.080t-0.071,0.089t-0.107,0.080t-0.152,0.089t-0.161,0.080t-0.179,0.089t-0.17,0.080q-0.5,0.25 -1.205,0.786t-1.188,0.768t-0.875,0.018q-0.375-0.196 -1.125-1.304q-0.393-0.554 -0.446-0.393q-0.018,0.054 -0.018,0.179q0,0.446 -0.268,1.009t-0.527,0.991t-0.375,1.036t 0.205,1.125 q-0.411,0.107 -1.116,1.607t-0.848,2.518q-0.036,0.321 -0.027,1.232t-0.098,1.054q-0.143,0.429 -0.518,0.054q-0.571-0.554 -0.643-1.679q-0.036-0.5 0.071-1q 0.071-0.339 -0.018-0.321l-0.071,0.089q-0.643,1.161 0.179,2.964q 0.089,0.214 0.446,0.5t 0.429,0.357q 0.357,0.411 1.857,1.616t 1.661,1.366q 0.286,0.268 0.313,0.679t-0.25,0.768t-0.813,0.411q 0.143,0.268 0.518,0.795t 0.5,0.964t 0.125,1.259q 0.821-0.429 0.125-1.643 q-0.071-0.143 -0.188-0.286t-0.17-0.214t-0.036-0.107q 0.054-0.089 0.232-0.17t 0.357,0.045q 0.821,0.929 2.964,0.643q 2.375-0.268 3.161-1.554q 0.411-0.679 0.607-0.536q 0.214,0.107 0.179,0.929q-0.018,0.446 -0.411,1.643q-0.161,0.411 -0.107,0.67t 0.429,0.277q 0.054-0.339 0.259-1.375t 0.241-1.607q 0.036-0.375 -0.116-1.313t-0.134-1.732t 0.411-1.259q 0.268-0.321 0.911-0.321q 0.018-0.661 0.616-0.946t 1.295-0.188t 1.071,0.402zM 843.179,134.857 q 0.054-0.304 -0.045-0.536t-0.205-0.268q-0.161-0.036 -0.161,0.125q 0.036,0.089 0.089,0.107q 0.179,0 0.125,0.268q-0.054,0.357 0.143,0.357q 0.054,0 0.054-0.054zM 850.661,138.375q-0.036-0.143 -0.116-0.205t-0.232-0.089t-0.259-0.098q-0.089-0.054 -0.17-0.143t-0.125-0.143t-0.098-0.116t-0.071-0.071t-0.071,0.027q-0.25,0.286 0.125,0.777t 0.696,0.563q 0.161,0.018 0.259-0.143t 0.063-0.357zM 847.482,134.571q0-0.196 -0.089-0.348t-0.196-0.223t-0.161-0.054q-0.25,0.018 -0.125,0.125l 0.071,0.036 q 0.25,0.071 0.321,0.554q0,0.054 0.143-0.036zM 848.446,130.411q0-0.036 -0.045-0.089t-0.161-0.125t-0.17-0.107q-0.268-0.268 -0.429-0.268q-0.161,0.018 -0.205,0.134t-0.018,0.232t-0.009,0.223q-0.018,0.071 -0.107,0.188t-0.107,0.161t 0.054,0.152q 0.071,0.054 0.143,0t 0.196-0.161t 0.268-0.161q 0.018-0.018 0.161-0.018t 0.268-0.036t 0.161-0.125zM 858.536,154.357q 0.357,0.214 0.554,0.438t 0.214,0.429t-0.045,0.402t-0.277,0.393t-0.42,0.348t-0.536,0.33 t-0.563,0.295t-0.571,0.277t-0.482,0.232q-0.679,0.339 -1.527,1t-1.348,1.143q-0.304,0.286 -1.214,0.348t-1.589-0.259q-0.321-0.161 -0.527-0.42t-0.295-0.455t-0.393-0.348t-0.839-0.17q-0.786-0.018 -2.321-0.018q-0.339,0 -1.018,0.027t-1.036,0.045q-0.786,0.018 -1.42,0.268t-0.955,0.536t-0.777,0.509t-0.955,0.205q-0.518-0.018 -1.982-0.554t-2.607-0.768q-0.339-0.071 -0.911-0.17 t-0.893-0.161t-0.705-0.17t-0.598-0.259t-0.304-0.348q-0.179-0.411 0.125-1.188t 0.321-0.973q 0.018-0.286 -0.071-0.714t-0.179-0.759t-0.080-0.652t 0.188-0.482q 0.25-0.214 1.018-0.25t 1.071-0.214q 0.536-0.321 0.75-0.625t 0.214-0.911q 0.375,1.304 -0.571,1.893q-0.571,0.357 -1.482,0.268q-0.607-0.054 -0.768,0.179q-0.232,0.268 0.089,1.018q 0.036,0.107 0.143,0.321t 0.152,0.321t 0.080,0.304t 0.018,0.393q0,0.268 -0.304,0.875t-0.25,0.857 q 0.054,0.304 0.661,0.464q 0.357,0.107 1.509,0.33t 1.777,0.366q 0.429,0.107 1.321,0.393t 1.473,0.411t 0.991,0.071q 0.768-0.107 1.152-0.5t 0.411-0.857t-0.134-1.045t-0.339-0.929t-0.357-0.652q-2.161-3.393 -3.018-4.321q-1.214-1.321 -2.018-0.714q-0.196,0.161 -0.268-0.268q-0.054-0.286 -0.036-0.679q 0.018-0.518 0.179-0.929t 0.429-0.839t 0.393-0.75q 0.143-0.375 0.473-1.286t 0.527-1.393t 0.536-1.089t 0.696-0.964q 1.964-2.554 2.214-3.482 q-0.214-2 -0.286-5.536q-0.036-1.607 0.429-2.705t 1.893-1.866q 0.696-0.375 1.857-0.375q 0.946-0.018 1.893,0.241t 1.589,0.741q 1.018,0.75 1.634,2.17t 0.527,2.634q-0.089,1.696 0.536,3.821q 0.607,2.018 2.375,3.893q 0.982,1.054 1.777,2.911t 1.063,3.411q 0.143,0.875 0.089,1.509t-0.214,0.991t-0.357,0.393q-0.179,0.036 -0.42,0.339t-0.482,0.634t-0.723,0.598t-1.089,0.25 q-0.321-0.018 -0.563-0.089t-0.402-0.241t-0.241-0.277t-0.205-0.366t-0.161-0.348q-0.393-0.661 -0.732-0.536t-0.5,0.875t 0.125,1.732q 0.357,1.25 0.018,3.482q-0.179,1.161 0.321,1.795t 1.304,0.589t 1.518-0.634q 1.054-0.875 1.598-1.188t 1.848-0.759q 0.946-0.321 1.375-0.652t 0.33-0.616t-0.446-0.509t-0.92-0.42q-0.589-0.196 -0.884-0.857t-0.268-1.295t 0.277-0.848q 0.018,0.554 0.143,1.009 t 0.259,0.723t 0.366,0.509t 0.375,0.339t 0.384,0.232t 0.295,0.17z"></path><path d="M 923,128 C 925.761,128 928,130.239 928,133 C 928,134.126 927.628,135.164 927,136 L 925,138 L 918,131 L 920,129 C 920.836,128.372 921.874,128 923,128 ZM 898,151L 896,160l 9-2l 18.5-18.5L 916.5,132.5L 898,151z M 918.362,139.362l-14,14l-1.724-1.724l 14-14L 918.362,139.362z"></path><path d="M 990,137L 983,130L 985,128L 992,135zM 988,139 L 987,150 C 978,150 965,160 965,160 L 963.34,158.34 L 971.892,149.788 C 972.235,149.924 972.608,150 973,150 C 974.657,150 976,148.657 976,147 C 976,145.343 974.657,144 973,144 C 971.343,144 970,145.343 970,147 C 970,147.392 970.076,147.765 970.212,148.108 L 961.66,156.66 L 960,155 C 960,155 970,142 970,133 L 981,132 L 988,139 Z"></path><path d="M 9.5,211c0,3.59, 2.91,6.5, 6.5,6.5s 6.5-2.91, 6.5-6.5s-2.91-6.5-6.5-6.5S 9.5,207.41, 9.5,211z M 30,200L 23,200 
	c-0.5-2-1-4-3-4L 12,196 c-2,0-2.5,2-3,4L 2,200 c-1.1,0-2,0.9-2,2l0,18 c0,1.1, 0.9,2, 2,2l 28,0 c 1.1,0, 2-0.9, 2-2L 32,202 
	C 32,200.9, 31.1,200, 30,200z M 16,219.875c-4.902,0-8.875-3.973-8.875-8.875c0-4.902, 3.973-8.875, 8.875-8.875c 4.902,0, 8.875,3.973, 8.875,8.875
	C 24.875,215.902, 20.902,219.875, 16,219.875z M 30,206l-4,0 l0-2 l 4,0 L 30,206 z"></path><path d="M 74,198 L 96,192 L 96,194 L 96,198 L 96,215 C 96,217.761 92.866,220 89,220 C 85.134,220 82,217.761 82,215 C 82,212.239 85.134,210 89,210 C 90.074,210 91.091,210.173 92,210.481 L 92,200.182 L 78,204 L 78,219 C 78,221.761 74.866,224 71,224 C 67.134,224 64,221.761 64,219 C 64,216.239 67.134,214 71,214 C 72.074,214 73.091,214.173 74,214.481 L 74,204 L 74,198 Z"></path><path d="M 134,210.071l0,13.857 c 0.327,0.047, 0.66,0.071, 1,0.071l 1,0 L 136,210 l-1,0 C 134.66,210, 134.327,210.025, 134,210.071zM 152,210l0,14 l 1,0 c 0.34,0, 0.673-0.025, 1-0.071L 154,210.071 c-0.327-0.047-0.66-0.071-1-0.071L 152,210 zM 160,208C 160,199.163, 152.837,192, 144,192S 128,199.163, 128,208c0,1.919, 0.338,3.76, 0.958,5.465C 128.349,214.502, 128,215.71, 128,217
		c0,2.792, 1.635,5.202, 4,6.326L 132,210.674 c-0.629,0.299-1.206,0.689-1.714,1.153C 130.098,210.914, 130,209.969, 130,209
		C 130,201.268, 136.268,195, 144,195s 14,6.268, 14,14c0,0.969-0.098,1.914-0.286,2.827c-0.509-0.464-1.085-0.854-1.714-1.153
		l0,12.652 c 2.365-1.124, 4-3.534, 4-6.326c0-1.29-0.349-2.498-0.958-3.535C 159.662,211.76, 160,209.919, 160,208z"></path><path d="M 222.662,197.003C 218.174,196.358, 213.214,196, 208,196c-5.214,0-10.174,0.358-14.662,1.003
	C 192.477,200.37, 192,204.089, 192,208c0,3.911, 0.477,7.63, 1.338,10.997C 197.826,219.642, 202.786,220, 208,220
	c 5.214,0, 10.174-0.358, 14.662-1.003C 223.523,215.63, 224,211.911, 224,208C 224,204.089, 223.523,200.37, 222.662,197.003z
	 M 204,214L 204,202 l 10,6L 204,214z"></path><path d="M 276,210 C 279.308,210 282.308,211.346 284.481,213.519 L 281.654,216.346 C 280.206,214.897 278.206,214 276,214 C 273.794,214 271.794,214.897 270.346,216.346 L 267.519,213.519 C 269.692,211.346 272.692,210 276,210 ZM 261.858,207.858 C 265.635,204.080 270.658,202 276,202 C 281.342,202 286.365,204.080 290.142,207.858 L 287.314,210.686 L 287.314,210.686 C 284.292,207.664 280.274,206 276,206 C 271.726,206 267.708,207.664 264.686,210.686 L 261.858,207.858 ZM 286.899,196.201 C 290.234,197.612 293.228,199.63 295.799,202.201 L 295.799,202.201 L 292.971,205.029 C 288.438,200.496 282.411,198 276,198 C 269.589,198 263.563,200.496 259.029,205.029 L 256.201,202.201 C 258.772,199.63 261.766,197.612 265.101,196.201 C 268.554,194.741 272.221,194 276,194 C 279.779,194 283.446,194.741 286.899,196.201 ZM 274,220A2,2 2520 1 0 278,220A2,2 2520 1 0 274,220z"></path><path d="M 347.879,197.879l-3.757-3.757C 342.955,192.955, 340.65,192, 339,192L 325,192 C 323.35,192, 322,193.35, 322,195l0,26 c0,1.65, 1.35,3, 3,3l 22,0 
	c 1.65,0, 3-1.35, 3-3L 350,203 C 350,201.35, 349.045,199.045, 347.879,197.879z M 340,196.236c 0.069,0.025, 0.139,0.052, 0.211,0.082
	c 0.564,0.234, 0.956,0.505, 1.082,0.631l 3.757,3.757c 0.126,0.126, 0.397,0.517, 0.631,1.082c 0.030,0.072, 0.057,0.143, 0.082,0.211
	L 340,202 L 340,196.236 z M 346,220L 326,220 L 326,196 l 12,0 l0,8 l 8,0 L 346,220 zM 328,208L 344,208L 344,210L 328,210zM 328,212L 344,212L 344,214L 328,214zM 328,216L 344,216L 344,218L 328,218z"></path><path d="M 412.994,192L 403.977,192 c-1.653,0-3.962,0.956-5.131,2.125L 384.877,208.094c-1.169,1.169-1.169,3.082,0,4.251
	l 10.778,10.778c 1.169,1.169, 3.082,1.169, 4.251,0l 13.968-13.968C 415.044,207.986, 416,205.677, 416,204.023L 416,195.006 
	C 416,193.353, 414.647,192, 412.994,192z M 409,202c-1.657,0-3-1.343-3-3s 1.343-3, 3-3s 3,1.343, 3,3S 410.657,202, 409,202z"></path><path d="M 479,194L 472,194 c-1.65,0-3.955,0.955-5.121,2.121L 455.121,207.879c-1.167,1.167-1.167,3.076,0,4.243l 8.757,8.757
	c 1.167,1.167, 3.076,1.167, 4.243,0l 11.757-11.757C 481.045,207.955, 482,205.65, 482,204L 482,197 C 482,195.35, 480.65,194, 479,194z M 475,204
	c-1.657,0-3-1.343-3-3s 1.343-3, 3-3s 3,1.343, 3,3S 476.657,204, 475,204zM 450.707,210.707 L 461.406,221.406 C 460.273,222.005 458.829,221.829 457.879,220.879 L 449.121,212.121 C 447.955,210.955 447.955,209.045 449.121,207.879 L 460.879,196.121 C 462.045,194.955 464.35,194 466,194 L 450.707,209.293 C 450.318,209.682 450.318,210.318 450.707,210.707 Z"></path><path d="M 516,221A3,3 10800 1 0 522,221A3,3 10800 1 0 516,221zM 536,221A3,3 10800 1 0 542,221A3,3 10800 1 0 536,221zM 542,208L 542,196 L 516,196 C 516,193.791, 514.209,192, 512,192l0,2 c 1.103,0, 2,0.897, 2,2l 1.502,12.877C 514.587,209.61, 514,210.736, 514,212
		c0,2.209, 1.791,4, 4,4l 24,0 l0-2 L 518,214 c-1.105,0-2-0.895-2-2c0-0.007, 0-0.014, 0.001-0.021L 542,208z"></path><path d="M 602.476,210c 1.1,0, 2.247-0.865, 2.549-1.923l 2.901-10.154C 608.228,196.865, 607.576,196, 606.476,196L 586,196 
	c0-2.209-1.791-4-4-4L 576,192 l0,4 l 6,0 l0,17 c0,1.657, 1.343,3, 3,3l 19,0 c 1.105,0, 2-0.895, 2-2s-0.895-2-2-2L 586,212 l0-2 L 602.476,210 z
	 M 586,200l 18.088,0 l-1.714,6L 586,206 L 586,200 zM 588,221.5c0,1.375-1.125,2.5-2.5,2.5l-1,0 c-1.375,0-2.5-1.125-2.5-2.5l0-1 c0-1.375, 1.125-2.5, 2.5-2.5l 1,0 c 1.375,0, 2.5,1.125, 2.5,2.5L 588,221.5 zM 606,221.5c0,1.375-1.125,2.5-2.5,2.5l-1,0 c-1.375,0-2.5-1.125-2.5-2.5l0-1 c0-1.375, 1.125-2.5, 2.5-2.5l 1,0 c 1.375,0, 2.5,1.125, 2.5,2.5L 606,221.5 z"></path><path d="M 670.549,198.077c-1.062-0.303-2.169,0.312-2.473,1.374L 667.92,200L 649.266,200 l-0.281-2.248
		C 648.859,196.751, 648.009,196, 647,196L 642,196 C 640.895,196, 640,196.895, 640,198s 0.895,2, 2,2l 3.234,0 l 1.781,14.248
		C 647.141,215.249, 647.991,216, 649,216l 17,0 c 0.893,0, 1.678-0.592, 1.923-1.451l 4-14
		C 672.227,199.487, 671.611,198.38, 670.549,198.077z M 656,208l0-2 l 4,0 l0,2 L 656,208 z M 660,210l0,2 L 656,212 l0-2 L 660,210 z M 656,204l0-2 
		l 4,0 l0,2 L 656,204 z M 649.516,202L 654,202 l0,2 l-4.234,0 L 649.516,202z M 650.016,206L 654,206 l0,2 l-3.734,0 L 650.016,206z M 650.516,210L 654,210 l0,2 l-3.234,0 
		L 650.516,210z M 664.491,212l-2.491,0 l0-2 l 3.063,0 L 664.491,212z M 665.634,208l-3.634,0 l0-2 l 4.206,0 L 665.634,208z M 666.777,204l-4.777,0 
		l0-2 l 5.349,0 L 666.777,204zM 648,221A3,3 2520 1 0 654,221A3,3 2520 1 0 648,221zM 660,221A3,3 2520 1 0 666,221A3,3 2520 1 0 660,221z"></path><path d="M 719,194C 710.716,194, 704,200.716, 704,209c0,8.284, 6.716,15, 15,15c 8.284,0, 15-6.716, 15-15
		C 734,200.716, 727.284,194, 719,194z M 719,221c-6.627,0-12-5.373-12-12c0-6.627, 5.373-12, 12-12
		c 6.627,0, 12,5.373, 12,12C 731,215.627, 725.627,221, 719,221zM 720,208l0-4 l 4,0 l0-2 l-4,0 l0-2 l-2,0 l0,2 l-4,0 l0,8 l 4,0 l0,4 l-4,0 l0,2 l 4,0 l0,2 l 2,0 l0-2 l 4,0 l 0,0 L 724,208L 720,208 z M 718,208l-2,0 l0-4 l 2,0 L 718,208 z
	 M 722,214L 720,214 l0-4 l 2,0 L 722,214 z"></path><path d="M 797,196L 771,196 C 769.35,196, 768,197.35, 768,199l0,18 c0,1.65, 1.35,3, 3,3l 26,0 c 1.65,0, 3-1.35, 3-3L 800,199 C 800,197.35, 798.65,196, 797,196z M 771,198
		l 26,0 c 0.542,0, 1,0.458, 1,1l0,3 L 770,202 l0-3 C 770,198.458, 770.458,198, 771,198z M 797,218L 771,218 c-0.542,0-1-0.458-1-1L 770,208 l 28,0 l0,9 
		C 798,217.542, 797.542,218, 797,218zM 772,212L 774,212L 774,216L 772,216zM 776,212L 778,212L 778,216L 776,216zM 780,212L 782,212L 782,216L 780,216z"></path><path d="M 854,212c-2,2-2,4-4,4s-4-2-6-4s-4-4-4-6s 2-2, 4-4S 840,194, 838,194S 832,200, 832,200c0,4, 4.109,12.109, 8,16
	s 12,8, 16,8c0,0, 6-4, 6-6S 856,210, 854,212z"></path><path d="M 927.793,210 C 928.043,211.734 928.206,214.106 927.429,215.014 C 926.143,216.515 918,216.515 918,213.512 C 918,212 919.339,211.008 918.054,209.507 C 916.789,208.030 914.521,208.006 912,208.006 C 909.479,208.006 907.211,208.030 905.946,209.507 C 904.661,211.008 906,212 906,213.512 C 906,216.515 897.857,216.515 896.571,215.014 C 895.794,214.106 895.957,211.734 896.207,210 C 896.4,208.842 896.886,207.594 898.443,206 C 898.443,206 898.443,206 898.443,206 C 900.779,203.82 904.313,202.039 911.875,202.001 L 911.875,202 C 911.917,202 911.958,202 912,202 C 912.042,202 912.083,202 912.125,202 L 912.125,202.001 C 919.687,202.039 923.221,203.82 925.557,206 C 925.557,206 925.557,206 925.557,206 C 927.114,207.594 927.601,208.842 927.793,210 Z"></path><path d="M 976,192C 970.477,192, 966,196.477, 966,202c0,10, 10,22, 10,22s 10-12, 10-22C 986,196.477, 981.523,192, 976,192z M 976,208
	c-3.314,0-6-2.686-6-6s 2.686-6, 6-6s 6,2.686, 6,6S 979.314,208, 976,208z"></path><path d="M 16,256C 10.477,256, 6,260.477, 6,266c0,10, 10,22, 10,22s 10-12, 10-22C 26,260.477, 21.523,256, 16,256z M 16,272.125
	c-3.383,0-6.125-2.742-6.125-6.125s 2.742-6.125, 6.125-6.125s 6.125,2.742, 6.125,6.125S 19.383,272.125, 16,272.125zM 12.125,266A3.875,3.875 1080 1 0 19.875,266A3.875,3.875 1080 1 0 12.125,266z"></path><path d="M 82,258 C 89.732,258 96,264.268 96,272 C 96,279.732 89.732,286 82,286 L 82,283 C 84.938,283 87.701,281.856 89.778,279.778 C 91.856,277.701 93,274.938 93,272 C 93,269.062 91.856,266.299 89.778,264.222 C 87.701,262.144 84.938,261 82,261 C 79.062,261 76.299,262.144 74.222,264.222 C 72.624,265.82 71.579,267.823 71.181,270 L 77,270 L 70,278 L 63,270 L 68.143,270 C 69.113,263.216 74.947,258 82,258 ZM 88,270 L 88,274 L 80,274 L 80,264 L 84,264 L 84,270 Z"></path><path d="M 148.586,279.414L 142,272.828L 142,264L 146,264L 146,271.172L 151.414,276.586 	zM 144,256C 135.163,256, 128,263.163, 128,272s 7.163,16, 16,16s 16-7.163, 16-16S 152.837,256, 144,256z M 144,284
		c-6.627,0-12-5.373-12-12c0-6.627, 5.373-12, 12-12c 6.627,0, 12,5.373, 12,12C 156,278.627, 150.627,284, 144,284z"></path><path d="M 208,256C 199.163,256, 192,263.163, 192,272s 7.163,16, 16,16s 16-7.163, 16-16S 216.837,256, 208,256z M 212.586,279.414L 206,272.828
		L 206,264 l 4,0 l0,7.172 l 5.414,5.414L 212.586,279.414z"></path><path d="M 272,258c-4.418,0-8.418,1.791-11.313,4.687L 256,258l0,12 l 12,0 l-4.485-4.485C 265.686,263.343, 268.686,262, 272,262
	c 6.627,0, 12,5.373, 12,12c0,3.584-1.572,6.801-4.063,9l 2.646,3C 285.905,283.068, 288,278.779, 288,274
	C 288,265.163, 280.837,258, 272,258z"></path><path d="M 320,274c0,4.779, 2.095,9.068, 5.417,12l 2.646-3C 325.572,280.801, 324,277.584, 324,274c0-6.627, 5.373-12, 12-12
	c 3.314,0, 6.314,1.343, 8.485,3.515L 340,270l 12,0 L 352,258 l-4.687,4.687C 344.418,259.791, 340.418,258, 336,258
	C 327.163,258, 320,265.163, 320,274z"></path><path d="M 407.808,288C 411.362,281.561, 411.961,271.74, 398,272.068L 398,280 L 386,268L 398,256l0,7.762 
	C 414.718,263.326, 416.58,278.518, 407.808,288z"></path><path d="M 466,263.762L 466,256 l 12,12L 466,280L 466,272.068 C 452.039,271.74, 452.638,281.561, 456.192,288
	C 447.42,278.518, 449.282,263.326, 466,263.762z"></path><path d="M 520.192,256C 516.638,262.439, 516.039,272.259, 530,271.932L 530,264 l 12,12L 530,288L 530,280.238 C 513.282,280.674 511.42,265.482, 520.192,256z"></path><path d="M 590,280.238L 590,288 L 578,276l 12-12l0,7.932 C 603.961,272.259, 603.362,262.439, 599.808,256
	C 608.58,265.482, 606.718,280.674, 590,280.238z"></path><path d="M 656,258 C 664.837,258 672,263.82 672,271 C 672,278.18 664.837,284 656,284 C 655.151,284 654.318,283.946 653.505,283.842 C 650.069,287.279 645.966,287.895 642,287.986 L 642,287.145 C 644.142,286.096 646,284.184 646,282 C 646,281.695 645.976,281.396 645.932,281.103 C 642.314,278.72 640,275.080 640,271 C 640,263.82 647.163,258 656,258 Z"></path><path d="M 738,284.161 C 738,285.583 738.813,286.815 740,287.417 L 740,287.915 C 739.668,287.961 739.329,287.985 738.984,287.985 C 736.859,287.985 734.942,287.093 733.587,285.664 C 732.767,285.882 731.899,286 731,286 C 726.029,286 722,282.418 722,278 C 722,273.582 726.029,270 731,270 C 735.971,270 740,273.582 740,278 C 740,279.73 739.382,281.331 738.333,282.64 C 738.119,283.103 738,283.618 738,284.161 ZM 720,256 C 728.702,256 735.781,261.644 735.995,268.672 C 734.458,267.988 732.758,267.625 731,267.625 C 728.014,267.625 725.193,268.67 723.058,270.568 C 720.844,272.536 719.625,275.175 719.625,278 C 719.625,279.396 719.923,280.747 720.492,281.993 C 720.328,281.997 720.165,282 720,282 C 719.151,282 718.318,281.946 717.505,281.842 C 714.069,285.279 709.966,285.895 706,285.986 L 706,285.145 C 708.142,284.096 710,282.184 710,280 C 710,279.695 709.976,279.396 709.932,279.103 C 706.314,276.72 704,273.080 704,269 C 704,261.82 711.163,256 720,256 Z"></path><path d="M 783,256 L 783,256 C 791.284,256 798,261.435 798,268.139 C 798,274.843 791.284,280.278 783,280.278 C 782.204,280.278 781.424,280.227 780.661,280.131 C 777.439,283.34 773.719,283.915 770,284 L 770,283.215 C 772.008,282.235 773.625,280.45 773.625,278.41 C 773.625,278.126 773.603,277.846 773.562,277.573 C 770.169,275.348 768,271.948 768,268.139 C 768,261.435 774.716,256 783,256 ZM 799.125,283.209 C 799.125,284.957 800.26,286.487 802,287.327 L 802,288 C 798.777,287.928 795.819,287.434 793.027,284.684 C 792.366,284.766 791.689,284.81 791,284.81 C 788.017,284.81 785.268,284.005 783.075,282.652 C 787.596,282.637 791.864,281.188 795.101,278.569 C 796.732,277.248 798.019,275.699 798.926,273.964 C 799.887,272.125 800.375,270.165 800.375,268.139 C 800.375,267.813 800.361,267.488 800.336,267.165 C 802.603,269.038 804,271.591 804,274.405 C 804,277.67 802.12,280.584 799.18,282.491 C 799.144,282.726 799.125,282.965 799.125,283.209 Z"></path><path d="M 848,262 C 846.283,262 844.625,262.271 843.072,262.804 C 841.612,263.306 840.313,264.015 839.209,264.912 C 837.139,266.593 836,268.755 836,271 C 836,272.259 836.35,273.481 837.039,274.63 C 837.75,275.815 838.82,276.898 840.133,277.763 C 841.081,278.387 841.719,279.386 841.888,280.509 C 841.944,280.884 841.979,281.262 841.993,281.638 C 842.227,281.445 842.454,281.237 842.677,281.014 C 843.432,280.259 844.451,279.842 845.505,279.842 C 845.673,279.842 845.842,279.853 846.010,279.874 C 846.666,279.958 847.335,280 848,280 C 849.717,280 851.375,279.729 852.928,279.196 C 854.388,278.694 855.688,277.985 856.791,277.088 C 858.86,275.407 860,273.245 860,271 C 860,268.755 858.86,266.593 856.791,264.912 C 855.688,264.015 854.388,263.306 852.928,262.804 C 851.375,262.271 849.717,262 848,262 Z M 848,258 L 848,258 C 856.837,258 864,263.82 864,271 C 864,278.18 856.837,284 848,284 C 847.151,284 846.318,283.946 845.505,283.842 C 842.069,287.279 837.966,287.895 834,287.986 L 834,287.145 C 836.142,286.096 838,284.184 838,282 C 838,281.695 837.976,281.396 837.932,281.103 C 834.314,278.72 832,275.080 832,271 C 832,263.82 839.163,258 848,258 Z"></path><path d="M 915.463,277.96c-0.691-0.11-0.707-2.010-0.707-2.010s 2.030-2.010, 2.473-4.713
	c 1.19,0, 1.926-2.873, 0.735-3.884C 918.014,266.29, 919.494,259, 912,259c-7.494,0-6.014,7.29-5.965,8.354
	c-1.19,1.011-0.455,3.884, 0.735,3.884c 0.442,2.703, 2.473,4.713, 2.473,4.713s-0.016,1.9-0.707,2.010
	C 906.311,278.315, 898,281.98, 898,286l 14,0 l 14,0 C 926,281.98, 917.689,278.315, 915.463,277.96z"></path><path d="M 986.5,288L 965.5,288 c-0.828,0-1.5-0.672-1.5-1.5c0-2.152, 0.908-4.756, 2.43-6.967c 1.272-1.847, 2.834-3.238, 4.521-4.050
		c-0.744-0.676-1.384-1.501-1.891-2.441c-0.813-1.508-1.242-3.252-1.242-5.042c0-2.488, 0.819-4.838, 2.306-6.618
		C 971.676,259.523, 973.763,258.5, 976,258.5s 4.324,1.023, 5.876,2.882c 1.487,1.78, 2.306,4.131, 2.306,6.618
		c0,1.79-0.429,3.533-1.242,5.042c-0.507,0.941-1.147,1.765-1.891,2.441c 1.687,0.812, 3.25,2.203, 4.521,4.050
		C 987.092,281.744, 988,284.348, 988,286.5C 988,287.328, 987.328,288, 986.5,288z M 967.19,285l 17.62,0 
		c-0.288-1.229-0.891-2.575-1.711-3.766c-1.295-1.882-2.912-3.113-4.551-3.466c-0.691-0.149-1.184-0.76-1.184-1.466
		l0-1.072 c0-0.539, 0.29-1.037, 0.758-1.304c 1.859-1.057, 3.060-3.383, 3.060-5.926c0-3.584-2.325-6.5-5.182-6.5
		c-2.857,0-5.182,2.916-5.182,6.5c0,2.542, 1.201,4.869, 3.060,5.926c 0.469,0.267, 0.758,0.764, 0.758,1.304l0,1.072 
		c0,0.707-0.493,1.317-1.184,1.466c-1.639,0.353-3.256,1.584-4.551,3.466C 968.081,282.425, 967.478,283.771, 967.19,285z"></path><path d="M 8,330A8,8 12600 1 0 24,330A8,8 12600 1 0 8,330zM 24,340L 8,340 C 3.582,340,0,343.582,0,348l0,2 l 0.252,0 l 31.496,0 L 32,350 l0-2 C 32,343.582, 28.418,340, 24,340z"></path><path d="M 76,324A4,4 12600 1 0 84,324A4,4 12600 1 0 76,324zM 84.485,327.515A4,4 12600 1 0 92.485,327.515A4,4 12600 1 0 84.485,327.515zM 90,336A2,2 12600 1 0 94,336A2,2 12600 1 0 90,336zM 86.485,344.485A2,2 12600 1 0 90.485,344.485A2,2 12600 1 0 86.485,344.485zM 78,348A2,2 12600 1 0 82,348A2,2 12600 1 0 78,348zM 69.515,344.485A2,2 12600 1 0 73.515,344.485A2,2 12600 1 0 69.515,344.485zM 68.515,327.515A3,3 12600 1 0 74.515,327.515A3,3 12600 1 0 68.515,327.515zM 65.75,336A2.25,2.25 12600 1 0 70.25,336A2.25,2.25 12600 1 0 65.75,336z"></path><path d="M 160,336c-0.040-2.089-0.493-4.172-1.331-6.077c-0.835-1.906-2.046-3.633-3.533-5.060
	c-1.486-1.428-3.248-2.557-5.156-3.302C 148.075,320.814, 146.025,320.457, 144,320.5c-2.025,0.040-4.042,0.48-5.885,1.292
	c-1.845,0.809-3.517,1.983-4.898,3.424c-1.382,1.44-2.474,3.147-3.193,4.994C 129.301,332.056, 128.957,334.039, 129,336
	c 0.040,1.961, 0.468,3.911, 1.254,5.694c 0.784,1.784, 1.921,3.401, 3.316,4.736c 1.394,1.336, 3.046,2.391, 4.832,3.085
	C 140.187,350.212, 142.103,350.543, 144,350.5c 1.897-0.040, 3.78-0.455, 5.502-1.216c 1.723-0.759, 3.285-1.859, 4.574-3.208
	c 1.29-1.348, 2.308-2.945, 2.977-4.67c 0.407-1.046, 0.684-2.138, 0.829-3.244c 0.039,0.002, 0.078,0.004, 0.118,0.004
	c 1.105,0, 2-0.895, 2-2c0-0.056-0.003-0.112-0.007-0.167L 160,336 z M 156.822,341.311c-0.734,1.663-1.796,3.169-3.099,4.412
	c-1.302,1.244-2.844,2.225-4.508,2.868C 147.552,349.237, 145.769,349.543, 144,349.5c-1.769-0.041-3.519-0.429-5.119-1.14
	c-1.602-0.708-3.053-1.734-4.25-2.991c-1.198-1.256-2.142-2.743-2.76-4.346C 131.25,339.421, 130.957,337.704, 131,336
	c 0.041-1.705, 0.416-3.388, 1.102-4.928c 0.683-1.541, 1.672-2.937, 2.883-4.088c 1.21-1.152, 2.642-2.058, 4.184-2.652
	C 140.71,323.737, 142.36,323.457, 144,323.5c 1.641,0.041, 3.257,0.404, 4.736,1.064c 1.48,0.658, 2.821,1.609, 3.926,2.774
	c 1.106,1.164, 1.975,2.54, 2.543,4.021C 155.776,332.841, 156.042,334.424, 156,336l 0.007,0 c-0.004,0.055-0.007,0.111-0.007,0.167
	c0,1.032, 0.781,1.88, 1.784,1.988C 157.589,339.243, 157.267,340.305, 156.822,341.311z"></path><path d="M 223.008,347.231L 215.428,340.784c-0.784-0.705-1.622-1.029-2.299-0.998C 214.919,337.691, 216,334.972, 216,332
	C 216,325.373, 210.627,320, 204,320C 197.373,320, 192,325.373, 192,332c0,6.627, 5.373,12, 12,12c 2.972,0, 5.691-1.081, 7.787-2.87
	c-0.031,0.677, 0.292,1.515, 0.998,2.299l 6.447,7.58c 1.104,1.226, 2.907,1.33, 4.007,0.23S 224.235,348.335, 223.008,347.231z
	 M 204,340c-4.418,0-8-3.582-8-8S 199.582,324, 204,324s 8,3.582, 8,8S 208.418,340, 204,340z"></path><path d="M 287.008,347.231L 279.428,340.784c-0.784-0.705-1.622-1.029-2.299-0.998C 278.919,337.691, 280,334.972, 280,332
		C 280,325.373, 274.627,320, 268,320C 261.373,320, 256,325.373, 256,332c0,6.627, 5.373,12, 12,12c 2.972,0, 5.691-1.081, 7.787-2.87
		c-0.031,0.677, 0.292,1.515, 0.998,2.299l 6.447,7.58c 1.104,1.226, 2.907,1.33, 4.007,0.23S 288.235,348.335, 287.008,347.231
		z M 268,340c-4.418,0-8-3.582-8-8S 263.582,324, 268,324s 8,3.582, 8,8S 272.418,340, 268,340zM 270,326L 266,326L 266,330L 262,330L 262,334L 266,334L 266,338L 270,338L 270,334L 274,334L 274,330L 270,330 	z"></path><path d="M 351.008,347.231L 343.428,340.784c-0.784-0.705-1.622-1.029-2.299-0.998C 342.919,337.691, 344,334.972, 344,332
		C 344,325.373, 338.627,320, 332,320C 325.373,320, 320,325.373, 320,332c0,6.627, 5.373,12, 12,12c 2.972,0, 5.691-1.081, 7.787-2.87
		c-0.031,0.677, 0.292,1.515, 0.998,2.299l 6.447,7.58c 1.104,1.226, 2.907,1.33, 4.007,0.23S 352.235,348.335, 351.008,347.231
		z M 332,340c-4.418,0-8-3.582-8-8S 327.582,324, 332,324s 8,3.582, 8,8S 336.418,340, 332,340zM 326,330L 338,330L 338,334L 326,334z"></path><path d="M 416,320 L 416,332 L 411.679,327.679 L 405.054,334.304 L 401.696,330.946 L 408.321,324.321 L 404,320 ZM 391.679,324.321 L 398.304,330.946 L 394.946,334.304 L 388.321,327.679 L 384,332 L 384,320 L 396,320 ZM 411.679,344.321 L 416,340 L 416,352 L 404,352 L 408.321,347.679 L 401.696,341.054 L 405.054,337.696 ZM 398.304,341.054 L 391.679,347.679 L 396,352 L 384,352 L 384,340 L 388.321,344.321 L 394.946,337.696 Z"></path><path d="M 450,338 L 462,338 L 462,350 L 457.679,345.679 L 451.367,351.992 L 448.008,348.633 L 454.321,342.321 ZM 473.679,342.321 L 479.992,348.633 L 476.633,351.992 L 470.321,345.679 L 466,350 L 466,338 L 478,338 ZM 478,334 L 466,334 L 466,322 L 470.321,326.321 L 476.633,320.008 L 479.992,323.367 L 473.679,329.679 ZM 457.679,326.321 L 462,322 L 462,334 L 450,334 L 454.321,329.679 L 448.008,323.367 L 451.367,320.008 Z"></path><path d="M 544,320 L 544,333 L 539,328 L 533,334 L 530,331 L 536,325 L 531,320 ZM 526,341 L 520,347 L 525,352 L 512,352 L 512,339 L 517,344 L 523,338 Z"></path><path d="M 590,338 L 590,351 L 585,346 L 579,352 L 576,349 L 582,343 L 577,338 ZM 608,323 L 602,329 L 607,334 L 594,334 L 594,321 L 599,326 L 605,320 Z"></path><path d="M 671.317,329.82l-3.16-3.159c-0.775-0.775-2.043-2.043-2.818-2.818l-3.16-3.159
	c-0.775-0.775-2.155-0.911-3.067-0.304L 650.475,326.139c-0.912,0.608-1.257,1.907-0.767,2.887l 2.203,4.405
	c 0.067,0.135, 0.145,0.278, 0.231,0.427L 641,345L 640,352l 6,0 l0-2 l 4,0 l0-4 l 4,0 l0-4l 4,0 l0-2.225 c 0.2,0.119, 0.392,0.226, 0.569,0.314
	l 4.405,2.203c 0.98,0.49, 2.279,0.145, 2.887-0.767l 5.759-8.639C 672.228,331.975, 672.091,330.595, 671.317,329.82z
	 M 644.707,346.707l-1.414-1.414l 9.737-9.737l 1.414,1.414L 644.707,346.707z M 668.657,333.243l-1.414,1.414
	c-0.389,0.389-1.025,0.389-1.414,0L 657.343,326.172c-0.389-0.389-0.389-1.025,0-1.414l 1.414-1.414
	c 0.389-0.389, 1.025-0.389, 1.414,0L 668.657,331.828C 669.046,332.217, 669.046,332.854, 668.657,333.243z"></path><path d="M 726,320c-5.523,0-10,4.477-10,10c0,0.626, 0.058,1.238, 0.168,1.832L 704,344l0,6 c0,1.105, 0.895,2, 2,2
	l 2,0 l0-2 l 4,0 l0-4 l 4,0 l0-4 l 4,0 l 2.595-2.595C 723.658,339.79, 724.804,340, 726,340c 5.523,0, 10-4.477, 10-10S 731.523,320, 726,320z
	 M 728.996,330.004c-1.657,0-3-1.343-3-3s 1.343-3, 3-3s 3,1.343, 3,3S 730.653,330.004, 728.996,330.004z"></path><path d="M 794,334l-2,0 l0-6 C 792,323.582, 788.418,320, 784,320c-4.418,0-8,3.582-8,8l0,6 L 774,334 c-1.1,0-2,0.9-2,2l0,14 
	c0,1.1, 0.9,2, 2,2l 20,0 c 1.1,0, 2-0.9, 2-2L 796,336 C 796,334.9, 795.1,334, 794,334z M 784,346c-1.105,0-2-0.895-2-2
	s 0.895-2, 2-2s 2,0.895, 2,2S 785.105,346, 784,346z M 788,334L 780,334 l0-6 c0-2.206, 1.794-4, 4-4s 4,1.794, 4,4L 788,334 z"></path><path d="M 863.342,345.559l-14.392-12.336C 849.62,331.963, 850,330.526, 850,329C 850,324.029, 845.971,320, 841,320
	c-0.909,0-1.787,0.135-2.614,0.386l 5.2,5.2c 0.778,0.778, 0.778,2.051,0,2.828l-3.172,3.172
	c-0.778,0.778-2.051,0.778-2.828,0L 832.386,326.386C 832.135,327.213, 832,328.091, 832,329c0,4.971, 4.029,9, 9,9
	c 1.526,0, 2.963-0.38, 4.222-1.051l 12.336,14.392c 0.716,0.835, 1.938,0.882, 2.716,0.104l 3.172-3.172
	C 864.224,347.497, 864.177,346.274, 863.342,345.559z"></path><path d="M 910,324l0-0.5 c0-0.825-0.675-1.5-1.5-1.5l-5,0 c-0.825,0-1.5,0.675-1.5,1.5l0,0.5 L 896,324 l0,4 l 6,0 l0,0.5 c0,0.825, 0.675,1.5, 1.5,1.5l 5,0 c 0.825,0, 1.5-0.675, 1.5-1.5l0-0.5 
		l 18,0 L 928,324 L 910,324 z M 904,328L 904,324 l 4,0 l0,4 L 904,328 zM 922,333.5c0-0.825-0.675-1.5-1.5-1.5l-5,0 c-0.825,0-1.5,0.675-1.5,1.5l0,0.5 L 896,334 l0,4 l 18,0 l0,0.5 c0,0.825, 0.675,1.5, 1.5,1.5l 5,0 c 0.825,0, 1.5-0.675, 1.5-1.5l0-0.5 
		l 6,0 l0-4 l-6,0 L 922,333.5 z M 916,338l0-4 l 4,0 l0,4 L 916,338 zM 910,343.5c0-0.825-0.675-1.5-1.5-1.5l-5,0 c-0.825,0-1.5,0.675-1.5,1.5l0,0.5 L 896,344 l0,4 l 6,0 l0,0.5 c0,0.825, 0.675,1.5, 1.5,1.5l 5,0 c 0.825,0, 1.5-0.675, 1.5-1.5l0-0.5 
		l 18,0 l0-4 L 910,344 L 910,343.5 z M 904,348l0-4 l 4,0 l0,4 L 904,348 z"></path><path d="M 989.181,339.070c-1.679-2.908-0.669-6.635, 2.255-8.328l-3.145-5.447c-0.898,0.527-1.943,0.829-3.058,0.829
	c-3.361,0-6.085-2.742-6.085-6.125L 972.86,320 c 0.008,1.044-0.252,2.103-0.811,3.070
	c-1.679,2.908-5.411,3.897-8.339,2.211L 960.564,330.728c 0.905,0.515, 1.689,1.268, 2.246,2.234
	c 1.676,2.903, 0.672,6.622-2.241,8.319l 3.145,5.447c 0.895-0.522, 1.935-0.82, 3.044-0.82
	c 3.35,0, 6.067,2.725, 6.084,6.092l 6.289,0 c-0.003-1.034, 0.259-2.080, 0.811-3.038
	c 1.676-2.903, 5.399-3.894, 8.325-2.219l 3.145-5.447C 990.514,340.782, 989.735,340.031, 989.181,339.070z M 976,342.479
	c-3.578,0-6.479-2.901-6.479-6.479c0-3.578, 2.901-6.479, 6.479-6.479c 3.578,0, 6.479,2.901, 6.479,6.479
	C 982.479,339.578, 979.578,342.479, 976,342.479z"></path><path d="M 11.366,406.564l 1.291-1.807l-1.414-1.414l-1.807,1.29c-0.335-0.187-0.694-0.337-1.071-0.444L 8,402L 6,402 
		l-0.365,2.19c-0.377,0.107-0.736,0.256-1.071,0.444L 2.757,403.343L 1.343,404.757l 1.291,1.807
		c-0.187,0.335-0.337,0.694-0.444,1.071L0,408l0,2 l 2.19,0.365c 0.107,0.377, 0.256,0.736, 0.444,1.071L 1.343,413.243l 1.414,1.414
		l 1.807-1.29c 0.335,0.187, 0.694,0.337, 1.071,0.444L 6,416l 2,0 l 0.365-2.19c 0.377-0.107, 0.736-0.256, 1.071-0.444l 1.807,1.29
		l 1.414-1.414l-1.291-1.807c 0.187-0.335, 0.337-0.694, 0.444-1.071L 14,410l0-2 l-2.19-0.365
		C 11.703,407.258, 11.554,406.899, 11.366,406.564z M 7,411c-1.105,0-2-0.895-2-2s 0.895-2, 2-2s 2,0.895, 2,2
		S 8.105,411, 7,411zM 32,396l0-2 l-2.106-0.383c-0.039-0.251-0.088-0.499-0.148-0.743l 1.799-1.159L 30.78,389.867l-2.092,0.452
		c-0.132-0.216-0.273-0.426-0.422-0.629l 1.219-1.761l-1.414-1.414l-1.761,1.219c-0.203-0.149-0.413-0.29-0.629-0.422
		l 0.452-2.092L 24.286,384.455l-1.159,1.799c-0.244-0.059-0.492-0.109-0.743-0.148L 22,384l-2,0 l-0.383,2.106
		c-0.251,0.039-0.499,0.088-0.743,0.148L 17.714,384.455L 15.867,385.22l 0.452,2.092c-0.216,0.132-0.426,0.273-0.629,0.422
		l-1.761-1.219l-1.414,1.414l 1.219,1.761c-0.149,0.203-0.29,0.413-0.422,0.629l-2.092-0.452l-0.765,1.848l 1.799,1.159
		c-0.059,0.244-0.109,0.492-0.148,0.743L 10,394l0,2 l 2.106,0.383c 0.039,0.251, 0.088,0.499, 0.148,0.743l-1.799,1.159
		l 0.765,1.848l 2.092-0.452c 0.132,0.216, 0.273,0.426, 0.422,0.629l-1.219,1.761l 1.414,1.414l 1.761-1.219
		c 0.203,0.149, 0.413,0.29, 0.629,0.422l-0.452,2.092l 1.848,0.765l 1.159-1.799c 0.244,0.059, 0.492,0.109, 0.743,0.148L 20,406l 2,0 
		l 0.383-2.106c 0.251-0.039, 0.499-0.088, 0.743-0.148l 1.159,1.799l 1.848-0.765l-0.452-2.092
		c 0.216-0.132, 0.426-0.273, 0.629-0.422l 1.761,1.219l 1.414-1.414l-1.219-1.761c 0.149-0.203, 0.29-0.413, 0.422-0.629
		l 2.092,0.452l 0.765-1.848l-1.799-1.159c 0.059-0.244, 0.109-0.492, 0.148-0.743L 32,396z M 21,399.35
		c-2.402,0-4.35-1.948-4.35-4.35c0-2.402, 1.948-4.35, 4.35-4.35s 4.35,1.948, 4.35,4.35C 25.35,397.402, 23.402,399.35, 21,399.35z"></path><path d="M 96,403.003l0-6.006 l-4.587-0.764c-0.186-0.567-0.413-1.115-0.678-1.641l 2.702-3.782l-4.247-4.247l-3.776,2.697
		c-0.528-0.267-1.079-0.496-1.649-0.684L 83.003,384l-6.006,0 l-0.763,4.575c-0.57,0.188-1.121,0.417-1.649,0.684
		l-3.776-2.697l-4.247,4.247l 2.702,3.782c-0.265,0.526-0.492,1.074-0.678,1.641L 64,396.997l0,6.006 l 4.597,0.766
		c 0.186,0.561, 0.413,1.105, 0.676,1.626l-2.711,3.795l 4.247,4.247l 3.802-2.715c 0.519,0.261, 1.059,0.485, 1.618,0.67
		L 76.997,416l 6.006,0 l 0.768-4.609c 0.559-0.185, 1.099-0.409, 1.618-0.67l 3.802,2.715l 4.247-4.247l-2.711-3.795
		c 0.264-0.521, 0.49-1.064, 0.676-1.626L 96,403.003z M 80,404c-2.209,0-4-1.791-4-4c0-2.209, 1.791-4, 4-4
		c 2.209,0, 4,1.791, 4,4C 84,402.209, 82.209,404, 80,404z"></path><path d="M 134,416L 154,416L 156,394L 132,394 	zM 148,388L 148,384 L 140,384 l0,4 L 130,388 l0,6 l 2-2l 24,0 l 2,2L 158,388 L 148,388 z M 146,388l-4,0 L 142,386 l 4,0 L 146,388 z"></path><path d="M 217,388L 199,388 c-1.657,0-3,1.343-3,3l0,1 l 24,0 l0-1 C 220,389.343, 218.657,388, 217,388zM 211.76,386l 0.441,3.156L 203.799,389.156 l 0.441-3.156L 211.76,386  M 212,384L 204,384 c-0.825,0-1.593,0.668-1.708,1.486l-0.585,4.185
	C 201.593,390.488, 202.175,391.156, 203,391.156l 10,0 c 0.825,0, 1.407-0.668, 1.292-1.486l-0.585-4.185C 213.593,384.668, 212.825,384, 212,384L 212,384z
	M 217.5,394L 198.5,394 c-1.1,0-1.919,0.896-1.819,1.992l 1.638,18.016C 198.418,415.104, 199.4,416, 200.5,416l 15,0 
	c 1.1,0, 2.082-0.896, 2.181-1.992l 1.638-18.016C 219.419,394.896, 218.6,394, 217.5,394z M 204,412l-3,0 l-1-14l 4,0 L 204,412 z M 210,412l-4,0 
	L 206,398 l 4,0 L 210,412 z M 215,412l-3,0 L 212,398 l 4,0 L 215,412z"></path><path d="M 258,390L 286,390L 286,396L 258,396zM 258,398L 286,398L 286,404L 258,404zM 258,406L 286,406L 286,412L 258,412z"></path><path d="M 336,390C 329.021,390, 322.972,394.064, 320,400c 2.972,5.936, 9.021,10, 16,10c 6.979,0, 13.027-4.064, 16-10
	C 349.028,394.064, 342.979,390, 336,390z M 343.889,395.303c 1.88,1.199, 3.473,2.805, 4.67,4.697
	c-1.197,1.891-2.79,3.498-4.67,4.697C 341.527,406.204, 338.799,407, 336,407c-2.799,0-5.527-0.796-7.889-2.303
	C 326.231,403.498, 324.638,401.891, 323.441,400c 1.197-1.891, 2.79-3.498, 4.67-4.697c 0.122-0.078, 0.246-0.154, 0.371-0.228
	C 328.17,395.929, 328,396.851, 328,397.813c0,4.418, 3.582,8, 8,8s 8-3.582, 8-8c0-0.962-0.17-1.883-0.481-2.737
	C 343.643,395.149, 343.767,395.225, 343.889,395.303z M 336,396.813c0,1.657-1.343,3-3,3s-3-1.343-3-3s 1.343-3, 3-3
	S 336,395.156, 336,396.813z"></path><path d="M 416,396.408l-11.056-1.607L 400,384.783l-4.944,10.018L 384,396.408l 8,7.798L 390.112,415.217L 400,410.018l 9.889,5.199
	l-1.889-11.011L 416,396.408z M 400,407.547l-6.983,3.671l 1.334-7.776l-5.65-5.507l 7.808-1.135L 400,389.726l 3.492,7.075
	l 7.807,1.135l-5.65,5.507l 1.334,7.776L 400,407.547z"></path><path d="M 480,396.408l-11.056-1.607L 464,384.783l-4.944,10.018L 448,396.408l 8,7.798L 454.112,415.217L 464,410.018l 9.889,5.199
	l-1.889-11.011L 480,396.408z M 464,407.547l-0.029,0.015L 464,389.726l 3.492,7.075l 7.807,1.135l-5.65,5.507l 1.334,7.776
	L 464,407.547z"></path><path d="M 544,396.408L 532.944,394.801L 528,384.783l-4.944,10.018L 512,396.408l 8,7.798L 518.112,415.217L 528,410.018l 9.889,5.199
	l-1.889-11.011L 544,396.408z"></path><path d="M 608,395.192 C 608,397.891 606.837,400.318 604.985,402 L 605,402 L 595,412 C 594,413 593,414 592,414 C 591,414 590,413 589,412 L 579,402 L 579.015,402 C 577.163,400.318 576,397.891 576,395.192 C 576,390.116 580.116,386 585.192,386 C 587.891,386 590.318,387.163 592,389.015 C 593.682,387.163 596.109,386 598.808,386 C 603.884,386 608,390.116 608,395.192 Z"></path><path d="M 672,395.192C 672,390.116, 667.884,386, 662.808,386C 660.109,386, 657.682,387.163, 656,389.015C 654.318,387.163, 651.891,386, 649.192,386
	C 644.116,386, 640,390.116, 640,395.192C 640,397.891, 641.163,400.318, 643.015,402L 643,402 l 10,10c 1,1, 2,2, 3,2s 2-1, 3-2l 10-10l-0.015,0 
	C 670.837,400.318, 672,397.891, 672,395.192z M 666.296,399.039L 656.172,409.172c-0.052,0.052-0.11,0.11-0.172,0.171
	c-0.061-0.061-0.119-0.119-0.172-0.171L 645.704,399.039C 644.605,398.041, 644,396.675, 644,395.192C 644,392.329, 646.329,390, 649.192,390
	c 1.482,0, 2.848,0.605, 3.846,1.704L 656,394.966l 2.962-3.262C 659.959,390.605, 661.325,390, 662.808,390
	C 665.671,390, 668,392.329, 668,395.192C 668,396.675, 667.395,398.041, 666.296,399.039z"></path><path d="M 736,395.192 C 736,397.891 734.837,400.318 732.985,402 L 733,402 L 723,412 C 722,413 721,414 720,414 C 719,414 718,413 717,412 L 707,402 L 707.015,402 C 705.163,400.318 704,397.891 704,395.192 C 704,390.116 708.116,386 713.192,386 C 714.925,386 716.546,386.48 717.929,387.314 L 715,392 L 722,396 L 718,406 L 729,394 L 722,390 L 724.465,386.302 C 725.213,386.105 725.998,386 726.808,386 C 731.884,386 736,390.116 736,395.192 Z"></path><path d="M 797,402 C 799.281,402 798,408 796,408 C 797,408 796,413 794,413 C 794,415 792,416 790,416 C 781.552,416 784.523,413.886 776,413 L 776,397 C 783.529,394.742 791,389.080 791,384 C 792.656,384 797,386 791,396 C 791,396 796,396 797,396 C 800,396 799,402 797,402 ZM 774,397 L 774,413 L 776,413 L 776,414 L 772,414 C 770.9,414 770,412.65 770,411 L 770,399 C 770,397.35 770.9,396 772,396 L 776,396 L 776,397 L 774,397 Z"></path><path d="M 835,398 C 832.719,398 834,392 836,392 C 835,392 836,387 838,387 C 838,385 840,384 842,384 C 850.448,384 847.477,386.114 856,387 L 856,403 C 848.471,405.258 841,410.919 841,416 C 839.344,416 835,414 841,404 C 841,404 836,404 835,404 C 832,404 833,398 835,398 ZM 858,403 L 858,387 L 856,387 L 856,386 L 860,386 C 861.1,386 862,387.35 862,389 L 862,401 C 862,402.65 861.1,404 860,404 L 856,404 L 856,403 L 858,403 Z"></path><path d="M 912,388.96 L 901.224,412 L 922.776,412 L 912,388.96 Z M 912,384 L 912,384 C 912.69,384 913.379,384.465 913.903,385.395 L 927.561,412.617 C 928.608,414.478 927.717,416 925.583,416 L 898.417,416 C 896.283,416 895.392,414.478 896.439,412.617 L 910.097,385.395 C 910.621,384.465 911.31,384 912,384 ZM 910,408A2,2 2520 1 0 914,408A2,2 2520 1 0 910,408zM 912,396 C 913.105,396 914,396.895 914,398 L 913.375,404 L 910.625,404 L 910,398 C 910,396.895 910.895,396 912,396 Z"></path><path d="M 976,387 C 972.528,387 969.263,388.352 966.808,390.808 C 964.352,393.263 963,396.528 963,400 C 963,403.472 964.352,406.737 966.808,409.192 C 969.263,411.648 972.528,413 976,413 C 979.472,413 982.737,411.648 985.192,409.192 C 987.648,406.737 989,403.472 989,400 C 989,396.528 987.648,393.263 985.192,390.808 C 982.737,388.352 979.472,387 976,387 Z M 976,384 L 976,384 C 984.837,384 992,391.163 992,400 C 992,408.837 984.837,416 976,416 C 967.163,416 960,408.837 960,400 C 960,391.163 967.163,384 976,384 ZM 974,406L 978,406L 978,410L 974,410zM 974,390L 978,390L 978,402L 974,402z"></path><path d="M 16,448C 7.163,448,0,455.163,0,464s 7.163,16, 16,16s 16-7.163, 16-16S 24.837,448, 16,448z M 16,477
		c-7.18,0-13-5.82-13-13S 8.82,451, 16,451s 13,5.82, 13,13S 23.18,477, 16,477zM 14,456L 18,456L 18,460L 14,460zM 20,472L 12,472L 12,470L 14,470L 14,464L 12,464L 12,462L 18,462L 18,470L 20,470 z"></path><path d="M 80,448C 71.163,448, 64,455.163, 64,464s 7.163,16, 16,16s 16-7.163, 16-16S 88.837,448, 80,448z M 78,454l 4,0 l0,4 l-4,0 L 78,454 z
	 M 84,474L 76,474 l0-2 l 2,0 L 78,464 l-2,0 l0-2 l 6,0 l0,10 l 2,0 L 84,474 z"></path><path d="M 128,464c0,8.837, 7.163,16, 16,16c 8.837,0, 16-7.163, 16-16S 152.837,448, 144,448C 135.163,448, 128,455.163, 128,464z M 156,464
	c0,2.289-0.641,4.428-1.753,6.247L 137.753,453.753C 139.572,452.641, 141.711,452, 144,452C 150.627,452, 156,457.373, 156,464z M 132,464
	c0-2.289, 0.641-4.427, 1.753-6.247l 16.494,16.494C 148.427,475.359, 146.289,476, 144,476C 137.373,476, 132,470.627, 132,464z"></path><path d="M 208,448C 199.163,448, 192,455.163, 192,464s 7.163,16, 16,16s 16-7.163, 16-16S 216.837,448, 208,448z M 216,458.828L 210.828,464
	L 216,469.172L 216,472 l-2.829,0 L 208,466.828L 202.828,472L 200,472 l0-2.829 L 205.172,464L 200,458.828L 200,456 l 2.828,0 L 208,461.172L 213.172,456L 216,456 
	L 216,458.828 z"></path><path d="M 272,448C 263.163,448, 256,455.163, 256,464s 7.163,16, 16,16s 16-7.163, 16-16S 280.837,448, 272,448z M 269,474L 262.375,465.375l 2.938-3.063l 3.688,4.688
	l 11.563-9.438l 1.438,1.438L 269,474z"></path><path d="M 352,471M 343,448L 329,448 L 320,457l0,14 l 9,9l 14,0 l 9-9L 352,457 L 343,448z M 338,474l-4,0 l0-4 l 4,0 L 338,474 z M 338,466l-4,0 L 334,454 l 4,0 L 338,466 z"></path><path d="M 415.708,473.708c0,00,00,0L 406,464l 9.708-9.708c 0,0, 0,0, 0,0
		c 0.104-0.105, 0.18-0.227, 0.229-0.357c 0.133-0.355, 0.057-0.771-0.229-1.057L 411.122,448.292c-0.286-0.286-0.702-0.361-1.057-0.229
		c-0.13,0.048-0.252,0.124-0.357,0.228c0,00,00,0L 400,458L 390.292,448.292
		c0,00,00,0c-0.105-0.104-0.227-0.18-0.357-0.228c-0.356-0.133-0.771-0.057-1.057,0.229L 384.292,452.878
		c-0.286,0.286-0.361,0.702-0.229,1.057c 0.049,0.13, 0.124,0.252, 0.229,0.357c 0,0, 0,0, 0,0L 394,464
		L 384.292,473.708c0,00,00,0c-0.104,0.105-0.18,0.227-0.229,0.357c-0.133,0.355-0.057,0.771, 0.229,1.057
		l 4.586,4.586c 0.286,0.286, 0.702,0.361, 1.057,0.229c 0.13-0.049, 0.252-0.124, 0.357-0.229c 0,0, 0,0, 0,0
		l 9.708-9.708l 9.708,9.708c 0,0, 0,0, 0,0c 0.105,0.104, 0.227,0.18, 0.357,0.229
		c 0.356,0.133, 0.771,0.057, 1.057-0.229l 4.586-4.586c 0.286-0.286, 0.362-0.702, 0.229-1.057
		C 415.888,473.935, 415.813,473.813, 415.708,473.708z"></path><path d="M 475,452L 460,467L 453,460L 448,465L 460,477L 480,457 z"></path><path d="M 524.42,476.678l-12.433-12.238l 6.168-6.071l 6.265,6.167l 13.426-13.214l 6.168,6.071L 524.42,476.678z
		 M 515.372,464.441l 9.048,8.905l 16.208-15.953l-2.782-2.739l-13.426,13.214L 518.155,461.702L 515.372,464.441z"></path><path d="M 576,461l0,6 c0,0.552, 0.448,1, 1,1l 30,0 c 0.552,0, 1-0.448, 1-1l0-6 c0-0.552-0.448-1-1-1L 577,460 C 576.448,460, 576,460.448, 576,461z"></path><path d="M 671,460L 660,460 L 660,449 c0-0.552-0.448-1-1-1l-6,0 c-0.552,0-1,0.448-1,1l0,11 L 641,460 c-0.552,0-1,0.448-1,1l0,6 
	c0,0.552, 0.448,1, 1,1l 11,0 l0,11 c0,0.552, 0.448,1, 1,1l 6,0 c 0.552,0, 1-0.448, 1-1L 660,468 l 11,0 c 0.552,0, 1-0.448, 1-1l0-6 
	C 672,460.448, 671.552,460, 671,460z"></path><path d="M 716,464 L 706,464 L 706,460 L 716,460 L 716,456 L 722,462 L 716,468 ZM 736,448 L 736,474 L 724,480 L 724,474 L 712,474 L 712,466 L 714,466 L 714,472 L 724,472 L 724,454 L 732,450 L 714,450 L 714,458 L 712,458 L 712,448 Z"></path><path d="M 792,468 L 792,464 L 782,464 L 782,460 L 792,460 L 792,456 L 798,462 ZM 790,466 L 790,474 L 780,474 L 780,480 L 768,474 L 768,448 L 790,448 L 790,458 L 788,458 L 788,450 L 772,450 L 780,454 L 780,472 L 788,472 L 788,466 Z"></path><path d="M 836,466c0,1.105, 0.895,2, 2,2s 2-0.895, 2-2L 840,458.828 l 16.586,16.586c 0.781,0.781, 2.047,0.781, 2.828,0
	C 859.805,475.024, 860,474.512, 860,474s-0.195-1.024-0.586-1.414L 842.828,456L 850,456 c 1.105,0, 2-0.895, 2-2s-0.895-2-2-2L 836,452 
	L 836,466 z"></path><path d="M 923.414,460.586l-10-10c-0.781-0.781-2.047-0.781-2.828,0l-10,10c-0.781,0.781-0.781,2.047,0,2.828
	c 0.781,0.781, 2.047,0.781, 2.828,0L 910,456.828L 910,476 c0,1.105, 0.895,2, 2,2c 1.105,0, 2-0.895, 2-2L 914,456.828 l 6.586,6.586
	C 920.976,463.805, 921.488,464, 922,464s 1.024-0.195, 1.414-0.586C 924.195,462.633, 924.195,461.367, 923.414,460.586z"></path><path d="M 986.001,452c0,0-0.001,0-0.001,0L 974,452 c-1.105,0-2,0.895-2,2s 0.895,2, 2,2l 7.172,0 L 964.586,472.586
	c-0.781,0.781-0.781,2.047,0,2.828C 964.976,475.805, 965.488,476, 966,476s 1.024-0.195, 1.414-0.586L 984,458.828L 984,466 
	c0,1.105, 0.895,2, 2,2s 2-0.895, 2-2L 988,452 L 986.001,452 z"></path><path d="M 19.414,539.414l 10-10c 0.781-0.781, 0.781-2.047,0-2.828l-10-10c-0.781-0.781-2.047-0.781-2.828,0
	c-0.781,0.781-0.781,2.047,0,2.828L 23.172,526L 4,526 c-1.105,0-2,0.895-2,2s 0.895,2, 2,2l 19.172,0 L 16.586,536.586
	C 16.195,536.976, 16,537.488, 16,538s 0.195,1.024, 0.586,1.414C 17.367,540.195, 18.633,540.195, 19.414,539.414z"></path><path d="M 92,526c0-1.105-0.895-2-2-2c-1.105,0-2,0.895-2,2l0,7.172 L 71.414,516.586
	c-0.781-0.781-2.047-0.781-2.828,0C 68.195,516.976, 68,517.488, 68,518s 0.195,1.024, 0.586,1.414L 85.172,536L 78,536 
	c-1.105,0-2,0.895-2,2s 0.895,2, 2,2l 14,0 L 92,526 z"></path><path d="M 132.586,531.414l 10,10c 0.781,0.781, 2.047,0.781, 2.828,0l 10-10c 0.781-0.781, 0.781-2.047,0-2.828
	c-0.781-0.781-2.047-0.781-2.828,0L 146,535.172L 146,516 c0-1.105-0.895-2-2-2s-2,0.895-2,2l0,19.172 L 135.414,528.586
	C 135.024,528.195, 134.512,528, 134,528s-1.024,0.195-1.414,0.586C 131.805,529.367, 131.805,530.633, 132.586,531.414z"></path><path d="M 210,540c 1.105,0, 2-0.895, 2-2c0-1.105-0.895-2-2-2L 202.828,536 l 16.586-16.586c 0.781-0.781, 0.781-2.047,0-2.828
	C 219.024,516.195, 218.512,516, 218,516s-1.024,0.195-1.414,0.586L 200,533.172L 200,526 c0-1.105-0.895-2-2-2s-2,0.895-2,2l0,14 L 210,540 z
	"></path><path d="M 268.586,516.586l-10,10c-0.781,0.781-0.781,2.047,0,2.828l 10,10c 0.781,0.781, 2.047,0.781, 2.828,0
	c 0.781-0.781, 0.781-2.047,0-2.828L 264.828,530L 284,530 c 1.105,0, 2-0.895, 2-2c0-1.105-0.895-2-2-2L 264.828,526 l 6.586-6.586
	C 271.805,519.024, 272,518.512, 272,518s-0.195-1.024-0.586-1.414C 270.633,515.805, 269.367,515.805, 268.586,516.586z"></path><path d="M 320,512l0,32 l 32,0 L 352,512 L 320,512 z M 350,542L 322,542 L 322,514 l 28,0 L 350,542 z M 344,519L 334,529l-6-6l-4,4l 10,10l 14-14L 344,519z"></path><path d="M 384,512l0,32 l 32,0 L 416,512 L 384,512 z M 414,542L 386,542 L 386,514 l 28,0 L 414,542 z"></path><path d="M 464,512C 455.163,512, 448,519.163, 448,528s 7.163,16, 16,16s 16-7.163, 16-16S 472.837,512, 464,512z M 464,540
		c-6.627,0-12-5.373-12-12c0-6.627, 5.373-12, 12-12c 6.627,0, 12,5.373, 12,12C 476,534.627, 470.627,540, 464,540zM 458,528A6,6 12600 1 0 470,528A6,6 12600 1 0 458,528z"></path><path d="M 528,512C 519.163,512, 512,519.163, 512,528s 7.163,16, 16,16s 16-7.163, 16-16S 536.837,512, 528,512z M 528,540
	c-6.627,0-12-5.373-12-12c0-6.627, 5.373-12, 12-12c 6.627,0, 12,5.373, 12,12C 540,534.627, 534.627,540, 528,540z"></path><path d="M 593.471,514c0,0-6.28,0-8.373,0C 581.344,514, 577.811,516.844, 577.811,520.138c0,3.366, 2.559,6.083, 6.378,6.083
		c 0.266,0, 0.524-0.005, 0.776-0.024c-0.248,0.475-0.425,1.009-0.425,1.564c0,0.936, 0.503,1.694, 1.14,2.313
		c-0.481,0-0.945,0.014-1.452,0.014C 579.579,530.089, 576,533.050, 576,536.121c0,3.024, 3.923,4.916, 8.573,4.916
		c 5.301,0, 8.228-3.008, 8.228-6.032c0-2.425-0.716-3.877-2.928-5.442c-0.757-0.536-2.204-1.839-2.204-2.604
		c0-0.897, 0.256-1.34, 1.607-2.395c 1.385-1.082, 2.365-2.603, 2.365-4.372c0-2.106-0.938-4.159-2.699-4.837l 2.655,0 
		L 593.471,514z M 590.546,534.483c 0.066,0.28, 0.103,0.569, 0.103,0.863c0,2.444-1.575,4.353-6.093,4.353
		c-3.214,0-5.535-2.034-5.535-4.478c0-2.395, 2.879-4.389, 6.093-4.354c 0.75,0.008, 1.449,0.129, 2.083,0.334
		C 588.942,532.415, 590.193,533.101, 590.546,534.483z M 585.401,525.368c-2.157-0.065-4.207-2.413-4.58-5.246
		c-0.372-2.833, 1.074-5.001, 3.231-4.937c 2.157,0.065, 4.207,2.338, 4.58,5.171
		C 589.004,523.189, 587.557,525.433, 585.401,525.368zM 602,520L 602,514L 600,514L 600,520L 594,520L 594,522L 600,522L 600,528L 602,528L 602,522L 608,522L 608,520 	z"></path><path d="M 640.025,539.177c-0.008-0.079-0.014-0.158-0.018-0.238C 640.011,539.019, 640.018,539.098, 640.025,539.177zM 647.372,529.661c 2.875,0.086, 4.804-2.897, 4.308-6.662c-0.497-3.765-3.231-6.787-6.106-6.873
		c-2.876-0.085-4.804,2.796-4.308,6.563C 641.762,526.453, 644.496,529.575, 647.372,529.661zM 672,520L 672,517.334 C 672,514.4, 669.601,512, 666.667,512L 645.334,512 C 642.45,512, 640.084,514.32, 640.004,517.185
		c 1.824-1.606, 4.354-2.947, 6.965-2.947c 2.791,0, 11.164,0, 11.164,0l-2.498,2.113l-3.54,0 
		c 2.348,0.9, 3.599,3.629, 3.599,6.429c0,2.352-1.307,4.374-3.153,5.811c-1.801,1.403-2.143,1.991-2.143,3.184
		c0,1.018, 1.93,2.75, 2.938,3.462c 2.949,2.079, 3.904,4.010, 3.904,7.233c0,0.513-0.064,1.026-0.19,1.53l 9.617,0 
		C 669.601,544, 672,541.602, 672,538.666L 672,522 l-6,0 L 666,528 l-2,0 l0-6 l-6,0 l0-2 L 664,520 L 664,514 l 2,0 l0,6 L 672,520 zM 645.809,535.936c 0.675,0, 1.294-0.018, 1.935-0.018c-0.848-0.823-1.52-1.831-1.52-3.074
		c0-0.738, 0.236-1.448, 0.567-2.079c-0.337,0.024-0.681,0.031-1.035,0.031c-2.324,0-4.297-0.752-5.756-1.995l0,2.101 
		l 0,6.304C 641.67,536.412, 643.653,535.936, 645.809,535.936zM 640.107,539.727c-0.035-0.171-0.061-0.344-0.079-0.52C 640.045,539.383, 640.072,539.556, 640.107,539.727zM 654.233,541.776c-0.471-1.838-2.139-2.749-4.465-4.362c-0.846-0.273-1.778-0.434-2.778-0.444
		c-2.801-0.030-5.41,1.092-6.882,2.762C 640.605,542.161, 642.765,544, 645.334,544l 8.951,0 c 0.057-0.348, 0.084-0.707, 0.084-1.076
		C 654.37,542.532, 654.322,542.149, 654.233,541.776z"></path><path d="M 721.996,544L 716,544 L 716,528 l-4,0 l0-5.514 l 4-0.002l-0.006-3.248C 715.993,514.737, 717.213,512, 722.512,512l 4.412,0 l0,5.515 l-2.757,0 
	c-2.063,0-2.163,0.77-2.163,2.209l-0.008,2.76l 4.959,0 l-0.585,5.514L 722,528L 721.996,544z"></path><path d="M 794.667,512L 773.334,512 C 770.4,512, 768,514.4, 768,517.334l0,21.332 C 768,541.602, 770.4,544, 773.334,544l 21.333,0
	c 2.934,0, 5.333-2.398, 5.333-5.334L 800,517.334 C 800,514.4, 797.601,512, 794.667,512z M 795.206,528L 790,528 l0,14 l-6,0 L 784,528 l-2.891,0 l0-4.58 L 784,523.42 
	l0-2.975 C 784,516.403, 785.744,514, 790.496,514l 5.476,0 l0,4.955 l-4.473,0 c-1.328-0.002-1.492,0.692-1.492,1.985L 790,523.42l 6,0 
	L 795.206,528z"></path><path d="M 864,518.076c-1.177,0.522-2.443,0.875-3.771,1.034c 1.355-0.813, 2.396-2.099, 2.887-3.632
	c-1.269,0.752-2.674,1.299-4.169,1.593c-1.198-1.276-2.904-2.073-4.792-2.073c-3.626,0-6.565,2.939-6.565,6.565
	c0,0.515, 0.058,1.016, 0.17,1.496c-5.456-0.274-10.294-2.888-13.532-6.86c-0.565,0.97-0.889,2.097-0.889,3.301
	c0,2.278, 1.159,4.287, 2.921,5.465c-1.076-0.034-2.088-0.329-2.974-0.821c-0.001,0.027-0.001,0.055-0.001,0.083
	c0,3.181, 2.263,5.834, 5.266,6.438c-0.551,0.15-1.131,0.23-1.73,0.23c-0.423,0-0.834-0.041-1.235-0.118
	c 0.836,2.608, 3.26,4.506, 6.133,4.559c-2.247,1.761-5.078,2.81-8.154,2.81c-0.53,0-1.052-0.031-1.566-0.092
	c 2.905,1.863, 6.356,2.95, 10.064,2.95c 12.076,0, 18.679-10.004, 18.679-18.68c0-0.285-0.006-0.568-0.019-0.849
	C 862.007,520.548, 863.12,519.392, 864,518.076z"></path><path d="M 922.667,512L 901.334,512 C 898.4,512, 896,514.4, 896,517.334l0,21.332 C 896,541.602, 898.4,544, 901.334,544l 21.333,0 
	C 925.601,544, 928,541.602, 928,538.666L 928,517.334 C 928,514.4, 925.601,512, 922.667,512z M 922.189,522.682
	c 0.010,0.229, 0.015,0.46, 0.015,0.692c0,7.069-5.288,15.221-14.958,15.221c-2.969,0-5.732-0.886-8.059-2.404
	c 0.411,0.050, 0.83,0.075, 1.254,0.075c 2.463,0, 4.73-0.855, 6.529-2.29c-2.3-0.043-4.242-1.59-4.911-3.715
	c 0.321,0.063, 0.65,0.096, 0.989,0.096c 0.479,0, 0.944-0.066, 1.385-0.188c-2.405-0.492-4.217-2.654-4.217-5.245
	c0-0.023,0-0.045, 0.001-0.067c 0.709,0.401, 1.52,0.641, 2.381,0.669c-1.411-0.959-2.339-2.597-2.339-4.453
	c0-0.98, 0.259-1.899, 0.712-2.689c 2.593,3.237, 6.467,5.366, 10.836,5.589c-0.090-0.392-0.136-0.8-0.136-1.219
	c0-2.954, 2.354-5.349, 5.257-5.349c 1.512,0, 2.879,0.65, 3.838,1.689c 1.198-0.24, 2.323-0.685, 3.338-1.298
	c-0.393,1.249-1.226,2.298-2.311,2.96c 1.063-0.129, 2.077-0.417, 3.019-0.842C 924.108,520.986, 923.216,521.928, 922.189,522.682
	z"></path><path d="M 967,536L 961,536 c-0.553,0-1,0.447-1,1l0,6 c0,0.553, 0.447,1, 1,1l 6,0 c 0.553,0, 1-0.447, 1-1l0-6 
			C 968,536.447, 967.553,536, 967,536z M 966,541c0,0.553-0.447,1-1,1L 963,542 c-0.553,0-1-0.447-1-1l0-2 c0-0.553, 0.447-1, 1-1l 2,0 c 0.553,0, 1,0.447, 1,1L 966,541 z
			 M 991,538L 973,538 c-0.553,0-1,0.447-1,1l0,2 c0,0.553, 0.447,1, 1,1l 18,0 c 0.553,0, 1-0.447, 1-1l0-2 C 992,538.447, 991.553,538, 991,538z M 991,526L 973,526 
			c-0.553,0-1,0.447-1,1l0,2 c0,0.553, 0.447,1, 1,1l 18,0 c 0.553,0, 1-0.447, 1-1l0-2 C 992,526.447, 991.553,526, 991,526z M 967,512L 961,512 C 960.447,512, 960,512.447, 960,513l0,6 
			c0,0.553, 0.447,1, 1,1l 6,0 c 0.553,0, 1-1.447, 1-2L 968,513 C 968,512.447, 967.553,512, 967,512z M 966,517c0,0.553-0.447,1-1,1L 963,518 C 962.447,518, 962,517.553, 962,517L 962,515 
			c0-0.553, 0.447-1, 1-1l 2,0 c 0.553,0, 1,0.447, 1,1L 966,517 z M 967,524L 961,524 c-0.553,0-1,0.447-1,1l0,6 c0,0.553, 0.447,1, 1,1l 6,0 c 0.553,0, 1-0.447, 1-1l0-6 
			C 968,524.447, 967.553,524, 967,524z M 966,529c0,0.553-0.447,1-1,1L 963,530 c-0.553,0-1-0.447-1-1l0-2 c0-0.553, 0.447-1, 1-1l 2,0 c 0.553,0, 1,0.447, 1,1L 966,529 z
			 M 991,514L 973,514 c-0.553,0-1,0.447-1,1l0,2 c0,0.553, 0.447,1, 1,1l 18,0 c 0.553,0, 1-0.447, 1-1L 992,515 C 992,514.447, 991.553,514, 991,514z"></path><path d="M 7,588L 1,588 c-0.553,0-1,0.447-1,1l0,6 c0,0.553, 0.447,1, 1,1l 6,0 c 0.553,0, 1-0.447, 1-1l0-6 
			C 8,588.447, 7.553,588, 7,588z M 6,593c0,0.553-0.447,1-1,1L 3,594 c-0.553,0-1-0.447-1-1l0-2 c0-0.553, 0.447-1, 1-1l 2,0 c 0.553,0, 1,0.447, 1,1L 6,593 z
			 M 7,576L 1,576 C 0.447,576,0,576.447,0,577l0,6 c0,0.553, 0.447,1, 1,1l 6,0 c 0.553,0, 1-1.447, 1-2L 8,577 C 8,576.447, 7.553,576, 7,576z M 6,581c0,0.553-0.447,1-1,1L 3,582 
			C 2.447,582, 2,581.553, 2,581L 2,579 c0-0.553, 0.447-1, 1-1l 2,0 c 0.553,0, 1,0.447, 1,1L 6,581 z M 7,600L 1,600 c-0.553,0-1,0.447-1,1l0,6 c0,0.553, 0.447,1, 1,1l 6,0 
			c 0.553,0, 1-0.447, 1-1l0-6 C 8,600.447, 7.553,600, 7,600z M 6,605c0,0.553-0.447,1-1,1L 3,606 c-0.553,0-1-0.447-1-1l0-2 c0-0.553, 0.447-1, 1-1l 2,0 
			c 0.553,0, 1,0.447, 1,1L 6,605 z M 19,588l-6,0 c-0.553,0-1,0.447-1,1l0,6 c0,0.553, 0.447,1, 1,1l 6,0 c 0.553,0, 1-0.447, 1-1l0-6 
			C 20,588.447, 19.553,588, 19,588z M 18,593c0,0.553-0.447,1-1,1l-2,0 c-0.553,0-1-0.447-1-1l0-2 c0-0.553, 0.447-1, 1-1l 2,0 c 0.553,0, 1,0.447, 1,1
			L 18,593 z M 19,600l-6,0 c-0.553,0-1,0.447-1,1l0,6 c0,0.553, 0.447,1, 1,1l 6,0 c 0.553,0, 1-0.447, 1-1l0-6 C 20,600.447, 19.553,600, 19,600z M 18,605
			c0,0.553-0.447,1-1,1l-2,0 c-0.553,0-1-0.447-1-1l0-2 c0-0.553, 0.447-1, 1-1l 2,0 c 0.553,0, 1,0.447, 1,1L 18,605 z M 31,588l-6,0 c-0.553,0-1,0.447-1,1
			l0,6 c0,0.553, 0.447,1, 1,1l 6,0 c 0.553,0, 1-0.447, 1-1l0-6 C 32,588.447, 31.553,588, 31,588z M 30,593c0,0.553-0.447,1-1,1l-2,0 c-0.553,0-1-0.447-1-1
			l0-2 c0-0.553, 0.447-1, 1-1l 2,0 c 0.553,0, 1,0.447, 1,1L 30,593 z M 31,576l-6,0 c-0.553,0-1,0.447-1,1l0,6 c0,0.553, 0.447,1, 1,1l 6,0 c 0.553,0, 1-1.447, 1-2L 32,577 
			C 32,576.447, 31.553,576, 31,576z M 30,581c0,0.553-0.447,1-1,1l-2,0 c-0.553,0-1-0.447-1-1L 26,579 c0-0.553, 0.447-1, 1-1l 2,0 c 0.553,0, 1,0.447, 1,1L 30,581 z
			 M 19,576l-6,0 c-0.553,0-1,0.447-1,1l0,6 c0,0.553, 0.447,1, 1,1l 6,0 c 0.553,0, 1-1.447, 1-2L 20,577 C 20,576.447, 19.553,576, 19,576z M 18,581
			c0,0.553-0.447,1-1,1l-2,0 c-0.553,0-1-0.447-1-1L 14,579 c0-0.553, 0.447-1, 1-1l 2,0 c 0.553,0, 1,0.447, 1,1L 18,581 z M 31,600l-6,0 c-0.553,0-1,0.447-1,1l0,6 
			c0,0.553, 0.447,1, 1,1l 6,0 c 0.553,0, 1-0.447, 1-1l0-6 C 32,600.447, 31.553,600, 31,600z M 30,605c0,0.553-0.447,1-1,1l-2,0 c-0.553,0-1-0.447-1-1
			l0-2 c0-0.553, 0.447-1, 1-1l 2,0 c 0.553,0, 1,0.447, 1,1L 30,605 z"></path></svg>