<?xml version="1.0" encoding="utf-8" standalone="no"?>
<svg id="level1"> 
<style type="text/css">
	.st0{stroke:#000000;stroke-width:2.223253e-002;stroke-linecap:round;stroke-linejoin:round;stroke-miterlimit:10;}
	.st3{stroke:#000000;stroke-width:2.162683e-002;stroke-linecap:round;stroke-linejoin:round;stroke-miterlimit:10;}
	.st15{stroke:#000000;stroke-width:1.730146e-002;stroke-linecap:round;stroke-linejoin:round;stroke-miterlimit:10;}
</style>
<polygon id="Walkable" class="st0" points="350.1,494.2 350.1,517.8 340.9,517.8 340.9,516.4 330.9,516.4 330.9,517.8 307.7,517.8 
	307.7,516.4 297.7,516.4 297.7,517.8 274.3,517.8 274.3,516.4 264.4,516.4 264.4,517.8 235.7,517.8 235.7,516.4 225.7,516.4 
	225.7,517.8 200.5,517.8 200.5,516.4 190.6,516.4 190.6,517.8 151.2,517.8 151.2,516.4 141.3,516.4 141.3,517.8 120.3,517.8 
	120.3,516.4 110.3,516.4 110.3,517.8 94.9,517.8 94.9,516.4 85,516.4 85,517.8 78.8,517.8 78.8,532.8 83.9,532.8 83.9,534.3 
	83.1,534.3 83.1,549.5 99.1,549.5 99.1,534.3 97.7,534.3 97.7,532.8 109,532.8 109,534.8 109,534.9 119,534.9 119,534.8 119,532.8 
	144.2,532.8 144.2,534.8 153.6,534.8 153.7,534.8 153.7,532.8 179.8,532.8 179.8,534.8 189.7,534.8 189.8,534.8 189.8,532.8 
	214.9,532.8 214.9,534.8 214.9,534.9 224.9,534.9 224.9,532.8 250.1,532.8 250.1,534.8 250.1,534.9 260.1,534.9 260.1,532.8 
	283.8,532.8 283.8,534.8 293.7,534.8 293.7,532.8 321.4,532.8 321.4,534.8 325.4,534.8 331.3,534.8 331.3,532.8 350.1,532.8 
	354.1,532.8 354.1,534.8 367.7,534.8 367.7,532.8 386.4,532.8 386.4,534.8 395.8,534.8 395.8,532.8 415.5,532.8 415.5,534.8 
	423.9,534.8 423.9,532.8 520.6,532.8 520.6,534.8 528.2,534.8 528.2,532.8 536.7,532.8 536.7,534.8 544.9,534.8 544.9,532.8 
	566.7,532.8 566.7,534.8 574.9,534.8 574.9,532.8 636.5,532.8 636.5,534.8 643.9,534.8 643.9,532.8 652.3,532.8 652.3,534.8 
	663.5,534.8 663.5,532.8 675.1,532.8 675.1,534.8 684.3,534.8 684.3,532.8 708,532.8 708,534.8 717.1,534.8 717.1,532.8 
	780.4,532.8 780.4,534.8 788.1,534.8 788.1,532.8 851.8,532.8 851.8,494.2"/>
<g id="A_x5F_Walls">
	<g id="ACAD_x5F_PROXY_x5F_ENTITY_99_">
		<polyline class="st0" points="849.7,490.1 849.7,494.2 76.1,494.2 76.1,490.1 849.7,490.1"/>
	</g>
	<g id="ACAD_x5F_PROXY_x5F_ENTITY_100_">
		<polyline class="st0" points="78.8,490.1 78.8,588 76.1,588 76.1,490.1 78.8,490.1"/>
	</g>
	<g id="ACAD_x5F_PROXY_x5F_ENTITY_101_">
		<polyline class="st0" points="478.9,583.9 478.9,588 76.1,588 76.1,583.9 478.9,583.9"/>
	</g>
	<g id="ACAD_x5F_PROXY_x5F_ENTITY_102_">
		<polyline class="st0" points="848.2,532.8 848.2,534.8 78.8,534.8 78.8,532.8 848.2,532.8"/>
	</g>
	<g id="ACAD_x5F_PROXY_x5F_ENTITY_104_">
		<polyline class="st0" points="348.9,516.4 348.9,517.8 78.8,517.8 78.8,516.4 348.9,516.4"/>
	</g>
	<g id="ACAD_x5F_PROXY_x5F_ENTITY_105_">
		<polyline class="st0" points="103.8,494.2 103.8,516.4 102.5,516.4 102.5,494.2 103.8,494.2"/>
	</g>
	<g id="ACAD_x5F_PROXY_x5F_ENTITY_106_">
		<polyline class="st0" points="137.9,494.2 137.9,516.4 136.7,516.4 136.7,494.2 137.9,494.2"/>
	</g>
	<g id="ACAD_x5F_PROXY_x5F_ENTITY_107_">
		<polyline class="st0" points="173.1,494.2 173.1,516.5 171.9,516.5 171.9,494.2 173.1,494.2"/>
	</g>
	<g id="ACAD_x5F_PROXY_x5F_ENTITY_108_">
		<polyline class="st0" points="207.5,494.2 207.5,516.4 206.3,516.4 206.3,494.2 207.5,494.2"/>
	</g>
	<g id="ACAD_x5F_PROXY_x5F_ENTITY_109_">
		<polyline class="st0" points="242.7,494.2 242.7,516.4 241.5,516.4 241.5,494.2 242.7,494.2"/>
	</g>
	<g id="ACAD_x5F_PROXY_x5F_ENTITY_110_">
		<polyline class="st0" points="277.7,494.2 277.7,516.4 276.4,516.4 276.4,494.2 277.7,494.2"/>
	</g>
	<g id="ACAD_x5F_PROXY_x5F_ENTITY_111_">
		<polyline class="st0" points="311.6,494.2 311.6,516.4 310.3,516.4 310.3,494.2 311.6,494.2"/>
	</g>
	<g id="ACAD_x5F_PROXY_x5F_ENTITY_112_">
		<polyline class="st0" points="103.8,534.8 103.8,583.9 102.5,583.9 102.5,534.8 103.8,534.8"/>
	</g>
	<g id="ACAD_x5F_PROXY_x5F_ENTITY_113_">
		<polyline class="st0" points="137.9,534.8 137.9,583.9 136.7,583.9 136.7,534.8 137.9,534.8"/>
	</g>
	<g id="ACAD_x5F_PROXY_x5F_ENTITY_114_">
		<polyline class="st0" points="207.5,534.8 207.5,583.9 206.3,583.9 206.3,534.8 207.5,534.8"/>
	</g>
	<g id="ACAD_x5F_PROXY_x5F_ENTITY_115_">
		<polyline class="st0" points="244.2,534.8 244.2,583.9 242.9,583.9 242.9,534.8 244.2,534.8"/>
	</g>
	<g id="ACAD_x5F_PROXY_x5F_ENTITY_116_">
		<polyline class="st0" points="277.7,534.8 277.7,583.9 276.4,583.9 276.4,534.8 277.7,534.8"/>
	</g>
	<g id="ACAD_x5F_PROXY_x5F_ENTITY_117_">
		<polyline class="st0" points="311.6,534.8 311.6,583.9 310.3,583.9 310.3,534.8 311.6,534.8"/>
	</g>
	<g id="ACAD_x5F_PROXY_x5F_ENTITY_118_">
		<polyline class="st0" points="350.1,534.8 350.1,583.9 347.7,583.9 347.7,534.8 350.1,534.8"/>
	</g>
	<g id="ACAD_x5F_PROXY_x5F_ENTITY_119_">
		<polyline class="st0" points="374.6,534.8 374.6,583.9 373.4,583.9 373.4,534.8 374.6,534.8"/>
	</g>
	<g id="ACAD_x5F_PROXY_x5F_ENTITY_128_">
		<polyline class="st0" points="347.7,548.7 347.7,549.9 311.6,549.9 311.6,548.7 347.7,548.7"/>
	</g>
	<g id="ACAD_x5F_PROXY_x5F_ENTITY_129_">
		<polyline class="st0" points="408.2,548.7 408.2,549.9 374.6,549.9 374.6,548.7 408.2,548.7"/>
	</g>
	<g id="ACAD_x5F_PROXY_x5F_ENTITY_130_">
		<polyline class="st0" points="350.1,494.2 350.1,517.8 348.9,517.8 348.9,494.2 350.1,494.2"/>
	</g>
	<g id="ACAD_x5F_PROXY_x5F_ENTITY_139_">
		<polyline class="st0" points="320.2,549.9 320.2,579.6 319,579.6 319,549.9 320.2,549.9"/>
	</g>
	<g id="ACAD_x5F_PROXY_x5F_ENTITY_140_">
		<polyline class="st0" points="320.2,578.3 320.2,579.6 311.6,579.6 311.6,578.3 320.2,578.3"/>
	</g>
	<g id="ACAD_x5F_PROXY_x5F_ENTITY_141_">
		<polyline class="st0" points="350.1,517.8 350.1,532.8 348.8,532.8 348.8,517.8 350.1,517.8"/>
	</g>
	<g id="ACAD_x5F_PROXY_x5F_ENTITY_161_">
		<polyline class="st0" points="403.1,532.8 403.1,534.8 377.1,534.8 377.1,532.8 403.1,532.8"/>
	</g>
	<g id="ACAD_x5F_PROXY_x5F_ENTITY_162_">
		<polyline class="st0" points="409.5,534.8 409.5,583.9 408.2,583.9 408.2,534.8 409.5,534.8"/>
	</g>
	<g id="ACAD_x5F_PROXY_x5F_ENTITY_165_">
		<polyline class="st0" points="173.1,534.8 173.1,583.9 171.9,583.9 171.9,534.8 173.1,534.8"/>
	</g>
	<g id="ACAD_x5F_PROXY_x5F_ENTITY_174_">
		<polyline class="st0" points="383.3,549.9 383.3,579.6 382,579.6 382,549.9 383.3,549.9"/>
	</g>
	<g id="ACAD_x5F_PROXY_x5F_ENTITY_175_">
		<polyline class="st0" points="383.3,578.3 383.3,579.6 373.4,579.6 373.4,578.3 383.3,578.3"/>
	</g>
	<g id="ololo">
		<polyline class="st0" points="400.8,549.9 400.8,579.6 399.5,579.6 399.5,549.9 400.8,549.9"/>
	</g>
	<g id="ACAD_x5F_PROXY_x5F_ENTITY_22_">
		<polyline class="st3" points="405,588 795.7,588 795.7,583.9 405,583.9 405,588"/>
	</g>
	<g id="ACAD_x5F_PROXY_x5F_ENTITY_16_">
		<polyline class="st3" points="441.2,583.9 442.6,583.9 442.6,534.8 441.2,534.8 441.2,583.9"/>
	</g>
	<g id="ACAD_x5F_PROXY_x5F_ENTITY_15_">
		<polyline class="st3" points="559.6,583.9 561.1,583.9 561.1,534.8 559.6,534.8 559.6,583.9"/>
	</g>
	<g id="ACAD_x5F_PROXY_x5F_ENTITY_14_">
		<polyline class="st3" points="644.8,583.9 646.2,583.9 646.2,534.8 644.8,534.8 644.8,583.9"/>
	</g>
	<g id="ACAD_x5F_PROXY_x5F_ENTITY_13_">
		<polyline class="st3" points="528.7,583.9 530.1,583.9 530.1,534.8 528.7,534.8 528.7,583.9"/>
	</g>
	<g id="ACAD_x5F_PROXY_x5F_ENTITY_11_">
		<polyline class="st3" points="441.2,532.8 442.5,532.8 442.5,494.2 441.2,494.2 441.2,532.8"/>
	</g>
	<g id="ACAD_x5F_PROXY_x5F_ENTITY_10_">
		<polyline class="st3" points="518.6,576 520,576 520,534.8 518.6,534.8 518.6,576"/>
	</g>
	<g id="ACAD_x5F_PROXY_x5F_ENTITY_9_">
		<polyline class="st3" points="788.1,583.9 791.1,583.9 791.1,534.8 788.1,534.8 788.1,583.9"/>
	</g>
	<g id="ACAD_x5F_PROXY_x5F_ENTITY_6_">
		<polyline class="st3" points="634.7,576 636.1,576 636.1,534.8 634.7,534.8 634.7,576"/>
	</g>
	<g id="ACAD_x5F_PROXY_x5F_ENTITY_5_">
		<polyline class="st3" points="702.4,583.9 703.8,583.9 703.8,534.8 702.4,534.8 702.4,583.9"/>
	</g>
	<g id="ACAD_x5F_PROXY_x5F_ENTITY_2_">
		<polyline class="st3" points="668.1,583.9 669.4,583.9 669.4,534.8 668.1,534.8 668.1,583.9"/>
	</g>
	<g id="ACAD_x5F_PROXY_x5F_ENTITY_164_">
		<polyline class="st3" points="778,576 779.3,576 779.3,534.8 778,534.8 778,576"/>
	</g>
	<rect x="399.5" y="578.3" class="st0" width="9.9" height="1.3"/>
</g>
<g id="МОЙ_СЛОЙ">
	<g id="LINE_84_">
		<line class="st0" x1="311.6" y1="568.9" x2="319" y2="568.9"/>
	</g>
	<g id="LINE_85_">
		<line class="st0" x1="311.6" y1="573.8" x2="319" y2="573.8"/>
	</g>
	<g id="LINE_86_">
		<line class="st0" x1="350.1" y1="516.4" x2="350.1" y2="517.8"/>
	</g>
	<g id="LINE_87_">
		<line class="st0" x1="78.8" y1="571.4" x2="102.5" y2="571.4"/>
	</g>
	<g id="LINE_88_">
		<line class="st0" x1="78.8" y1="569.5" x2="90.3" y2="569.5"/>
	</g>
	<g id="LINE_89_">
		<line class="st0" x1="91.1" y1="569.5" x2="101.5" y2="569.5"/>
	</g>
	<g id="LINE_90_">
		<line class="st0" x1="102.5" y1="569.5" x2="102.5" y2="569.5"/>
	</g>
	<g id="LINE_91_">
		<line class="st0" x1="78.8" y1="568.1" x2="90.3" y2="568.1"/>
	</g>
	<g id="LINE_92_">
		<line class="st0" x1="91.1" y1="568.1" x2="100.8" y2="568.1"/>
	</g>
	<g id="LINE_93_">
		<line class="st0" x1="101.7" y1="568.1" x2="102.5" y2="568.1"/>
	</g>
	<g id="LINE_94_">
		<line class="st0" x1="78.8" y1="566.3" x2="90.3" y2="566.3"/>
	</g>
	<g id="LINE_95_">
		<line class="st0" x1="91.1" y1="566.3" x2="99.7" y2="566.3"/>
	</g>
	<g id="LINE_96_">
		<line class="st0" x1="100.7" y1="566.3" x2="102.5" y2="566.3"/>
	</g>
	<g id="LINE_97_">
		<line class="st0" x1="78.8" y1="564.5" x2="90.3" y2="564.5"/>
	</g>
	<g id="LINE_98_">
		<line class="st0" x1="91.1" y1="564.5" x2="98.8" y2="564.5"/>
	</g>
	<g id="LINE_99_">
		<line class="st0" x1="99.7" y1="564.5" x2="102.5" y2="564.5"/>
	</g>
	<g id="LINE_100_">
		<line class="st0" x1="78.8" y1="562.8" x2="90.3" y2="562.8"/>
	</g>
	<g id="LINE_101_">
		<line class="st0" x1="91.1" y1="562.8" x2="97.8" y2="562.8"/>
	</g>
	<g id="LINE_102_">
		<line class="st0" x1="98.8" y1="562.8" x2="102.5" y2="562.8"/>
	</g>
	<g id="LINE_103_">
		<line class="st0" x1="78.8" y1="561" x2="90.3" y2="561"/>
	</g>
	<g id="LINE_104_">
		<line class="st0" x1="91.1" y1="561" x2="96.9" y2="561"/>
	</g>
	<g id="LINE_105_">
		<line class="st0" x1="97.8" y1="561" x2="102.5" y2="561"/>
	</g>
	<g id="LINE_106_">
		<line class="st0" x1="78.8" y1="559.3" x2="90.3" y2="559.3"/>
	</g>
	<g id="LINE_107_">
		<line class="st0" x1="91.1" y1="559.3" x2="95.9" y2="559.3"/>
	</g>
	<g id="LINE_108_">
		<line class="st0" x1="96.9" y1="559.3" x2="102.5" y2="559.3"/>
	</g>
	<g id="LINE_109_">
		<line class="st0" x1="78.8" y1="557.4" x2="90.3" y2="557.4"/>
	</g>
	<g id="LINE_110_">
		<line class="st0" x1="91.1" y1="557.4" x2="94.9" y2="557.4"/>
	</g>
	<g id="LINE_111_">
		<line class="st0" x1="95.8" y1="557.4" x2="102.5" y2="557.4"/>
	</g>
	<g id="LINE_112_">
		<line class="st0" x1="78.8" y1="555.9" x2="90.3" y2="555.9"/>
	</g>
	<g id="LINE_113_">
		<line class="st0" x1="91.1" y1="555.9" x2="94" y2="555.9"/>
	</g>
	<g id="LINE_114_">
		<line class="st0" x1="95" y1="555.9" x2="102.5" y2="555.9"/>
	</g>
	<g id="LINE_115_">
		<line class="st0" x1="78.8" y1="554.2" x2="90.3" y2="554.2"/>
	</g>
	<g id="LINE_116_">
		<line class="st0" x1="91.1" y1="554.2" x2="93.1" y2="554.2"/>
	</g>
	<g id="LINE_117_">
		<line class="st0" x1="94.1" y1="554.2" x2="102.5" y2="554.2"/>
	</g>
	<g id="LINE_118_">
		<line class="st0" x1="78.8" y1="552.1" x2="90.3" y2="552.1"/>
	</g>
	<g id="LINE_119_">
		<line class="st0" x1="91.1" y1="552.1" x2="92" y2="552.1"/>
	</g>
	<g id="LINE_120_">
		<line class="st0" x1="92.9" y1="552.1" x2="102.5" y2="552.1"/>
	</g>
	<g id="LINE_121_">
		<line class="st0" x1="78.8" y1="550.5" x2="102.5" y2="550.5"/>
	</g>
	<g id="LINE_122_">
		<line class="st0" x1="90.3" y1="571.4" x2="90.3" y2="550.5"/>
	</g>
	<g id="LINE_123_">
		<line class="st0" x1="91.1" y1="571.4" x2="91.1" y2="550.5"/>
	</g>
	<g id="LINE_124_">
		<line class="st0" x1="102.5" y1="571.4" x2="91.1" y2="550.5"/>
	</g>
	<g id="LINE_125_">
		<line class="st0" x1="102.5" y1="569.6" x2="92" y2="550.5"/>
	</g>
	<g id="LINE_136_">
		<line class="st0" x1="350.1" y1="551.2" x2="373.4" y2="551.2"/>
	</g>
	<g id="LINE_137_">
		<line class="st0" x1="350.1" y1="553.1" x2="373.4" y2="553.1"/>
	</g>
	<g id="LINE_138_">
		<line class="st0" x1="350.1" y1="554.9" x2="373.4" y2="554.9"/>
	</g>
	<g id="LINE_139_">
		<line class="st0" x1="350.1" y1="556.6" x2="373.4" y2="556.6"/>
	</g>
	<g id="LINE_140_">
		<line class="st0" x1="350.1" y1="558.3" x2="373.4" y2="558.3"/>
	</g>
	<g id="LINE_141_">
		<line class="st0" x1="350.1" y1="559.9" x2="373.4" y2="559.9"/>
	</g>
	<g id="LINE_142_">
		<line class="st0" x1="350.1" y1="561.7" x2="373.4" y2="561.7"/>
	</g>
	<g id="LINE_143_">
		<line class="st0" x1="350.1" y1="563.5" x2="373.4" y2="563.5"/>
	</g>
	<g id="LINE_144_">
		<line class="st0" x1="350.1" y1="565.2" x2="373.4" y2="565.2"/>
	</g>
	<g id="LINE_145_">
		<line class="st0" x1="350.1" y1="567.1" x2="373.4" y2="567.1"/>
	</g>
	<g id="LINE_146_">
		<line class="st0" x1="350.1" y1="568.7" x2="373.4" y2="568.7"/>
	</g>
	<g id="LINE_147_">
		<line class="st0" x1="350.1" y1="570.2" x2="373.4" y2="570.2"/>
	</g>
	<g id="LINE_148_">
		<line class="st0" x1="350.1" y1="571.8" x2="373.4" y2="571.8"/>
	</g>
	<g id="LINE_149_">
		<line class="st0" x1="361.3" y1="551.2" x2="361.3" y2="571.8"/>
	</g>
	<g id="LINE_150_">
		<line class="st0" x1="362.1" y1="551.2" x2="362.1" y2="571.8"/>
	</g>
	<g id="LINE_157_">
		<line class="st0" x1="311.6" y1="557.9" x2="319" y2="557.9"/>
	</g>
	<g id="LINE_158_">
		<line class="st0" x1="311.6" y1="563.6" x2="319" y2="563.6"/>
	</g>
	<g id="LINE_159_">
		<line class="st0" x1="374.6" y1="568.9" x2="382" y2="568.9"/>
	</g>
	<g id="LINE_160_">
		<line class="st0" x1="374.6" y1="573.8" x2="382" y2="573.8"/>
	</g>
	<g id="LINE_161_">
		<line class="st0" x1="374.6" y1="557.9" x2="382" y2="557.9"/>
	</g>
	<g id="LINE_162_">
		<line class="st0" x1="374.6" y1="563.6" x2="382" y2="563.6"/>
	</g>
	<g id="LINE_163_">
		<line class="st0" x1="408.2" y1="568.9" x2="400.8" y2="568.9"/>
	</g>
	<g id="LINE_164_">
		<line class="st0" x1="408.2" y1="573.8" x2="400.8" y2="573.8"/>
	</g>
	<g id="LINE_165_">
		<line class="st0" x1="408.2" y1="557.9" x2="400.8" y2="557.9"/>
	</g>
	<g id="LINE_166_">
		<line class="st0" x1="408.2" y1="563.6" x2="400.8" y2="563.6"/>
	</g>
	<g id="LINE_197_">
		<line class="st3" x1="646.4" y1="548.1" x2="668.1" y2="548.1"/>
	</g>
	<g id="LINE_196_">
		<line class="st3" x1="646.4" y1="549.8" x2="656.9" y2="549.8"/>
	</g>
	<g id="LINE_195_">
		<line class="st3" x1="657.6" y1="549.8" x2="668.1" y2="549.8"/>
	</g>
	<g id="LINE_194_">
		<line class="st3" x1="646.4" y1="551.8" x2="656.9" y2="551.8"/>
	</g>
	<g id="LINE_193_">
		<line class="st3" x1="655.8" y1="551.8" x2="656.9" y2="551.8"/>
	</g>
	<g id="LINE_192_">
		<line class="st3" x1="657.6" y1="551.8" x2="668.1" y2="551.8"/>
	</g>
	<g id="LINE_191_">
		<line class="st3" x1="646.4" y1="553.6" x2="656.9" y2="553.6"/>
	</g>
	<g id="LINE_190_">
		<line class="st3" x1="648.4" y1="553.6" x2="656.9" y2="553.6"/>
	</g>
	<g id="LINE_189_">
		<line class="st3" x1="657.6" y1="553.6" x2="668.1" y2="553.6"/>
	</g>
	<g id="LINE_188_">
		<line class="st3" x1="646.4" y1="555.4" x2="656.9" y2="555.4"/>
	</g>
	<g id="LINE_187_">
		<line class="st3" x1="653.9" y1="555.4" x2="656.9" y2="555.4"/>
	</g>
	<g id="LINE_186_">
		<line class="st3" x1="657.6" y1="555.4" x2="668.1" y2="555.4"/>
	</g>
	<g id="LINE_185_">
		<line class="st3" x1="646.4" y1="557.2" x2="652" y2="557.2"/>
	</g>
	<g id="LINE_184_">
		<line class="st3" x1="652" y1="557.2" x2="656.9" y2="557.2"/>
	</g>
	<g id="LINE_183_">
		<line class="st3" x1="657.6" y1="557.2" x2="668.1" y2="557.2"/>
	</g>
	<g id="LINE_182_">
		<line class="st3" x1="646.4" y1="558.8" x2="651.2" y2="558.8"/>
	</g>
	<g id="LINE_181_">
		<line class="st3" x1="651.2" y1="558.8" x2="656.9" y2="558.8"/>
	</g>
	<g id="LINE_180_">
		<line class="st3" x1="657.6" y1="558.8" x2="668.1" y2="558.8"/>
	</g>
	<g id="LINE_179_">
		<line class="st3" x1="646.4" y1="560.7" x2="653.5" y2="560.7"/>
	</g>
	<g id="LINE_178_">
		<line class="st3" x1="646.4" y1="560.7" x2="656.9" y2="560.7"/>
	</g>
	<g id="LINE_177_">
		<line class="st3" x1="657.6" y1="560.7" x2="668.1" y2="560.7"/>
	</g>
	<g id="LINE_176_">
		<line class="st3" x1="646.4" y1="562.5" x2="649.2" y2="562.5"/>
	</g>
	<g id="LINE_175_">
		<line class="st3" x1="646.4" y1="562.5" x2="656.9" y2="562.5"/>
	</g>
	<g id="LINE_174_">
		<line class="st3" x1="657.6" y1="562.5" x2="668.1" y2="562.5"/>
	</g>
	<g id="LINE_173_">
		<line class="st3" x1="646.4" y1="564.4" x2="648.2" y2="564.4"/>
	</g>
	<g id="LINE_172_">
		<line class="st3" x1="646.4" y1="564.4" x2="656.9" y2="564.4"/>
	</g>
	<g id="LINE_171_">
		<line class="st3" x1="657.6" y1="564.4" x2="668.1" y2="564.4"/>
	</g>
	<g id="LINE_170_">
		<line class="st3" x1="646.4" y1="566" x2="652.7" y2="566"/>
	</g>
	<g id="LINE_169_">
		<line class="st3" x1="646.4" y1="566" x2="656.9" y2="566"/>
	</g>
	<g id="LINE_168_">
		<line class="st3" x1="657.6" y1="566" x2="668.1" y2="566"/>
	</g>
	<g id="LINE_167_">
		<line class="st3" x1="646.4" y1="567.8" x2="656.9" y2="567.8"/>
	</g>
	<g id="LINE_156_">
		<line class="st3" x1="657.6" y1="567.8" x2="668.1" y2="567.8"/>
	</g>
	<g id="LINE_155_">
		<line class="st3" x1="646.4" y1="569.5" x2="668.1" y2="569.5"/>
	</g>
	<g id="LINE_154_">
		<line class="st3" x1="656.9" y1="548.1" x2="656.9" y2="569.5"/>
	</g>
	<g id="LINE_153_">
		<line class="st3" x1="657.6" y1="548.1" x2="657.6" y2="569.5"/>
	</g>
	<g id="LINE_129_">
		<line class="st3" x1="779.3" y1="570.5" x2="788.1" y2="570.5"/>
	</g>
	<g id="LINE_128_">
		<line class="st3" x1="779.3" y1="568.9" x2="788.1" y2="568.9"/>
	</g>
	<g id="LINE_127_">
		<line class="st3" x1="779.3" y1="567.1" x2="788.1" y2="567.1"/>
	</g>
	<g id="LINE_126_">
		<line class="st3" x1="779.3" y1="565.5" x2="788.1" y2="565.5"/>
	</g>
	<g id="LINE_30_">
		<line class="st3" x1="779.3" y1="563.7" x2="788.1" y2="563.7"/>
	</g>
	<g id="LINE_29_">
		<line class="st3" x1="779.3" y1="561.8" x2="788.1" y2="561.8"/>
	</g>
	<g id="LINE_28_">
		<line class="st3" x1="779.3" y1="559.3" x2="788.1" y2="559.3"/>
	</g>
	<g id="LINE_27_">
		<line class="st3" x1="779.3" y1="557.7" x2="788.1" y2="557.7"/>
	</g>
	<g id="LINE_26_">
		<line class="st3" x1="779.3" y1="556" x2="788.1" y2="556"/>
	</g>
	<g id="LINE_25_">
		<line class="st3" x1="779.3" y1="554.5" x2="788.1" y2="554.5"/>
	</g>
	<g id="LINE_24_">
		<line class="st3" x1="779.3" y1="552.9" x2="788.1" y2="552.9"/>
	</g>
	<g id="LINE_23_">
		<line class="st3" x1="668.1" y1="548.1" x2="668.1" y2="569.5"/>
	</g>
</g>
<g id="A_x5F_Doors">
	<g id="door-A219">
		<polyline class="st0" points="97.6,532.8 97.6,534.8 83.9,534.8 83.9,532.8 97.6,532.8"/>
	</g>
	<g id="door-A218">
		<polyline class="st0" points="119,532.8 119,534.8 109,534.8 109,532.8 119,532.8"/>
	</g>
	<g id="door-A217">
		<polyline class="st0" points="189.7,532.8 189.7,534.8 179.8,534.8 179.8,532.8 189.7,532.8"/>
	</g>
	<g id="door-A207">
		<polyline class="st0" points="224.8,532.8 224.8,534.8 214.9,534.8 214.9,532.8 224.8,532.8"/>
	</g>
	<g id="door-A206">
		<polyline class="st0" points="260,532.8 260,534.8 250.1,534.8 250.1,532.8 260,532.8"/>
	</g>
	<g>
		<polyline class="st0" points="293.7,532.8 293.7,534.8 283.8,534.8 283.8,532.8 293.7,532.8"/>
	</g>
	<g>
		<polyline class="st0" points="331.3,532.8 331.3,534.8 321.4,534.8 321.4,532.8 331.3,532.8"/>
	</g>
	<g>
		<polyline class="st0" points="367.7,532.8 367.7,534.8 354.1,534.8 354.1,532.8 367.7,532.8"/>
	</g>
	<g id="door-A211">
		<polyline class="st0" points="94.9,516.4 94.9,517.8 85,517.8 85,516.4 94.9,516.4"/>
	</g>
	<g id="door-A212">
		<polyline class="st0" points="120.3,516.4 120.3,517.8 110.3,517.8 110.3,516.4 120.3,516.4"/>
	</g>
	<g id="door-A213">
		<polyline class="st0" points="151.2,516.4 151.2,517.8 141.3,517.8 141.3,516.4 151.2,516.4"/>
	</g>
	<g id="door-A214">
		<polyline class="st0" points="200.5,516.4 200.5,517.8 190.6,517.8 190.6,516.4 200.5,516.4"/>
	</g>
	<g id="door-A215">
		<polyline class="st0" points="235.7,516.4 235.7,517.8 225.7,517.8 225.7,516.4 235.7,516.4"/>
	</g>
	<g id="door-A216">
		<polyline class="st0" points="274.3,516.4 274.3,517.8 264.4,517.8 264.4,516.4 274.3,516.4"/>
	</g>
	<g id="door-A205">
		<polyline class="st0" points="340.9,516.4 340.9,517.8 330.9,517.8 330.9,516.4 340.9,516.4"/>
	</g>
	<g id="door-A204">
		<polyline class="st0" points="330.2,548.7 330.2,550 322.5,550 322.5,548.7 330.2,548.7"/>
	</g>
	<g id="door-A203">
		<polyline class="st0" points="350.1,519.5 350.1,528.9 348.8,528.9 348.8,519.5 350.1,519.5"/>
	</g>
	<g id="door-A202">
		<polyline class="st0" points="320.2,573.9 320.2,578.3 319,578.3 319,573.9 320.2,573.9"/>
	</g>
	<g id="door-A201">
		<polyline class="st0" points="319,573.4 320.2,573.4 320.2,569 319,569 319,573.4"/>
	</g>
	<g id="door-A220">
		<polyline class="st0" points="320.2,564 320.2,568.3 319,568.3 319,564 320.2,564"/>
	</g>
	<g id="door-A221">
		<polyline class="st0" points="320.2,558.2 320.2,562.6 319,562.6 319,558.2 320.2,558.2"/>
	</g>
	<g id="door-A222">
		<polyline class="st0" points="320.2,552 320.2,556.3 319,556.3 319,552 320.2,552"/>
	</g>
	<g id="door-A223">
		<polyline class="st0" points="383.3,573.9 383.3,578.3 382,578.3 382,573.9 383.3,573.9"/>
	</g>
	<g id="ACAD_x5F_PROXY_x5F_ENTITY_177_">
		<polyline class="st0" points="383.3,569 383.3,573.4 382,573.4 382,569 383.3,569"/>
	</g>
	<g id="ACAD_x5F_PROXY_x5F_ENTITY_178_">
		<polyline class="st0" points="383.3,564 383.3,568.3 382,568.3 382,564 383.3,564"/>
	</g>
	<g id="ACAD_x5F_PROXY_x5F_ENTITY_179_">
		<polyline class="st0" points="383.3,558.2 383.3,562.6 382,562.6 382,558.2 383.3,558.2"/>
	</g>
	<g id="ACAD_x5F_PROXY_x5F_ENTITY_180_">
		<polyline class="st0" points="383.3,552 383.3,556.3 382,556.3 382,552 383.3,552"/>
	</g>
	<g id="ACAD_x5F_PROXY_x5F_ENTITY_183_">
		<polyline class="st0" points="400.8,573.9 400.8,578.3 399.5,578.3 399.5,573.9 400.8,573.9"/>
	</g>
	<g id="ACAD_x5F_PROXY_x5F_ENTITY_184_">
		<polyline class="st0" points="400.8,569 400.8,573.4 399.5,573.4 399.5,569 400.8,569"/>
	</g>
	<g id="ACAD_x5F_PROXY_x5F_ENTITY_185_">
		<polyline class="st0" points="400.8,564 400.8,568.3 399.5,568.3 399.5,564 400.8,564"/>
	</g>
	<g id="ACAD_x5F_PROXY_x5F_ENTITY_186_">
		<polyline class="st0" points="400.8,558.2 400.8,562.6 399.5,562.6 399.5,558.2 400.8,558.2"/>
	</g>
	<g id="ACAD_x5F_PROXY_x5F_ENTITY_187_">
		<polyline class="st0" points="400.8,552 400.8,556.3 399.5,556.3 399.5,552 400.8,552"/>
	</g>
	<g id="ACAD_x5F_PROXY_x5F_ENTITY_188_">
		<polyline class="st0" points="393.5,548.7 393.5,549.9 385.9,549.9 385.9,548.7 393.5,548.7"/>
	</g>
	<g id="ACAD_x5F_PROXY_x5F_ENTITY_189_">
		<polyline class="st0" points="395.8,532.8 395.8,534.8 386.4,534.8 386.4,532.8 395.8,532.8"/>
	</g>
	<g id="ACAD_x5F_PROXY_x5F_ENTITY_190_">
		<polyline class="st0" points="153.7,532.8 153.7,534.8 144.2,534.8 144.2,532.8 153.7,532.8"/>
	</g>
	<g id="ACAD_x5F_PROXY_x5F_ENTITY_1_">
		<polyline class="st0" points="307.7,516.4 307.7,517.8 297.7,517.8 297.7,516.4 307.7,516.4"/>
	</g>
	<line class="st0" x1="325.4" y1="534.8" x2="335.3" y2="534.8"/>
	<g id="ACAD_x5F_PROXY_x5F_ENTITY_37_">
		<polyline class="st3" points="536.7,534.8 544.9,534.8 544.9,532.8 536.7,532.8 536.7,534.8"/>
	</g>
	<g id="ACAD_x5F_PROXY_x5F_ENTITY_36_">
		<polyline class="st3" points="566.7,534.8 574.9,534.8 574.9,532.8 566.7,532.8 566.7,534.8"/>
	</g>
	<g id="ACAD_x5F_PROXY_x5F_ENTITY_35_">
		<polyline class="st3" points="652.3,534.8 663.5,534.8 663.5,532.8 652.3,532.8 652.3,534.8"/>
	</g>
	<g id="door-A219">
		<polyline class="st3" points="415.5,534.8 423.9,534.8 423.9,532.8 415.5,532.8 415.5,534.8"/>
	</g>
	<g id="ACAD_x5F_PROXY_x5F_ENTITY_33_">
		<polyline class="st3" points="636.5,534.8 643.9,534.8 643.9,532.8 636.5,532.8 636.5,534.8"/>
	</g>
	<g id="ACAD_x5F_PROXY_x5F_ENTITY_32_">
		<polyline class="st3" points="675.1,534.8 684.3,534.8 684.3,532.8 675.1,532.8 675.1,534.8"/>
	</g>
	<g id="ACAD_x5F_PROXY_x5F_ENTITY_31_">
		<polyline class="st3" points="708,534.8 717.1,534.8 717.1,532.8 708,532.8 708,534.8"/>
	</g>
	<g id="ACAD_x5F_PROXY_x5F_ENTITY_30_">
		<polyline class="st3" points="780.4,534.8 788.1,534.8 788.1,532.8 780.4,532.8 780.4,534.8"/>
	</g>
	<g id="ACAD_x5F_PROXY_x5F_ENTITY_29_">
		<polyline class="st3" points="702.4,579.9 703.8,579.9 703.8,572.2 702.4,572.2 702.4,579.9"/>
	</g>
	<g id="ACAD_x5F_PROXY_x5F_ENTITY_166_">
		<polyline class="st3" points="702.4,545.7 703.8,545.7 703.8,538.1 702.4,538.1 702.4,545.7"/>
	</g>
	<g id="ACAD_x5F_PROXY_x5F_ENTITY_167_">
		<polyline class="st3" points="559.6,579.9 561.1,579.9 561.1,572.2 559.6,572.2 559.6,579.9"/>
	</g>
	<g id="ACAD_x5F_PROXY_x5F_ENTITY_168_">
		<polyline class="st3" points="559.6,545.7 561.1,545.7 561.1,538 559.6,538 559.6,545.7"/>
	</g>
	<g id="ACAD_x5F_PROXY_x5F_ENTITY_28_">
		<polyline class="st3" points="441.2,579.9 442.6,579.9 442.6,572.2 441.2,572.2 441.2,579.9"/>
	</g>
	<g id="ACAD_x5F_PROXY_x5F_ENTITY_27_">
		<polyline class="st3" points="441.2,546.1 442.6,546.1 442.6,538.5 441.2,538.5 441.2,546.1"/>
	</g>
	<g id="ACAD_x5F_PROXY_x5F_ENTITY_26_">
		<polyline class="st3" points="441.2,522.4 442.4,522.4 442.4,513.3 441.2,513.3 441.2,522.4"/>
	</g>
	<g id="ACAD_x5F_PROXY_x5F_ENTITY_25_">
		<polyline class="st3" points="441.2,511.3 442.5,511.3 442.5,502.2 441.2,502.2 441.2,511.3"/>
	</g>
	<g id="ACAD_x5F_PROXY_x5F_ENTITY_24_">
		<polyline class="st3" points="520.6,534.8 528.2,534.8 528.2,532.8 520.6,532.8 520.6,534.8"/>
	</g>
	<line class="st0" x1="325.4" y1="534.8" x2="335.3" y2="534.8"/>
</g>
<g id="A_x5F_Windows">
	<g id="ACAD_x5F_PROXY_x5F_ENTITY_143_">
		<polyline class="st0" points="136.7,491.2 136.7,493.1 106.5,493.1 106.5,491.2 136.7,491.2"/>
	</g>
	<g id="ACAD_x5F_PROXY_x5F_ENTITY_144_">
		<polyline class="st0" points="171.9,491.2 171.9,493.1 140.4,493.1 140.4,491.2 171.9,491.2"/>
	</g>
	<g id="ACAD_x5F_PROXY_x5F_ENTITY_145_">
		<polyline class="st0" points="206.3,491.2 206.3,493.1 175.6,493.1 175.6,491.2 206.3,491.2"/>
	</g>
	<g id="ACAD_x5F_PROXY_x5F_ENTITY_146_">
		<polyline class="st0" points="241.5,491.2 241.5,493.1 210,493.1 210,491.2 241.5,491.2"/>
	</g>
	<g id="ACAD_x5F_PROXY_x5F_ENTITY_147_">
		<polyline class="st0" points="276.4,491.2 276.4,493.1 245.2,493.1 245.2,491.2 276.4,491.2"/>
	</g>
	<g id="ACAD_x5F_PROXY_x5F_ENTITY_148_">
		<polyline class="st0" points="310.3,491.2 310.3,493.1 280.2,493.1 280.2,491.2 310.3,491.2"/>
	</g>
	<g id="ACAD_x5F_PROXY_x5F_ENTITY_149_">
		<polyline class="st0" points="346.4,491.2 346.4,493.1 314.1,493.1 314.1,491.2 346.4,491.2"/>
	</g>
	<g id="ACAD_x5F_PROXY_x5F_ENTITY_150_">
		<polyline class="st0" points="373.4,491.2 373.4,493.1 350.1,493.1 350.1,491.2 373.4,491.2"/>
	</g>
	<g id="ACAD_x5F_PROXY_x5F_ENTITY_151_">
		<polyline class="st0" points="407.3,491.2 407.3,493.1 377.1,493.1 377.1,491.2 407.3,491.2"/>
	</g>
	<g id="ACAD_x5F_PROXY_x5F_ENTITY_152_">
		<polyline class="st0" points="136.7,585 136.7,586.9 106.5,586.9 106.5,585 136.7,585"/>
	</g>
	<g id="ACAD_x5F_PROXY_x5F_ENTITY_153_">
		<polyline class="st0" points="171.9,585 171.9,586.9 140.4,586.9 140.4,585 171.9,585"/>
	</g>
	<g id="ACAD_x5F_PROXY_x5F_ENTITY_154_">
		<polyline class="st0" points="206.3,585 206.3,586.9 175.6,586.9 175.6,585 206.3,585"/>
	</g>
	<g id="ACAD_x5F_PROXY_x5F_ENTITY_155_">
		<polyline class="st0" points="241.5,585 241.5,586.9 210,586.9 210,585 241.5,585"/>
	</g>
	<g id="ACAD_x5F_PROXY_x5F_ENTITY_156_">
		<polyline class="st0" points="276.4,585 276.4,586.9 245.2,586.9 245.2,585 276.4,585"/>
	</g>
	<g id="ACAD_x5F_PROXY_x5F_ENTITY_157_">
		<polyline class="st0" points="310.3,585 310.3,586.9 280.2,586.9 280.2,585 310.3,585"/>
	</g>
	<g id="ACAD_x5F_PROXY_x5F_ENTITY_158_">
		<polyline class="st0" points="346.4,585 346.4,586.9 314.1,586.9 314.1,585 346.4,585"/>
	</g>
	<g id="ACAD_x5F_PROXY_x5F_ENTITY_159_">
		<polyline class="st0" points="372.3,585 372.3,586.9 350.1,586.9 350.1,585 372.3,585"/>
	</g>
	<g id="ACAD_x5F_PROXY_x5F_ENTITY_160_">
		<polyline class="st0" points="478.9,585 478.9,586.9 409.5,586.9 409.5,585 478.9,585"/>
	</g>
	<g id="ACAD_x5F_PROXY_x5F_ENTITY_163_">
		<polyline class="st0" points="405.7,585 405.7,586.9 375.4,586.9 375.4,585 405.7,585"/>
	</g>
	<g id="ACAD_x5F_PROXY_x5F_ENTITY_191_">
		<polyline class="st0" points="78.4,517.8 78.4,530.7 76.5,530.7 76.5,517.8 78.4,517.8"/>
	</g>
	<g id="ACAD_x5F_PROXY_x5F_ENTITY_192_">
		<polyline class="st0" points="78.4,536.7 78.4,548.9 76.5,548.9 76.5,536.7 78.4,536.7"/>
	</g>
	<g id="ACAD_x5F_PROXY_x5F_ENTITY_89_">
		<polyline class="st3" points="409.5,493.1 439,493.1 439,491.3 409.5,491.3 409.5,493.1"/>
	</g>
	<g id="ACAD_x5F_PROXY_x5F_ENTITY_88_">
		<polyline class="st3" points="442.4,493.1 473.9,493.1 473.9,491.3 442.4,491.3 442.4,493.1"/>
	</g>
	<g id="ACAD_x5F_PROXY_x5F_ENTITY_87_">
		<polyline class="st3" points="477.4,493.1 499.2,493.1 499.2,491.3 477.4,491.3 477.4,493.1"/>
	</g>
	<g id="ACAD_x5F_PROXY_x5F_ENTITY_86_">
		<polyline class="st3" points="502.7,493.1 525.5,493.1 525.5,491.3 502.7,491.3 502.7,493.1"/>
	</g>
	<g id="ACAD_x5F_PROXY_x5F_ENTITY_85_">
		<polyline class="st3" points="529,493.1 558.6,493.1 558.6,491.3 529,491.3 529,493.1"/>
	</g>
	<g id="ACAD_x5F_PROXY_x5F_ENTITY_84_">
		<polyline class="st3" points="562,493.1 582.5,493.1 582.5,491.3 562,491.3 562,493.1"/>
	</g>
	<g id="ACAD_x5F_PROXY_x5F_ENTITY_83_">
		<polyline class="st3" points="586,493.1 607.8,493.1 607.8,491.3 586,491.3 586,493.1"/>
	</g>
	<g id="ACAD_x5F_PROXY_x5F_ENTITY_82_">
		<polyline class="st3" points="611.3,493.1 641.6,493.1 641.6,491.3 611.3,491.3 611.3,493.1"/>
	</g>
	<g id="ACAD_x5F_PROXY_x5F_ENTITY_64_">
		<polyline class="st3" points="645.1,586.9 666.9,586.9 666.9,585 645.1,585 645.1,586.9"/>
	</g>
	<g id="ACAD_x5F_PROXY_x5F_ENTITY_81_">
		<polyline class="st3" points="645.1,493.1 666.8,493.1 666.8,491.3 645.1,491.3 645.1,493.1"/>
	</g>
	<g id="ACAD_x5F_PROXY_x5F_ENTITY_80_">
		<polyline class="st3" points="670.3,493.1 701.3,493.1 701.3,491.3 670.3,491.3 670.3,493.1"/>
	</g>
	<g id="ACAD_x5F_PROXY_x5F_ENTITY_79_">
		<polyline class="st3" points="704.7,493.1 727.4,493.1 727.4,491.3 704.7,491.3 704.7,493.1"/>
	</g>
	<g id="ACAD_x5F_PROXY_x5F_ENTITY_78_">
		<polyline class="st3" points="730.8,493.1 752.7,493.1 752.7,491.3 730.8,491.3 730.8,493.1"/>
	</g>
	<g id="ACAD_x5F_PROXY_x5F_ENTITY_77_">
		<polyline class="st3" points="756.1,493.1 784.4,493.1 784.4,491.3 756.1,491.3 756.1,493.1"/>
	</g>
	<g id="ACAD_x5F_PROXY_x5F_ENTITY_76_">
		<polyline class="st3" points="409.5,586.9 439,586.9 439,585 409.5,585 409.5,586.9"/>
	</g>
	<g id="ACAD_x5F_PROXY_x5F_ENTITY_75_">
		<polyline class="st3" points="442.5,586.9 474,586.9 474,585 442.5,585 442.5,586.9"/>
	</g>
	<g id="ACAD_x5F_PROXY_x5F_ENTITY_74_">
		<polyline class="st3" points="477.4,586.9 499.3,586.9 499.3,585 477.4,585 477.4,586.9"/>
	</g>
	<g id="ACAD_x5F_PROXY_x5F_ENTITY_73_">
		<polyline class="st3" points="502.7,586.9 525.5,586.9 525.5,585 502.7,585 502.7,586.9"/>
	</g>
	<g id="ACAD_x5F_PROXY_x5F_ENTITY_72_">
		<polyline class="st3" points="529,586.9 558.6,586.9 558.6,585 529,585 529,586.9"/>
	</g>
	<g id="ACAD_x5F_PROXY_x5F_ENTITY_71_">
		<polyline class="st3" points="562.1,586.9 582.6,586.9 582.6,585 562.1,585 562.1,586.9"/>
	</g>
	<g id="ACAD_x5F_PROXY_x5F_ENTITY_70_">
		<polyline class="st3" points="586,586.9 607.8,586.9 607.8,585 586,585 586,586.9"/>
	</g>
	<g id="ACAD_x5F_PROXY_x5F_ENTITY_69_">
		<polyline class="st3" points="611.3,586.9 641.6,586.9 641.6,585 611.3,585 611.3,586.9"/>
	</g>
	<g id="ACAD_x5F_PROXY_x5F_ENTITY_68_">
		<polyline class="st3" points="670.3,586.9 701.3,586.9 701.3,585 670.3,585 670.3,586.9"/>
	</g>
	<g id="ACAD_x5F_PROXY_x5F_ENTITY_67_">
		<polyline class="st3" points="704.8,586.9 727.4,586.9 727.4,585 704.8,585 704.8,586.9"/>
	</g>
	<g id="ACAD_x5F_PROXY_x5F_ENTITY_66_">
		<polyline class="st3" points="730.9,586.9 752.7,586.9 752.7,585 730.9,585 730.9,586.9"/>
	</g>
	<g id="ACAD_x5F_PROXY_x5F_ENTITY_65_">
		<polyline class="st3" points="756.2,586.9 784.5,586.9 784.5,585 756.2,585 756.2,586.9"/>
	</g>
</g>
<g id="toilet">
	<g id="LWPOLYLINE_146_">
		<path class="st15" d="M374.6,566v3h4.5c0.9,0,1.6-0.6,1.7-1.4c0-0.8-0.6-1.5-1.5-1.6c-0.1,0-0.1,0-0.2,0H374.6z"/>
	</g>
	<g id="LWPOLYLINE_147_">
		<path class="st15" d="M375.9,566.3v2.5h3.3c0.7,0,1.4-0.5,1.4-1.2c0-0.7-0.5-1.3-1.2-1.3c0,0-0.1,0-0.1,0H375.9z"/>
	</g>
	<g id="LWPOLYLINE_148_">
		<line class="st15" x1="375.6" y1="566" x2="375.6" y2="569"/>
	</g>
	<g id="CIRCLE_14_">
		<path class="st15" d="M378.8,567.5c0-0.3,0.2-0.5,0.5-0.5c0.3,0,0.5,0.2,0.5,0.5s-0.2,0.5-0.5,0.5
			C379.1,568,378.8,567.8,378.8,567.5L378.8,567.5z"/>
	</g>
	<g id="LWPOLYLINE_149_">
		<path class="st15" d="M374.6,570.6v3h4.5c0.9,0,1.6-0.6,1.7-1.4c0-0.8-0.6-1.5-1.5-1.6c-0.1,0-0.1,0-0.2,0H374.6z"/>
	</g>
	<g id="LWPOLYLINE_150_">
		<path class="st15" d="M375.9,570.8v2.5h3.3c0.7,0,1.4-0.5,1.4-1.2c0-0.7-0.5-1.3-1.2-1.3c0,0-0.1,0-0.1,0H375.9z"/>
	</g>
	<g id="LWPOLYLINE_151_">
		<line class="st15" x1="375.6" y1="570.6" x2="375.6" y2="573.5"/>
	</g>
	<g id="CIRCLE_15_">
		<path class="st15" d="M378.8,572c0-0.3,0.2-0.5,0.5-0.5c0.3,0,0.5,0.2,0.5,0.5s-0.2,0.5-0.5,0.5
			C379.1,572.5,378.8,572.3,378.8,572L378.8,572z"/>
	</g>
	<g id="LWPOLYLINE_152_">
		<path class="st15" d="M374.6,575.3v3h4.5c0.9,0,1.6-0.6,1.7-1.4c0-0.8-0.6-1.5-1.5-1.6c-0.1,0-0.1,0-0.2,0H374.6z"/>
	</g>
	<g id="LWPOLYLINE_153_">
		<path class="st15" d="M375.9,575.6v2.5h3.3c0.7,0,1.4-0.5,1.4-1.2c0-0.7-0.5-1.3-1.2-1.3c0,0-0.1,0-0.1,0H375.9z"/>
	</g>
	<g id="LWPOLYLINE_154_">
		<line class="st15" x1="375.6" y1="575.3" x2="375.6" y2="578.3"/>
	</g>
	<g id="CIRCLE_16_">
		<path class="st15" d="M378.8,576.8c0-0.3,0.2-0.5,0.5-0.5c0.3,0,0.5,0.2,0.5,0.5s-0.2,0.5-0.5,0.5
			C379.1,577.3,378.8,577.1,378.8,576.8L378.8,576.8z"/>
	</g>
	<g id="LWPOLYLINE_155_">
		<path class="st15" d="M374.6,554.7v3h4.5c0.9,0,1.6-0.6,1.7-1.4c0-0.8-0.6-1.5-1.5-1.6c-0.1,0-0.1,0-0.2,0H374.6z"/>
	</g>
	<g id="LWPOLYLINE_156_">
		<path class="st15" d="M375.9,554.9v2.5h3.3c0.7,0,1.4-0.5,1.4-1.2c0-0.7-0.5-1.3-1.2-1.3c0,0-0.1,0-0.1,0H375.9z"/>
	</g>
	<g id="LWPOLYLINE_157_">
		<line class="st15" x1="375.6" y1="554.7" x2="375.6" y2="557.6"/>
	</g>
	<g id="CIRCLE_17_">
		<path class="st15" d="M378.8,556.1c0-0.3,0.2-0.5,0.5-0.5c0.3,0,0.5,0.2,0.5,0.5s-0.2,0.5-0.5,0.5
			C379.1,556.7,378.8,556.4,378.8,556.1L378.8,556.1z"/>
	</g>
	<g id="LWPOLYLINE_158_">
		<path class="st15" d="M374.6,561.2v3h4.5c0.9,0,1.6-0.6,1.7-1.4c0-0.8-0.6-1.5-1.5-1.6c-0.1,0-0.1,0-0.2,0H374.6z"/>
	</g>
	<g id="LWPOLYLINE_159_">
		<path class="st15" d="M375.9,561.5v2.5h3.3c0.7,0,1.4-0.5,1.4-1.2c0-0.7-0.5-1.3-1.2-1.3c0,0-0.1,0-0.1,0H375.9z"/>
	</g>
	<g id="LWPOLYLINE_160_">
		<line class="st15" x1="375.6" y1="561.2" x2="375.6" y2="564.2"/>
	</g>
	<g id="CIRCLE_18_">
		<path class="st15" d="M378.8,562.7c0-0.3,0.2-0.5,0.5-0.5c0.3,0,0.5,0.2,0.5,0.5s-0.2,0.5-0.5,0.5
			C379.1,563.2,378.8,563,378.8,562.7L378.8,562.7z"/>
	</g>
	<g id="LWPOLYLINE_161_">
		<path class="st15" d="M408.2,566v3h-4.5c-0.1,0-0.1,0-0.2,0c-0.9,0-1.6-0.7-1.5-1.6s0.8-1.4,1.7-1.4
			C403.7,566,408.2,566,408.2,566z"/>
	</g>
	<g id="LWPOLYLINE_162_">
		<path class="st15" d="M406.9,566.3v2.5h-3.3c0,0-0.1,0-0.1,0c-0.7,0-1.3-0.6-1.2-1.3c0-0.7,0.7-1.2,1.4-1.2H406.9z"/>
	</g>
	<g id="LWPOLYLINE_163_">
		<line class="st15" x1="407.3" y1="566" x2="407.3" y2="569"/>
	</g>
	<g id="CIRCLE_19_">
		<path class="st15" d="M402.9,567.5c0-0.3,0.2-0.5,0.5-0.5s0.5,0.2,0.5,0.5s-0.2,0.5-0.5,0.5S402.9,567.8,402.9,567.5L402.9,567.5z
			"/>
	</g>
	<g id="LWPOLYLINE_164_">
		<path class="st15" d="M408.2,570.6v3h-4.5c-0.1,0-0.1,0-0.2,0c-0.9,0-1.6-0.7-1.5-1.6s0.8-1.4,1.7-1.4
			C403.7,570.6,408.2,570.6,408.2,570.6z"/>
	</g>
	<g id="LWPOLYLINE_165_">
		<path class="st15" d="M406.9,570.8v2.5h-3.3c0,0-0.1,0-0.1,0c-0.7,0-1.3-0.6-1.2-1.3c0-0.7,0.7-1.2,1.4-1.2H406.9z"/>
	</g>
	<g id="LWPOLYLINE_166_">
		<line class="st15" x1="407.3" y1="570.6" x2="407.3" y2="573.5"/>
	</g>
	<g id="CIRCLE_20_">
		<path class="st15" d="M402.9,572c0-0.3,0.2-0.5,0.5-0.5s0.5,0.2,0.5,0.5s-0.2,0.5-0.5,0.5S402.9,572.3,402.9,572L402.9,572z"/>
	</g>
	<g id="LWPOLYLINE_167_">
		<path class="st15" d="M408.2,575.3v3h-4.5c-0.1,0-0.1,0-0.2,0c-0.9,0-1.6-0.7-1.5-1.6s0.8-1.4,1.7-1.4
			C403.7,575.3,408.2,575.3,408.2,575.3z"/>
	</g>
	<g id="LWPOLYLINE_168_">
		<path class="st15" d="M406.9,575.6v2.5h-3.3c0,0-0.1,0-0.1,0c-0.7,0-1.3-0.6-1.2-1.3c0-0.7,0.7-1.2,1.4-1.2H406.9z"/>
	</g>
	<g id="LWPOLYLINE_169_">
		<line class="st15" x1="407.3" y1="575.3" x2="407.3" y2="578.3"/>
	</g>
	<g id="CIRCLE_21_">
		<path class="st15" d="M402.9,576.8c0-0.3,0.2-0.5,0.5-0.5s0.5,0.2,0.5,0.5s-0.2,0.5-0.5,0.5S402.9,577.1,402.9,576.8L402.9,576.8z
			"/>
	</g>
	<g id="LWPOLYLINE_170_">
		<path class="st15" d="M408.2,554.7v3h-4.5c-0.1,0-0.1,0-0.2,0c-0.9,0-1.6-0.7-1.5-1.6s0.8-1.4,1.7-1.4
			C403.7,554.7,408.2,554.7,408.2,554.7z"/>
	</g>
	<g id="LWPOLYLINE_171_">
		<path class="st15" d="M406.9,554.9v2.5h-3.3c0,0-0.1,0-0.1,0c-0.7,0-1.3-0.6-1.2-1.3c0-0.7,0.7-1.2,1.4-1.2H406.9z"/>
	</g>
	<g id="LWPOLYLINE_172_">
		<line class="st15" x1="407.3" y1="554.7" x2="407.3" y2="557.6"/>
	</g>
	<g id="CIRCLE_22_">
		<path class="st15" d="M402.9,556.1c0-0.3,0.2-0.5,0.5-0.5s0.5,0.2,0.5,0.5s-0.2,0.5-0.5,0.5S402.9,556.4,402.9,556.1L402.9,556.1z
			"/>
	</g>
	<g id="LWPOLYLINE_173_">
		<path class="st15" d="M408.2,561.2v3h-4.5c-0.1,0-0.1,0-0.2,0c-0.9,0-1.6-0.7-1.5-1.6s0.8-1.4,1.7-1.4
			C403.7,561.2,408.2,561.2,408.2,561.2z"/>
	</g>
	<g id="LWPOLYLINE_174_">
		<path class="st15" d="M406.9,561.5v2.5h-3.3c0,0-0.1,0-0.1,0c-0.7,0-1.3-0.6-1.2-1.3c0-0.7,0.7-1.2,1.4-1.2H406.9z"/>
	</g>
	<g id="LWPOLYLINE_175_">
		<line class="st15" x1="407.3" y1="561.2" x2="407.3" y2="564.2"/>
	</g>
	<g id="CIRCLE_23_">
		<path class="st15" d="M402.9,562.7c0-0.3,0.2-0.5,0.5-0.5s0.5,0.2,0.5,0.5s-0.2,0.5-0.5,0.5S402.9,563,402.9,562.7L402.9,562.7z"
			/>
	</g>
</g>
<g id="Audit">
	
	
	<rect id="A219" x="409.5" y="534.8" class="st0" width="119.2" height="49.1"/>
	
	
	<rect id="A218" x="311.6" y="494.2" class="st0" width="37.3" height="22.3"/>
	
	
	<rect id="A217" x="277.7" y="494.2" class="st0" width="32.6" height="22.3"/>
	
	
	<rect id="A216" x="242.7" y="494.2" class="st0" width="33.7" height="22.3"/>
	
	
	<rect id="A215" x="207.5" y="494.2" class="st0" width="33.9" height="22.3"/>
	
	
	<rect id="A214" x="173.1" y="494.2" class="st0" width="33.2" height="22.3"/>
	
	
	<rect id="A213" x="137.9" y="494.2" class="st0" width="33.9" height="22.3"/>
	
	
	<rect id="A212" x="103.8" y="494.2" class="st0" width="32.9" height="22.3"/>
	
	
	<rect id="A211" x="78.8" y="494.2" class="st0" width="23.7" height="22.3"/>
	
	
	<rect id="A210" x="103.8" y="534.8" class="st0" width="32.9" height="49.1"/>
	
	
	<rect id="A209" x="137.9" y="534.8" class="st0" width="33.9" height="49.1"/>
	
	
	<rect id="A208" x="173.1" y="534.8" class="st0" width="33.2" height="49.1"/>
	
	
	<rect id="A207" x="207.5" y="534.8" class="st0" width="35.2" height="49.1"/>
	
	
	<rect id="A206" x="244.2" y="534.8" class="st0" width="32.3" height="49.1"/>
	
	
	<rect id="A205" x="277.7" y="534.8" class="st0" width="32.6" height="49.1"/>
	
	
	<rect id="A204" x="311.6" y="534.8" class="st0" width="36.1" height="49.1"/>
	
	
	<rect id="A203" x="374.6" y="534.8" class="st0" width="33.6" height="49.1"/>
	
	
	<rect id="A202" x="350.1" y="534.8" class="st0" width="23.2" height="49.1"/>
	
	
	<rect id="A201" x="78.8" y="534.8" class="st0" width="23.7" height="49.1"/>
	
	
	<rect id="A220" x="528.7" y="534.8" class="st0" width="30.9" height="49.1"/>
	
	
	<rect id="A221" x="561.1" y="534.8" class="st0" width="83.7" height="49.1"/>
	
	
	<rect id="A222" x="669.4" y="534.8" class="st0" width="33.1" height="49.1"/>
	
	
	<rect id="A223" x="703.8" y="534.8" class="st0" width="84.3" height="49.1"/>
</g>
</svg>
