<?xml version="1.0" encoding="utf-8"?>
<!-- Generator: Adobe Illustrator 19.0.0, SVG Export Plug-In . SVG Version: 6.00 Build 0)  -->
<svg version="1.1" id="level2" xmlns="http://www.w3.org/2000/svg" xmlns:xlink="http://www.w3.org/1999/xlink" x="0px" y="0px"
	 viewBox="353.8 46.6 1767.8 816.9" style="enable-background:new 353.8 46.6 1767.8 816.9;" xml:space="preserve">
<style type="text/css">
	.st0{stroke:#00ff00;stroke-width:2.223253e-002;stroke-linecap:round;stroke-linejoin:round;stroke-miterlimit:10;}
	.st1{stroke:#00ff00;stroke-width:2.162683e-002;stroke-linecap:round;stroke-linejoin:round;stroke-miterlimit:10;}
	.st2{fill:none;stroke:#00ff00;stroke-width:2.223253e-002;stroke-linecap:round;stroke-linejoin:round;stroke-miterlimit:10;}
	.st3{fill:none;stroke:#00ff00;stroke-width:2.162683e-002;stroke-linecap:round;stroke-linejoin:round;stroke-miterlimit:10;}
	.st4{stroke:#00ff00;stroke-width:1.730146e-002;stroke-linecap:round;stroke-linejoin:round;stroke-miterlimit:10;}
	.st5{fill:none;stroke:#00ff00;stroke-width:1.730146e-002;stroke-linecap:round;stroke-linejoin:round;stroke-miterlimit:10;}
</style>
<polygon id="Walkable2" class="st0" points="988.1,410.9 988.1,460.9 968.6,460.9 968.6,457.9 947.4,457.9 947.4,460.9 898.2,460.9 
	898.2,457.9 877,457.9 877,460.9 827.4,460.9 827.4,457.9 806.4,457.9 806.4,460.9 745.6,460.9 745.6,457.9 724.4,457.9 
	724.4,460.9 671,460.9 671,457.9 650,457.9 650,460.9 566.5,460.9 566.5,457.9 545.5,457.9 545.5,460.9 501,460.9 501,457.9 
	479.8,457.9 479.8,460.9 447.2,460.9 447.2,457.9 426.2,457.9 426.2,460.9 413.1,460.9 413.1,492.7 423.9,492.7 423.9,495.9 
	422.2,495.9 422.2,528.1 456.1,528.1 456.1,495.9 453.1,495.9 453.1,492.7 477.1,492.7 477.1,496.9 477.1,497.1 498.3,497.1 
	498.3,496.9 498.3,492.7 551.7,492.7 551.7,496.9 571.6,496.9 571.8,496.9 571.8,492.7 627.1,492.7 627.1,496.9 648.1,496.9 
	648.3,496.9 648.3,492.7 701.5,492.7 701.5,496.9 701.5,497.1 722.7,497.1 722.7,492.7 776.1,492.7 776.1,496.9 776.1,497.1 
	797.3,497.1 797.3,492.7 847.6,492.7 847.6,496.9 868.5,496.9 868.5,492.7 927.2,492.7 927.2,496.9 935.7,496.9 948.2,496.9 
	948.2,492.7 988.1,492.7 996.6,492.7 996.6,496.9 1025.4,496.9 1025.4,492.7 1065,492.7 1065,496.9 1084.9,496.9 1084.9,492.7 
	1126.7,492.7 1126.7,496.9 1144.5,496.9 1144.5,492.7 1349.4,492.7 1349.4,496.9 1365.6,496.9 1365.6,492.7 1383.6,492.7 
	1383.6,496.9 1401,496.9 1401,492.7 1447.2,492.7 1447.2,496.9 1464.5,496.9 1464.5,492.7 1595.1,492.7 1595.1,496.9 1610.8,496.9 
	1610.8,492.7 1628.6,492.7 1628.6,496.9 1652.3,496.9 1652.3,492.7 1676.9,492.7 1676.9,496.9 1696.4,496.9 1696.4,492.7 
	1746.6,492.7 1746.6,496.9 1765.9,496.9 1765.9,492.7 1900.1,492.7 1900.1,496.9 1916.4,496.9 1916.4,492.7 2051.4,492.7 
	2051.4,410.9"/>
<g id="A_x5F_Walls2">
	<g id="ACAD_x5F_PROXY_x5F_ENTITY_99_2">
		<polyline class="st0" points="2047,402.2 2047,410.9 407.3,410.9 407.3,402.2 2047,402.2"/>
	</g>
	<g id="ACAD_x5F_PROXY_x5F_ENTITY_100_2">
		<polyline class="st0" points="413.1,402.2 413.1,609.7 407.3,609.7 407.3,402.2 413.1,402.2"/>
	</g>
	<g id="ACAD_x5F_PROXY_x5F_ENTITY_101_2">
		<polyline class="st0" points="1261.1,601 1261.1,609.7 407.3,609.7 407.3,601 1261.1,601"/>
	</g>
	<g id="ACAD_x5F_PROXY_x5F_ENTITY_102_2">
		<polyline class="st0" points="2043.8,492.7 2043.8,496.9 413.1,496.9 413.1,492.7 2043.8,492.7"/>
	</g>
	<g id="ACAD_x5F_PROXY_x5F_ENTITY_104_2">
		<polyline class="st0" points="985.5,457.9 985.5,460.9 413.1,460.9 413.1,457.9 985.5,457.9"/>
	</g>
	<g id="ACAD_x5F_PROXY_x5F_ENTITY_105_2">
		<polyline class="st0" points="466,410.9 466,457.9 463.3,457.9 463.3,410.9 466,410.9"/>
	</g>
	<g id="ACAD_x5F_PROXY_x5F_ENTITY_106_2">
		<polyline class="st0" points="538.3,410.9 538.3,457.9 535.8,457.9 535.8,410.9 538.3,410.9"/>
	</g>
	<g id="ACAD_x5F_PROXY_x5F_ENTITY_107_2">
		<polyline class="st0" points="612.9,410.9 612.9,458.1 610.4,458.1 610.4,410.9 612.9,410.9"/>
	</g>
	<g id="ACAD_x5F_PROXY_x5F_ENTITY_108_2">
		<polyline class="st0" points="685.8,410.9 685.8,457.9 683.3,457.9 683.3,410.9 685.8,410.9"/>
	</g>
	<g id="ACAD_x5F_PROXY_x5F_ENTITY_109_2">
		<polyline class="st0" points="760.4,410.9 760.4,457.9 757.9,457.9 757.9,410.9 760.4,410.9"/>
	</g>
	<g id="ACAD_x5F_PROXY_x5F_ENTITY_110_2">
		<polyline class="st0" points="834.6,410.9 834.6,457.9 831.9,457.9 831.9,410.9 834.6,410.9"/>
	</g>
	<g id="ACAD_x5F_PROXY_x5F_ENTITY_111_2">
		<polyline class="st0" points="906.5,410.9 906.5,457.9 903.7,457.9 903.7,410.9 906.5,410.9"/>
	</g>
	<g id="ACAD_x5F_PROXY_x5F_ENTITY_112_2">
		<polyline class="st0" points="466,496.9 466,601 463.3,601 463.3,496.9 466,496.9"/>
	</g>
	<g id="ACAD_x5F_PROXY_x5F_ENTITY_113_2">
		<polyline class="st0" points="538.3,496.9 538.3,601 535.8,601 535.8,496.9 538.3,496.9"/>
	</g>
	<g id="ACAD_x5F_PROXY_x5F_ENTITY_114_2">
		<polyline class="st0" points="685.8,496.9 685.8,601 683.3,601 683.3,496.9 685.8,496.9"/>
	</g>
	<g id="ACAD_x5F_PROXY_x5F_ENTITY_115_2">
		<polyline class="st0" points="763.6,496.9 763.6,601 760.9,601 760.9,496.9 763.6,496.9"/>
	</g>
	<g id="ACAD_x5F_PROXY_x5F_ENTITY_116_2">
		<polyline class="st0" points="834.6,496.9 834.6,601 831.9,601 831.9,496.9 834.6,496.9"/>
	</g>
	<g id="ACAD_x5F_PROXY_x5F_ENTITY_117_2">
		<polyline class="st0" points="906.5,496.9 906.5,601 903.7,601 903.7,496.9 906.5,496.9"/>
	</g>
	<g id="ACAD_x5F_PROXY_x5F_ENTITY_118_2">
		<polyline class="st0" points="988.1,496.9 988.1,601 983,601 983,496.9 988.1,496.9"/>
	</g>
	<g id="ACAD_x5F_PROXY_x5F_ENTITY_119_2">
		<polyline class="st0" points="1040,496.9 1040,601 1037.5,601 1037.5,496.9 1040,496.9"/>
	</g>
	<g id="ACAD_x5F_PROXY_x5F_ENTITY_128_2">
		<polyline class="st0" points="983,526.4 983,528.9 906.5,528.9 906.5,526.4 983,526.4"/>
	</g>
	<g id="ACAD_x5F_PROXY_x5F_ENTITY_129_2">
		<polyline class="st0" points="1111.2,526.4 1111.2,528.9 1040,528.9 1040,526.4 1111.2,526.4"/>
	</g>
	<g id="ACAD_x5F_PROXY_x5F_ENTITY_130_2">
		<polyline class="st0" points="988.1,410.9 988.1,460.9 985.5,460.9 985.5,410.9 988.1,410.9"/>
	</g>
	<g id="ACAD_x5F_PROXY_x5F_ENTITY_139_2">
		<polyline class="st0" points="924.7,528.9 924.7,591.9 922.2,591.9 922.2,528.9 924.7,528.9"/>
	</g>
	<g id="ACAD_x5F_PROXY_x5F_ENTITY_140_2">
		<polyline class="st0" points="924.7,589.1 924.7,591.9 906.5,591.9 906.5,589.1 924.7,589.1"/>
	</g>
	<g id="ACAD_x5F_PROXY_x5F_ENTITY_141_2">
		<polyline class="st0" points="988.1,460.9 988.1,492.7 985.3,492.7 985.3,460.9 988.1,460.9"/>
	</g>
	<g id="ACAD_x5F_PROXY_x5F_ENTITY_161_2">
		<polyline class="st0" points="1100.4,492.7 1100.4,496.9 1045.3,496.9 1045.3,492.7 1100.4,492.7"/>
	</g>
	<g id="ACAD_x5F_PROXY_x5F_ENTITY_162_2">
		<polyline class="st0" points="1114,496.9 1114,601 1111.2,601 1111.2,496.9 1114,496.9"/>
	</g>
	<g id="ACAD_x5F_PROXY_x5F_ENTITY_165_2">
		<polyline class="st0" points="612.9,496.9 612.9,601 610.4,601 610.4,496.9 612.9,496.9"/>
	</g>
	<g id="ACAD_x5F_PROXY_x5F_ENTITY_174_2">
		<polyline class="st0" points="1058.4,528.9 1058.4,591.9 1055.7,591.9 1055.7,528.9 1058.4,528.9"/>
	</g>
	<g id="ACAD_x5F_PROXY_x5F_ENTITY_175_2">
		<polyline class="st0" points="1058.4,589.1 1058.4,591.9 1037.5,591.9 1037.5,589.1 1058.4,589.1"/>
	</g>
	<g id="ololo2">
		<polyline class="st0" points="1095.5,528.9 1095.5,591.9 1092.8,591.9 1092.8,528.9 1095.5,528.9"/>
	</g>
	<g id="ACAD_x5F_PROXY_x5F_ENTITY_22_2">
		<polyline class="st1" points="1104.4,609.7 1932.5,609.7 1932.5,601 1104.4,601 1104.4,609.7"/>
	</g>
	<g id="ACAD_x5F_PROXY_x5F_ENTITY_16_2">
		<polyline class="st1" points="1181.2,601 1184.1,601 1184.1,496.9 1181.2,496.9 1181.2,601"/>
	</g>
	<g id="ACAD_x5F_PROXY_x5F_ENTITY_15_2">
		<polyline class="st1" points="1432.1,601 1435.3,601 1435.3,496.9 1432.1,496.9 1432.1,601"/>
	</g>
	<g id="ACAD_x5F_PROXY_x5F_ENTITY_14_2">
		<polyline class="st1" points="1612.7,601 1615.7,601 1615.7,496.9 1612.7,496.9 1612.7,601"/>
	</g>
	<g id="ACAD_x5F_PROXY_x5F_ENTITY_13_2">
		<polyline class="st1" points="1366.6,601 1369.6,601 1369.6,496.9 1366.6,496.9 1366.6,601"/>
	</g>
	<g id="ACAD_x5F_PROXY_x5F_ENTITY_11_2">
		<polyline class="st1" points="1181.2,492.7 1183.9,492.7 1183.9,410.9 1181.2,410.9 1181.2,492.7"/>
	</g>
	<g id="ACAD_x5F_PROXY_x5F_ENTITY_10_2">
		<polyline class="st1" points="1345.2,584.2 1348.2,584.2 1348.2,496.9 1345.2,496.9 1345.2,584.2"/>
	</g>
	<g id="ACAD_x5F_PROXY_x5F_ENTITY_9_2">
		<polyline class="st1" points="1916.4,601 1922.8,601 1922.8,496.9 1916.4,496.9 1916.4,601"/>
	</g>
	<g id="ACAD_x5F_PROXY_x5F_ENTITY_6_2">
		<polyline class="st1" points="1591.3,584.2 1594.3,584.2 1594.3,496.9 1591.3,496.9 1591.3,584.2"/>
	</g>
	<g id="ACAD_x5F_PROXY_x5F_ENTITY_5_2">
		<polyline class="st1" points="1734.8,601 1737.7,601 1737.7,496.9 1734.8,496.9 1734.8,601"/>
	</g>
	<g id="ACAD_x5F_PROXY_x5F_ENTITY_2_2">
		<polyline class="st1" points="1662.1,601 1664.8,601 1664.8,496.9 1662.1,496.9 1662.1,601"/>
	</g>
	<g id="ACAD_x5F_PROXY_x5F_ENTITY_164_2">
		<polyline class="st1" points="1895,584.2 1897.8,584.2 1897.8,496.9 1895,496.9 1895,584.2"/>
	</g>
	<rect x="1092.8" y="589.1" class="st0" width="21" height="2.8"/>
</g>
<g id="МОЙ_СЛОЙ2">
	<g id="LINE_84_2">
		<line class="st2" x1="906.5" y1="569.2" x2="922.2" y2="569.2"/>
	</g>
	<g id="LINE_85_2">
		<line class="st2" x1="906.5" y1="579.6" x2="922.2" y2="579.6"/>
	</g>
	<g id="LINE_86_2">
		<line class="st2" x1="988.1" y1="457.9" x2="988.1" y2="460.9"/>
	</g>
	<g id="LINE_87_2">
		<line class="st2" x1="413.1" y1="574.5" x2="463.3" y2="574.5"/>
	</g>
	<g id="LINE_88_2">
		<line class="st2" x1="413.1" y1="570.5" x2="437.4" y2="570.5"/>
	</g>
	<g id="LINE_89_2">
		<line class="st2" x1="439.1" y1="570.5" x2="461.2" y2="570.5"/>
	</g>
	<g id="LINE_90_2">
		<line class="st2" x1="463.3" y1="570.5" x2="463.3" y2="570.5"/>
	</g>
	<g id="LINE_91_2">
		<line class="st2" x1="413.1" y1="567.5" x2="437.4" y2="567.5"/>
	</g>
	<g id="LINE_92_2">
		<line class="st2" x1="439.1" y1="567.5" x2="459.7" y2="567.5"/>
	</g>
	<g id="LINE_93_2">
		<line class="st2" x1="461.6" y1="567.5" x2="463.3" y2="567.5"/>
	</g>
	<g id="LINE_94_2">
		<line class="st2" x1="413.1" y1="563.7" x2="437.4" y2="563.7"/>
	</g>
	<g id="LINE_95_2">
		<line class="st2" x1="439.1" y1="563.7" x2="457.4" y2="563.7"/>
	</g>
	<g id="LINE_96_2">
		<line class="st2" x1="459.5" y1="563.7" x2="463.3" y2="563.7"/>
	</g>
	<g id="LINE_97_2">
		<line class="st2" x1="413.1" y1="559.9" x2="437.4" y2="559.9"/>
	</g>
	<g id="LINE_98_2">
		<line class="st2" x1="439.1" y1="559.9" x2="455.4" y2="559.9"/>
	</g>
	<g id="LINE_99_2">
		<line class="st2" x1="457.4" y1="559.9" x2="463.3" y2="559.9"/>
	</g>
	<g id="LINE_100_2">
		<line class="st2" x1="413.1" y1="556.3" x2="437.4" y2="556.3"/>
	</g>
	<g id="LINE_101_2">
		<line class="st2" x1="439.1" y1="556.3" x2="453.3" y2="556.3"/>
	</g>
	<g id="LINE_102_2">
		<line class="st2" x1="455.4" y1="556.3" x2="463.3" y2="556.3"/>
	</g>
	<g id="LINE_103_2">
		<line class="st2" x1="413.1" y1="552.4" x2="437.4" y2="552.4"/>
	</g>
	<g id="LINE_104_2">
		<line class="st2" x1="439.1" y1="552.4" x2="451.4" y2="552.4"/>
	</g>
	<g id="LINE_105_2">
		<line class="st2" x1="453.3" y1="552.4" x2="463.3" y2="552.4"/>
	</g>
	<g id="LINE_106_2">
		<line class="st2" x1="413.1" y1="548.8" x2="437.4" y2="548.8"/>
	</g>
	<g id="LINE_107_2">
		<line class="st2" x1="439.1" y1="548.8" x2="449.3" y2="548.8"/>
	</g>
	<g id="LINE_108_2">
		<line class="st2" x1="451.4" y1="548.8" x2="463.3" y2="548.8"/>
	</g>
	<g id="LINE_109_2">
		<line class="st2" x1="413.1" y1="544.8" x2="437.4" y2="544.8"/>
	</g>
	<g id="LINE_110_2">
		<line class="st2" x1="439.1" y1="544.8" x2="447.2" y2="544.8"/>
	</g>
	<g id="LINE_111_2">
		<line class="st2" x1="449.1" y1="544.8" x2="463.3" y2="544.8"/>
	</g>
	<g id="LINE_112_2">
		<line class="st2" x1="413.1" y1="541.6" x2="437.4" y2="541.6"/>
	</g>
	<g id="LINE_113_2">
		<line class="st2" x1="439.1" y1="541.6" x2="445.3" y2="541.6"/>
	</g>
	<g id="LINE_114_2">
		<line class="st2" x1="447.4" y1="541.6" x2="463.3" y2="541.6"/>
	</g>
	<g id="LINE_115_2">
		<line class="st2" x1="413.1" y1="538" x2="437.4" y2="538"/>
	</g>
	<g id="LINE_116_2">
		<line class="st2" x1="439.1" y1="538" x2="443.4" y2="538"/>
	</g>
	<g id="LINE_117_2">
		<line class="st2" x1="445.5" y1="538" x2="463.3" y2="538"/>
	</g>
	<g id="LINE_118_2">
		<line class="st2" x1="413.1" y1="533.6" x2="437.4" y2="533.6"/>
	</g>
	<g id="LINE_119_2">
		<line class="st2" x1="439.1" y1="533.6" x2="441" y2="533.6"/>
	</g>
	<g id="LINE_120_2">
		<line class="st2" x1="442.9" y1="533.6" x2="463.3" y2="533.6"/>
	</g>
	<g id="LINE_121_2">
		<line class="st2" x1="413.1" y1="530.2" x2="463.3" y2="530.2"/>
	</g>
	<g id="LINE_122_2">
		<line class="st2" x1="437.4" y1="574.5" x2="437.4" y2="530.2"/>
	</g>
	<g id="LINE_123_2">
		<line class="st2" x1="439.1" y1="574.5" x2="439.1" y2="530.2"/>
	</g>
	<g id="LINE_124_2">
		<line class="st2" x1="463.3" y1="574.5" x2="439.1" y2="530.2"/>
	</g>
	<g id="LINE_125_2">
		<line class="st2" x1="463.3" y1="570.7" x2="441" y2="530.2"/>
	</g>
	<g id="LINE_136_2">
		<line class="st2" x1="988.1" y1="531.7" x2="1037.5" y2="531.7"/>
	</g>
	<g id="LINE_137_2">
		<line class="st2" x1="988.1" y1="535.7" x2="1037.5" y2="535.7"/>
	</g>
	<g id="LINE_138_2">
		<line class="st2" x1="988.1" y1="539.5" x2="1037.5" y2="539.5"/>
	</g>
	<g id="LINE_139_2">
		<line class="st2" x1="988.1" y1="543.1" x2="1037.5" y2="543.1"/>
	</g>
	<g id="LINE_140_2">
		<line class="st2" x1="988.1" y1="546.7" x2="1037.5" y2="546.7"/>
	</g>
	<g id="LINE_141_2">
		<line class="st2" x1="988.1" y1="550.1" x2="1037.5" y2="550.1"/>
	</g>
	<g id="LINE_142_2">
		<line class="st2" x1="988.1" y1="553.9" x2="1037.5" y2="553.9"/>
	</g>
	<g id="LINE_143_2">
		<line class="st2" x1="988.1" y1="557.7" x2="1037.5" y2="557.7"/>
	</g>
	<g id="LINE_144_2">
		<line class="st2" x1="988.1" y1="561.3" x2="1037.5" y2="561.3"/>
	</g>
	<g id="LINE_145_2">
		<line class="st2" x1="988.1" y1="565.4" x2="1037.5" y2="565.4"/>
	</g>
	<g id="LINE_146_2">
		<line class="st2" x1="988.1" y1="568.8" x2="1037.5" y2="568.8"/>
	</g>
	<g id="LINE_147_2">
		<line class="st2" x1="988.1" y1="571.9" x2="1037.5" y2="571.9"/>
	</g>
	<g id="LINE_148_2">
		<line class="st2" x1="988.1" y1="575.3" x2="1037.5" y2="575.3"/>
	</g>
	<g id="LINE_149_2">
		<line class="st2" x1="1011.8" y1="531.7" x2="1011.8" y2="575.3"/>
	</g>
	<g id="LINE_150_2">
		<line class="st2" x1="1013.5" y1="531.7" x2="1013.5" y2="575.3"/>
	</g>
	<g id="LINE_157_2">
		<line class="st2" x1="906.5" y1="545.9" x2="922.2" y2="545.9"/>
	</g>
	<g id="LINE_158_2">
		<line class="st2" x1="906.5" y1="558" x2="922.2" y2="558"/>
	</g>
	<g id="LINE_159_2">
		<line class="st2" x1="1040" y1="569.2" x2="1055.7" y2="569.2"/>
	</g>
	<g id="LINE_160_2">
		<line class="st2" x1="1040" y1="579.6" x2="1055.7" y2="579.6"/>
	</g>
	<g id="LINE_161_2">
		<line class="st2" x1="1040" y1="545.9" x2="1055.7" y2="545.9"/>
	</g>
	<g id="LINE_162_2">
		<line class="st2" x1="1040" y1="558" x2="1055.7" y2="558"/>
	</g>
	<g id="LINE_163_2">
		<line class="st2" x1="1111.2" y1="569.2" x2="1095.5" y2="569.2"/>
	</g>
	<g id="LINE_164_2">
		<line class="st2" x1="1111.2" y1="579.6" x2="1095.5" y2="579.6"/>
	</g>
	<g id="LINE_165_2">
		<line class="st2" x1="1111.2" y1="545.9" x2="1095.5" y2="545.9"/>
	</g>
	<g id="LINE_166_2">
		<line class="st2" x1="1111.2" y1="558" x2="1095.5" y2="558"/>
	</g>
	<g id="LINE_197_2">
		<line class="st3" x1="1616.1" y1="525.1" x2="1662.1" y2="525.1"/>
	</g>
	<g id="LINE_196_2">
		<line class="st3" x1="1616.1" y1="528.7" x2="1638.3" y2="528.7"/>
	</g>
	<g id="LINE_195_2">
		<line class="st3" x1="1639.8" y1="528.7" x2="1662.1" y2="528.7"/>
	</g>
	<g id="LINE_194_2">
		<line class="st3" x1="1616.1" y1="532.9" x2="1638.3" y2="532.9"/>
	</g>
	<g id="LINE_193_2">
		<line class="st3" x1="1636" y1="532.9" x2="1638.3" y2="532.9"/>
	</g>
	<g id="LINE_192_2">
		<line class="st3" x1="1639.8" y1="532.9" x2="1662.1" y2="532.9"/>
	</g>
	<g id="LINE_191_2">
		<line class="st3" x1="1616.1" y1="536.8" x2="1638.3" y2="536.8"/>
	</g>
	<g id="LINE_190_2">
		<line class="st3" x1="1620.3" y1="536.8" x2="1638.3" y2="536.8"/>
	</g>
	<g id="LINE_189_2">
		<line class="st3" x1="1639.8" y1="536.8" x2="1662.1" y2="536.8"/>
	</g>
	<g id="LINE_188_2">
		<line class="st3" x1="1616.1" y1="540.6" x2="1638.3" y2="540.6"/>
	</g>
	<g id="LINE_187_2">
		<line class="st3" x1="1632" y1="540.6" x2="1638.3" y2="540.6"/>
	</g>
	<g id="LINE_186_2">
		<line class="st3" x1="1639.8" y1="540.6" x2="1662.1" y2="540.6"/>
	</g>
	<g id="LINE_185_2">
		<line class="st3" x1="1616.1" y1="544.4" x2="1628" y2="544.4"/>
	</g>
	<g id="LINE_184_2">
		<line class="st3" x1="1628" y1="544.4" x2="1638.3" y2="544.4"/>
	</g>
	<g id="LINE_183_2">
		<line class="st3" x1="1639.8" y1="544.4" x2="1662.1" y2="544.4"/>
	</g>
	<g id="LINE_182_2">
		<line class="st3" x1="1616.1" y1="547.8" x2="1626.3" y2="547.8"/>
	</g>
	<g id="LINE_181_2">
		<line class="st3" x1="1626.3" y1="547.8" x2="1638.3" y2="547.8"/>
	</g>
	<g id="LINE_180_2">
		<line class="st3" x1="1639.8" y1="547.8" x2="1662.1" y2="547.8"/>
	</g>
	<g id="LINE_179_2">
		<line class="st3" x1="1616.1" y1="551.8" x2="1631.1" y2="551.8"/>
	</g>
	<g id="LINE_178_2">
		<line class="st3" x1="1616.1" y1="551.8" x2="1638.3" y2="551.8"/>
	</g>
	<g id="LINE_177_2">
		<line class="st3" x1="1639.8" y1="551.8" x2="1662.1" y2="551.8"/>
	</g>
	<g id="LINE_176_2">
		<line class="st3" x1="1616.1" y1="555.6" x2="1622" y2="555.6"/>
	</g>
	<g id="LINE_175_2">
		<line class="st3" x1="1616.1" y1="555.6" x2="1638.3" y2="555.6"/>
	</g>
	<g id="LINE_174_2">
		<line class="st3" x1="1639.8" y1="555.6" x2="1662.1" y2="555.6"/>
	</g>
	<g id="LINE_173_2">
		<line class="st3" x1="1616.1" y1="559.6" x2="1619.9" y2="559.6"/>
	</g>
	<g id="LINE_172_2">
		<line class="st3" x1="1616.1" y1="559.6" x2="1638.3" y2="559.6"/>
	</g>
	<g id="LINE_171_2">
		<line class="st3" x1="1639.8" y1="559.6" x2="1662.1" y2="559.6"/>
	</g>
	<g id="LINE_170_2">
		<line class="st3" x1="1616.1" y1="563" x2="1629.4" y2="563"/>
	</g>
	<g id="LINE_169_2">
		<line class="st3" x1="1616.1" y1="563" x2="1638.3" y2="563"/>
	</g>
	<g id="LINE_168_2">
		<line class="st3" x1="1639.8" y1="563" x2="1662.1" y2="563"/>
	</g>
	<g id="LINE_167_2">
		<line class="st3" x1="1616.1" y1="566.9" x2="1638.3" y2="566.9"/>
	</g>
	<g id="LINE_156_2">
		<line class="st3" x1="1639.8" y1="566.9" x2="1662.1" y2="566.9"/>
	</g>
	<g id="LINE_155_2">
		<line class="st3" x1="1616.1" y1="570.5" x2="1662.1" y2="570.5"/>
	</g>
	<g id="LINE_154_2">
		<line class="st3" x1="1638.3" y1="525.1" x2="1638.3" y2="570.5"/>
	</g>
	<g id="LINE_153_2">
		<line class="st3" x1="1639.8" y1="525.1" x2="1639.8" y2="570.5"/>
	</g>
	<g id="LINE_129_2">
		<line class="st3" x1="1897.8" y1="572.6" x2="1916.4" y2="572.6"/>
	</g>
	<g id="LINE_128_2">
		<line class="st3" x1="1897.8" y1="569.2" x2="1916.4" y2="569.2"/>
	</g>
	<g id="LINE_127_2">
		<line class="st3" x1="1897.8" y1="565.4" x2="1916.4" y2="565.4"/>
	</g>
	<g id="LINE_126_2">
		<line class="st3" x1="1897.8" y1="562" x2="1916.4" y2="562"/>
	</g>
	<g id="LINE_30_2">
		<line class="st3" x1="1897.8" y1="558.2" x2="1916.4" y2="558.2"/>
	</g>
	<g id="LINE_29_2">
		<line class="st3" x1="1897.8" y1="554.1" x2="1916.4" y2="554.1"/>
	</g>
	<g id="LINE_28_2">
		<line class="st3" x1="1897.8" y1="548.8" x2="1916.4" y2="548.8"/>
	</g>
	<g id="LINE_27_2">
		<line class="st3" x1="1897.8" y1="545.4" x2="1916.4" y2="545.4"/>
	</g>
	<g id="LINE_26_2">
		<line class="st3" x1="1897.8" y1="541.8" x2="1916.4" y2="541.8"/>
	</g>
	<g id="LINE_25_2">
		<line class="st3" x1="1897.8" y1="538.7" x2="1916.4" y2="538.7"/>
	</g>
	<g id="LINE_24_2">
		<line class="st3" x1="1897.8" y1="535.3" x2="1916.4" y2="535.3"/>
	</g>
	<g id="LINE_23_2">
		<line class="st3" x1="1662.1" y1="525.1" x2="1662.1" y2="570.5"/>
	</g>
</g>
<g id="A_x5F_Doors2">
	<g id="door2-A201">
		<polyline class="st0" points="452.9,492.7 452.9,496.9 423.9,496.9 423.9,492.7 452.9,492.7"/>
	</g>
	<g id="door2-A210">
		<polyline class="st0" points="498.3,492.7 498.3,496.9 477.1,496.9 477.1,492.7 498.3,492.7"/>
	</g>
	<g id="door2-A208">
		<polyline class="st0" points="648.1,492.7 648.1,496.9 627.1,496.9 627.1,492.7 648.1,492.7"/>
	</g>
	<g id="door2-A207">
		<polyline class="st0" points="722.5,492.7 722.5,496.9 701.5,496.9 701.5,492.7 722.5,492.7"/>
	</g>
	<g id="door2-A206">
		<polyline class="st0" points="797.1,492.7 797.1,496.9 776.1,496.9 776.1,492.7 797.1,492.7"/>
	</g>
	<g id="door2-A205">
		<polyline class="st0" points="868.5,492.7 868.5,496.9 847.6,496.9 847.6,492.7 868.5,492.7"/>
	</g>
	<g id="door2-A204">
		<polyline class="st0" points="948.2,492.7 948.2,496.9 927.2,496.9 927.2,492.7 948.2,492.7"/>
	</g>
	<g>
		<polyline class="st0" points="1025.4,492.7 1025.4,496.9 996.6,496.9 996.6,492.7 1025.4,492.7"/>
	</g>
	<g id="door2-A211">
		<polyline class="st0" points="447.2,457.9 447.2,460.9 426.2,460.9 426.2,457.9 447.2,457.9"/>
	</g>
	<g id="door2-A212">
		<polyline class="st0" points="501,457.9 501,460.9 479.8,460.9 479.8,457.9 501,457.9"/>
	</g>
	<g id="door2-A213">
		<polyline class="st0" points="566.5,457.9 566.5,460.9 545.5,460.9 545.5,457.9 566.5,457.9"/>
	</g>
	<g id="door2-A214">
		<polyline class="st0" points="671,457.9 671,460.9 650,460.9 650,457.9 671,457.9"/>
	</g>
	<g id="door2-A215">
		<polyline class="st0" points="745.6,457.9 745.6,460.9 724.4,460.9 724.4,457.9 745.6,457.9"/>
	</g>
	<g id="door2-A216">
		<polyline class="st0" points="827.4,457.9 827.4,460.9 806.4,460.9 806.4,457.9 827.4,457.9"/>
	</g>
	<g id="door2-A2051">
		<polyline class="st0" points="968.6,457.9 968.6,460.9 947.4,460.9 947.4,457.9 968.6,457.9"/>
	</g>
	<g >
		<polyline class="st0" points="945.9,526.4 945.9,529.1 929.6,529.1 929.6,526.4 945.9,526.4"/>
	</g>
	<g id="door2-A203">
		<polyline class="st0" points="988.1,464.5 988.1,484.4 985.3,484.4 985.3,464.5 988.1,464.5"/>
	</g>
	<g id="door2-A202">
		<polyline class="st0" points="924.7,579.8 924.7,589.1 922.2,589.1 922.2,579.8 924.7,579.8"/>
	</g>
	<g id="door2-A2011">
		<polyline class="st0" points="922.2,578.7 924.7,578.7 924.7,569.4 922.2,569.4 922.2,578.7"/>
	</g>
	<g id="door2-A220">
		<polyline class="st0" points="924.7,558.8 924.7,567.9 922.2,567.9 922.2,558.8 924.7,558.8"/>
	</g>
	<g id="door2-A221">
		<polyline class="st0" points="924.7,546.5 924.7,555.8 922.2,555.8 922.2,546.5 924.7,546.5"/>
	</g>
	<g id="door2-A222">
		<polyline class="st0" points="924.7,533.4 924.7,542.5 922.2,542.5 922.2,533.4 924.7,533.4"/>
	</g>
	<g id="door2-A223">
		<polyline class="st0" points="1058.4,579.8 1058.4,589.1 1055.7,589.1 1055.7,579.8 1058.4,579.8"/>
	</g>
	<g id="ACAD_x5F_PROXY_x5F_ENTITY_177_2">
		<polyline class="st0" points="1058.4,569.4 1058.4,578.7 1055.7,578.7 1055.7,569.4 1058.4,569.4"/>
	</g>
	<g id="ACAD_x5F_PROXY_x5F_ENTITY_178_2">
		<polyline class="st0" points="1058.4,558.8 1058.4,567.9 1055.7,567.9 1055.7,558.8 1058.4,558.8"/>
	</g>
	<g id="ACAD_x5F_PROXY_x5F_ENTITY_179_2">
		<polyline class="st0" points="1058.4,546.5 1058.4,555.8 1055.7,555.8 1055.7,546.5 1058.4,546.5"/>
	</g>
	<g id="ACAD_x5F_PROXY_x5F_ENTITY_180_2">
		<polyline class="st0" points="1058.4,533.4 1058.4,542.5 1055.7,542.5 1055.7,533.4 1058.4,533.4"/>
	</g>
	<g id="ACAD_x5F_PROXY_x5F_ENTITY_183_2">
		<polyline class="st0" points="1095.5,579.8 1095.5,589.1 1092.8,589.1 1092.8,579.8 1095.5,579.8"/>
	</g>
	<g id="ACAD_x5F_PROXY_x5F_ENTITY_184_2">
		<polyline class="st0" points="1095.5,569.4 1095.5,578.7 1092.8,578.7 1092.8,569.4 1095.5,569.4"/>
	</g>
	<g id="ACAD_x5F_PROXY_x5F_ENTITY_185_2">
		<polyline class="st0" points="1095.5,558.8 1095.5,567.9 1092.8,567.9 1092.8,558.8 1095.5,558.8"/>
	</g>
	<g id="ACAD_x5F_PROXY_x5F_ENTITY_186_2">
		<polyline class="st0" points="1095.5,546.5 1095.5,555.8 1092.8,555.8 1092.8,546.5 1095.5,546.5"/>
	</g>
	<g id="ACAD_x5F_PROXY_x5F_ENTITY_187_2">
		<polyline class="st0" points="1095.5,533.4 1095.5,542.5 1092.8,542.5 1092.8,533.4 1095.5,533.4"/>
	</g>
	<g id="ACAD_x5F_PROXY_x5F_ENTITY_188_2">
		<polyline class="st0" points="1080.1,526.4 1080.1,528.9 1064,528.9 1064,526.4 1080.1,526.4"/>
	</g>
	<g id="ACAD_x5F_PROXY_x5F_ENTITY_189_2">
		<polyline class="st0" points="1084.9,492.7 1084.9,496.9 1065,496.9 1065,492.7 1084.9,492.7"/>
	</g>
	<g id="door2-A209">
		<polyline class="st0" points="571.8,492.7 571.8,496.9 551.7,496.9 551.7,492.7 571.8,492.7"/>
	</g>
	<g id="ACAD_x5F_PROXY_x5F_ENTITY_1_2">
		<polyline class="st0" points="898.2,457.9 898.2,460.9 877,460.9 877,457.9 898.2,457.9"/>
	</g>
	<line class="st2" x1="935.7" y1="496.9" x2="956.7" y2="496.9"/>
	<g id="ACAD_x5F_PROXY_x5F_ENTITY_37_2">
		<polyline class="st1" points="1383.6,496.9 1401,496.9 1401,492.7 1383.6,492.7 1383.6,496.9"/>
	</g>
	<g id="ACAD_x5F_PROXY_x5F_ENTITY_36_2">
		<polyline class="st1" points="1447.2,496.9 1464.5,496.9 1464.5,492.7 1447.2,492.7 1447.2,496.9"/>
	</g>
	<g id="ACAD_x5F_PROXY_x5F_ENTITY_35_2">
		<polyline class="st1" points="1628.6,496.9 1652.3,496.9 1652.3,492.7 1628.6,492.7 1628.6,496.9"/>
	</g>
	<g id="door2-A219_1_">
		<polyline class="st1" points="1126.7,496.9 1144.5,496.9 1144.5,492.7 1126.7,492.7 1126.7,496.9"/>
	</g>
	<g id="ACAD_x5F_PROXY_x5F_ENTITY_33_2">
		<polyline class="st1" points="1595.1,496.9 1610.8,496.9 1610.8,492.7 1595.1,492.7 1595.1,496.9"/>
	</g>
	<g id="ACAD_x5F_PROXY_x5F_ENTITY_32_2">
		<polyline class="st1" points="1676.9,496.9 1696.4,496.9 1696.4,492.7 1676.9,492.7 1676.9,496.9"/>
	</g>
	<g id="ACAD_x5F_PROXY_x5F_ENTITY_31_2">
		<polyline class="st1" points="1746.6,496.9 1765.9,496.9 1765.9,492.7 1746.6,492.7 1746.6,496.9"/>
	</g>
	<g id="ACAD_x5F_PROXY_x5F_ENTITY_30_2">
		<polyline class="st1" points="1900.1,496.9 1916.4,496.9 1916.4,492.7 1900.1,492.7 1900.1,496.9"/>
	</g>
	<g id="ACAD_x5F_PROXY_x5F_ENTITY_29_2">
		<polyline class="st1" points="1734.8,592.5 1737.7,592.5 1737.7,576.2 1734.8,576.2 1734.8,592.5"/>
	</g>
	<g id="ACAD_x5F_PROXY_x5F_ENTITY_166_2">
		<polyline class="st1" points="1734.8,520 1737.7,520 1737.7,503.9 1734.8,503.9 1734.8,520"/>
	</g>
	<g id="ACAD_x5F_PROXY_x5F_ENTITY_167_2">
		<polyline class="st1" points="1432.1,592.5 1435.3,592.5 1435.3,576.2 1432.1,576.2 1432.1,592.5"/>
	</g>
	<g id="ACAD_x5F_PROXY_x5F_ENTITY_168_2">
		<polyline class="st1" points="1432.1,520 1435.3,520 1435.3,503.7 1432.1,503.7 1432.1,520"/>
	</g>
	<g id="ACAD_x5F_PROXY_x5F_ENTITY_28_2">
		<polyline class="st1" points="1181.2,592.5 1184.1,592.5 1184.1,576.2 1181.2,576.2 1181.2,592.5"/>
	</g>
	<g id="ACAD_x5F_PROXY_x5F_ENTITY_27_2">
		<polyline class="st1" points="1181.2,520.9 1184.1,520.9 1184.1,504.8 1181.2,504.8 1181.2,520.9"/>
	</g>
	<g id="ACAD_x5F_PROXY_x5F_ENTITY_26_2">
		<polyline class="st1" points="1181.2,470.6 1183.7,470.6 1183.7,451.3 1181.2,451.3 1181.2,470.6"/>
	</g>
	<g id="ACAD_x5F_PROXY_x5F_ENTITY_25_2">
		<polyline class="st1" points="1181.2,447.1 1183.9,447.1 1183.9,427.8 1181.2,427.8 1181.2,447.1"/>
	</g>
	<g id="ACAD_x5F_PROXY_x5F_ENTITY_24_2">
		<polyline class="st1" points="1349.4,496.9 1365.6,496.9 1365.6,492.7 1349.4,492.7 1349.4,496.9"/>
	</g>
	<line class="st2" x1="935.7" y1="496.9" x2="956.7" y2="496.9"/>
</g>
<g id="A_x5F_Windows2">
	<g id="ACAD_x5F_PROXY_x5F_ENTITY_143_2">
		<polyline class="st0" points="535.8,404.5 535.8,408.5 471.8,408.5 471.8,404.5 535.8,404.5"/>
	</g>
	<g id="ACAD_x5F_PROXY_x5F_ENTITY_144_2">
		<polyline class="st0" points="610.4,404.5 610.4,408.5 543.6,408.5 543.6,404.5 610.4,404.5"/>
	</g>
	<g id="ACAD_x5F_PROXY_x5F_ENTITY_145_2">
		<polyline class="st0" points="683.3,404.5 683.3,408.5 618.2,408.5 618.2,404.5 683.3,404.5"/>
	</g>
	<g id="ACAD_x5F_PROXY_x5F_ENTITY_146_2">
		<polyline class="st0" points="757.9,404.5 757.9,408.5 691.1,408.5 691.1,404.5 757.9,404.5"/>
	</g>
	<g id="ACAD_x5F_PROXY_x5F_ENTITY_147_2">
		<polyline class="st0" points="831.9,404.5 831.9,408.5 765.7,408.5 765.7,404.5 831.9,404.5"/>
	</g>
	<g id="ACAD_x5F_PROXY_x5F_ENTITY_148_2">
		<polyline class="st0" points="903.7,404.5 903.7,408.5 839.9,408.5 839.9,404.5 903.7,404.5"/>
	</g>
	<g id="ACAD_x5F_PROXY_x5F_ENTITY_149_2">
		<polyline class="st0" points="980.2,404.5 980.2,408.5 911.8,408.5 911.8,404.5 980.2,404.5"/>
	</g>
	<g id="ACAD_x5F_PROXY_x5F_ENTITY_150_2">
		<polyline class="st0" points="1037.5,404.5 1037.5,408.5 988.1,408.5 988.1,404.5 1037.5,404.5"/>
	</g>
	<g id="ACAD_x5F_PROXY_x5F_ENTITY_151_2">
		<polyline class="st0" points="1109.3,404.5 1109.3,408.5 1045.3,408.5 1045.3,404.5 1109.3,404.5"/>
	</g>
	<g id="ACAD_x5F_PROXY_x5F_ENTITY_152_2">
		<polyline class="st0" points="535.8,603.3 535.8,607.3 471.8,607.3 471.8,603.3 535.8,603.3"/>
	</g>
	<g id="ACAD_x5F_PROXY_x5F_ENTITY_153_2">
		<polyline class="st0" points="610.4,603.3 610.4,607.3 543.6,607.3 543.6,603.3 610.4,603.3"/>
	</g>
	<g id="ACAD_x5F_PROXY_x5F_ENTITY_154_2">
		<polyline class="st0" points="683.3,603.3 683.3,607.3 618.2,607.3 618.2,603.3 683.3,603.3"/>
	</g>
	<g id="ACAD_x5F_PROXY_x5F_ENTITY_155_2">
		<polyline class="st0" points="757.9,603.3 757.9,607.3 691.1,607.3 691.1,603.3 757.9,603.3"/>
	</g>
	<g id="ACAD_x5F_PROXY_x5F_ENTITY_156_2">
		<polyline class="st0" points="831.9,603.3 831.9,607.3 765.7,607.3 765.7,603.3 831.9,603.3"/>
	</g>
	<g id="ACAD_x5F_PROXY_x5F_ENTITY_157_2">
		<polyline class="st0" points="903.7,603.3 903.7,607.3 839.9,607.3 839.9,603.3 903.7,603.3"/>
	</g>
	<g id="ACAD_x5F_PROXY_x5F_ENTITY_158_2">
		<polyline class="st0" points="980.2,603.3 980.2,607.3 911.8,607.3 911.8,603.3 980.2,603.3"/>
	</g>
	<g id="ACAD_x5F_PROXY_x5F_ENTITY_159_2">
		<polyline class="st0" points="1035.1,603.3 1035.1,607.3 988.1,607.3 988.1,603.3 1035.1,603.3"/>
	</g>
	<g id="ACAD_x5F_PROXY_x5F_ENTITY_160_2">
		<polyline class="st0" points="1261.1,603.3 1261.1,607.3 1114,607.3 1114,603.3 1261.1,603.3"/>
	</g>
	<g id="ACAD_x5F_PROXY_x5F_ENTITY_163_2">
		<polyline class="st0" points="1105.9,603.3 1105.9,607.3 1041.7,607.3 1041.7,603.3 1105.9,603.3"/>
	</g>
	<g id="ACAD_x5F_PROXY_x5F_ENTITY_191_2">
		<polyline class="st0" points="412.2,460.9 412.2,488.2 408.2,488.2 408.2,460.9 412.2,460.9"/>
	</g>
	<g id="ACAD_x5F_PROXY_x5F_ENTITY_192_2">
		<polyline class="st0" points="412.2,500.9 412.2,526.8 408.2,526.8 408.2,500.9 412.2,500.9"/>
	</g>
	<g id="ACAD_x5F_PROXY_x5F_ENTITY_89_2">
		<polyline class="st1" points="1114,408.5 1176.5,408.5 1176.5,404.7 1114,404.7 1114,408.5"/>
	</g>
	<g id="ACAD_x5F_PROXY_x5F_ENTITY_88_2">
		<polyline class="st1" points="1183.7,408.5 1250.5,408.5 1250.5,404.7 1183.7,404.7 1183.7,408.5"/>
	</g>
	<g id="ACAD_x5F_PROXY_x5F_ENTITY_87_2">
		<polyline class="st1" points="1257.9,408.5 1304.1,408.5 1304.1,404.7 1257.9,404.7 1257.9,408.5"/>
	</g>
	<g id="ACAD_x5F_PROXY_x5F_ENTITY_86_2">
		<polyline class="st1" points="1311.5,408.5 1359.8,408.5 1359.8,404.7 1311.5,404.7 1311.5,408.5"/>
	</g>
	<g id="ACAD_x5F_PROXY_x5F_ENTITY_85_2">
		<polyline class="st1" points="1367.3,408.5 1430,408.5 1430,404.7 1367.3,404.7 1367.3,408.5"/>
	</g>
	<g id="ACAD_x5F_PROXY_x5F_ENTITY_84_2">
		<polyline class="st1" points="1437.2,408.5 1480.6,408.5 1480.6,404.7 1437.2,404.7 1437.2,408.5"/>
	</g>
	<g id="ACAD_x5F_PROXY_x5F_ENTITY_83_2">
		<polyline class="st1" points="1488.1,408.5 1534.3,408.5 1534.3,404.7 1488.1,404.7 1488.1,408.5"/>
	</g>
	<g id="ACAD_x5F_PROXY_x5F_ENTITY_82_2">
		<polyline class="st1" points="1541.7,408.5 1605.9,408.5 1605.9,404.7 1541.7,404.7 1541.7,408.5"/>
	</g>
	<g id="ACAD_x5F_PROXY_x5F_ENTITY_64_2">
		<polyline class="st1" points="1613.3,607.3 1659.5,607.3 1659.5,603.3 1613.3,603.3 1613.3,607.3"/>
	</g>
	<g id="ACAD_x5F_PROXY_x5F_ENTITY_81_2">
		<polyline class="st1" points="1613.3,408.5 1659.3,408.5 1659.3,404.7 1613.3,404.7 1613.3,408.5"/>
	</g>
	<g id="ACAD_x5F_PROXY_x5F_ENTITY_80_2">
		<polyline class="st1" points="1666.7,408.5 1732.4,408.5 1732.4,404.7 1666.7,404.7 1666.7,408.5"/>
	</g>
	<g id="ACAD_x5F_PROXY_x5F_ENTITY_79_2">
		<polyline class="st1" points="1739.6,408.5 1787.8,408.5 1787.8,404.7 1739.6,404.7 1739.6,408.5"/>
	</g>
	<g id="ACAD_x5F_PROXY_x5F_ENTITY_78_2">
		<polyline class="st1" points="1795,408.5 1841.4,408.5 1841.4,404.7 1795,404.7 1795,408.5"/>
	</g>
	<g id="ACAD_x5F_PROXY_x5F_ENTITY_77_2">
		<polyline class="st1" points="1848.6,408.5 1908.6,408.5 1908.6,404.7 1848.6,404.7 1848.6,408.5"/>
	</g>
	<g id="ACAD_x5F_PROXY_x5F_ENTITY_76_2">
		<polyline class="st1" points="1114,607.3 1176.5,607.3 1176.5,603.3 1114,603.3 1114,607.3"/>
	</g>
	<g id="ACAD_x5F_PROXY_x5F_ENTITY_75_2">
		<polyline class="st1" points="1183.9,607.3 1250.7,607.3 1250.7,603.3 1183.9,603.3 1183.9,607.3"/>
	</g>
	<g id="ACAD_x5F_PROXY_x5F_ENTITY_74_2">
		<polyline class="st1" points="1257.9,607.3 1304.3,607.3 1304.3,603.3 1257.9,603.3 1257.9,607.3"/>
	</g>
	<g id="ACAD_x5F_PROXY_x5F_ENTITY_73_2">
		<polyline class="st1" points="1311.5,607.3 1359.8,607.3 1359.8,603.3 1311.5,603.3 1311.5,607.3"/>
	</g>
	<g id="ACAD_x5F_PROXY_x5F_ENTITY_72_2">
		<polyline class="st1" points="1367.3,607.3 1430,607.3 1430,603.3 1367.3,603.3 1367.3,607.3"/>
	</g>
	<g id="ACAD_x5F_PROXY_x5F_ENTITY_71_2">
		<polyline class="st1" points="1437.4,607.3 1480.9,607.3 1480.9,603.3 1437.4,603.3 1437.4,607.3"/>
	</g>
	<g id="ACAD_x5F_PROXY_x5F_ENTITY_70_2">
		<polyline class="st1" points="1488.1,607.3 1534.3,607.3 1534.3,603.3 1488.1,603.3 1488.1,607.3"/>
	</g>
	<g id="ACAD_x5F_PROXY_x5F_ENTITY_69_2">
		<polyline class="st1" points="1541.7,607.3 1605.9,607.3 1605.9,603.3 1541.7,603.3 1541.7,607.3"/>
	</g>
	<g id="ACAD_x5F_PROXY_x5F_ENTITY_68_2">
		<polyline class="st1" points="1666.7,607.3 1732.4,607.3 1732.4,603.3 1666.7,603.3 1666.7,607.3"/>
	</g>
	<g id="ACAD_x5F_PROXY_x5F_ENTITY_67_2">
		<polyline class="st1" points="1739.9,607.3 1787.8,607.3 1787.8,603.3 1739.9,603.3 1739.9,607.3"/>
	</g>
	<g id="ACAD_x5F_PROXY_x5F_ENTITY_66_2">
		<polyline class="st1" points="1795.2,607.3 1841.4,607.3 1841.4,603.3 1795.2,603.3 1795.2,607.3"/>
	</g>
	<g id="ACAD_x5F_PROXY_x5F_ENTITY_65_2">
		<polyline class="st1" points="1848.8,607.3 1908.8,607.3 1908.8,603.3 1848.8,603.3 1848.8,607.3"/>
	</g>
</g>
<g id="toilet2">
	<g id="LWPOLYLINE_146_2">
		<path class="st4" d="M1040,563v6.4h9.5c1.9,0,3.4-1.3,3.6-3c0-1.7-1.3-3.2-3.2-3.4c-0.2,0-0.2,0-0.4,0H1040z"/>
	</g>
	<g id="LWPOLYLINE_147_2">
		<path class="st4" d="M1042.8,563.7v5.3h7c1.5,0,3-1.1,3-2.5c0-1.5-1.1-2.8-2.5-2.8h-0.2H1042.8z"/>
	</g>
	<g id="LWPOLYLINE_148_2">
		<line class="st5" x1="1042.1" y1="563" x2="1042.1" y2="569.4"/>
	</g>
	<g id="CIRCLE_14_2">
		<path class="st4" d="M1048.9,566.2c0-0.6,0.4-1.1,1.1-1.1c0.6,0,1.1,0.4,1.1,1.1c0,0.6-0.4,1.1-1.1,1.1
			C1049.5,567.3,1048.9,566.9,1048.9,566.2L1048.9,566.2z"/>
	</g>
	<g id="LWPOLYLINE_149_2">
		<path class="st4" d="M1040,572.8v6.4h9.5c1.9,0,3.4-1.3,3.6-3c0-1.7-1.3-3.2-3.2-3.4c-0.2,0-0.2,0-0.4,0H1040z"/>
	</g>
	<g id="LWPOLYLINE_150_2">
		<path class="st4" d="M1042.8,573.2v5.3h7c1.5,0,3-1.1,3-2.5c0-1.5-1.1-2.8-2.5-2.8h-0.2H1042.8z"/>
	</g>
	<g id="LWPOLYLINE_151_2">
		<line class="st5" x1="1042.1" y1="572.8" x2="1042.1" y2="578.9"/>
	</g>
	<g id="CIRCLE_15_2">
		<path class="st4" d="M1048.9,575.8c0-0.6,0.4-1.1,1.1-1.1c0.6,0,1.1,0.4,1.1,1.1c0,0.6-0.4,1.1-1.1,1.1
			C1049.5,576.8,1048.9,576.4,1048.9,575.8L1048.9,575.8z"/>
	</g>
	<g id="LWPOLYLINE_152_2">
		<path class="st4" d="M1040,582.7v6.4h9.5c1.9,0,3.4-1.3,3.6-3c0-1.7-1.3-3.2-3.2-3.4c-0.2,0-0.2,0-0.4,0H1040z"/>
	</g>
	<g id="LWPOLYLINE_153_2">
		<path class="st4" d="M1042.8,583.4v5.3h7c1.5,0,3-1.1,3-2.5c0-1.5-1.1-2.8-2.5-2.8h-0.2H1042.8z"/>
	</g>
	<g id="LWPOLYLINE_154_2">
		<line class="st5" x1="1042.1" y1="582.7" x2="1042.1" y2="589.1"/>
	</g>
	<g id="CIRCLE_16_2">
		<path class="st4" d="M1048.9,585.9c0-0.6,0.4-1.1,1.1-1.1c0.6,0,1.1,0.4,1.1,1.1s-0.4,1.1-1.1,1.1
			C1049.5,587,1048.9,586.6,1048.9,585.9L1048.9,585.9z"/>
	</g>
	<g id="LWPOLYLINE_155_2">
		<path class="st4" d="M1040,539.1v6.4h9.5c1.9,0,3.4-1.3,3.6-3c0-1.7-1.3-3.2-3.2-3.4c-0.2,0-0.2,0-0.4,0H1040z"/>
	</g>
	<g id="LWPOLYLINE_156_2">
		<path class="st4" d="M1042.8,539.5v5.3h7c1.5,0,3-1.1,3-2.5c0-1.5-1.1-2.8-2.5-2.8h-0.2H1042.8z"/>
	</g>
	<g id="LWPOLYLINE_157_2">
		<line class="st5" x1="1042.1" y1="539.1" x2="1042.1" y2="545.2"/>
	</g>
	<g id="CIRCLE_17_2">
		<path class="st4" d="M1048.9,542.1c0-0.6,0.4-1.1,1.1-1.1c0.6,0,1.1,0.4,1.1,1.1c0,0.6-0.4,1.1-1.1,1.1
			C1049.5,543.3,1048.9,542.7,1048.9,542.1L1048.9,542.1z"/>
	</g>
	<g id="LWPOLYLINE_158_2">
		<path class="st4" d="M1040,552.9v6.4h9.5c1.9,0,3.4-1.3,3.6-3c0-1.7-1.3-3.2-3.2-3.4c-0.2,0-0.2,0-0.4,0H1040z"/>
	</g>
	<g id="LWPOLYLINE_159_2">
		<path class="st4" d="M1042.8,553.5v5.3h7c1.5,0,3-1.1,3-2.5c0-1.5-1.1-2.8-2.5-2.8h-0.2H1042.8z"/>
	</g>
	<g id="LWPOLYLINE_160_2">
		<line class="st5" x1="1042.1" y1="552.9" x2="1042.1" y2="559.2"/>
	</g>
	<g id="CIRCLE_18_2">
		<path class="st4" d="M1048.9,556c0-0.6,0.4-1.1,1.1-1.1c0.6,0,1.1,0.4,1.1,1.1s-0.4,1.1-1.1,1.1
			C1049.5,557.1,1048.9,556.7,1048.9,556L1048.9,556z"/>
	</g>
	<g id="LWPOLYLINE_161_2">
		<path class="st4" d="M1111.2,563v6.4h-9.5c-0.2,0-0.2,0-0.4,0c-1.9,0-3.4-1.5-3.2-3.4c0.2-1.9,1.7-3,3.6-3H1111.2z"/>
	</g>
	<g id="LWPOLYLINE_162_2">
		<path class="st4" d="M1108.5,563.7v5.3h-7h-0.2c-1.5,0-2.8-1.3-2.5-2.8c0-1.5,1.5-2.5,3-2.5H1108.5z"/>
	</g>
	<g id="LWPOLYLINE_163_2">
		<line class="st5" x1="1109.3" y1="563" x2="1109.3" y2="569.4"/>
	</g>
	<g id="CIRCLE_19_2">
		<path class="st4" d="M1100,566.2c0-0.6,0.4-1.1,1.1-1.1c0.6,0,1.1,0.4,1.1,1.1c0,0.6-0.4,1.1-1.1,1.1
			C1100.4,567.3,1100,566.9,1100,566.2L1100,566.2z"/>
	</g>
	<g id="LWPOLYLINE_164_2">
		<path class="st4" d="M1111.2,572.8v6.4h-9.5c-0.2,0-0.2,0-0.4,0c-1.9,0-3.4-1.5-3.2-3.4c0.2-1.9,1.7-3,3.6-3H1111.2z"/>
	</g>
	<g id="LWPOLYLINE_165_2">
		<path class="st4" d="M1108.5,573.2v5.3h-7h-0.2c-1.5,0-2.8-1.3-2.5-2.8c0-1.5,1.5-2.5,3-2.5H1108.5z"/>
	</g>
	<g id="LWPOLYLINE_166_2">
		<line class="st5" x1="1109.3" y1="572.8" x2="1109.3" y2="578.9"/>
	</g>
	<g id="CIRCLE_20_2">
		<path class="st4" d="M1100,575.8c0-0.6,0.4-1.1,1.1-1.1c0.6,0,1.1,0.4,1.1,1.1c0,0.6-0.4,1.1-1.1,1.1
			C1100.4,576.8,1100,576.4,1100,575.8L1100,575.8z"/>
	</g>
	<g id="LWPOLYLINE_167_2">
		<path class="st4" d="M1111.2,582.7v6.4h-9.5c-0.2,0-0.2,0-0.4,0c-1.9,0-3.4-1.5-3.2-3.4c0.2-1.9,1.7-3,3.6-3H1111.2z"/>
	</g>
	<g id="LWPOLYLINE_168_2">
		<path class="st4" d="M1108.5,583.4v5.3h-7h-0.2c-1.5,0-2.8-1.3-2.5-2.8c0-1.5,1.5-2.5,3-2.5H1108.5z"/>
	</g>
	<g id="LWPOLYLINE_169_2">
		<line class="st5" x1="1109.3" y1="582.7" x2="1109.3" y2="589.1"/>
	</g>
	<g id="CIRCLE_21_2">
		<path class="st4" d="M1100,585.9c0-0.6,0.4-1.1,1.1-1.1c0.6,0,1.1,0.4,1.1,1.1s-0.4,1.1-1.1,1.1C1100.4,587,1100,586.6,1100,585.9
			L1100,585.9z"/>
	</g>
	<g id="LWPOLYLINE_170_2">
		<path class="st4" d="M1111.2,539.1v6.4h-9.5c-0.2,0-0.2,0-0.4,0c-1.9,0-3.4-1.5-3.2-3.4c0.2-1.9,1.7-3,3.6-3H1111.2z"/>
	</g>
	<g id="LWPOLYLINE_171_2">
		<path class="st4" d="M1108.5,539.5v5.3h-7h-0.2c-1.5,0-2.8-1.3-2.5-2.8c0-1.5,1.5-2.5,3-2.5H1108.5z"/>
	</g>
	<g id="LWPOLYLINE_172_2">
		<line class="st5" x1="1109.3" y1="539.1" x2="1109.3" y2="545.2"/>
	</g>
	<g id="CIRCLE_22_2">
		<path class="st4" d="M1100,542.1c0-0.6,0.4-1.1,1.1-1.1c0.6,0,1.1,0.4,1.1,1.1c0,0.6-0.4,1.1-1.1,1.1
			C1100.4,543.1,1100,542.7,1100,542.1L1100,542.1z"/>
	</g>
	<g id="LWPOLYLINE_173_2">
		<path class="st4" d="M1111.2,552.9v6.4h-9.5c-0.2,0-0.2,0-0.4,0c-1.9,0-3.4-1.5-3.2-3.4c0.2-1.9,1.7-3,3.6-3H1111.2z"/>
	</g>
	<g id="LWPOLYLINE_174_2">
		<path class="st4" d="M1108.5,553.5v5.3h-7h-0.2c-1.5,0-2.8-1.3-2.5-2.8c0-1.5,1.5-2.5,3-2.5H1108.5z"/>
	</g>
	<g id="LWPOLYLINE_175_2">
		<line class="st5" x1="1109.3" y1="552.9" x2="1109.3" y2="559.2"/>
	</g>
	<g id="CIRCLE_23_2">
		<path class="st4" d="M1100,556c0-0.6,0.4-1.1,1.1-1.1c0.6,0,1.1,0.4,1.1,1.1s-0.4,1.1-1.1,1.1C1100.4,557.1,1100,556.7,1100,556
			L1100,556z"/>
	</g>
</g>
<g id="Audit2" class="auditories">
	<rect id="A2192" x="1114" y="496.9" class="st0" width="252.6" height="104.1"/>
	<rect id="A2182" x="906.5" y="410.9" class="st0" width="79.1" height="47.3"/>
	<rect id="A2172" x="834.6" y="410.9" class="st0" width="69.1" height="47.3"/>
	<rect id="A2162" x="760.4" y="410.9" class="st0" width="71.4" height="47.3"/>
	<rect id="A2152" x="685.8" y="410.9" class="st0" width="71.9" height="47.3"/>
	<rect id="A2142" x="612.9" y="410.9" class="st0" width="70.4" height="47.3"/>
	<rect id="A2132" x="538.3" y="410.9" class="st0" width="71.9" height="47.3"/>
	<rect id="A2122" x="466" y="410.9" class="st0" width="69.7" height="47.3"/>
	<rect id="A2112" x="413.1" y="410.9" class="st0" width="50.2" height="47.3"/>
	<rect id="A2102" x="466" y="496.9" class="st0" width="69.7" height="104.1"/>
	<rect id="A2092" x="538.3" y="496.9" class="st0" width="71.9" height="104.1"/>
	<rect id="A2082" x="612.9" y="496.9" class="st0" width="70.4" height="104.1"/>
	<rect id="A2072" x="685.8" y="496.9" class="st0" width="74.6" height="104.1"/>
	<rect id="A2062" x="763.6" y="496.9" class="st0" width="68.5" height="104.1"/>
	<rect id="A2052" x="834.6" y="496.9" class="st0" width="69.1" height="104.1"/>
	<rect id="A2042" x="906.5" y="496.9" class="st0" width="76.5" height="104.1"/>
	<rect id="A2032" x="1040" y="496.9" class="st0" width="71.2" height="104.1"/>
	<rect id="A2022" x="988.1" y="496.9" class="st0" width="49.2" height="104.1"/>
	<rect id="A2012" x="413.1" y="496.9" class="st0" width="50.2" height="104.1"/>
	<rect id="A2202" x="1366.6" y="496.9" class="st0" width="65.5" height="104.1"/>
	<rect id="A2212" x="1435.3" y="496.9" class="st0" width="177.4" height="104.1"/>
	<rect id="A2222" x="1664.8" y="496.9" class="st0" width="70.2" height="104.1"/>
	<rect id="A2232" x="1737.7" y="496.9" class="st0" width="178.7" height="104.1"/>
</g>
</svg>
